# MagicaVoxel @ Ephtracy

# group
o 

# material
mtllib Hammer_lvl1.mtl
usemtl palette

# normals
vn -1 0 0
vn 1 0 0
vn 0 0 1
vn 0 0 -1
vn 0 -1 0
vn 0 1 0

# texcoords
vt 0.341797 0.5
vt 0.970703 0.5
vt 0.978516 0.5

# verts
v -0.2 1.4 0.3
v -0.2 1.4 0.2
v -0.2 1.4 -0.3
v -0.2 1.4 -0.4
v -0.2 1.5 0.3
v -0.2 1.5 0.2
v -0.2 1.5 -0.3
v -0.2 1.5 -0.4
v -0.0999999 1.3 0.3
v -0.0999999 1.3 0.1
v -0.0999999 1.3 -0.2
v -0.0999999 1.3 -0.4
v -0.0999999 1.4 0.3
v -0.0999999 1.4 0.2
v -0.0999999 1.4 -0.3
v -0.0999999 1.4 -0.4
v -0.0999999 1.5 0.3
v -0.0999999 1.5 0.2
v -0.0999999 1.5 -0.3
v -0.0999999 1.5 -0.4
v -0.0999999 1.6 0.3
v -0.0999999 1.6 0.1
v -0.0999999 1.6 -0.2
v -0.0999999 1.6 -0.4
v 5.96046e-08 0.4 -2.98023e-08
v 5.96046e-08 0.4 -0.1
v 5.96046e-08 1.1 0.1
v 5.96046e-08 1.1 -2.98023e-08
v 5.96046e-08 1.1 -0.1
v 5.96046e-08 1.1 -0.2
v 5.96046e-08 1.2 0.3
v 5.96046e-08 1.2 0.2
v 5.96046e-08 1.2 0.1
v 5.96046e-08 1.2 -2.98023e-08
v 5.96046e-08 1.2 -0.1
v 5.96046e-08 1.2 -0.2
v 5.96046e-08 1.2 -0.3
v 5.96046e-08 1.2 -0.4
v 5.96046e-08 1.3 0.3
v 5.96046e-08 1.3 0.2
v 5.96046e-08 1.3 -2.98023e-08
v 5.96046e-08 1.3 -0.1
v 5.96046e-08 1.3 -0.3
v 5.96046e-08 1.3 -0.4
v 5.96046e-08 1.4 0.1
v 5.96046e-08 1.4 -2.98023e-08
v 5.96046e-08 1.4 -0.1
v 5.96046e-08 1.4 -0.2
v 5.96046e-08 1.5 0.1
v 5.96046e-08 1.5 -2.98023e-08
v 5.96046e-08 1.5 -0.1
v 5.96046e-08 1.5 -0.2
v 5.96046e-08 1.6 0.3
v 5.96046e-08 1.6 0.2
v 5.96046e-08 1.6 -2.98023e-08
v 5.96046e-08 1.6 -0.1
v 5.96046e-08 1.6 -0.3
v 5.96046e-08 1.6 -0.4
v 5.96046e-08 1.7 0.3
v 5.96046e-08 1.7 0.2
v 5.96046e-08 1.7 -0.3
v 5.96046e-08 1.7 -0.4
v 0.1 0.4 -2.98023e-08
v 0.1 0.4 -0.1
v 0.1 1.1 0.1
v 0.1 1.1 -2.98023e-08
v 0.1 1.1 -0.1
v 0.1 1.1 -0.2
v 0.1 1.2 0.3
v 0.1 1.2 0.2
v 0.1 1.2 0.1
v 0.1 1.2 -2.98023e-08
v 0.1 1.2 -0.1
v 0.1 1.2 -0.2
v 0.1 1.2 -0.3
v 0.1 1.2 -0.4
v 0.1 1.3 0.3
v 0.1 1.3 0.2
v 0.1 1.3 -2.98023e-08
v 0.1 1.3 -0.1
v 0.1 1.3 -0.3
v 0.1 1.3 -0.4
v 0.1 1.4 0.1
v 0.1 1.4 -2.98023e-08
v 0.1 1.4 -0.1
v 0.1 1.4 -0.2
v 0.1 1.5 0.1
v 0.1 1.5 -2.98023e-08
v 0.1 1.5 -0.1
v 0.1 1.5 -0.2
v 0.1 1.6 0.3
v 0.1 1.6 0.2
v 0.1 1.6 -2.98023e-08
v 0.1 1.6 -0.1
v 0.1 1.6 -0.3
v 0.1 1.6 -0.4
v 0.1 1.7 0.3
v 0.1 1.7 0.2
v 0.1 1.7 -0.3
v 0.1 1.7 -0.4
v 0.2 1.3 0.3
v 0.2 1.3 0.1
v 0.2 1.3 -0.2
v 0.2 1.3 -0.4
v 0.2 1.4 0.3
v 0.2 1.4 0.2
v 0.2 1.4 -0.3
v 0.2 1.4 -0.4
v 0.2 1.5 0.3
v 0.2 1.5 0.2
v 0.2 1.5 -0.3
v 0.2 1.5 -0.4
v 0.2 1.6 0.3
v 0.2 1.6 0.1
v 0.2 1.6 -0.2
v 0.2 1.6 -0.4
v 0.3 1.4 0.3
v 0.3 1.4 0.2
v 0.3 1.4 -0.3
v 0.3 1.4 -0.4
v 0.3 1.5 0.3
v 0.3 1.5 0.2
v 0.3 1.5 -0.3
v 0.3 1.5 -0.4
v -0.2 1.4 0.3
v -0.2 1.5 0.3
v -0.0999999 1.3 0.3
v -0.0999999 1.4 0.3
v -0.0999999 1.5 0.3
v -0.0999999 1.6 0.3
v 5.96046e-08 1.2 0.3
v 5.96046e-08 1.3 0.3
v 5.96046e-08 1.6 0.3
v 5.96046e-08 1.7 0.3
v 0.1 1.2 0.3
v 0.1 1.3 0.3
v 0.1 1.6 0.3
v 0.1 1.7 0.3
v 0.2 1.3 0.3
v 0.2 1.4 0.3
v 0.2 1.5 0.3
v 0.2 1.6 0.3
v 0.3 1.4 0.3
v 0.3 1.5 0.3
v 5.96046e-08 1.1 0.1
v 5.96046e-08 1.2 0.1
v 0.1 1.1 0.1
v 0.1 1.2 0.1
v 5.96046e-08 0.4 -2.98023e-08
v 5.96046e-08 1.1 -2.98023e-08
v 5.96046e-08 1.2 -2.98023e-08
v 5.96046e-08 1.3 -2.98023e-08
v 5.96046e-08 1.4 -2.98023e-08
v 5.96046e-08 1.5 -2.98023e-08
v 5.96046e-08 1.6 -2.98023e-08
v 0.1 0.4 -2.98023e-08
v 0.1 1.1 -2.98023e-08
v 0.1 1.2 -2.98023e-08
v 0.1 1.3 -2.98023e-08
v 0.1 1.4 -2.98023e-08
v 0.1 1.5 -2.98023e-08
v 0.1 1.6 -2.98023e-08
v -0.0999999 1.3 -0.2
v -0.0999999 1.6 -0.2
v 5.96046e-08 1.4 -0.2
v 5.96046e-08 1.5 -0.2
v 0.1 1.4 -0.2
v 0.1 1.5 -0.2
v 0.2 1.3 -0.2
v 0.2 1.6 -0.2
v -0.2 1.4 -0.3
v -0.2 1.5 -0.3
v -0.0999999 1.4 -0.3
v -0.0999999 1.5 -0.3
v 5.96046e-08 1.2 -0.3
v 5.96046e-08 1.3 -0.3
v 5.96046e-08 1.6 -0.3
v 5.96046e-08 1.7 -0.3
v 0.1 1.2 -0.3
v 0.1 1.3 -0.3
v 0.1 1.6 -0.3
v 0.1 1.7 -0.3
v 0.2 1.4 -0.3
v 0.2 1.5 -0.3
v 0.3 1.4 -0.3
v 0.3 1.5 -0.3
v -0.2 1.4 0.2
v -0.2 1.5 0.2
v -0.0999999 1.4 0.2
v -0.0999999 1.5 0.2
v 5.96046e-08 1.2 0.2
v 5.96046e-08 1.3 0.2
v 5.96046e-08 1.6 0.2
v 5.96046e-08 1.7 0.2
v 0.1 1.2 0.2
v 0.1 1.3 0.2
v 0.1 1.6 0.2
v 0.1 1.7 0.2
v 0.2 1.4 0.2
v 0.2 1.5 0.2
v 0.3 1.4 0.2
v 0.3 1.5 0.2
v -0.0999999 1.3 0.1
v -0.0999999 1.6 0.1
v 5.96046e-08 1.4 0.1
v 5.96046e-08 1.5 0.1
v 0.1 1.4 0.1
v 0.1 1.5 0.1
v 0.2 1.3 0.1
v 0.2 1.6 0.1
v 5.96046e-08 0.4 -0.1
v 5.96046e-08 1.1 -0.1
v 5.96046e-08 1.2 -0.1
v 5.96046e-08 1.3 -0.1
v 5.96046e-08 1.4 -0.1
v 5.96046e-08 1.5 -0.1
v 5.96046e-08 1.6 -0.1
v 0.1 0.4 -0.1
v 0.1 1.1 -0.1
v 0.1 1.2 -0.1
v 0.1 1.3 -0.1
v 0.1 1.4 -0.1
v 0.1 1.5 -0.1
v 0.1 1.6 -0.1
v 5.96046e-08 1.1 -0.2
v 5.96046e-08 1.2 -0.2
v 0.1 1.1 -0.2
v 0.1 1.2 -0.2
v -0.2 1.4 -0.4
v -0.2 1.5 -0.4
v -0.0999999 1.3 -0.4
v -0.0999999 1.4 -0.4
v -0.0999999 1.5 -0.4
v -0.0999999 1.6 -0.4
v 5.96046e-08 1.2 -0.4
v 5.96046e-08 1.3 -0.4
v 5.96046e-08 1.6 -0.4
v 5.96046e-08 1.7 -0.4
v 0.1 1.2 -0.4
v 0.1 1.3 -0.4
v 0.1 1.6 -0.4
v 0.1 1.7 -0.4
v 0.2 1.3 -0.4
v 0.2 1.4 -0.4
v 0.2 1.5 -0.4
v 0.2 1.6 -0.4
v 0.3 1.4 -0.4
v 0.3 1.5 -0.4
v 5.96046e-08 0.4 -2.98023e-08
v 0.1 0.4 -2.98023e-08
v 5.96046e-08 0.4 -0.1
v 0.1 0.4 -0.1
v 5.96046e-08 1.1 0.1
v 0.1 1.1 0.1
v 5.96046e-08 1.1 -2.98023e-08
v 0.1 1.1 -2.98023e-08
v 5.96046e-08 1.1 -0.1
v 0.1 1.1 -0.1
v 5.96046e-08 1.1 -0.2
v 0.1 1.1 -0.2
v 5.96046e-08 1.2 0.3
v 0.1 1.2 0.3
v 5.96046e-08 1.2 0.2
v 0.1 1.2 0.2
v 5.96046e-08 1.2 -0.3
v 0.1 1.2 -0.3
v 5.96046e-08 1.2 -0.4
v 0.1 1.2 -0.4
v -0.0999999 1.3 0.3
v 5.96046e-08 1.3 0.3
v 0.1 1.3 0.3
v 0.2 1.3 0.3
v 5.96046e-08 1.3 0.2
v 0.1 1.3 0.2
v -0.0999999 1.3 0.1
v 0.2 1.3 0.1
v -0.0999999 1.3 -0.2
v 0.2 1.3 -0.2
v 5.96046e-08 1.3 -0.3
v 0.1 1.3 -0.3
v -0.0999999 1.3 -0.4
v 5.96046e-08 1.3 -0.4
v 0.1 1.3 -0.4
v 0.2 1.3 -0.4
v -0.2 1.4 0.3
v -0.0999999 1.4 0.3
v 0.2 1.4 0.3
v 0.3 1.4 0.3
v -0.2 1.4 0.2
v -0.0999999 1.4 0.2
v 0.2 1.4 0.2
v 0.3 1.4 0.2
v 5.96046e-08 1.4 0.1
v 0.1 1.4 0.1
v 5.96046e-08 1.4 -2.98023e-08
v 0.1 1.4 -2.98023e-08
v 5.96046e-08 1.4 -0.1
v 0.1 1.4 -0.1
v 5.96046e-08 1.4 -0.2
v 0.1 1.4 -0.2
v -0.2 1.4 -0.3
v -0.0999999 1.4 -0.3
v 0.2 1.4 -0.3
v 0.3 1.4 -0.3
v -0.2 1.4 -0.4
v -0.0999999 1.4 -0.4
v 0.2 1.4 -0.4
v 0.3 1.4 -0.4
v 5.96046e-08 1.2 0.1
v 0.1 1.2 0.1
v 5.96046e-08 1.2 -2.98023e-08
v 0.1 1.2 -2.98023e-08
v 5.96046e-08 1.2 -0.1
v 0.1 1.2 -0.1
v 5.96046e-08 1.2 -0.2
v 0.1 1.2 -0.2
v -0.2 1.5 0.3
v -0.0999999 1.5 0.3
v 0.2 1.5 0.3
v 0.3 1.5 0.3
v -0.2 1.5 0.2
v -0.0999999 1.5 0.2
v 0.2 1.5 0.2
v 0.3 1.5 0.2
v 5.96046e-08 1.5 0.1
v 0.1 1.5 0.1
v 5.96046e-08 1.5 -2.98023e-08
v 0.1 1.5 -2.98023e-08
v 5.96046e-08 1.5 -0.1
v 0.1 1.5 -0.1
v 5.96046e-08 1.5 -0.2
v 0.1 1.5 -0.2
v -0.2 1.5 -0.3
v -0.0999999 1.5 -0.3
v 0.2 1.5 -0.3
v 0.3 1.5 -0.3
v -0.2 1.5 -0.4
v -0.0999999 1.5 -0.4
v 0.2 1.5 -0.4
v 0.3 1.5 -0.4
v -0.0999999 1.6 0.3
v 5.96046e-08 1.6 0.3
v 0.1 1.6 0.3
v 0.2 1.6 0.3
v 5.96046e-08 1.6 0.2
v 0.1 1.6 0.2
v -0.0999999 1.6 0.1
v 0.2 1.6 0.1
v 5.96046e-08 1.6 -2.98023e-08
v 0.1 1.6 -2.98023e-08
v 5.96046e-08 1.6 -0.1
v 0.1 1.6 -0.1
v -0.0999999 1.6 -0.2
v 0.2 1.6 -0.2
v 5.96046e-08 1.6 -0.3
v 0.1 1.6 -0.3
v -0.0999999 1.6 -0.4
v 5.96046e-08 1.6 -0.4
v 0.1 1.6 -0.4
v 0.2 1.6 -0.4
v 5.96046e-08 1.7 0.3
v 0.1 1.7 0.3
v 5.96046e-08 1.7 0.2
v 0.1 1.7 0.2
v 5.96046e-08 1.7 -0.3
v 0.1 1.7 -0.3
v 5.96046e-08 1.7 -0.4
v 0.1 1.7 -0.4

# faces
f 5/3/1 2/3/1 1/3/1
f 6/3/1 2/3/1 5/3/1
f 7/3/1 4/3/1 3/3/1
f 8/3/1 4/3/1 7/3/1
f 13/3/1 10/3/1 9/3/1
f 14/3/1 10/3/1 13/3/1
f 15/3/1 12/3/1 11/3/1
f 16/3/1 12/3/1 15/3/1
f 18/3/1 10/3/1 14/3/1
f 19/3/1 15/3/1 11/3/1
f 21/3/1 18/3/1 17/3/1
f 22/3/1 10/3/1 18/3/1
f 22/3/1 18/3/1 21/3/1
f 23/3/1 20/3/1 19/3/1
f 23/3/1 19/3/1 11/3/1
f 24/3/1 20/3/1 23/3/1
f 28/1/1 26/1/1 25/1/1
f 29/1/1 26/1/1 28/1/1
f 33/1/1 28/1/1 27/1/1
f 33/1/1 29/1/1 28/1/1
f 33/1/1 30/1/1 29/1/1
f 34/1/1 30/1/1 33/1/1
f 35/1/1 30/1/1 34/1/1
f 36/1/1 30/1/1 35/1/1
f 39/3/1 32/3/1 31/3/1
f 40/3/1 32/3/1 39/3/1
f 41/1/1 35/1/1 34/1/1
f 42/1/1 35/1/1 41/1/1
f 43/3/1 38/3/1 37/3/1
f 44/3/1 38/3/1 43/3/1
f 46/2/1 42/2/1 41/2/1
f 47/2/1 42/2/1 46/2/1
f 49/2/1 46/2/1 45/2/1
f 49/2/1 48/2/1 47/2/1
f 49/2/1 47/2/1 46/2/1
f 50/2/1 48/2/1 49/2/1
f 51/2/1 48/2/1 50/2/1
f 52/2/1 48/2/1 51/2/1
f 55/2/1 51/2/1 50/2/1
f 56/2/1 51/2/1 55/2/1
f 59/3/1 54/3/1 53/3/1
f 60/3/1 54/3/1 59/3/1
f 61/3/1 58/3/1 57/3/1
f 62/3/1 58/3/1 61/3/1
f 63/1/2 64/1/2 66/1/2
f 66/1/2 64/1/2 67/1/2
f 65/1/2 66/1/2 71/1/2
f 66/1/2 67/1/2 71/1/2
f 67/1/2 68/1/2 71/1/2
f 71/1/2 68/1/2 72/1/2
f 72/1/2 68/1/2 73/1/2
f 73/1/2 68/1/2 74/1/2
f 69/3/2 70/3/2 77/3/2
f 77/3/2 70/3/2 78/3/2
f 72/1/2 73/1/2 79/1/2
f 79/1/2 73/1/2 80/1/2
f 75/3/2 76/3/2 81/3/2
f 81/3/2 76/3/2 82/3/2
f 79/2/2 80/2/2 84/2/2
f 84/2/2 80/2/2 85/2/2
f 83/2/2 84/2/2 87/2/2
f 85/2/2 86/2/2 87/2/2
f 84/2/2 85/2/2 87/2/2
f 87/2/2 86/2/2 88/2/2
f 88/2/2 86/2/2 89/2/2
f 89/2/2 86/2/2 90/2/2
f 88/2/2 89/2/2 93/2/2
f 93/2/2 89/2/2 94/2/2
f 91/3/2 92/3/2 97/3/2
f 97/3/2 92/3/2 98/3/2
f 95/3/2 96/3/2 99/3/2
f 99/3/2 96/3/2 100/3/2
f 101/3/2 102/3/2 105/3/2
f 105/3/2 102/3/2 106/3/2
f 103/3/2 104/3/2 107/3/2
f 107/3/2 104/3/2 108/3/2
f 106/3/2 102/3/2 110/3/2
f 103/3/2 107/3/2 111/3/2
f 109/3/2 110/3/2 113/3/2
f 110/3/2 102/3/2 114/3/2
f 113/3/2 110/3/2 114/3/2
f 111/3/2 112/3/2 115/3/2
f 103/3/2 111/3/2 115/3/2
f 115/3/2 112/3/2 116/3/2
f 117/3/2 118/3/2 121/3/2
f 121/3/2 118/3/2 122/3/2
f 119/3/2 120/3/2 123/3/2
f 123/3/2 120/3/2 124/3/2
f 128/3/3 126/3/3 125/3/3
f 129/3/3 126/3/3 128/3/3
f 132/3/3 128/3/3 127/3/3
f 132/3/3 130/3/3 129/3/3
f 132/3/3 129/3/3 128/3/3
f 133/3/3 130/3/3 132/3/3
f 135/3/3 132/3/3 131/3/3
f 135/3/3 134/3/3 133/3/3
f 135/3/3 133/3/3 132/3/3
f 136/3/3 134/3/3 135/3/3
f 137/3/3 134/3/3 136/3/3
f 138/3/3 134/3/3 137/3/3
f 139/3/3 137/3/3 136/3/3
f 140/3/3 137/3/3 139/3/3
f 141/3/3 137/3/3 140/3/3
f 142/3/3 137/3/3 141/3/3
f 143/3/3 141/3/3 140/3/3
f 144/3/3 141/3/3 143/3/3
f 147/1/3 146/1/3 145/1/3
f 148/1/3 146/1/3 147/1/3
f 156/1/3 150/1/3 149/1/3
f 157/1/3 150/1/3 156/1/3
f 158/1/3 152/1/3 151/1/3
f 159/2/3 153/2/3 152/2/3
f 159/1/3 152/1/3 158/1/3
f 160/2/3 153/2/3 159/2/3
f 161/2/3 155/2/3 154/2/3
f 162/2/3 155/2/3 161/2/3
f 165/3/3 164/3/3 163/3/3
f 166/3/3 164/3/3 165/3/3
f 167/3/3 165/3/3 163/3/3
f 168/3/3 164/3/3 166/3/3
f 169/3/3 167/3/3 163/3/3
f 169/3/3 168/3/3 167/3/3
f 170/3/3 164/3/3 168/3/3
f 170/3/3 168/3/3 169/3/3
f 173/3/3 172/3/3 171/3/3
f 174/3/3 172/3/3 173/3/3
f 179/3/3 176/3/3 175/3/3
f 180/3/3 176/3/3 179/3/3
f 181/3/3 178/3/3 177/3/3
f 182/3/3 178/3/3 181/3/3
f 185/3/3 184/3/3 183/3/3
f 186/3/3 184/3/3 185/3/3
f 187/3/4 188/3/4 189/3/4
f 189/3/4 188/3/4 190/3/4
f 191/3/4 192/3/4 195/3/4
f 195/3/4 192/3/4 196/3/4
f 193/3/4 194/3/4 197/3/4
f 197/3/4 194/3/4 198/3/4
f 199/3/4 200/3/4 201/3/4
f 201/3/4 200/3/4 202/3/4
f 203/3/4 204/3/4 205/3/4
f 205/3/4 204/3/4 206/3/4
f 203/3/4 205/3/4 207/3/4
f 206/3/4 204/3/4 208/3/4
f 203/3/4 207/3/4 209/3/4
f 207/3/4 208/3/4 209/3/4
f 208/3/4 204/3/4 210/3/4
f 209/3/4 208/3/4 210/3/4
f 211/1/4 212/1/4 218/1/4
f 218/1/4 212/1/4 219/1/4
f 213/1/4 214/1/4 220/1/4
f 214/2/4 215/2/4 221/2/4
f 220/1/4 214/1/4 221/1/4
f 221/2/4 215/2/4 222/2/4
f 216/2/4 217/2/4 223/2/4
f 223/2/4 217/2/4 224/2/4
f 225/1/4 226/1/4 227/1/4
f 227/1/4 226/1/4 228/1/4
f 229/3/4 230/3/4 232/3/4
f 232/3/4 230/3/4 233/3/4
f 231/3/4 232/3/4 236/3/4
f 233/3/4 234/3/4 236/3/4
f 232/3/4 233/3/4 236/3/4
f 236/3/4 234/3/4 237/3/4
f 235/3/4 236/3/4 239/3/4
f 237/3/4 238/3/4 239/3/4
f 236/3/4 237/3/4 239/3/4
f 239/3/4 238/3/4 240/3/4
f 240/3/4 238/3/4 241/3/4
f 241/3/4 238/3/4 242/3/4
f 240/3/4 241/3/4 243/3/4
f 243/3/4 241/3/4 244/3/4
f 244/3/4 241/3/4 245/3/4
f 245/3/4 241/3/4 246/3/4
f 244/3/4 245/3/4 247/3/4
f 247/3/4 245/3/4 248/3/4
f 251/1/5 250/1/5 249/1/5
f 252/1/5 250/1/5 251/1/5
f 255/1/5 254/1/5 253/1/5
f 256/1/5 254/1/5 255/1/5
f 259/1/5 258/1/5 257/1/5
f 260/1/5 258/1/5 259/1/5
f 263/3/5 262/3/5 261/3/5
f 264/3/5 262/3/5 263/3/5
f 267/3/5 266/3/5 265/3/5
f 268/3/5 266/3/5 267/3/5
f 273/3/5 270/3/5 269/3/5
f 274/3/5 272/3/5 271/3/5
f 275/3/5 273/3/5 269/3/5
f 275/3/5 274/3/5 273/3/5
f 276/3/5 272/3/5 274/3/5
f 276/3/5 274/3/5 275/3/5
f 279/3/5 278/3/5 277/3/5
f 280/3/5 278/3/5 279/3/5
f 281/3/5 279/3/5 277/3/5
f 282/3/5 279/3/5 281/3/5
f 283/3/5 278/3/5 280/3/5
f 284/3/5 278/3/5 283/3/5
f 289/3/5 286/3/5 285/3/5
f 290/3/5 286/3/5 289/3/5
f 291/3/5 288/3/5 287/3/5
f 292/3/5 288/3/5 291/3/5
f 295/2/5 294/2/5 293/2/5
f 296/2/5 294/2/5 295/2/5
f 299/2/5 298/2/5 297/2/5
f 300/2/5 298/2/5 299/2/5
f 305/3/5 302/3/5 301/3/5
f 306/3/5 302/3/5 305/3/5
f 307/3/5 304/3/5 303/3/5
f 308/3/5 304/3/5 307/3/5
f 309/1/6 310/1/6 311/1/6
f 311/1/6 310/1/6 312/1/6
f 313/1/6 314/1/6 315/1/6
f 315/1/6 314/1/6 316/1/6
f 317/3/6 318/3/6 321/3/6
f 321/3/6 318/3/6 322/3/6
f 319/3/6 320/3/6 323/3/6
f 323/3/6 320/3/6 324/3/6
f 325/2/6 326/2/6 327/2/6
f 327/2/6 326/2/6 328/2/6
f 329/2/6 330/2/6 331/2/6
f 331/2/6 330/2/6 332/2/6
f 333/3/6 334/3/6 337/3/6
f 337/3/6 334/3/6 338/3/6
f 335/3/6 336/3/6 339/3/6
f 339/3/6 336/3/6 340/3/6
f 341/3/6 342/3/6 345/3/6
f 343/3/6 344/3/6 346/3/6
f 341/3/6 345/3/6 347/3/6
f 345/3/6 346/3/6 347/3/6
f 346/3/6 344/3/6 348/3/6
f 347/3/6 346/3/6 348/3/6
f 349/2/6 350/2/6 351/2/6
f 351/2/6 350/2/6 352/2/6
f 353/3/6 354/3/6 355/3/6
f 355/3/6 354/3/6 356/3/6
f 353/3/6 355/3/6 357/3/6
f 357/3/6 355/3/6 358/3/6
f 356/3/6 354/3/6 359/3/6
f 359/3/6 354/3/6 360/3/6
f 361/3/6 362/3/6 363/3/6
f 363/3/6 362/3/6 364/3/6
f 365/3/6 366/3/6 367/3/6
f 367/3/6 366/3/6 368/3/6
