# MagicaVoxel @ Ephtracy

# group
o 

# material
mtllib Mosquito4.mtl
usemtl palette

# normals
vn -1 0 0
vn 1 0 0
vn 0 0 1
vn 0 0 -1
vn 0 -1 0
vn 0 1 0

# texcoords
vt 0.310547 0.5
vt 0.337891 0.5
vt 0.341797 0.5
vt 0.955078 0.5
vt 0.974609 0.5
vt 0.986328 0.5
vt 0.994141 0.5

# verts
v -0.4 0.4 0.9
v -0.4 0.4 0.8
v -0.4 0.5 0.9
v -0.4 0.5 0.8
v -0.3 0.4 0.5
v -0.3 0.4 0.4
v -0.3 0.5 1.5
v -0.3 0.5 1.3
v -0.3 0.5 1
v -0.3 0.5 0.9
v -0.3 0.5 0.5
v -0.3 0.5 0.4
v -0.3 0.6 1.5
v -0.3 0.6 1.3
v -0.3 0.6 1.2
v -0.3 0.7 1.3
v -0.3 0.7 1.2
v -0.3 0.7 1
v -0.3 0.7 0.9
v -0.3 1 0.9
v -0.3 1 0.4
v -0.3 1.1 0.9
v -0.3 1.1 0.4
v -0.2 0.5 0.6
v -0.2 0.5 0.5
v -0.2 0.6 0.6
v -0.2 0.6 0.5
v -0.2 0.7 1.3
v -0.2 0.7 1.2
v -0.2 0.7 1
v -0.2 0.7 0.9
v -0.2 0.8 1.3
v -0.2 0.8 1.2
v -0.2 0.8 1
v -0.2 0.8 0.9
v -0.2 1 1
v -0.2 1 0.9
v -0.2 1 0.4
v -0.2 1 0.3
v -0.2 1.1 1
v -0.2 1.1 0.9
v -0.2 1.1 0.4
v -0.2 1.1 0.3
v -0.1 0.6 0.7
v -0.1 0.6 0.6
v -0.1 0.7 1.2
v -0.1 0.7 1
v -0.1 0.7 0.9
v -0.1 0.7 0.7
v -0.1 0.8 1.5
v -0.1 0.8 1.4
v -0.1 0.8 1.3
v -0.1 0.8 1.2
v -0.1 0.8 1.1
v -0.1 0.8 1
v -0.1 0.8 0.9
v -0.1 0.8 0.8
v -0.1 0.8 0.7
v -0.1 0.8 0.6
v -0.1 0.9 1.5
v -0.1 0.9 1.4
v -0.1 0.9 1.2
v -0.1 0.9 1.1
v -0.1 0.9 1
v -0.1 0.9 0.9
v -0.1 0.9 0.8
v -0.1 0.9 0.7
v -0.1 1 1.5
v -0.1 1 1.4
v -0.1 1 1.2
v -0.1 1 1.1
v -0.1 1 1
v -0.1 1 0.7
v 0 0.5 1.6
v 0 0.5 1.5
v 0 0.7 1.4
v 0 0.7 1.3
v 0 0.7 0.6
v 0 0.7 0.5
v 0 0.8 1.5
v 0 0.8 1.4
v 0 0.8 1.3
v 0 0.8 0.8
v 0 0.8 0.7
v 0 0.8 0.6
v 0 0.8 0.5
v 0 0.8 0.4
v 0 0.9 1.6
v 0 0.9 1.5
v 0 0.9 0.8
v 0 0.9 0.7
v 0 0.9 0.6
v 0 0.9 0.5
v 0 0.9 0.4
v 0.2 0.5 0.5
v 0.2 0.5 0.4
v 0.2 0.6 0.6
v 0.2 0.6 0.5
v 0.2 0.6 0.4
v 0.2 0.7 0.6
v 0.2 0.7 0.5
v 0.2 1 1
v 0.2 1 0.7
v 0.2 1 0.3
v 0.2 1.1 1
v 0.2 1.1 0.3
v 0.3 0.4 0.4
v 0.3 0.4 0.3
v 0.3 0.5 1.5
v 0.3 0.5 1.3
v 0.3 0.5 1
v 0.3 0.5 0.9
v 0.3 0.5 0.4
v 0.3 0.5 0.3
v 0.3 0.6 1.5
v 0.3 0.6 1.3
v 0.3 0.6 1.2
v 0.3 0.7 1.3
v 0.3 0.7 1.2
v 0.3 0.7 1
v 0.3 0.7 0.9
v 0.4 0.4 0.9
v 0.4 0.4 0.7
v 0.4 0.5 0.9
v 0.4 0.5 0.7
v -0.3 0.4 0.9
v -0.3 0.4 0.8
v -0.3 0.5 0.9
v -0.3 0.5 0.8
v -0.2 0.4 0.5
v -0.2 0.4 0.4
v -0.2 0.5 1.5
v -0.2 0.5 1.3
v -0.2 0.5 1
v -0.2 0.5 0.9
v -0.2 0.5 0.5
v -0.2 0.5 0.4
v -0.2 0.6 1.5
v -0.2 0.6 1.3
v -0.2 0.6 1.2
v -0.2 0.7 1.3
v -0.2 0.7 1.2
v -0.2 0.7 1
v -0.2 0.7 0.9
v -0.1 0.5 0.6
v -0.1 0.5 0.5
v -0.1 0.6 0.6
v -0.1 0.6 0.5
v -0.1 1 1
v -0.1 1 0.7
v -0.1 1 0.3
v -0.1 1.1 1
v -0.1 1.1 0.3
v 0 0.6 0.7
v 0 0.6 0.6
v 0 0.7 0.7
v 0 0.7 0.6
v 0.1 0.5 1.6
v 0.1 0.5 1.5
v 0.1 0.7 1.4
v 0.1 0.7 1.3
v 0.1 0.7 0.6
v 0.1 0.7 0.5
v 0.1 0.8 1.5
v 0.1 0.8 1.4
v 0.1 0.8 1.3
v 0.1 0.8 0.6
v 0.1 0.8 0.5
v 0.1 0.8 0.4
v 0.1 0.9 1.6
v 0.1 0.9 1.5
v 0.1 0.9 0.6
v 0.1 0.9 0.5
v 0.1 0.9 0.4
v 0.2 0.7 1.2
v 0.2 0.7 1
v 0.2 0.7 0.9
v 0.2 0.7 0.7
v 0.2 0.7 0.6
v 0.2 0.8 1.5
v 0.2 0.8 1.4
v 0.2 0.8 1.3
v 0.2 0.8 1.2
v 0.2 0.8 1.1
v 0.2 0.8 1
v 0.2 0.8 0.9
v 0.2 0.8 0.7
v 0.2 0.8 0.6
v 0.2 0.9 1.5
v 0.2 0.9 1.4
v 0.2 0.9 1.2
v 0.2 0.9 1.1
v 0.2 0.9 1
v 0.2 0.9 0.9
v 0.2 0.9 0.7
v 0.2 0.9 0.6
v 0.2 1 1.5
v 0.2 1 1.4
v 0.2 1 1.2
v 0.2 1 1.1
v 0.2 1 1
v 0.2 1 0.7
v 0.3 0.5 0.5
v 0.3 0.5 0.4
v 0.3 0.6 0.6
v 0.3 0.6 0.5
v 0.3 0.6 0.4
v 0.3 0.7 1.3
v 0.3 0.7 1.2
v 0.3 0.7 1
v 0.3 0.7 0.9
v 0.3 0.7 0.6
v 0.3 0.7 0.5
v 0.3 0.8 1.3
v 0.3 0.8 1.2
v 0.3 0.8 1
v 0.3 0.8 0.9
v 0.3 1 1
v 0.3 1 0.9
v 0.3 1 0.4
v 0.3 1 0.3
v 0.3 1.1 1
v 0.3 1.1 0.9
v 0.3 1.1 0.4
v 0.3 1.1 0.3
v 0.4 0.4 0.4
v 0.4 0.4 0.3
v 0.4 0.5 1.5
v 0.4 0.5 1.3
v 0.4 0.5 1
v 0.4 0.5 0.9
v 0.4 0.5 0.4
v 0.4 0.5 0.3
v 0.4 0.6 1.5
v 0.4 0.6 1.3
v 0.4 0.6 1.2
v 0.4 0.7 1.3
v 0.4 0.7 1.2
v 0.4 0.7 1
v 0.4 0.7 0.9
v 0.4 1 0.9
v 0.4 1 0.4
v 0.4 1.1 0.9
v 0.4 1.1 0.4
v 0.5 0.4 0.9
v 0.5 0.4 0.7
v 0.5 0.5 0.9
v 0.5 0.5 0.7
v 0 0.5 1.6
v 0 0.9 1.6
v 0.1 0.5 1.6
v 0.1 0.9 1.6
v -0.3 0.5 1.5
v -0.3 0.6 1.5
v -0.2 0.5 1.5
v -0.2 0.6 1.5
v -0.1 0.8 1.5
v -0.1 0.9 1.5
v -0.1 1 1.5
v 0 0.8 1.5
v 0 0.9 1.5
v 0 1 1.5
v 0.1 0.8 1.5
v 0.1 0.9 1.5
v 0.1 1 1.5
v 0.2 0.8 1.5
v 0.2 0.9 1.5
v 0.2 1 1.5
v 0.3 0.5 1.5
v 0.3 0.6 1.5
v 0.4 0.5 1.5
v 0.4 0.6 1.5
v 0 0.7 1.4
v 0 0.8 1.4
v 0.1 0.7 1.4
v 0.1 0.8 1.4
v -0.3 0.6 1.3
v -0.3 0.7 1.3
v -0.2 0.6 1.3
v -0.2 0.7 1.3
v -0.2 0.8 1.3
v -0.1 0.7 1.3
v -0.1 0.8 1.3
v 0 0.7 1.3
v 0 0.8 1.3
v 0.1 0.7 1.3
v 0.1 0.8 1.3
v 0.2 0.7 1.3
v 0.2 0.8 1.3
v 0.3 0.6 1.3
v 0.3 0.7 1.3
v 0.3 0.8 1.3
v 0.4 0.6 1.3
v 0.4 0.7 1.3
v -0.1 0.9 1.1
v -0.1 1 1.1
v 0 0.9 1.1
v 0 1 1.1
v 0.1 0.9 1.1
v 0.1 1 1.1
v 0.2 0.9 1.1
v 0.2 1 1.1
v -0.3 0.5 1
v -0.3 0.7 1
v -0.2 0.5 1
v -0.2 0.7 1
v -0.2 0.8 1
v -0.2 1 1
v -0.2 1.1 1
v -0.1 0.7 1
v -0.1 0.8 1
v -0.1 1 1
v -0.1 1.1 1
v 0.2 0.7 1
v 0.2 0.8 1
v 0.2 1 1
v 0.2 1.1 1
v 0.3 0.5 1
v 0.3 0.7 1
v 0.3 0.8 1
v 0.3 1 1
v 0.3 1.1 1
v 0.4 0.5 1
v 0.4 0.7 1
v -0.4 0.4 0.9
v -0.4 0.5 0.9
v -0.3 0.4 0.9
v -0.3 0.5 0.9
v -0.3 1 0.9
v -0.3 1.1 0.9
v -0.2 1 0.9
v -0.2 1.1 0.9
v 0.3 1 0.9
v 0.3 1.1 0.9
v 0.4 0.4 0.9
v 0.4 0.5 0.9
v 0.4 1 0.9
v 0.4 1.1 0.9
v 0.5 0.4 0.9
v 0.5 0.5 0.9
v -0.1 0.6 0.7
v -0.1 0.7 0.7
v 0 0.6 0.7
v 0 0.7 0.7
v -0.2 0.5 0.6
v -0.2 0.6 0.6
v -0.1 0.5 0.6
v -0.1 0.6 0.6
v 0.2 0.6 0.6
v 0.2 0.7 0.6
v 0.3 0.6 0.6
v 0.3 0.7 0.6
v -0.3 0.4 0.5
v -0.3 0.5 0.5
v -0.2 0.4 0.5
v -0.2 0.5 0.5
v 0.2 0.5 0.5
v 0.2 0.6 0.5
v 0.3 0.5 0.5
v 0.3 0.6 0.5
v 0.3 0.4 0.4
v 0.3 0.5 0.4
v 0.4 0.4 0.4
v 0.4 0.5 0.4
v 0 0.5 1.5
v 0 0.8 1.5
v 0.1 0.5 1.5
v 0.1 0.8 1.5
v -0.3 0.5 1.3
v -0.3 0.6 1.3
v -0.2 0.5 1.3
v -0.2 0.6 1.3
v 0.3 0.5 1.3
v 0.3 0.6 1.3
v 0.4 0.5 1.3
v 0.4 0.6 1.3
v -0.3 0.6 1.2
v -0.3 0.7 1.2
v -0.2 0.6 1.2
v -0.2 0.7 1.2
v -0.2 0.8 1.2
v -0.1 0.7 1.2
v -0.1 0.8 1.2
v -0.1 0.9 1.2
v -0.1 1 1.2
v 0 0.9 1.2
v 0 1 1.2
v 0.1 0.9 1.2
v 0.1 1 1.2
v 0.2 0.7 1.2
v 0.2 0.8 1.2
v 0.2 0.9 1.2
v 0.2 1 1.2
v 0.3 0.6 1.2
v 0.3 0.7 1.2
v 0.3 0.8 1.2
v 0.4 0.6 1.2
v 0.4 0.7 1.2
v -0.3 0.5 0.9
v -0.3 0.7 0.9
v -0.2 0.5 0.9
v -0.2 0.7 0.9
v -0.2 0.8 0.9
v -0.1 0.7 0.9
v -0.1 0.8 0.9
v 0.2 0.7 0.9
v 0.2 0.8 0.9
v 0.3 0.5 0.9
v 0.3 0.7 0.9
v 0.3 0.8 0.9
v 0.4 0.5 0.9
v 0.4 0.7 0.9
v -0.4 0.4 0.8
v -0.4 0.5 0.8
v -0.3 0.4 0.8
v -0.3 0.5 0.8
v -0.1 0.8 0.8
v -0.1 0.9 0.8
v 0 0.8 0.8
v 0 0.9 0.8
v -0.1 0.9 0.7
v -0.1 1 0.7
v 0 0.9 0.7
v 0 1 0.7
v 0.1 0.9 0.7
v 0.1 1 0.7
v 0.2 0.9 0.7
v 0.2 1 0.7
v 0.4 0.4 0.7
v 0.4 0.5 0.7
v 0.5 0.4 0.7
v 0.5 0.5 0.7
v -0.1 0.6 0.6
v -0.1 0.8 0.6
v 0 0.6 0.6
v 0 0.7 0.6
v 0 0.8 0.6
v 0.1 0.7 0.6
v 0.1 0.8 0.6
v 0.1 0.9 0.6
v 0.2 0.7 0.6
v 0.2 0.8 0.6
v 0.2 0.9 0.6
v -0.2 0.5 0.5
v -0.2 0.6 0.5
v -0.1 0.5 0.5
v -0.1 0.6 0.5
v 0 0.7 0.5
v 0 0.8 0.5
v 0.1 0.7 0.5
v 0.1 0.8 0.5
v 0.2 0.6 0.5
v 0.2 0.7 0.5
v 0.3 0.6 0.5
v 0.3 0.7 0.5
v -0.3 0.4 0.4
v -0.3 0.5 0.4
v -0.3 1 0.4
v -0.3 1.1 0.4
v -0.2 0.4 0.4
v -0.2 0.5 0.4
v -0.2 1 0.4
v -0.2 1.1 0.4
v 0 0.8 0.4
v 0 0.9 0.4
v 0.1 0.8 0.4
v 0.1 0.9 0.4
v 0.2 0.5 0.4
v 0.2 0.6 0.4
v 0.3 0.5 0.4
v 0.3 0.6 0.4
v 0.3 1 0.4
v 0.3 1.1 0.4
v 0.4 1 0.4
v 0.4 1.1 0.4
v -0.2 1 0.3
v -0.2 1.1 0.3
v -0.1 1 0.3
v -0.1 1.1 0.3
v 0.2 1 0.3
v 0.2 1.1 0.3
v 0.3 0.4 0.3
v 0.3 0.5 0.3
v 0.3 1 0.3
v 0.3 1.1 0.3
v 0.4 0.4 0.3
v 0.4 0.5 0.3
v -0.4 0.4 0.9
v -0.3 0.4 0.9
v 0.4 0.4 0.9
v 0.5 0.4 0.9
v -0.4 0.4 0.8
v -0.3 0.4 0.8
v 0.4 0.4 0.7
v 0.5 0.4 0.7
v -0.3 0.4 0.5
v -0.2 0.4 0.5
v -0.3 0.4 0.4
v -0.2 0.4 0.4
v 0.3 0.4 0.4
v 0.4 0.4 0.4
v 0.3 0.4 0.3
v 0.4 0.4 0.3
v 0 0.5 1.6
v 0.1 0.5 1.6
v -0.3 0.5 1.5
v -0.2 0.5 1.5
v 0 0.5 1.5
v 0.1 0.5 1.5
v 0.3 0.5 1.5
v 0.4 0.5 1.5
v -0.3 0.5 1.3
v -0.2 0.5 1.3
v 0.3 0.5 1.3
v 0.4 0.5 1.3
v -0.3 0.5 1
v -0.2 0.5 1
v 0.3 0.5 1
v 0.4 0.5 1
v -0.3 0.5 0.9
v -0.2 0.5 0.9
v 0.3 0.5 0.9
v 0.4 0.5 0.9
v -0.2 0.5 0.6
v -0.1 0.5 0.6
v -0.2 0.5 0.5
v -0.1 0.5 0.5
v 0.2 0.5 0.5
v 0.3 0.5 0.5
v 0.2 0.5 0.4
v 0.3 0.5 0.4
v -0.3 0.6 1.3
v -0.2 0.6 1.3
v 0.3 0.6 1.3
v 0.4 0.6 1.3
v -0.3 0.6 1.2
v -0.2 0.6 1.2
v 0.3 0.6 1.2
v 0.4 0.6 1.2
v -0.1 0.6 0.7
v 0 0.6 0.7
v -0.1 0.6 0.6
v 0 0.6 0.6
v 0.2 0.6 0.6
v 0.3 0.6 0.6
v 0.2 0.6 0.5
v 0.3 0.6 0.5
v 0 0.7 1.4
v 0.1 0.7 1.4
v -0.2 0.7 1.3
v -0.1 0.7 1.3
v 0 0.7 1.3
v 0.1 0.7 1.3
v 0.2 0.7 1.3
v 0.3 0.7 1.3
v -0.2 0.7 1.2
v -0.1 0.7 1.2
v 0.2 0.7 1.2
v 0.3 0.7 1.2
v -0.2 0.7 1
v -0.1 0.7 1
v 0.2 0.7 1
v 0.3 0.7 1
v -0.2 0.7 0.9
v -0.1 0.7 0.9
v 0.2 0.7 0.9
v 0.3 0.7 0.9
v -0.1 0.7 0.7
v 0 0.7 0.7
v 0.1 0.7 0.7
v 0.2 0.7 0.7
v 0 0.7 0.6
v 0.1 0.7 0.6
v 0.2 0.7 0.6
v 0 0.7 0.5
v 0.1 0.7 0.5
v -0.1 0.8 1.5
v 0 0.8 1.5
v 0.1 0.8 1.5
v 0.2 0.8 1.5
v -0.1 0.8 1.4
v 0 0.8 1.4
v 0.1 0.8 1.4
v 0.2 0.8 1.4
v -0.1 0.8 1.3
v 0 0.8 1.3
v 0.1 0.8 1.3
v 0.2 0.8 1.3
v 0 0.8 0.5
v 0.1 0.8 0.5
v 0 0.8 0.4
v 0.1 0.8 0.4
v -0.1 0.9 0.8
v 0 0.9 0.8
v -0.1 0.9 0.7
v 0 0.9 0.7
v -0.2 1 1
v -0.1 1 1
v 0.2 1 1
v 0.3 1 1
v -0.3 1 0.9
v -0.2 1 0.9
v 0.3 1 0.9
v 0.4 1 0.9
v -0.1 1 0.7
v 0.2 1 0.7
v -0.3 1 0.4
v -0.2 1 0.4
v 0.3 1 0.4
v 0.4 1 0.4
v -0.2 1 0.3
v -0.1 1 0.3
v 0.2 1 0.3
v 0.3 1 0.3
v -0.4 0.5 0.9
v -0.3 0.5 0.9
v 0.4 0.5 0.9
v 0.5 0.5 0.9
v -0.4 0.5 0.8
v -0.3 0.5 0.8
v 0.4 0.5 0.7
v 0.5 0.5 0.7
v -0.3 0.5 0.5
v -0.2 0.5 0.5
v -0.3 0.5 0.4
v -0.2 0.5 0.4
v 0.3 0.5 0.4
v 0.4 0.5 0.4
v 0.3 0.5 0.3
v 0.4 0.5 0.3
v -0.3 0.6 1.5
v -0.2 0.6 1.5
v 0.3 0.6 1.5
v 0.4 0.6 1.5
v -0.3 0.6 1.3
v -0.2 0.6 1.3
v 0.3 0.6 1.3
v 0.4 0.6 1.3
v -0.2 0.6 0.6
v -0.1 0.6 0.6
v -0.2 0.6 0.5
v -0.1 0.6 0.5
v 0.2 0.6 0.5
v 0.3 0.6 0.5
v 0.2 0.6 0.4
v 0.3 0.6 0.4
v -0.3 0.7 1.3
v -0.2 0.7 1.3
v 0.3 0.7 1.3
v 0.4 0.7 1.3
v -0.3 0.7 1.2
v -0.2 0.7 1.2
v 0.3 0.7 1.2
v 0.4 0.7 1.2
v -0.3 0.7 1
v -0.2 0.7 1
v 0.3 0.7 1
v 0.4 0.7 1
v -0.3 0.7 0.9
v -0.2 0.7 0.9
v 0.3 0.7 0.9
v 0.4 0.7 0.9
v 0.2 0.7 0.6
v 0.3 0.7 0.6
v 0.2 0.7 0.5
v 0.3 0.7 0.5
v -0.2 0.8 1.3
v -0.1 0.8 1.3
v 0.2 0.8 1.3
v 0.3 0.8 1.3
v -0.2 0.8 1.2
v -0.1 0.8 1.2
v 0.2 0.8 1.2
v 0.3 0.8 1.2
v -0.2 0.8 1
v -0.1 0.8 1
v 0.2 0.8 1
v 0.3 0.8 1
v -0.2 0.8 0.9
v -0.1 0.8 0.9
v 0.2 0.8 0.9
v 0.3 0.8 0.9
v -0.1 0.8 0.8
v 0 0.8 0.8
v -0.1 0.8 0.7
v 0 0.8 0.7
v -0.1 0.8 0.6
v 0 0.8 0.6
v 0 0.9 1.6
v 0.1 0.9 1.6
v 0 0.9 1.5
v 0.1 0.9 1.5
v -0.1 0.9 1.2
v 0 0.9 1.2
v 0.1 0.9 1.2
v 0.2 0.9 1.2
v -0.1 0.9 1.1
v 0 0.9 1.1
v 0.1 0.9 1.1
v 0.2 0.9 1.1
v 0 0.9 0.7
v 0.1 0.9 0.7
v 0.2 0.9 0.7
v 0 0.9 0.6
v 0.1 0.9 0.6
v 0.2 0.9 0.6
v 0 0.9 0.5
v 0.1 0.9 0.5
v 0 0.9 0.4
v 0.1 0.9 0.4
v -0.1 1 1.5
v 0 1 1.5
v 0.1 1 1.5
v 0.2 1 1.5
v -0.1 1 1.4
v 0 1 1.4
v 0.1 1 1.4
v 0.2 1 1.4
v -0.1 1 1.2
v 0 1 1.2
v 0.1 1 1.2
v 0.2 1 1.2
v -0.1 1 1.1
v 0 1 1.1
v 0.1 1 1.1
v 0.2 1 1.1
v -0.1 1 1
v 0 1 1
v 0.1 1 1
v 0.2 1 1
v 0 1 0.9
v 0.1 1 0.9
v 0 1 0.8
v 0.1 1 0.8
v -0.1 1 0.7
v 0 1 0.7
v 0.1 1 0.7
v 0.2 1 0.7
v -0.2 1.1 1
v -0.1 1.1 1
v 0.2 1.1 1
v 0.3 1.1 1
v -0.3 1.1 0.9
v -0.2 1.1 0.9
v 0.3 1.1 0.9
v 0.4 1.1 0.9
v -0.3 1.1 0.4
v -0.2 1.1 0.4
v 0.3 1.1 0.4
v 0.4 1.1 0.4
v -0.2 1.1 0.3
v -0.1 1.1 0.3
v 0.2 1.1 0.3
v 0.3 1.1 0.3

# faces
f 3/1/1 2/1/1 1/1/1
f 4/1/1 2/1/1 3/1/1
f 11/1/1 6/1/1 5/1/1
f 12/1/1 6/1/1 11/1/1
f 13/1/1 8/1/1 7/1/1
f 14/1/1 8/1/1 13/1/1
f 16/1/1 15/1/1 14/1/1
f 17/1/1 15/1/1 16/1/1
f 18/1/1 10/1/1 9/1/1
f 19/1/1 10/1/1 18/1/1
f 22/5/1 21/5/1 20/5/1
f 23/5/1 21/5/1 22/5/1
f 26/1/1 25/1/1 24/1/1
f 27/1/1 25/1/1 26/1/1
f 32/1/1 29/1/1 28/1/1
f 33/1/1 29/1/1 32/1/1
f 34/1/1 31/1/1 30/1/1
f 35/1/1 31/1/1 34/1/1
f 40/5/1 37/5/1 36/5/1
f 41/5/1 37/5/1 40/5/1
f 42/5/1 39/5/1 38/5/1
f 43/5/1 39/5/1 42/5/1
f 49/1/1 45/1/1 44/1/1
f 53/3/1 47/3/1 46/3/1
f 54/3/1 47/3/1 53/3/1
f 55/3/1 47/3/1 54/3/1
f 56/3/1 49/3/1 48/3/1
f 57/3/1 49/3/1 56/3/1
f 58/1/1 45/1/1 49/1/1
f 58/3/1 49/3/1 57/3/1
f 59/1/1 45/1/1 58/1/1
f 60/4/1 51/4/1 50/4/1
f 61/3/1 52/3/1 51/3/1
f 61/4/1 51/4/1 60/4/1
f 61/3/1 53/3/1 52/3/1
f 62/1/1 54/1/1 53/1/1
f 62/3/1 53/3/1 61/3/1
f 63/3/1 55/3/1 54/3/1
f 63/1/1 54/1/1 62/1/1
f 64/2/1 56/2/1 55/2/1
f 64/3/1 55/3/1 63/3/1
f 65/3/1 57/3/1 56/3/1
f 65/2/1 56/2/1 64/2/1
f 66/3/1 57/3/1 65/3/1
f 68/7/1 61/7/1 60/7/1
f 69/4/1 62/4/1 61/4/1
f 69/7/1 61/7/1 68/7/1
f 70/4/1 62/4/1 69/4/1
f 71/5/1 64/5/1 63/5/1
f 71/5/1 67/5/1 66/5/1
f 71/5/1 66/5/1 65/5/1
f 71/5/1 65/5/1 64/5/1
f 72/5/1 67/5/1 71/5/1
f 73/5/1 67/5/1 72/5/1
f 80/6/1 75/6/1 74/6/1
f 81/3/1 77/3/1 76/3/1
f 82/3/1 77/3/1 81/3/1
f 85/1/1 79/1/1 78/1/1
f 86/1/1 79/1/1 85/1/1
f 88/6/1 80/6/1 74/6/1
f 89/6/1 80/6/1 88/6/1
f 90/3/1 84/3/1 83/3/1
f 90/3/1 85/3/1 84/3/1
f 91/3/1 85/3/1 90/3/1
f 92/1/1 86/1/1 85/1/1
f 92/3/1 85/3/1 91/3/1
f 93/3/1 87/3/1 86/3/1
f 93/1/1 86/1/1 92/1/1
f 94/3/1 87/3/1 93/3/1
f 98/1/1 96/1/1 95/1/1
f 99/1/1 96/1/1 98/1/1
f 100/1/1 98/1/1 97/1/1
f 101/1/1 98/1/1 100/1/1
f 105/5/1 103/5/1 102/5/1
f 105/5/1 104/5/1 103/5/1
f 106/5/1 104/5/1 105/5/1
f 113/1/1 108/1/1 107/1/1
f 114/1/1 108/1/1 113/1/1
f 115/1/1 110/1/1 109/1/1
f 116/1/1 110/1/1 115/1/1
f 118/1/1 117/1/1 116/1/1
f 119/1/1 117/1/1 118/1/1
f 120/1/1 112/1/1 111/1/1
f 121/1/1 112/1/1 120/1/1
f 124/1/1 123/1/1 122/1/1
f 125/1/1 123/1/1 124/1/1
f 126/1/2 127/1/2 128/1/2
f 128/1/2 127/1/2 129/1/2
f 130/1/2 131/1/2 136/1/2
f 136/1/2 131/1/2 137/1/2
f 132/1/2 133/1/2 138/1/2
f 138/1/2 133/1/2 139/1/2
f 139/1/2 140/1/2 141/1/2
f 141/1/2 140/1/2 142/1/2
f 134/1/2 135/1/2 143/1/2
f 143/1/2 135/1/2 144/1/2
f 145/1/2 146/1/2 147/1/2
f 147/1/2 146/1/2 148/1/2
f 149/5/2 150/5/2 152/5/2
f 150/5/2 151/5/2 152/5/2
f 152/5/2 151/5/2 153/5/2
f 154/1/2 155/1/2 156/1/2
f 156/1/2 155/1/2 157/1/2
f 158/6/2 159/6/2 164/6/2
f 160/3/2 161/3/2 165/3/2
f 165/3/2 161/3/2 166/3/2
f 162/1/2 163/1/2 167/1/2
f 167/1/2 163/1/2 168/1/2
f 158/6/2 164/6/2 170/6/2
f 170/6/2 164/6/2 171/6/2
f 167/1/2 168/1/2 172/1/2
f 168/3/2 169/3/2 173/3/2
f 172/1/2 168/1/2 173/1/2
f 173/3/2 169/3/2 174/3/2
f 175/3/2 176/3/2 183/3/2
f 183/3/2 176/3/2 184/3/2
f 184/3/2 176/3/2 185/3/2
f 177/3/2 178/3/2 186/3/2
f 178/1/2 179/1/2 187/1/2
f 186/3/2 178/3/2 187/3/2
f 187/1/2 179/1/2 188/1/2
f 180/4/2 181/4/2 189/4/2
f 181/3/2 182/3/2 190/3/2
f 189/4/2 181/4/2 190/4/2
f 182/3/2 183/3/2 190/3/2
f 183/1/2 184/1/2 191/1/2
f 190/3/2 183/3/2 191/3/2
f 184/3/2 185/3/2 192/3/2
f 191/1/2 184/1/2 192/1/2
f 185/2/2 186/2/2 193/2/2
f 192/3/2 185/3/2 193/3/2
f 187/3/2 188/3/2 194/3/2
f 193/2/2 186/2/2 194/2/2
f 186/3/2 187/3/2 194/3/2
f 194/3/2 188/3/2 195/3/2
f 195/3/2 188/3/2 196/3/2
f 189/7/2 190/7/2 197/7/2
f 190/4/2 191/4/2 198/4/2
f 197/7/2 190/7/2 198/7/2
f 198/4/2 191/4/2 199/4/2
f 192/5/2 193/5/2 200/5/2
f 194/5/2 195/5/2 200/5/2
f 193/5/2 194/5/2 200/5/2
f 200/5/2 195/5/2 201/5/2
f 201/5/2 195/5/2 202/5/2
f 203/1/2 204/1/2 206/1/2
f 206/1/2 204/1/2 207/1/2
f 205/1/2 206/1/2 212/1/2
f 212/1/2 206/1/2 213/1/2
f 208/1/2 209/1/2 214/1/2
f 214/1/2 209/1/2 215/1/2
f 210/1/2 211/1/2 216/1/2
f 216/1/2 211/1/2 217/1/2
f 218/5/2 219/5/2 222/5/2
f 222/5/2 219/5/2 223/5/2
f 220/5/2 221/5/2 224/5/2
f 224/5/2 221/5/2 225/5/2
f 226/1/2 227/1/2 232/1/2
f 232/1/2 227/1/2 233/1/2
f 228/1/2 229/1/2 234/1/2
f 234/1/2 229/1/2 235/1/2
f 235/1/2 236/1/2 237/1/2
f 237/1/2 236/1/2 238/1/2
f 230/1/2 231/1/2 239/1/2
f 239/1/2 231/1/2 240/1/2
f 241/5/2 242/5/2 243/5/2
f 243/5/2 242/5/2 244/5/2
f 245/1/2 246/1/2 247/1/2
f 247/1/2 246/1/2 248/1/2
f 251/6/3 250/6/3 249/6/3
f 252/6/3 250/6/3 251/6/3
f 255/1/3 254/1/3 253/1/3
f 256/1/3 254/1/3 255/1/3
f 260/4/3 258/4/3 257/4/3
f 261/7/3 259/7/3 258/7/3
f 261/4/3 258/4/3 260/4/3
f 262/7/3 259/7/3 261/7/3
f 264/4/3 262/4/3 261/4/3
f 265/4/3 262/4/3 264/4/3
f 266/4/3 264/4/3 263/4/3
f 267/7/3 265/7/3 264/7/3
f 267/4/3 264/4/3 266/4/3
f 268/7/3 265/7/3 267/7/3
f 271/1/3 270/1/3 269/1/3
f 272/1/3 270/1/3 271/1/3
f 275/3/3 274/3/3 273/3/3
f 276/3/3 274/3/3 275/3/3
f 279/1/3 278/1/3 277/1/3
f 280/1/3 278/1/3 279/1/3
f 282/1/3 281/1/3 280/1/3
f 283/1/3 281/1/3 282/1/3
f 284/3/3 283/3/3 282/3/3
f 285/3/3 283/3/3 284/3/3
f 288/3/3 287/3/3 286/3/3
f 289/3/3 287/3/3 288/3/3
f 291/1/3 289/1/3 288/1/3
f 292/1/3 289/1/3 291/1/3
f 293/1/3 291/1/3 290/1/3
f 294/1/3 291/1/3 293/1/3
f 297/5/3 296/5/3 295/5/3
f 298/5/3 296/5/3 297/5/3
f 299/3/3 298/3/3 297/3/3
f 300/3/3 298/3/3 299/3/3
f 301/5/3 300/5/3 299/5/3
f 302/5/3 300/5/3 301/5/3
f 305/1/3 304/1/3 303/1/3
f 306/1/3 304/1/3 305/1/3
f 310/1/3 307/1/3 306/1/3
f 311/1/3 307/1/3 310/1/3
f 312/5/3 309/5/3 308/5/3
f 313/5/3 309/5/3 312/5/3
f 319/1/3 315/1/3 314/1/3
f 320/1/3 315/1/3 319/1/3
f 321/5/3 317/5/3 316/5/3
f 322/5/3 317/5/3 321/5/3
f 323/1/3 319/1/3 318/1/3
f 324/1/3 319/1/3 323/1/3
f 327/1/3 326/1/3 325/1/3
f 328/1/3 326/1/3 327/1/3
f 331/5/3 330/5/3 329/5/3
f 332/5/3 330/5/3 331/5/3
f 337/5/3 334/5/3 333/5/3
f 338/5/3 334/5/3 337/5/3
f 339/1/3 336/1/3 335/1/3
f 340/1/3 336/1/3 339/1/3
f 343/1/3 342/1/3 341/1/3
f 344/1/3 342/1/3 343/1/3
f 347/1/3 346/1/3 345/1/3
f 348/1/3 346/1/3 347/1/3
f 351/1/3 350/1/3 349/1/3
f 352/1/3 350/1/3 351/1/3
f 355/1/3 354/1/3 353/1/3
f 356/1/3 354/1/3 355/1/3
f 359/1/3 358/1/3 357/1/3
f 360/1/3 358/1/3 359/1/3
f 363/1/3 362/1/3 361/1/3
f 364/1/3 362/1/3 363/1/3
f 365/6/4 366/6/4 367/6/4
f 367/6/4 366/6/4 368/6/4
f 369/1/4 370/1/4 371/1/4
f 371/1/4 370/1/4 372/1/4
f 373/1/4 374/1/4 375/1/4
f 375/1/4 374/1/4 376/1/4
f 377/1/4 378/1/4 379/1/4
f 379/1/4 378/1/4 380/1/4
f 380/1/4 381/1/4 382/1/4
f 382/1/4 381/1/4 383/1/4
f 384/4/4 385/4/4 386/4/4
f 386/4/4 385/4/4 387/4/4
f 386/3/4 387/3/4 388/3/4
f 388/3/4 387/3/4 389/3/4
f 388/4/4 389/4/4 392/4/4
f 392/4/4 389/4/4 393/4/4
f 390/1/4 391/1/4 395/1/4
f 395/1/4 391/1/4 396/1/4
f 394/1/4 395/1/4 397/1/4
f 397/1/4 395/1/4 398/1/4
f 399/1/4 400/1/4 401/1/4
f 401/1/4 400/1/4 402/1/4
f 402/1/4 403/1/4 404/1/4
f 404/1/4 403/1/4 405/1/4
f 406/1/4 407/1/4 409/1/4
f 409/1/4 407/1/4 410/1/4
f 408/1/4 409/1/4 411/1/4
f 411/1/4 409/1/4 412/1/4
f 413/1/4 414/1/4 415/1/4
f 415/1/4 414/1/4 416/1/4
f 417/3/4 418/3/4 419/3/4
f 419/3/4 418/3/4 420/3/4
f 421/5/4 422/5/4 423/5/4
f 423/5/4 422/5/4 424/5/4
f 423/1/4 424/1/4 425/1/4
f 425/1/4 424/1/4 426/1/4
f 425/5/4 426/5/4 427/5/4
f 427/5/4 426/5/4 428/5/4
f 429/1/4 430/1/4 431/1/4
f 431/1/4 430/1/4 432/1/4
f 433/1/4 434/1/4 435/1/4
f 435/1/4 434/1/4 436/1/4
f 436/1/4 434/1/4 437/1/4
f 438/1/4 439/1/4 441/1/4
f 439/3/4 440/3/4 442/3/4
f 441/1/4 439/1/4 442/1/4
f 442/3/4 440/3/4 443/3/4
f 444/1/4 445/1/4 446/1/4
f 446/1/4 445/1/4 447/1/4
f 448/1/4 449/1/4 450/1/4
f 450/1/4 449/1/4 451/1/4
f 452/1/4 453/1/4 454/1/4
f 454/1/4 453/1/4 455/1/4
f 456/1/4 457/1/4 460/1/4
f 460/1/4 457/1/4 461/1/4
f 458/5/4 459/5/4 462/5/4
f 462/5/4 459/5/4 463/5/4
f 464/3/4 465/3/4 466/3/4
f 466/3/4 465/3/4 467/3/4
f 468/1/4 469/1/4 470/1/4
f 470/1/4 469/1/4 471/1/4
f 472/5/4 473/5/4 474/5/4
f 474/5/4 473/5/4 475/5/4
f 476/5/4 477/5/4 478/5/4
f 478/5/4 477/5/4 479/5/4
f 480/5/4 481/5/4 484/5/4
f 484/5/4 481/5/4 485/5/4
f 482/1/4 483/1/4 486/1/4
f 486/1/4 483/1/4 487/1/4
f 492/1/5 489/1/5 488/1/5
f 493/1/5 489/1/5 492/1/5
f 494/1/5 491/1/5 490/1/5
f 495/1/5 491/1/5 494/1/5
f 498/1/5 497/1/5 496/1/5
f 499/1/5 497/1/5 498/1/5
f 502/1/5 501/1/5 500/1/5
f 503/1/5 501/1/5 502/1/5
f 508/6/5 505/6/5 504/6/5
f 509/6/5 505/6/5 508/6/5
f 512/1/5 507/1/5 506/1/5
f 513/1/5 507/1/5 512/1/5
f 514/1/5 511/1/5 510/1/5
f 515/1/5 511/1/5 514/1/5
f 520/1/5 517/1/5 516/1/5
f 521/1/5 517/1/5 520/1/5
f 522/1/5 519/1/5 518/1/5
f 523/1/5 519/1/5 522/1/5
f 526/1/5 525/1/5 524/1/5
f 527/1/5 525/1/5 526/1/5
f 530/1/5 529/1/5 528/1/5
f 531/1/5 529/1/5 530/1/5
f 536/1/5 533/1/5 532/1/5
f 537/1/5 533/1/5 536/1/5
f 538/1/5 535/1/5 534/1/5
f 539/1/5 535/1/5 538/1/5
f 542/1/5 541/1/5 540/1/5
f 543/1/5 541/1/5 542/1/5
f 546/1/5 545/1/5 544/1/5
f 547/1/5 545/1/5 546/1/5
f 552/3/5 549/3/5 548/3/5
f 553/3/5 549/3/5 552/3/5
f 556/1/5 551/1/5 550/1/5
f 557/3/5 552/3/5 551/3/5
f 557/1/5 551/1/5 556/1/5
f 557/3/5 553/3/5 552/3/5
f 557/3/5 554/3/5 553/3/5
f 558/1/5 555/1/5 554/1/5
f 558/3/5 554/3/5 557/3/5
f 559/1/5 555/1/5 558/1/5
f 561/3/5 558/3/5 557/3/5
f 562/3/5 558/3/5 561/3/5
f 564/1/5 561/1/5 560/1/5
f 565/3/5 562/3/5 561/3/5
f 565/1/5 561/1/5 564/1/5
f 566/1/5 563/1/5 562/1/5
f 566/3/5 562/3/5 565/3/5
f 567/1/5 563/1/5 566/1/5
f 568/3/5 566/3/5 565/3/5
f 569/3/5 566/3/5 568/3/5
f 570/3/5 566/3/5 569/3/5
f 571/3/5 566/3/5 570/3/5
f 572/3/5 570/3/5 569/3/5
f 573/1/5 571/1/5 570/1/5
f 573/3/5 570/3/5 572/3/5
f 574/1/5 571/1/5 573/1/5
f 575/1/5 573/1/5 572/1/5
f 576/1/5 573/1/5 575/1/5
f 581/4/5 578/4/5 577/4/5
f 581/4/5 580/4/5 579/4/5
f 581/4/5 579/4/5 578/4/5
f 582/4/5 580/4/5 581/4/5
f 583/4/5 580/4/5 582/4/5
f 584/4/5 580/4/5 583/4/5
f 585/3/5 582/3/5 581/3/5
f 586/3/5 582/3/5 585/3/5
f 587/3/5 584/3/5 583/3/5
f 588/3/5 584/3/5 587/3/5
f 591/3/5 590/3/5 589/3/5
f 592/3/5 590/3/5 591/3/5
f 595/5/5 594/5/5 593/5/5
f 596/5/5 594/5/5 595/5/5
f 602/5/5 598/5/5 597/5/5
f 603/5/5 600/5/5 599/5/5
f 605/5/5 602/5/5 601/5/5
f 605/5/5 598/5/5 602/5/5
f 606/5/5 604/5/5 603/5/5
f 606/5/5 603/5/5 599/5/5
f 607/5/5 605/5/5 601/5/5
f 608/5/5 605/5/5 607/5/5
f 609/5/5 604/5/5 606/5/5
f 610/5/5 604/5/5 609/5/5
f 611/5/5 605/5/5 608/5/5
f 612/5/5 605/5/5 611/5/5
f 613/5/5 609/5/5 606/5/5
f 614/5/5 609/5/5 613/5/5
f 615/1/6 616/1/6 619/1/6
f 619/1/6 616/1/6 620/1/6
f 617/1/6 618/1/6 621/1/6
f 621/1/6 618/1/6 622/1/6
f 623/1/6 624/1/6 625/1/6
f 625/1/6 624/1/6 626/1/6
f 627/1/6 628/1/6 629/1/6
f 629/1/6 628/1/6 630/1/6
f 631/1/6 632/1/6 635/1/6
f 635/1/6 632/1/6 636/1/6
f 633/1/6 634/1/6 637/1/6
f 637/1/6 634/1/6 638/1/6
f 639/1/6 640/1/6 641/1/6
f 641/1/6 640/1/6 642/1/6
f 643/1/6 644/1/6 645/1/6
f 645/1/6 644/1/6 646/1/6
f 647/1/6 648/1/6 651/1/6
f 651/1/6 648/1/6 652/1/6
f 649/1/6 650/1/6 653/1/6
f 653/1/6 650/1/6 654/1/6
f 655/1/6 656/1/6 659/1/6
f 659/1/6 656/1/6 660/1/6
f 657/1/6 658/1/6 661/1/6
f 661/1/6 658/1/6 662/1/6
f 663/1/6 664/1/6 665/1/6
f 665/1/6 664/1/6 666/1/6
f 667/1/6 668/1/6 671/1/6
f 671/1/6 668/1/6 672/1/6
f 669/1/6 670/1/6 673/1/6
f 673/1/6 670/1/6 674/1/6
f 675/1/6 676/1/6 679/1/6
f 679/1/6 676/1/6 680/1/6
f 677/1/6 678/1/6 681/1/6
f 681/1/6 678/1/6 682/1/6
f 683/3/6 684/3/6 685/3/6
f 685/3/6 684/3/6 686/3/6
f 685/1/6 686/1/6 687/1/6
f 687/1/6 686/1/6 688/1/6
f 689/6/6 690/6/6 691/6/6
f 691/6/6 690/6/6 692/6/6
f 693/1/6 694/1/6 697/1/6
f 694/3/6 695/3/6 698/3/6
f 697/1/6 694/1/6 698/1/6
f 695/1/6 696/1/6 699/1/6
f 698/3/6 695/3/6 699/3/6
f 699/1/6 696/1/6 700/1/6
f 701/3/6 702/3/6 704/3/6
f 702/3/6 703/3/6 704/3/6
f 704/3/6 703/3/6 705/3/6
f 705/3/6 703/3/6 706/3/6
f 704/1/6 705/1/6 707/1/6
f 707/1/6 705/1/6 708/1/6
f 707/3/6 708/3/6 709/3/6
f 709/3/6 708/3/6 710/3/6
f 711/7/6 712/7/6 715/7/6
f 712/4/6 713/4/6 716/4/6
f 715/7/6 712/7/6 716/7/6
f 713/7/6 714/7/6 717/7/6
f 716/4/6 713/4/6 717/4/6
f 717/7/6 714/7/6 718/7/6
f 715/4/6 716/4/6 719/4/6
f 716/3/6 717/3/6 720/3/6
f 719/4/6 716/4/6 720/4/6
f 717/4/6 718/4/6 721/4/6
f 720/3/6 717/3/6 721/3/6
f 721/4/6 718/4/6 722/4/6
f 723/5/6 724/5/6 727/5/6
f 724/3/6 725/3/6 728/3/6
f 727/5/6 724/5/6 728/5/6
f 725/5/6 726/5/6 729/5/6
f 728/3/6 725/3/6 729/3/6
f 729/5/6 726/5/6 730/5/6
f 727/5/6 728/5/6 731/5/6
f 728/1/6 729/1/6 731/1/6
f 729/5/6 730/5/6 732/5/6
f 731/1/6 729/1/6 732/1/6
f 727/5/6 731/5/6 733/5/6
f 731/3/6 732/3/6 733/3/6
f 732/5/6 730/5/6 734/5/6
f 733/3/6 732/3/6 734/3/6
f 727/5/6 733/5/6 735/5/6
f 733/1/6 734/1/6 736/1/6
f 735/5/6 733/5/6 736/5/6
f 734/5/6 730/5/6 737/5/6
f 736/1/6 734/1/6 737/1/6
f 737/5/6 730/5/6 738/5/6
f 739/5/6 740/5/6 744/5/6
f 741/5/6 742/5/6 745/5/6
f 743/5/6 744/5/6 747/5/6
f 744/5/6 740/5/6 748/5/6
f 747/5/6 744/5/6 748/5/6
f 745/5/6 746/5/6 749/5/6
f 741/5/6 745/5/6 749/5/6
f 749/5/6 746/5/6 750/5/6
f 748/5/6 740/5/6 751/5/6
f 751/5/6 740/5/6 752/5/6
f 741/5/6 749/5/6 753/5/6
f 753/5/6 749/5/6 754/5/6
