# MagicaVoxel @ Ephtracy

# group
o 

# material
mtllib ManaRegenerationBuff.mtl
usemtl palette

# normals
vn -1 0 0
vn 1 0 0
vn 0 0 1
vn 0 0 -1
vn 0 -1 0
vn 0 1 0

# texcoords
vt 0.763672 0.5
vt 0.767578 0.5
vt 0.771484 0.5
vt 0.779297 0.5
vt 0.896484 0.5
vt 0.904297 0.5
vt 0.958984 0.5
vt 0.990234 0.5
vt 0.994141 0.5

# verts
v -0.6 0.8 2.23517e-08
v -0.6 0.8 -0.1
v -0.6 0.9 2.23517e-08
v -0.6 0.9 -0.1
v -0.5 0.7 2.23517e-08
v -0.5 0.7 -0.1
v -0.5 0.8 2.23517e-08
v -0.5 0.8 -0.1
v -0.5 0.9 2.23517e-08
v -0.5 0.9 -0.1
v -0.5 1 2.23517e-08
v -0.5 1 -0.1
v -0.4 0.6 2.23517e-08
v -0.4 0.6 -0.1
v -0.4 0.7 2.23517e-08
v -0.4 0.7 -0.1
v -0.4 1 2.23517e-08
v -0.4 1 -0.1
v -0.4 1.1 2.23517e-08
v -0.4 1.1 -0.1
v -0.4 1.6 2.23517e-08
v -0.4 1.6 -0.1
v -0.4 2.1 2.23517e-08
v -0.4 2.1 -0.1
v -0.3 0.5 2.23517e-08
v -0.3 0.5 -0.1
v -0.3 0.6 2.23517e-08
v -0.3 0.6 -0.1
v -0.3 1.1 2.23517e-08
v -0.3 1.1 -0.1
v -0.3 1.2 2.23517e-08
v -0.3 1.2 -0.1
v -0.3 1.5 2.23517e-08
v -0.3 1.5 -0.1
v -0.3 1.6 2.23517e-08
v -0.3 1.6 -0.1
v -0.3 2.1 2.23517e-08
v -0.3 2.1 -0.1
v -0.3 2.2 2.23517e-08
v -0.3 2.2 -0.1
v -0.2 0.4 2.23517e-08
v -0.2 0.4 -0.1
v -0.2 0.5 2.23517e-08
v -0.2 0.5 -0.1
v -0.2 1.2 2.23517e-08
v -0.2 1.2 -0.1
v -0.2 1.3 2.23517e-08
v -0.2 1.3 -0.1
v -0.2 1.4 2.23517e-08
v -0.2 1.4 -0.1
v -0.2 1.5 2.23517e-08
v -0.2 1.5 -0.1
v -0.2 2.2 2.23517e-08
v -0.2 2.2 -0.1
v -0.2 2.3 2.23517e-08
v -0.2 2.3 -0.1
v -0.1 1.3 2.23517e-08
v -0.1 1.3 -0.1
v -0.1 1.4 2.23517e-08
v -0.1 1.4 -0.1
v 0.1 1.3 2.23517e-08
v 0.1 1.3 -0.1
v 0.1 1.4 2.23517e-08
v 0.1 1.4 -0.1
v 0.2 1.4 2.23517e-08
v 0.2 1.4 -0.1
v 0.2 1.5 2.23517e-08
v 0.2 1.5 -0.1
v 0.3 1.5 2.23517e-08
v 0.3 1.5 -0.1
v 0.3 1.6 2.23517e-08
v 0.3 1.6 -0.1
v 0.3 2.1 2.23517e-08
v 0.3 2.1 -0.1
v 0.3 2.2 2.23517e-08
v 0.3 2.2 -0.1
v 0.4 1.6 2.23517e-08
v 0.4 1.6 -0.1
v 0.4 2.1 2.23517e-08
v 0.4 2.1 -0.1
v -0.3 1.6 2.23517e-08
v -0.3 1.6 -0.1
v -0.3 2.1 2.23517e-08
v -0.3 2.1 -0.1
v -0.2 1.5 2.23517e-08
v -0.2 1.5 -0.1
v -0.2 1.6 2.23517e-08
v -0.2 1.6 -0.1
v -0.2 2.1 2.23517e-08
v -0.2 2.1 -0.1
v -0.2 2.2 2.23517e-08
v -0.2 2.2 -0.1
v -0.1 1.4 2.23517e-08
v -0.1 1.4 -0.1
v -0.1 1.5 2.23517e-08
v -0.1 1.5 -0.1
v 0 1.3 2.23517e-08
v 0 1.3 -0.1
v 0 1.4 2.23517e-08
v 0 1.4 -0.1
v 0.2 1.3 2.23517e-08
v 0.2 1.3 -0.1
v 0.2 1.4 2.23517e-08
v 0.2 1.4 -0.1
v 0.3 0.4 2.23517e-08
v 0.3 0.4 -0.1
v 0.3 0.5 2.23517e-08
v 0.3 0.5 -0.1
v 0.3 1.2 2.23517e-08
v 0.3 1.2 -0.1
v 0.3 1.3 2.23517e-08
v 0.3 1.3 -0.1
v 0.3 1.4 2.23517e-08
v 0.3 1.4 -0.1
v 0.3 1.5 2.23517e-08
v 0.3 1.5 -0.1
v 0.3 2.2 2.23517e-08
v 0.3 2.2 -0.1
v 0.3 2.3 2.23517e-08
v 0.3 2.3 -0.1
v 0.4 0.5 2.23517e-08
v 0.4 0.5 -0.1
v 0.4 0.6 2.23517e-08
v 0.4 0.6 -0.1
v 0.4 1.1 2.23517e-08
v 0.4 1.1 -0.1
v 0.4 1.2 2.23517e-08
v 0.4 1.2 -0.1
v 0.4 1.5 2.23517e-08
v 0.4 1.5 -0.1
v 0.4 1.6 2.23517e-08
v 0.4 1.6 -0.1
v 0.4 2.1 2.23517e-08
v 0.4 2.1 -0.1
v 0.4 2.2 2.23517e-08
v 0.4 2.2 -0.1
v 0.5 0.6 2.23517e-08
v 0.5 0.6 -0.1
v 0.5 0.7 2.23517e-08
v 0.5 0.7 -0.1
v 0.5 1 2.23517e-08
v 0.5 1 -0.1
v 0.5 1.1 2.23517e-08
v 0.5 1.1 -0.1
v 0.5 1.6 2.23517e-08
v 0.5 1.6 -0.1
v 0.5 2.1 2.23517e-08
v 0.5 2.1 -0.1
v 0.6 0.7 2.23517e-08
v 0.6 0.7 -0.1
v 0.6 0.8 2.23517e-08
v 0.6 0.8 -0.1
v 0.6 0.9 2.23517e-08
v 0.6 0.9 -0.1
v 0.6 1 2.23517e-08
v 0.6 1 -0.1
v 0.7 0.8 2.23517e-08
v 0.7 0.8 -0.1
v 0.7 0.9 2.23517e-08
v 0.7 0.9 -0.1
v -0.6 0.8 2.23517e-08
v -0.6 0.9 2.23517e-08
v -0.5 0.7 2.23517e-08
v -0.5 0.8 2.23517e-08
v -0.5 0.9 2.23517e-08
v -0.5 1 2.23517e-08
v -0.4 0.6 2.23517e-08
v -0.4 0.7 2.23517e-08
v -0.4 0.8 2.23517e-08
v -0.4 0.9 2.23517e-08
v -0.4 1 2.23517e-08
v -0.4 1.1 2.23517e-08
v -0.4 1.6 2.23517e-08
v -0.4 2.1 2.23517e-08
v -0.3 0.5 2.23517e-08
v -0.3 0.6 2.23517e-08
v -0.3 0.7 2.23517e-08
v -0.3 0.8 2.23517e-08
v -0.3 0.9 2.23517e-08
v -0.3 1 2.23517e-08
v -0.3 1.1 2.23517e-08
v -0.3 1.2 2.23517e-08
v -0.3 1.5 2.23517e-08
v -0.3 1.6 2.23517e-08
v -0.3 2.1 2.23517e-08
v -0.3 2.2 2.23517e-08
v -0.2 0.4 2.23517e-08
v -0.2 0.5 2.23517e-08
v -0.2 0.6 2.23517e-08
v -0.2 0.7 2.23517e-08
v -0.2 0.8 2.23517e-08
v -0.2 0.9 2.23517e-08
v -0.2 1 2.23517e-08
v -0.2 1.1 2.23517e-08
v -0.2 1.2 2.23517e-08
v -0.2 1.3 2.23517e-08
v -0.2 1.4 2.23517e-08
v -0.2 1.5 2.23517e-08
v -0.2 1.6 2.23517e-08
v -0.2 2.1 2.23517e-08
v -0.2 2.2 2.23517e-08
v -0.2 2.3 2.23517e-08
v -0.1 0.7 2.23517e-08
v -0.1 1 2.23517e-08
v -0.1 1.3 2.23517e-08
v -0.1 1.4 2.23517e-08
v -0.1 1.5 2.23517e-08
v 0 1.1 2.23517e-08
v 0 1.2 2.23517e-08
v 0 1.3 2.23517e-08
v 0 1.4 2.23517e-08
v 0 2.2 2.23517e-08
v 0 2.3 2.23517e-08
v 0.1 0.5 2.23517e-08
v 0.1 0.6 2.23517e-08
v 0.1 0.8 2.23517e-08
v 0.1 1 2.23517e-08
v 0.1 1.1 2.23517e-08
v 0.1 1.3 2.23517e-08
v 0.1 1.4 2.23517e-08
v 0.2 0.4 2.23517e-08
v 0.2 0.5 2.23517e-08
v 0.2 0.6 2.23517e-08
v 0.2 0.7 2.23517e-08
v 0.2 0.8 2.23517e-08
v 0.2 0.9 2.23517e-08
v 0.2 1 2.23517e-08
v 0.2 1.2 2.23517e-08
v 0.2 1.3 2.23517e-08
v 0.2 1.4 2.23517e-08
v 0.2 1.5 2.23517e-08
v 0.3 0.4 2.23517e-08
v 0.3 0.5 2.23517e-08
v 0.3 0.6 2.23517e-08
v 0.3 0.7 2.23517e-08
v 0.3 0.8 2.23517e-08
v 0.3 0.9 2.23517e-08
v 0.3 1 2.23517e-08
v 0.3 1.1 2.23517e-08
v 0.3 1.2 2.23517e-08
v 0.3 1.3 2.23517e-08
v 0.3 1.4 2.23517e-08
v 0.3 1.5 2.23517e-08
v 0.3 1.6 2.23517e-08
v 0.3 2.1 2.23517e-08
v 0.3 2.2 2.23517e-08
v 0.3 2.3 2.23517e-08
v 0.4 0.5 2.23517e-08
v 0.4 0.6 2.23517e-08
v 0.4 0.7 2.23517e-08
v 0.4 0.8 2.23517e-08
v 0.4 0.9 2.23517e-08
v 0.4 1 2.23517e-08
v 0.4 1.1 2.23517e-08
v 0.4 1.2 2.23517e-08
v 0.4 1.5 2.23517e-08
v 0.4 1.6 2.23517e-08
v 0.4 2.1 2.23517e-08
v 0.4 2.2 2.23517e-08
v 0.5 0.6 2.23517e-08
v 0.5 0.7 2.23517e-08
v 0.5 0.8 2.23517e-08
v 0.5 0.9 2.23517e-08
v 0.5 1 2.23517e-08
v 0.5 1.1 2.23517e-08
v 0.5 1.6 2.23517e-08
v 0.5 2.1 2.23517e-08
v 0.6 0.7 2.23517e-08
v 0.6 0.8 2.23517e-08
v 0.6 0.9 2.23517e-08
v 0.6 1 2.23517e-08
v 0.7 0.8 2.23517e-08
v 0.7 0.9 2.23517e-08
v -0.6 0.8 -0.1
v -0.6 0.9 -0.1
v -0.5 0.7 -0.1
v -0.5 0.8 -0.1
v -0.5 0.9 -0.1
v -0.5 1 -0.1
v -0.4 0.6 -0.1
v -0.4 0.7 -0.1
v -0.4 0.8 -0.1
v -0.4 0.9 -0.1
v -0.4 1 -0.1
v -0.4 1.1 -0.1
v -0.4 1.6 -0.1
v -0.4 2.1 -0.1
v -0.3 0.5 -0.1
v -0.3 0.6 -0.1
v -0.3 0.7 -0.1
v -0.3 0.8 -0.1
v -0.3 0.9 -0.1
v -0.3 1 -0.1
v -0.3 1.1 -0.1
v -0.3 1.2 -0.1
v -0.3 1.5 -0.1
v -0.3 1.6 -0.1
v -0.3 2.1 -0.1
v -0.3 2.2 -0.1
v -0.2 0.4 -0.1
v -0.2 0.5 -0.1
v -0.2 0.6 -0.1
v -0.2 0.7 -0.1
v -0.2 0.8 -0.1
v -0.2 0.9 -0.1
v -0.2 1 -0.1
v -0.2 1.1 -0.1
v -0.2 1.2 -0.1
v -0.2 1.3 -0.1
v -0.2 1.4 -0.1
v -0.2 1.5 -0.1
v -0.2 1.6 -0.1
v -0.2 2.1 -0.1
v -0.2 2.2 -0.1
v -0.2 2.3 -0.1
v -0.1 0.7 -0.1
v -0.1 1 -0.1
v -0.1 1.3 -0.1
v -0.1 1.4 -0.1
v -0.1 1.5 -0.1
v 0 1.1 -0.1
v 0 1.2 -0.1
v 0 1.3 -0.1
v 0 1.4 -0.1
v 0 2.2 -0.1
v 0 2.3 -0.1
v 0.1 0.5 -0.1
v 0.1 0.6 -0.1
v 0.1 0.8 -0.1
v 0.1 1 -0.1
v 0.1 1.1 -0.1
v 0.1 1.3 -0.1
v 0.1 1.4 -0.1
v 0.2 0.4 -0.1
v 0.2 0.5 -0.1
v 0.2 0.6 -0.1
v 0.2 0.7 -0.1
v 0.2 0.8 -0.1
v 0.2 0.9 -0.1
v 0.2 1 -0.1
v 0.2 1.2 -0.1
v 0.2 1.3 -0.1
v 0.2 1.4 -0.1
v 0.2 1.5 -0.1
v 0.3 0.4 -0.1
v 0.3 0.5 -0.1
v 0.3 0.6 -0.1
v 0.3 0.7 -0.1
v 0.3 0.8 -0.1
v 0.3 0.9 -0.1
v 0.3 1 -0.1
v 0.3 1.1 -0.1
v 0.3 1.2 -0.1
v 0.3 1.3 -0.1
v 0.3 1.4 -0.1
v 0.3 1.5 -0.1
v 0.3 1.6 -0.1
v 0.3 2.1 -0.1
v 0.3 2.2 -0.1
v 0.3 2.3 -0.1
v 0.4 0.5 -0.1
v 0.4 0.6 -0.1
v 0.4 0.7 -0.1
v 0.4 0.8 -0.1
v 0.4 0.9 -0.1
v 0.4 1 -0.1
v 0.4 1.1 -0.1
v 0.4 1.2 -0.1
v 0.4 1.5 -0.1
v 0.4 1.6 -0.1
v 0.4 2.1 -0.1
v 0.4 2.2 -0.1
v 0.5 0.6 -0.1
v 0.5 0.7 -0.1
v 0.5 0.8 -0.1
v 0.5 0.9 -0.1
v 0.5 1 -0.1
v 0.5 1.1 -0.1
v 0.5 1.6 -0.1
v 0.5 2.1 -0.1
v 0.6 0.7 -0.1
v 0.6 0.8 -0.1
v 0.6 0.9 -0.1
v 0.6 1 -0.1
v 0.7 0.8 -0.1
v 0.7 0.9 -0.1
v -0.2 0.4 2.23517e-08
v 0.2 0.4 2.23517e-08
v 0.3 0.4 2.23517e-08
v -0.2 0.4 -0.1
v 0.2 0.4 -0.1
v 0.3 0.4 -0.1
v -0.3 0.5 2.23517e-08
v -0.2 0.5 2.23517e-08
v 0.3 0.5 2.23517e-08
v 0.4 0.5 2.23517e-08
v -0.3 0.5 -0.1
v -0.2 0.5 -0.1
v 0.3 0.5 -0.1
v 0.4 0.5 -0.1
v -0.4 0.6 2.23517e-08
v -0.3 0.6 2.23517e-08
v 0.4 0.6 2.23517e-08
v 0.5 0.6 2.23517e-08
v -0.4 0.6 -0.1
v -0.3 0.6 -0.1
v 0.4 0.6 -0.1
v 0.5 0.6 -0.1
v -0.5 0.7 2.23517e-08
v -0.4 0.7 2.23517e-08
v 0.5 0.7 2.23517e-08
v 0.6 0.7 2.23517e-08
v -0.5 0.7 -0.1
v -0.4 0.7 -0.1
v 0.5 0.7 -0.1
v 0.6 0.7 -0.1
v -0.6 0.8 2.23517e-08
v -0.5 0.8 2.23517e-08
v 0.6 0.8 2.23517e-08
v 0.7 0.8 2.23517e-08
v -0.6 0.8 -0.1
v -0.5 0.8 -0.1
v 0.6 0.8 -0.1
v 0.7 0.8 -0.1
v -0.2 1.4 2.23517e-08
v -0.1 1.4 2.23517e-08
v 0.2 1.4 2.23517e-08
v 0.3 1.4 2.23517e-08
v -0.2 1.4 -0.1
v -0.1 1.4 -0.1
v 0.2 1.4 -0.1
v 0.3 1.4 -0.1
v -0.3 1.5 2.23517e-08
v -0.2 1.5 2.23517e-08
v 0.3 1.5 2.23517e-08
v 0.4 1.5 2.23517e-08
v -0.3 1.5 -0.1
v -0.2 1.5 -0.1
v 0.3 1.5 -0.1
v 0.4 1.5 -0.1
v -0.4 1.6 2.23517e-08
v -0.3 1.6 2.23517e-08
v 0.4 1.6 2.23517e-08
v 0.5 1.6 2.23517e-08
v -0.4 1.6 -0.1
v -0.3 1.6 -0.1
v 0.4 1.6 -0.1
v 0.5 1.6 -0.1
v -0.3 2.1 2.23517e-08
v -0.2 2.1 2.23517e-08
v 0.3 2.1 2.23517e-08
v 0.4 2.1 2.23517e-08
v -0.3 2.1 -0.1
v -0.2 2.1 -0.1
v 0.3 2.1 -0.1
v 0.4 2.1 -0.1
v -0.2 2.2 2.23517e-08
v 0 2.2 2.23517e-08
v 0.3 2.2 2.23517e-08
v -0.2 2.2 -0.1
v 0 2.2 -0.1
v 0.3 2.2 -0.1
v -0.6 0.9 2.23517e-08
v -0.5 0.9 2.23517e-08
v 0.6 0.9 2.23517e-08
v 0.7 0.9 2.23517e-08
v -0.6 0.9 -0.1
v -0.5 0.9 -0.1
v 0.6 0.9 -0.1
v 0.7 0.9 -0.1
v -0.5 1 2.23517e-08
v -0.4 1 2.23517e-08
v 0.5 1 2.23517e-08
v 0.6 1 2.23517e-08
v -0.5 1 -0.1
v -0.4 1 -0.1
v 0.5 1 -0.1
v 0.6 1 -0.1
v -0.4 1.1 2.23517e-08
v -0.3 1.1 2.23517e-08
v 0.4 1.1 2.23517e-08
v 0.5 1.1 2.23517e-08
v -0.4 1.1 -0.1
v -0.3 1.1 -0.1
v 0.4 1.1 -0.1
v 0.5 1.1 -0.1
v -0.3 1.2 2.23517e-08
v -0.2 1.2 2.23517e-08
v 0.3 1.2 2.23517e-08
v 0.4 1.2 2.23517e-08
v -0.3 1.2 -0.1
v -0.2 1.2 -0.1
v 0.3 1.2 -0.1
v 0.4 1.2 -0.1
v -0.2 1.3 2.23517e-08
v -0.1 1.3 2.23517e-08
v 0 1.3 2.23517e-08
v 0.1 1.3 2.23517e-08
v 0.2 1.3 2.23517e-08
v 0.3 1.3 2.23517e-08
v -0.2 1.3 -0.1
v -0.1 1.3 -0.1
v 0 1.3 -0.1
v 0.1 1.3 -0.1
v 0.2 1.3 -0.1
v 0.3 1.3 -0.1
v -0.1 1.4 2.23517e-08
v 0 1.4 2.23517e-08
v 0.1 1.4 2.23517e-08
v 0.2 1.4 2.23517e-08
v -0.1 1.4 -0.1
v 0 1.4 -0.1
v 0.1 1.4 -0.1
v 0.2 1.4 -0.1
v -0.2 1.5 2.23517e-08
v -0.1 1.5 2.23517e-08
v 0.2 1.5 2.23517e-08
v 0.3 1.5 2.23517e-08
v -0.2 1.5 -0.1
v -0.1 1.5 -0.1
v 0.2 1.5 -0.1
v 0.3 1.5 -0.1
v -0.3 1.6 2.23517e-08
v -0.2 1.6 2.23517e-08
v 0.3 1.6 2.23517e-08
v 0.4 1.6 2.23517e-08
v -0.3 1.6 -0.1
v -0.2 1.6 -0.1
v 0.3 1.6 -0.1
v 0.4 1.6 -0.1
v -0.4 2.1 2.23517e-08
v -0.3 2.1 2.23517e-08
v 0.4 2.1 2.23517e-08
v 0.5 2.1 2.23517e-08
v -0.4 2.1 -0.1
v -0.3 2.1 -0.1
v 0.4 2.1 -0.1
v 0.5 2.1 -0.1
v -0.3 2.2 2.23517e-08
v -0.2 2.2 2.23517e-08
v 0.3 2.2 2.23517e-08
v 0.4 2.2 2.23517e-08
v -0.3 2.2 -0.1
v -0.2 2.2 -0.1
v 0.3 2.2 -0.1
v 0.4 2.2 -0.1
v -0.2 2.3 2.23517e-08
v 0 2.3 2.23517e-08
v 0.3 2.3 2.23517e-08
v -0.2 2.3 -0.1
v 0 2.3 -0.1
v 0.3 2.3 -0.1

# faces
f 3/9/1 2/9/1 1/9/1
f 4/9/1 2/9/1 3/9/1
f 7/9/1 6/9/1 5/9/1
f 8/9/1 6/9/1 7/9/1
f 11/9/1 10/9/1 9/9/1
f 12/9/1 10/9/1 11/9/1
f 15/9/1 14/9/1 13/9/1
f 16/9/1 14/9/1 15/9/1
f 19/9/1 18/9/1 17/9/1
f 20/9/1 18/9/1 19/9/1
f 23/9/1 22/9/1 21/9/1
f 24/9/1 22/9/1 23/9/1
f 27/9/1 26/9/1 25/9/1
f 28/9/1 26/9/1 27/9/1
f 31/9/1 30/9/1 29/9/1
f 32/9/1 30/9/1 31/9/1
f 35/9/1 34/9/1 33/9/1
f 36/9/1 34/9/1 35/9/1
f 39/9/1 38/9/1 37/9/1
f 40/9/1 38/9/1 39/9/1
f 43/9/1 42/9/1 41/9/1
f 44/9/1 42/9/1 43/9/1
f 47/9/1 46/9/1 45/9/1
f 48/9/1 46/9/1 47/9/1
f 51/9/1 50/9/1 49/9/1
f 52/9/1 50/9/1 51/9/1
f 55/9/1 54/9/1 53/9/1
f 56/9/1 54/9/1 55/9/1
f 59/9/1 58/9/1 57/9/1
f 60/9/1 58/9/1 59/9/1
f 63/8/1 62/8/1 61/8/1
f 64/8/1 62/8/1 63/8/1
f 67/8/1 66/8/1 65/8/1
f 68/8/1 66/8/1 67/8/1
f 71/8/1 70/8/1 69/8/1
f 72/8/1 70/8/1 71/8/1
f 75/8/1 74/8/1 73/8/1
f 76/8/1 74/8/1 75/8/1
f 79/8/1 78/8/1 77/8/1
f 80/8/1 78/8/1 79/8/1
f 81/9/2 82/9/2 83/9/2
f 83/9/2 82/9/2 84/9/2
f 85/9/2 86/9/2 87/9/2
f 87/9/2 86/9/2 88/9/2
f 89/9/2 90/9/2 91/9/2
f 91/9/2 90/9/2 92/9/2
f 93/9/2 94/9/2 95/9/2
f 95/9/2 94/9/2 96/9/2
f 97/9/2 98/9/2 99/9/2
f 99/9/2 98/9/2 100/9/2
f 101/8/2 102/8/2 103/8/2
f 103/8/2 102/8/2 104/8/2
f 105/8/2 106/8/2 107/8/2
f 107/8/2 106/8/2 108/8/2
f 109/8/2 110/8/2 111/8/2
f 111/8/2 110/8/2 112/8/2
f 113/8/2 114/8/2 115/8/2
f 115/8/2 114/8/2 116/8/2
f 117/8/2 118/8/2 119/8/2
f 119/8/2 118/8/2 120/8/2
f 121/8/2 122/8/2 123/8/2
f 123/8/2 122/8/2 124/8/2
f 125/8/2 126/8/2 127/8/2
f 127/8/2 126/8/2 128/8/2
f 129/8/2 130/8/2 131/8/2
f 131/8/2 130/8/2 132/8/2
f 133/8/2 134/8/2 135/8/2
f 135/8/2 134/8/2 136/8/2
f 137/8/2 138/8/2 139/8/2
f 139/8/2 138/8/2 140/8/2
f 141/8/2 142/8/2 143/8/2
f 143/8/2 142/8/2 144/8/2
f 145/8/2 146/8/2 147/8/2
f 147/8/2 146/8/2 148/8/2
f 149/8/2 150/8/2 151/8/2
f 151/8/2 150/8/2 152/8/2
f 153/8/2 154/8/2 155/8/2
f 155/8/2 154/8/2 156/8/2
f 157/8/2 158/8/2 159/8/2
f 159/8/2 158/8/2 160/8/2
f 164/9/3 162/9/3 161/9/3
f 165/9/3 162/9/3 164/9/3
f 168/9/3 164/9/3 163/9/3
f 169/3/3 165/3/3 164/3/3
f 169/9/3 164/9/3 168/9/3
f 170/9/3 166/9/3 165/9/3
f 170/3/3 165/3/3 169/3/3
f 171/9/3 166/9/3 170/9/3
f 176/9/3 168/9/3 167/9/3
f 177/3/3 169/3/3 168/3/3
f 177/9/3 168/9/3 176/9/3
f 178/2/3 170/2/3 169/2/3
f 178/3/3 169/3/3 177/3/3
f 179/3/3 171/3/3 170/3/3
f 179/2/3 170/2/3 178/2/3
f 180/9/3 172/9/3 171/9/3
f 180/3/3 171/3/3 179/3/3
f 181/9/3 172/9/3 180/9/3
f 184/9/3 174/9/3 173/9/3
f 185/9/3 174/9/3 184/9/3
f 188/9/3 176/9/3 175/9/3
f 189/3/3 177/3/3 176/3/3
f 189/9/3 176/9/3 188/9/3
f 190/2/3 178/2/3 177/2/3
f 190/3/3 177/3/3 189/3/3
f 191/6/3 179/6/3 178/6/3
f 191/2/3 178/2/3 190/2/3
f 192/2/3 180/2/3 179/2/3
f 192/6/3 179/6/3 191/6/3
f 193/3/3 181/3/3 180/3/3
f 193/2/3 180/2/3 192/2/3
f 194/9/3 182/9/3 181/9/3
f 194/3/3 181/3/3 193/3/3
f 195/9/3 182/9/3 194/9/3
f 198/9/3 184/9/3 183/9/3
f 199/9/3 184/9/3 198/9/3
f 200/9/3 186/9/3 185/9/3
f 201/9/3 186/9/3 200/9/3
f 203/6/3 193/6/3 192/6/3
f 203/2/3 190/2/3 189/2/3
f 203/6/3 191/6/3 190/6/3
f 203/6/3 192/6/3 191/6/3
f 204/2/3 194/2/3 193/2/3
f 204/6/3 193/6/3 203/6/3
f 205/9/3 196/9/3 195/9/3
f 206/9/3 198/9/3 197/9/3
f 207/9/3 198/9/3 206/9/3
f 208/3/3 195/3/3 194/3/3
f 208/2/3 194/2/3 204/2/3
f 209/9/3 205/9/3 195/9/3
f 209/3/3 195/3/3 208/3/3
f 209/9/3 206/9/3 205/9/3
f 210/9/3 206/9/3 209/9/3
f 211/9/3 206/9/3 210/9/3
f 212/9/3 202/9/3 201/9/3
f 213/9/3 202/9/3 212/9/3
f 214/9/3 188/9/3 187/9/3
f 214/3/3 189/3/3 188/3/3
f 215/2/3 203/2/3 189/2/3
f 215/3/3 189/3/3 214/3/3
f 216/9/3 204/9/3 203/9/3
f 217/2/3 208/2/3 204/2/3
f 217/9/3 204/9/3 216/9/3
f 218/4/3 209/4/3 208/4/3
f 218/2/3 208/2/3 217/2/3
f 219/9/3 210/9/3 209/9/3
f 221/9/3 214/9/3 187/9/3
f 222/4/3 215/4/3 214/4/3
f 222/9/3 214/9/3 221/9/3
f 223/2/3 203/2/3 215/2/3
f 223/4/3 215/4/3 222/4/3
f 224/9/3 216/9/3 203/9/3
f 224/2/3 203/2/3 223/2/3
f 225/7/3 217/7/3 216/7/3
f 225/9/3 216/9/3 224/9/3
f 226/7/3 217/7/3 225/7/3
f 227/1/3 218/1/3 217/1/3
f 227/7/3 217/7/3 226/7/3
f 228/4/3 209/4/3 218/4/3
f 228/9/3 219/9/3 209/9/3
f 229/8/3 220/8/3 219/8/3
f 229/9/3 219/9/3 228/9/3
f 230/8/3 220/8/3 229/8/3
f 232/8/3 222/8/3 221/8/3
f 233/4/3 223/4/3 222/4/3
f 233/8/3 222/8/3 232/8/3
f 234/1/3 224/1/3 223/1/3
f 234/4/3 223/4/3 233/4/3
f 235/5/3 225/5/3 224/5/3
f 235/1/3 224/1/3 234/1/3
f 236/6/3 226/6/3 225/6/3
f 236/5/3 225/5/3 235/5/3
f 237/5/3 227/5/3 226/5/3
f 237/6/3 226/6/3 236/6/3
f 238/1/3 218/1/3 227/1/3
f 238/5/3 227/5/3 237/5/3
f 239/4/3 228/4/3 218/4/3
f 239/1/3 218/1/3 238/1/3
f 240/8/3 229/8/3 228/8/3
f 240/4/3 228/4/3 239/4/3
f 241/8/3 229/8/3 240/8/3
f 242/8/3 231/8/3 230/8/3
f 243/8/3 231/8/3 242/8/3
f 246/8/3 213/8/3 212/8/3
f 247/8/3 213/8/3 246/8/3
f 248/8/3 234/8/3 233/8/3
f 249/4/3 235/4/3 234/4/3
f 249/8/3 234/8/3 248/8/3
f 250/1/3 236/1/3 235/1/3
f 250/4/3 235/4/3 249/4/3
f 251/5/3 237/5/3 236/5/3
f 251/1/3 236/1/3 250/1/3
f 252/1/3 238/1/3 237/1/3
f 252/5/3 237/5/3 251/5/3
f 253/4/3 239/4/3 238/4/3
f 253/1/3 238/1/3 252/1/3
f 254/8/3 240/8/3 239/8/3
f 254/4/3 239/4/3 253/4/3
f 255/8/3 240/8/3 254/8/3
f 256/8/3 244/8/3 243/8/3
f 257/8/3 244/8/3 256/8/3
f 258/8/3 246/8/3 245/8/3
f 259/8/3 246/8/3 258/8/3
f 260/8/3 250/8/3 249/8/3
f 261/4/3 251/4/3 250/4/3
f 261/8/3 250/8/3 260/8/3
f 262/1/3 252/1/3 251/1/3
f 262/4/3 251/4/3 261/4/3
f 263/4/3 253/4/3 252/4/3
f 263/1/3 252/1/3 262/1/3
f 264/8/3 254/8/3 253/8/3
f 264/4/3 253/4/3 263/4/3
f 265/8/3 254/8/3 264/8/3
f 266/8/3 258/8/3 257/8/3
f 267/8/3 258/8/3 266/8/3
f 268/8/3 262/8/3 261/8/3
f 269/4/3 263/4/3 262/4/3
f 269/8/3 262/8/3 268/8/3
f 270/8/3 264/8/3 263/8/3
f 270/4/3 263/4/3 269/4/3
f 271/8/3 264/8/3 270/8/3
f 272/8/3 270/8/3 269/8/3
f 273/8/3 270/8/3 272/8/3
f 274/9/4 275/9/4 277/9/4
f 277/9/4 275/9/4 278/9/4
f 276/9/4 277/9/4 281/9/4
f 277/3/4 278/3/4 282/3/4
f 281/9/4 277/9/4 282/9/4
f 278/9/4 279/9/4 283/9/4
f 282/3/4 278/3/4 283/3/4
f 283/9/4 279/9/4 284/9/4
f 280/9/4 281/9/4 289/9/4
f 281/3/4 282/3/4 290/3/4
f 289/9/4 281/9/4 290/9/4
f 282/2/4 283/2/4 291/2/4
f 290/3/4 282/3/4 291/3/4
f 283/3/4 284/3/4 292/3/4
f 291/2/4 283/2/4 292/2/4
f 284/9/4 285/9/4 293/9/4
f 292/3/4 284/3/4 293/3/4
f 293/9/4 285/9/4 294/9/4
f 286/9/4 287/9/4 297/9/4
f 297/9/4 287/9/4 298/9/4
f 288/9/4 289/9/4 301/9/4
f 289/3/4 290/3/4 302/3/4
f 301/9/4 289/9/4 302/9/4
f 290/2/4 291/2/4 303/2/4
f 302/3/4 290/3/4 303/3/4
f 291/6/4 292/6/4 304/6/4
f 303/2/4 291/2/4 304/2/4
f 292/2/4 293/2/4 305/2/4
f 304/6/4 292/6/4 305/6/4
f 293/3/4 294/3/4 306/3/4
f 305/2/4 293/2/4 306/2/4
f 294/9/4 295/9/4 307/9/4
f 306/3/4 294/3/4 307/3/4
f 307/9/4 295/9/4 308/9/4
f 296/9/4 297/9/4 311/9/4
f 311/9/4 297/9/4 312/9/4
f 298/9/4 299/9/4 313/9/4
f 313/9/4 299/9/4 314/9/4
f 305/6/4 306/6/4 316/6/4
f 302/2/4 303/2/4 316/2/4
f 303/6/4 304/6/4 316/6/4
f 304/6/4 305/6/4 316/6/4
f 306/2/4 307/2/4 317/2/4
f 316/6/4 306/6/4 317/6/4
f 308/9/4 309/9/4 318/9/4
f 310/9/4 311/9/4 319/9/4
f 319/9/4 311/9/4 320/9/4
f 307/3/4 308/3/4 321/3/4
f 317/2/4 307/2/4 321/2/4
f 308/9/4 318/9/4 322/9/4
f 321/3/4 308/3/4 322/3/4
f 318/9/4 319/9/4 322/9/4
f 322/9/4 319/9/4 323/9/4
f 323/9/4 319/9/4 324/9/4
f 314/9/4 315/9/4 325/9/4
f 325/9/4 315/9/4 326/9/4
f 300/9/4 301/9/4 327/9/4
f 301/3/4 302/3/4 327/3/4
f 302/2/4 316/2/4 328/2/4
f 327/3/4 302/3/4 328/3/4
f 316/9/4 317/9/4 329/9/4
f 317/2/4 321/2/4 330/2/4
f 329/9/4 317/9/4 330/9/4
f 321/4/4 322/4/4 331/4/4
f 330/2/4 321/2/4 331/2/4
f 322/9/4 323/9/4 332/9/4
f 300/9/4 327/9/4 334/9/4
f 327/4/4 328/4/4 335/4/4
f 334/9/4 327/9/4 335/9/4
f 328/2/4 316/2/4 336/2/4
f 335/4/4 328/4/4 336/4/4
f 316/9/4 329/9/4 337/9/4
f 336/2/4 316/2/4 337/2/4
f 329/7/4 330/7/4 338/7/4
f 337/9/4 329/9/4 338/9/4
f 338/7/4 330/7/4 339/7/4
f 330/1/4 331/1/4 340/1/4
f 339/7/4 330/7/4 340/7/4
f 331/4/4 322/4/4 341/4/4
f 322/9/4 332/9/4 341/9/4
f 332/8/4 333/8/4 342/8/4
f 341/9/4 332/9/4 342/9/4
f 342/8/4 333/8/4 343/8/4
f 334/8/4 335/8/4 345/8/4
f 335/4/4 336/4/4 346/4/4
f 345/8/4 335/8/4 346/8/4
f 336/1/4 337/1/4 347/1/4
f 346/4/4 336/4/4 347/4/4
f 337/5/4 338/5/4 348/5/4
f 347/1/4 337/1/4 348/1/4
f 338/6/4 339/6/4 349/6/4
f 348/5/4 338/5/4 349/5/4
f 339/5/4 340/5/4 350/5/4
f 349/6/4 339/6/4 350/6/4
f 340/1/4 331/1/4 351/1/4
f 350/5/4 340/5/4 351/5/4
f 331/4/4 341/4/4 352/4/4
f 351/1/4 331/1/4 352/1/4
f 341/8/4 342/8/4 353/8/4
f 352/4/4 341/4/4 353/4/4
f 353/8/4 342/8/4 354/8/4
f 343/8/4 344/8/4 355/8/4
f 355/8/4 344/8/4 356/8/4
f 325/8/4 326/8/4 359/8/4
f 359/8/4 326/8/4 360/8/4
f 346/8/4 347/8/4 361/8/4
f 347/4/4 348/4/4 362/4/4
f 361/8/4 347/8/4 362/8/4
f 348/1/4 349/1/4 363/1/4
f 362/4/4 348/4/4 363/4/4
f 349/5/4 350/5/4 364/5/4
f 363/1/4 349/1/4 364/1/4
f 350/1/4 351/1/4 365/1/4
f 364/5/4 350/5/4 365/5/4
f 351/4/4 352/4/4 366/4/4
f 365/1/4 351/1/4 366/1/4
f 352/8/4 353/8/4 367/8/4
f 366/4/4 352/4/4 367/4/4
f 367/8/4 353/8/4 368/8/4
f 356/8/4 357/8/4 369/8/4
f 369/8/4 357/8/4 370/8/4
f 358/8/4 359/8/4 371/8/4
f 371/8/4 359/8/4 372/8/4
f 362/8/4 363/8/4 373/8/4
f 363/4/4 364/4/4 374/4/4
f 373/8/4 363/8/4 374/8/4
f 364/1/4 365/1/4 375/1/4
f 374/4/4 364/4/4 375/4/4
f 365/4/4 366/4/4 376/4/4
f 375/1/4 365/1/4 376/1/4
f 366/8/4 367/8/4 377/8/4
f 376/4/4 366/4/4 377/4/4
f 377/8/4 367/8/4 378/8/4
f 370/8/4 371/8/4 379/8/4
f 379/8/4 371/8/4 380/8/4
f 374/8/4 375/8/4 381/8/4
f 375/4/4 376/4/4 382/4/4
f 381/8/4 375/8/4 382/8/4
f 376/8/4 377/8/4 383/8/4
f 382/4/4 376/4/4 383/4/4
f 383/8/4 377/8/4 384/8/4
f 382/8/4 383/8/4 385/8/4
f 385/8/4 383/8/4 386/8/4
f 390/9/5 388/9/5 387/9/5
f 391/8/5 389/8/5 388/8/5
f 391/9/5 388/9/5 390/9/5
f 392/8/5 389/8/5 391/8/5
f 397/9/5 394/9/5 393/9/5
f 398/9/5 394/9/5 397/9/5
f 399/8/5 396/8/5 395/8/5
f 400/8/5 396/8/5 399/8/5
f 405/9/5 402/9/5 401/9/5
f 406/9/5 402/9/5 405/9/5
f 407/8/5 404/8/5 403/8/5
f 408/8/5 404/8/5 407/8/5
f 413/9/5 410/9/5 409/9/5
f 414/9/5 410/9/5 413/9/5
f 415/8/5 412/8/5 411/8/5
f 416/8/5 412/8/5 415/8/5
f 421/9/5 418/9/5 417/9/5
f 422/9/5 418/9/5 421/9/5
f 423/8/5 420/8/5 419/8/5
f 424/8/5 420/8/5 423/8/5
f 429/9/5 426/9/5 425/9/5
f 430/9/5 426/9/5 429/9/5
f 431/8/5 428/8/5 427/8/5
f 432/8/5 428/8/5 431/8/5
f 437/9/5 434/9/5 433/9/5
f 438/9/5 434/9/5 437/9/5
f 439/8/5 436/8/5 435/8/5
f 440/8/5 436/8/5 439/8/5
f 445/9/5 442/9/5 441/9/5
f 446/9/5 442/9/5 445/9/5
f 447/8/5 444/8/5 443/8/5
f 448/8/5 444/8/5 447/8/5
f 453/9/5 450/9/5 449/9/5
f 454/9/5 450/9/5 453/9/5
f 455/8/5 452/8/5 451/8/5
f 456/8/5 452/8/5 455/8/5
f 460/9/5 458/9/5 457/9/5
f 461/8/5 459/8/5 458/8/5
f 461/9/5 458/9/5 460/9/5
f 462/8/5 459/8/5 461/8/5
f 463/9/6 464/9/6 467/9/6
f 467/9/6 464/9/6 468/9/6
f 465/8/6 466/8/6 469/8/6
f 469/8/6 466/8/6 470/8/6
f 471/9/6 472/9/6 475/9/6
f 475/9/6 472/9/6 476/9/6
f 473/8/6 474/8/6 477/8/6
f 477/8/6 474/8/6 478/8/6
f 479/9/6 480/9/6 483/9/6
f 483/9/6 480/9/6 484/9/6
f 481/8/6 482/8/6 485/8/6
f 485/8/6 482/8/6 486/8/6
f 487/9/6 488/9/6 491/9/6
f 491/9/6 488/9/6 492/9/6
f 489/8/6 490/8/6 493/8/6
f 493/8/6 490/8/6 494/8/6
f 495/9/6 496/9/6 501/9/6
f 501/9/6 496/9/6 502/9/6
f 497/9/6 498/9/6 503/9/6
f 503/9/6 498/9/6 504/9/6
f 499/8/6 500/8/6 505/8/6
f 505/8/6 500/8/6 506/8/6
f 507/9/6 508/9/6 511/9/6
f 511/9/6 508/9/6 512/9/6
f 509/8/6 510/8/6 513/8/6
f 513/8/6 510/8/6 514/8/6
f 515/9/6 516/9/6 519/9/6
f 519/9/6 516/9/6 520/9/6
f 517/8/6 518/8/6 521/8/6
f 521/8/6 518/8/6 522/8/6
f 523/9/6 524/9/6 527/9/6
f 527/9/6 524/9/6 528/9/6
f 525/8/6 526/8/6 529/8/6
f 529/8/6 526/8/6 530/8/6
f 531/9/6 532/9/6 535/9/6
f 535/9/6 532/9/6 536/9/6
f 533/8/6 534/8/6 537/8/6
f 537/8/6 534/8/6 538/8/6
f 539/9/6 540/9/6 543/9/6
f 543/9/6 540/9/6 544/9/6
f 541/8/6 542/8/6 545/8/6
f 545/8/6 542/8/6 546/8/6
f 547/9/6 548/9/6 550/9/6
f 548/8/6 549/8/6 551/8/6
f 550/9/6 548/9/6 551/9/6
f 551/8/6 549/8/6 552/8/6
