# MagicaVoxel @ Ephtracy

# group
o 

# material
mtllib ScorpionShot.mtl
usemtl palette

# normals
vn -1 0 0
vn 1 0 0
vn 0 0 1
vn 0 0 -1
vn 0 -1 0
vn 0 1 0

# texcoords
vt 0.310547 0.5
vt 0.337891 0.5

# verts
v -0.3 0.6 -0.2
v -0.3 0.6 -0.5
v -0.3 0.7 -0.2
v -0.3 0.7 -0.5
v -0.2 0.6 0.3
v -0.2 0.6 -0.2
v -0.2 0.6 -0.5
v -0.2 0.6 -0.6
v -0.2 0.7 0.3
v -0.2 0.7 -0.2
v -0.2 0.7 -0.5
v -0.2 0.7 -0.6
v -0.1 0.5 0.1
v -0.1 0.5 -0.5
v -0.1 0.6 0.5
v -0.1 0.6 0.3
v -0.1 0.6 0.1
v -0.1 0.6 -0.2
v -0.1 0.6 -0.5
v -0.1 0.6 -0.6
v -0.1 0.6 -0.7
v -0.1 0.7 0.5
v -0.1 0.7 0.3
v -0.1 0.7 0.1
v -0.1 0.7 -0.2
v -0.1 0.7 -0.5
v -0.1 0.7 -0.6
v -0.1 0.7 -0.7
v -0.1 0.8 0.1
v -0.1 0.8 -0.5
v 2.98023e-08 0.4 0
v 2.98023e-08 0.4 -0.4
v 2.98023e-08 0.5 0.3
v 2.98023e-08 0.5 0.1
v 2.98023e-08 0.5 0
v 2.98023e-08 0.5 -0.4
v 2.98023e-08 0.5 -0.5
v 2.98023e-08 0.5 -0.6
v 2.98023e-08 0.6 0.8
v 2.98023e-08 0.6 0.5
v 2.98023e-08 0.6 0.3
v 2.98023e-08 0.6 0.1
v 2.98023e-08 0.6 -0.5
v 2.98023e-08 0.6 -0.6
v 2.98023e-08 0.7 0.8
v 2.98023e-08 0.7 0.5
v 2.98023e-08 0.7 0.3
v 2.98023e-08 0.7 0.1
v 2.98023e-08 0.7 -0.5
v 2.98023e-08 0.7 -0.6
v 2.98023e-08 0.8 0.3
v 2.98023e-08 0.8 0.1
v 2.98023e-08 0.8 0
v 2.98023e-08 0.8 -0.4
v 2.98023e-08 0.8 -0.5
v 2.98023e-08 0.8 -0.6
v 2.98023e-08 0.9 0
v 2.98023e-08 0.9 -0.4
v 0.1 0.4 0
v 0.1 0.4 -0.4
v 0.1 0.5 0.3
v 0.1 0.5 0.1
v 0.1 0.5 0
v 0.1 0.5 -0.4
v 0.1 0.5 -0.5
v 0.1 0.5 -0.6
v 0.1 0.6 0.8
v 0.1 0.6 0.5
v 0.1 0.6 0.3
v 0.1 0.6 0.1
v 0.1 0.6 -0.5
v 0.1 0.6 -0.6
v 0.1 0.7 0.8
v 0.1 0.7 0.5
v 0.1 0.7 0.3
v 0.1 0.7 0.1
v 0.1 0.7 -0.5
v 0.1 0.7 -0.6
v 0.1 0.8 0.3
v 0.1 0.8 0.1
v 0.1 0.8 0
v 0.1 0.8 -0.4
v 0.1 0.8 -0.5
v 0.1 0.8 -0.6
v 0.1 0.9 0
v 0.1 0.9 -0.4
v 0.2 0.5 0.1
v 0.2 0.5 -0.5
v 0.2 0.6 0.5
v 0.2 0.6 0.3
v 0.2 0.6 0.1
v 0.2 0.6 -0.2
v 0.2 0.6 -0.5
v 0.2 0.6 -0.6
v 0.2 0.6 -0.7
v 0.2 0.7 0.5
v 0.2 0.7 0.3
v 0.2 0.7 0.1
v 0.2 0.7 -0.2
v 0.2 0.7 -0.5
v 0.2 0.7 -0.6
v 0.2 0.7 -0.7
v 0.2 0.8 0.1
v 0.2 0.8 -0.5
v 0.3 0.6 0.3
v 0.3 0.6 -0.2
v 0.3 0.6 -0.5
v 0.3 0.6 -0.6
v 0.3 0.7 0.3
v 0.3 0.7 -0.2
v 0.3 0.7 -0.5
v 0.3 0.7 -0.6
v 0.4 0.6 -0.2
v 0.4 0.6 -0.5
v 0.4 0.7 -0.2
v 0.4 0.7 -0.5
v 2.98023e-08 0.6 0.8
v 2.98023e-08 0.7 0.8
v 0.1 0.6 0.8
v 0.1 0.7 0.8
v -0.1 0.6 0.5
v -0.1 0.7 0.5
v 2.98023e-08 0.6 0.5
v 2.98023e-08 0.7 0.5
v 0.1 0.6 0.5
v 0.1 0.7 0.5
v 0.2 0.6 0.5
v 0.2 0.7 0.5
v -0.2 0.6 0.3
v -0.2 0.7 0.3
v -0.1 0.6 0.3
v -0.1 0.7 0.3
v 2.98023e-08 0.5 0.3
v 2.98023e-08 0.6 0.3
v 2.98023e-08 0.7 0.3
v 2.98023e-08 0.8 0.3
v 0.1 0.5 0.3
v 0.1 0.6 0.3
v 0.1 0.7 0.3
v 0.1 0.8 0.3
v 0.2 0.6 0.3
v 0.2 0.7 0.3
v 0.3 0.6 0.3
v 0.3 0.7 0.3
v -0.1 0.5 0.1
v -0.1 0.6 0.1
v -0.1 0.7 0.1
v -0.1 0.8 0.1
v 2.98023e-08 0.5 0.1
v 2.98023e-08 0.6 0.1
v 2.98023e-08 0.7 0.1
v 2.98023e-08 0.8 0.1
v 0.1 0.5 0.1
v 0.1 0.6 0.1
v 0.1 0.7 0.1
v 0.1 0.8 0.1
v 0.2 0.5 0.1
v 0.2 0.6 0.1
v 0.2 0.7 0.1
v 0.2 0.8 0.1
v 2.98023e-08 0.4 0
v 2.98023e-08 0.5 0
v 2.98023e-08 0.8 0
v 2.98023e-08 0.9 0
v 0.1 0.4 0
v 0.1 0.5 0
v 0.1 0.8 0
v 0.1 0.9 0
v -0.3 0.6 -0.2
v -0.3 0.7 -0.2
v -0.2 0.6 -0.2
v -0.2 0.7 -0.2
v 0.3 0.6 -0.2
v 0.3 0.7 -0.2
v 0.4 0.6 -0.2
v 0.4 0.7 -0.2
v 2.98023e-08 0.4 -0.4
v 2.98023e-08 0.5 -0.4
v 2.98023e-08 0.8 -0.4
v 2.98023e-08 0.9 -0.4
v 0.1 0.4 -0.4
v 0.1 0.5 -0.4
v 0.1 0.8 -0.4
v 0.1 0.9 -0.4
v -0.3 0.6 -0.5
v -0.3 0.7 -0.5
v -0.2 0.6 -0.5
v -0.2 0.7 -0.5
v -0.1 0.5 -0.5
v -0.1 0.6 -0.5
v -0.1 0.7 -0.5
v -0.1 0.8 -0.5
v 2.98023e-08 0.5 -0.5
v 2.98023e-08 0.6 -0.5
v 2.98023e-08 0.7 -0.5
v 2.98023e-08 0.8 -0.5
v 0.1 0.5 -0.5
v 0.1 0.6 -0.5
v 0.1 0.7 -0.5
v 0.1 0.8 -0.5
v 0.2 0.5 -0.5
v 0.2 0.6 -0.5
v 0.2 0.7 -0.5
v 0.2 0.8 -0.5
v 0.3 0.6 -0.5
v 0.3 0.7 -0.5
v 0.4 0.6 -0.5
v 0.4 0.7 -0.5
v -0.2 0.6 -0.6
v -0.2 0.7 -0.6
v -0.1 0.6 -0.6
v -0.1 0.7 -0.6
v 2.98023e-08 0.5 -0.6
v 2.98023e-08 0.6 -0.6
v 2.98023e-08 0.7 -0.6
v 2.98023e-08 0.8 -0.6
v 0.1 0.5 -0.6
v 0.1 0.6 -0.6
v 0.1 0.7 -0.6
v 0.1 0.8 -0.6
v 0.2 0.6 -0.6
v 0.2 0.7 -0.6
v 0.3 0.6 -0.6
v 0.3 0.7 -0.6
v -0.1 0.6 -0.7
v -0.1 0.7 -0.7
v 0.2 0.6 -0.7
v 0.2 0.7 -0.7
v 2.98023e-08 0.4 0
v 0.1 0.4 0
v 2.98023e-08 0.4 -0.4
v 0.1 0.4 -0.4
v 2.98023e-08 0.5 0.3
v 0.1 0.5 0.3
v -0.1 0.5 0.1
v 2.98023e-08 0.5 0.1
v 0.1 0.5 0.1
v 0.2 0.5 0.1
v 2.98023e-08 0.5 0
v 0.1 0.5 0
v 2.98023e-08 0.5 -0.4
v 0.1 0.5 -0.4
v -0.1 0.5 -0.5
v 2.98023e-08 0.5 -0.5
v 0.1 0.5 -0.5
v 0.2 0.5 -0.5
v 2.98023e-08 0.5 -0.6
v 0.1 0.5 -0.6
v 2.98023e-08 0.6 0.8
v 0.1 0.6 0.8
v -0.1 0.6 0.5
v 2.98023e-08 0.6 0.5
v 0.1 0.6 0.5
v 0.2 0.6 0.5
v -0.2 0.6 0.3
v -0.1 0.6 0.3
v 2.98023e-08 0.6 0.3
v 0.1 0.6 0.3
v 0.2 0.6 0.3
v 0.3 0.6 0.3
v -0.1 0.6 0.1
v 2.98023e-08 0.6 0.1
v 0.1 0.6 0.1
v 0.2 0.6 0.1
v -0.3 0.6 -0.2
v -0.2 0.6 -0.2
v -0.1 0.6 -0.2
v 0.2 0.6 -0.2
v 0.3 0.6 -0.2
v 0.4 0.6 -0.2
v -0.3 0.6 -0.5
v -0.2 0.6 -0.5
v -0.1 0.6 -0.5
v 2.98023e-08 0.6 -0.5
v 0.1 0.6 -0.5
v 0.2 0.6 -0.5
v 0.3 0.6 -0.5
v 0.4 0.6 -0.5
v -0.2 0.6 -0.6
v -0.1 0.6 -0.6
v 2.98023e-08 0.6 -0.6
v 0.1 0.6 -0.6
v 0.2 0.6 -0.6
v 0.3 0.6 -0.6
v -0.1 0.6 -0.7
v 0.2 0.6 -0.7
v 2.98023e-08 0.7 0.8
v 0.1 0.7 0.8
v -0.1 0.7 0.5
v 2.98023e-08 0.7 0.5
v 0.1 0.7 0.5
v 0.2 0.7 0.5
v -0.2 0.7 0.3
v -0.1 0.7 0.3
v 2.98023e-08 0.7 0.3
v 0.1 0.7 0.3
v 0.2 0.7 0.3
v 0.3 0.7 0.3
v -0.1 0.7 0.1
v 2.98023e-08 0.7 0.1
v 0.1 0.7 0.1
v 0.2 0.7 0.1
v -0.3 0.7 -0.2
v -0.2 0.7 -0.2
v -0.1 0.7 -0.2
v 0.2 0.7 -0.2
v 0.3 0.7 -0.2
v 0.4 0.7 -0.2
v -0.3 0.7 -0.5
v -0.2 0.7 -0.5
v -0.1 0.7 -0.5
v 2.98023e-08 0.7 -0.5
v 0.1 0.7 -0.5
v 0.2 0.7 -0.5
v 0.3 0.7 -0.5
v 0.4 0.7 -0.5
v -0.2 0.7 -0.6
v -0.1 0.7 -0.6
v 2.98023e-08 0.7 -0.6
v 0.1 0.7 -0.6
v 0.2 0.7 -0.6
v 0.3 0.7 -0.6
v -0.1 0.7 -0.7
v 0.2 0.7 -0.7
v 2.98023e-08 0.8 0.3
v 0.1 0.8 0.3
v -0.1 0.8 0.1
v 2.98023e-08 0.8 0.1
v 0.1 0.8 0.1
v 0.2 0.8 0.1
v 2.98023e-08 0.8 0
v 0.1 0.8 0
v 2.98023e-08 0.8 -0.4
v 0.1 0.8 -0.4
v -0.1 0.8 -0.5
v 2.98023e-08 0.8 -0.5
v 0.1 0.8 -0.5
v 0.2 0.8 -0.5
v 2.98023e-08 0.8 -0.6
v 0.1 0.8 -0.6
v 2.98023e-08 0.9 0
v 0.1 0.9 0
v 2.98023e-08 0.9 -0.4
v 0.1 0.9 -0.4

# faces
f 3/1/1 2/1/1 1/1/1
f 4/1/1 2/1/1 3/1/1
f 9/1/1 6/1/1 5/1/1
f 10/1/1 6/1/1 9/1/1
f 11/1/1 8/1/1 7/1/1
f 12/1/1 8/1/1 11/1/1
f 17/2/1 14/2/1 13/2/1
f 18/2/1 14/2/1 17/2/1
f 19/2/1 14/2/1 18/2/1
f 22/1/1 16/1/1 15/1/1
f 23/1/1 16/1/1 22/1/1
f 27/1/1 21/1/1 20/1/1
f 28/1/1 21/1/1 27/1/1
f 29/2/1 26/2/1 25/2/1
f 29/2/1 25/2/1 24/2/1
f 30/2/1 26/2/1 29/2/1
f 35/1/1 32/1/1 31/1/1
f 36/1/1 32/1/1 35/1/1
f 41/2/1 34/2/1 33/2/1
f 42/2/1 34/2/1 41/2/1
f 43/2/1 38/2/1 37/2/1
f 44/2/1 38/2/1 43/2/1
f 45/1/1 40/1/1 39/1/1
f 46/1/1 40/1/1 45/1/1
f 51/2/1 48/2/1 47/2/1
f 52/2/1 48/2/1 51/2/1
f 55/2/1 50/2/1 49/2/1
f 56/2/1 50/2/1 55/2/1
f 57/1/1 54/1/1 53/1/1
f 58/1/1 54/1/1 57/1/1
f 59/1/2 60/1/2 63/1/2
f 63/1/2 60/1/2 64/1/2
f 61/2/2 62/2/2 69/2/2
f 69/2/2 62/2/2 70/2/2
f 65/2/2 66/2/2 71/2/2
f 71/2/2 66/2/2 72/2/2
f 67/1/2 68/1/2 73/1/2
f 73/1/2 68/1/2 74/1/2
f 75/2/2 76/2/2 79/2/2
f 79/2/2 76/2/2 80/2/2
f 77/2/2 78/2/2 83/2/2
f 83/2/2 78/2/2 84/2/2
f 81/1/2 82/1/2 85/1/2
f 85/1/2 82/1/2 86/1/2
f 87/2/2 88/2/2 91/2/2
f 91/2/2 88/2/2 92/2/2
f 92/2/2 88/2/2 93/2/2
f 89/1/2 90/1/2 96/1/2
f 96/1/2 90/1/2 97/1/2
f 94/1/2 95/1/2 101/1/2
f 101/1/2 95/1/2 102/1/2
f 99/2/2 100/2/2 103/2/2
f 98/2/2 99/2/2 103/2/2
f 103/2/2 100/2/2 104/2/2
f 105/1/2 106/1/2 109/1/2
f 109/1/2 106/1/2 110/1/2
f 107/1/2 108/1/2 111/1/2
f 111/1/2 108/1/2 112/1/2
f 113/1/2 114/1/2 115/1/2
f 115/1/2 114/1/2 116/1/2
f 119/1/3 118/1/3 117/1/3
f 120/1/3 118/1/3 119/1/3
f 123/1/3 122/1/3 121/1/3
f 124/1/3 122/1/3 123/1/3
f 127/1/3 126/1/3 125/1/3
f 128/1/3 126/1/3 127/1/3
f 131/1/3 130/1/3 129/1/3
f 132/1/3 130/1/3 131/1/3
f 137/2/3 134/2/3 133/2/3
f 138/2/3 134/2/3 137/2/3
f 139/2/3 136/2/3 135/2/3
f 140/2/3 136/2/3 139/2/3
f 143/1/3 142/1/3 141/1/3
f 144/1/3 142/1/3 143/1/3
f 149/2/3 146/2/3 145/2/3
f 150/2/3 146/2/3 149/2/3
f 151/2/3 148/2/3 147/2/3
f 152/2/3 148/2/3 151/2/3
f 157/2/3 154/2/3 153/2/3
f 158/2/3 154/2/3 157/2/3
f 159/2/3 156/2/3 155/2/3
f 160/2/3 156/2/3 159/2/3
f 165/1/3 162/1/3 161/1/3
f 166/1/3 162/1/3 165/1/3
f 167/1/3 164/1/3 163/1/3
f 168/1/3 164/1/3 167/1/3
f 171/1/3 170/1/3 169/1/3
f 172/1/3 170/1/3 171/1/3
f 175/1/3 174/1/3 173/1/3
f 176/1/3 174/1/3 175/1/3
f 177/1/4 178/1/4 181/1/4
f 181/1/4 178/1/4 182/1/4
f 179/1/4 180/1/4 183/1/4
f 183/1/4 180/1/4 184/1/4
f 185/1/4 186/1/4 187/1/4
f 187/1/4 186/1/4 188/1/4
f 189/2/4 190/2/4 193/2/4
f 193/2/4 190/2/4 194/2/4
f 191/2/4 192/2/4 195/2/4
f 195/2/4 192/2/4 196/2/4
f 197/2/4 198/2/4 201/2/4
f 201/2/4 198/2/4 202/2/4
f 199/2/4 200/2/4 203/2/4
f 203/2/4 200/2/4 204/2/4
f 205/1/4 206/1/4 207/1/4
f 207/1/4 206/1/4 208/1/4
f 209/1/4 210/1/4 211/1/4
f 211/1/4 210/1/4 212/1/4
f 213/2/4 214/2/4 217/2/4
f 217/2/4 214/2/4 218/2/4
f 215/2/4 216/2/4 219/2/4
f 219/2/4 216/2/4 220/2/4
f 221/1/4 222/1/4 223/1/4
f 223/1/4 222/1/4 224/1/4
f 225/1/4 226/1/4 227/1/4
f 227/1/4 226/1/4 228/1/4
f 231/1/5 230/1/5 229/1/5
f 232/1/5 230/1/5 231/1/5
f 236/2/5 234/2/5 233/2/5
f 237/2/5 234/2/5 236/2/5
f 239/2/5 236/2/5 235/2/5
f 239/2/5 238/2/5 237/2/5
f 239/2/5 237/2/5 236/2/5
f 240/2/5 238/2/5 239/2/5
f 241/2/5 239/2/5 235/2/5
f 242/2/5 238/2/5 240/2/5
f 243/2/5 241/2/5 235/2/5
f 243/2/5 242/2/5 241/2/5
f 244/2/5 242/2/5 243/2/5
f 245/2/5 238/2/5 242/2/5
f 245/2/5 242/2/5 244/2/5
f 246/2/5 238/2/5 245/2/5
f 247/2/5 245/2/5 244/2/5
f 248/2/5 245/2/5 247/2/5
f 252/1/5 250/1/5 249/1/5
f 253/1/5 250/1/5 252/1/5
f 256/1/5 252/1/5 251/1/5
f 257/2/5 253/2/5 252/2/5
f 257/1/5 252/1/5 256/1/5
f 258/1/5 254/1/5 253/1/5
f 258/2/5 253/2/5 257/2/5
f 259/1/5 254/1/5 258/1/5
f 261/2/5 257/2/5 256/2/5
f 261/1/5 256/1/5 255/1/5
f 262/2/5 257/2/5 261/2/5
f 263/2/5 259/2/5 258/2/5
f 264/1/5 260/1/5 259/1/5
f 264/2/5 259/2/5 263/2/5
f 266/1/5 261/1/5 255/1/5
f 267/1/5 261/1/5 266/1/5
f 268/1/5 260/1/5 264/1/5
f 269/1/5 260/1/5 268/1/5
f 271/1/5 266/1/5 265/1/5
f 272/2/5 267/2/5 266/2/5
f 272/1/5 266/1/5 271/1/5
f 273/2/5 267/2/5 272/2/5
f 276/2/5 269/2/5 268/2/5
f 277/1/5 270/1/5 269/1/5
f 277/2/5 269/2/5 276/2/5
f 278/1/5 270/1/5 277/1/5
f 279/1/5 273/1/5 272/1/5
f 280/2/5 274/2/5 273/2/5
f 280/1/5 273/1/5 279/1/5
f 281/2/5 274/2/5 280/2/5
f 282/2/5 276/2/5 275/2/5
f 283/1/5 277/1/5 276/1/5
f 283/2/5 276/2/5 282/2/5
f 284/1/5 277/1/5 283/1/5
f 285/1/5 281/1/5 280/1/5
f 285/1/5 282/1/5 281/1/5
f 285/1/5 283/1/5 282/1/5
f 286/1/5 283/1/5 285/1/5
f 287/1/6 288/1/6 290/1/6
f 290/1/6 288/1/6 291/1/6
f 289/1/6 290/1/6 294/1/6
f 290/2/6 291/2/6 295/2/6
f 294/1/6 290/1/6 295/1/6
f 291/1/6 292/1/6 296/1/6
f 295/2/6 291/2/6 296/2/6
f 296/1/6 292/1/6 297/1/6
f 294/2/6 295/2/6 299/2/6
f 293/1/6 294/1/6 299/1/6
f 299/2/6 295/2/6 300/2/6
f 296/2/6 297/2/6 301/2/6
f 297/1/6 298/1/6 302/1/6
f 301/2/6 297/2/6 302/2/6
f 293/1/6 299/1/6 304/1/6
f 304/1/6 299/1/6 305/1/6
f 302/1/6 298/1/6 306/1/6
f 306/1/6 298/1/6 307/1/6
f 303/1/6 304/1/6 309/1/6
f 304/2/6 305/2/6 310/2/6
f 309/1/6 304/1/6 310/1/6
f 310/2/6 305/2/6 311/2/6
f 306/2/6 307/2/6 314/2/6
f 307/1/6 308/1/6 315/1/6
f 314/2/6 307/2/6 315/2/6
f 315/1/6 308/1/6 316/1/6
f 310/1/6 311/1/6 317/1/6
f 311/2/6 312/2/6 318/2/6
f 317/1/6 311/1/6 318/1/6
f 318/2/6 312/2/6 319/2/6
f 313/2/6 314/2/6 320/2/6
f 314/1/6 315/1/6 321/1/6
f 320/2/6 314/2/6 321/2/6
f 321/1/6 315/1/6 322/1/6
f 318/1/6 319/1/6 323/1/6
f 319/1/6 320/1/6 323/1/6
f 320/1/6 321/1/6 323/1/6
f 323/1/6 321/1/6 324/1/6
f 325/2/6 326/2/6 328/2/6
f 328/2/6 326/2/6 329/2/6
f 327/2/6 328/2/6 331/2/6
f 329/2/6 330/2/6 331/2/6
f 328/2/6 329/2/6 331/2/6
f 331/2/6 330/2/6 332/2/6
f 327/2/6 331/2/6 333/2/6
f 332/2/6 330/2/6 334/2/6
f 327/2/6 333/2/6 335/2/6
f 333/2/6 334/2/6 335/2/6
f 335/2/6 334/2/6 336/2/6
f 334/2/6 330/2/6 337/2/6
f 336/2/6 334/2/6 337/2/6
f 337/2/6 330/2/6 338/2/6
f 336/2/6 337/2/6 339/2/6
f 339/2/6 337/2/6 340/2/6
f 341/1/6 342/1/6 343/1/6
f 343/1/6 342/1/6 344/1/6
