# MagicaVoxel @ Ephtracy

# group
o 

# material
mtllib IncreaseDefenceBuff.mtl
usemtl palette

# normals
vn -1 0 0
vn 1 0 0
vn 0 0 1
vn 0 0 -1
vn 0 -1 0
vn 0 1 0

# texcoords
vt 0.146484 0.5
vt 0.177734 0.5
vt 0.310547 0.5
vt 0.931641 0.5
vt 0.958984 0.5
vt 0.994141 0.5

# verts
v -0.6 1.3 2.23517e-08
v -0.6 1.3 -0.1
v -0.6 1.9 2.23517e-08
v -0.6 1.9 -0.1
v -0.5 1.1 2.23517e-08
v -0.5 1.1 -0.1
v -0.5 1.3 2.23517e-08
v -0.5 1.3 -0.1
v -0.5 1.9 2.23517e-08
v -0.5 1.9 -0.1
v -0.5 2 2.23517e-08
v -0.5 2 -0.1
v -0.4 0.9 2.23517e-08
v -0.4 0.9 -0.1
v -0.4 1.1 2.23517e-08
v -0.4 1.1 -0.1
v -0.4 2 2.23517e-08
v -0.4 2 -0.1
v -0.4 2.1 2.23517e-08
v -0.4 2.1 -0.1
v -0.3 0.7 2.23517e-08
v -0.3 0.7 -0.1
v -0.3 0.9 2.23517e-08
v -0.3 0.9 -0.1
v -0.2 0.6 2.23517e-08
v -0.2 0.6 -0.1
v -0.2 0.7 2.23517e-08
v -0.2 0.7 -0.1
v -0.2 2.1 2.23517e-08
v -0.2 2.1 -0.1
v -0.2 2.2 2.23517e-08
v -0.2 2.2 -0.1
v -0.1 0.5 2.23517e-08
v -0.1 0.5 -0.1
v -0.1 0.6 2.23517e-08
v -0.1 0.6 -0.1
v 0 0.4 2.23517e-08
v 0 0.4 -0.1
v 0 0.5 2.23517e-08
v 0 0.5 -0.1
v 0.1 0.4 2.23517e-08
v 0.1 0.4 -0.1
v 0.1 0.5 2.23517e-08
v 0.1 0.5 -0.1
v 0.2 0.5 2.23517e-08
v 0.2 0.5 -0.1
v 0.2 0.6 2.23517e-08
v 0.2 0.6 -0.1
v 0.3 0.6 2.23517e-08
v 0.3 0.6 -0.1
v 0.3 0.7 2.23517e-08
v 0.3 0.7 -0.1
v 0.3 2.1 2.23517e-08
v 0.3 2.1 -0.1
v 0.3 2.2 2.23517e-08
v 0.3 2.2 -0.1
v 0.4 0.7 2.23517e-08
v 0.4 0.7 -0.1
v 0.4 0.9 2.23517e-08
v 0.4 0.9 -0.1
v 0.5 0.9 2.23517e-08
v 0.5 0.9 -0.1
v 0.5 1.1 2.23517e-08
v 0.5 1.1 -0.1
v 0.5 2 2.23517e-08
v 0.5 2 -0.1
v 0.5 2.1 2.23517e-08
v 0.5 2.1 -0.1
v 0.6 1.1 2.23517e-08
v 0.6 1.1 -0.1
v 0.6 1.3 2.23517e-08
v 0.6 1.3 -0.1
v 0.6 1.9 2.23517e-08
v 0.6 1.9 -0.1
v 0.6 2 2.23517e-08
v 0.6 2 -0.1
v 0.7 1.3 2.23517e-08
v 0.7 1.3 -0.1
v 0.7 1.9 2.23517e-08
v 0.7 1.9 -0.1
v -0.6 1.3 2.23517e-08
v -0.6 1.9 2.23517e-08
v -0.5 1.1 2.23517e-08
v -0.5 1.3 2.23517e-08
v -0.5 1.9 2.23517e-08
v -0.5 2 2.23517e-08
v -0.4 0.9 2.23517e-08
v -0.4 1.1 2.23517e-08
v -0.4 1.3 2.23517e-08
v -0.4 1.5 2.23517e-08
v -0.4 1.6 2.23517e-08
v -0.4 1.9 2.23517e-08
v -0.4 2 2.23517e-08
v -0.4 2.1 2.23517e-08
v -0.3 0.7 2.23517e-08
v -0.3 0.9 2.23517e-08
v -0.3 1.1 2.23517e-08
v -0.3 1.2 2.23517e-08
v -0.3 1.3 2.23517e-08
v -0.3 1.7 2.23517e-08
v -0.3 1.8 2.23517e-08
v -0.2 0.6 2.23517e-08
v -0.2 0.7 2.23517e-08
v -0.2 0.9 2.23517e-08
v -0.2 1.1 2.23517e-08
v -0.2 1.2 2.23517e-08
v -0.2 1.3 2.23517e-08
v -0.2 1.7 2.23517e-08
v -0.2 1.8 2.23517e-08
v -0.2 1.9 2.23517e-08
v -0.2 2 2.23517e-08
v -0.2 2.1 2.23517e-08
v -0.2 2.2 2.23517e-08
v -0.1 0.5 2.23517e-08
v -0.1 0.6 2.23517e-08
v -0.1 0.7 2.23517e-08
v -0.1 0.9 2.23517e-08
v -0.1 1.4 2.23517e-08
v -0.1 1.5 2.23517e-08
v -0.1 1.6 2.23517e-08
v -0.1 1.7 2.23517e-08
v 0 0.4 2.23517e-08
v 0 0.5 2.23517e-08
v 0 0.6 2.23517e-08
v 0 0.7 2.23517e-08
v 0 1.4 2.23517e-08
v 0 1.5 2.23517e-08
v 0 1.6 2.23517e-08
v 0 1.7 2.23517e-08
v 0 2 2.23517e-08
v 0.1 0.4 2.23517e-08
v 0.1 0.5 2.23517e-08
v 0.1 0.6 2.23517e-08
v 0.1 0.7 2.23517e-08
v 0.1 1.4 2.23517e-08
v 0.1 1.5 2.23517e-08
v 0.1 1.6 2.23517e-08
v 0.1 1.7 2.23517e-08
v 0.1 2 2.23517e-08
v 0.2 0.5 2.23517e-08
v 0.2 0.6 2.23517e-08
v 0.2 0.7 2.23517e-08
v 0.2 0.9 2.23517e-08
v 0.2 1.4 2.23517e-08
v 0.2 1.5 2.23517e-08
v 0.2 1.6 2.23517e-08
v 0.2 1.7 2.23517e-08
v 0.3 0.6 2.23517e-08
v 0.3 0.7 2.23517e-08
v 0.3 0.9 2.23517e-08
v 0.3 1.1 2.23517e-08
v 0.3 1.2 2.23517e-08
v 0.3 1.3 2.23517e-08
v 0.3 1.7 2.23517e-08
v 0.3 1.8 2.23517e-08
v 0.3 1.9 2.23517e-08
v 0.3 2 2.23517e-08
v 0.3 2.1 2.23517e-08
v 0.3 2.2 2.23517e-08
v 0.4 0.7 2.23517e-08
v 0.4 0.9 2.23517e-08
v 0.4 1.1 2.23517e-08
v 0.4 1.2 2.23517e-08
v 0.4 1.3 2.23517e-08
v 0.4 1.7 2.23517e-08
v 0.4 1.8 2.23517e-08
v 0.5 0.9 2.23517e-08
v 0.5 1.1 2.23517e-08
v 0.5 1.3 2.23517e-08
v 0.5 1.5 2.23517e-08
v 0.5 1.6 2.23517e-08
v 0.5 1.9 2.23517e-08
v 0.5 2 2.23517e-08
v 0.5 2.1 2.23517e-08
v 0.6 1.1 2.23517e-08
v 0.6 1.3 2.23517e-08
v 0.6 1.9 2.23517e-08
v 0.6 2 2.23517e-08
v 0.7 1.3 2.23517e-08
v 0.7 1.9 2.23517e-08
v -0.6 1.3 -0.1
v -0.6 1.9 -0.1
v -0.5 1.1 -0.1
v -0.5 1.3 -0.1
v -0.5 1.9 -0.1
v -0.5 2 -0.1
v -0.4 0.9 -0.1
v -0.4 1.1 -0.1
v -0.4 1.3 -0.1
v -0.4 1.5 -0.1
v -0.4 1.6 -0.1
v -0.4 1.9 -0.1
v -0.4 2 -0.1
v -0.4 2.1 -0.1
v -0.3 0.7 -0.1
v -0.3 0.9 -0.1
v -0.3 1.1 -0.1
v -0.3 1.2 -0.1
v -0.3 1.3 -0.1
v -0.3 1.7 -0.1
v -0.3 1.8 -0.1
v -0.2 0.6 -0.1
v -0.2 0.7 -0.1
v -0.2 0.9 -0.1
v -0.2 1.1 -0.1
v -0.2 1.2 -0.1
v -0.2 1.3 -0.1
v -0.2 1.7 -0.1
v -0.2 1.8 -0.1
v -0.2 1.9 -0.1
v -0.2 2 -0.1
v -0.2 2.1 -0.1
v -0.2 2.2 -0.1
v -0.1 0.5 -0.1
v -0.1 0.6 -0.1
v -0.1 0.7 -0.1
v -0.1 0.9 -0.1
v -0.1 1.4 -0.1
v -0.1 1.5 -0.1
v -0.1 1.6 -0.1
v -0.1 1.7 -0.1
v 0 0.4 -0.1
v 0 0.5 -0.1
v 0 0.6 -0.1
v 0 0.7 -0.1
v 0 1.4 -0.1
v 0 1.5 -0.1
v 0 1.6 -0.1
v 0 1.7 -0.1
v 0 2 -0.1
v 0.1 0.4 -0.1
v 0.1 0.5 -0.1
v 0.1 0.6 -0.1
v 0.1 0.7 -0.1
v 0.1 1.4 -0.1
v 0.1 1.5 -0.1
v 0.1 1.6 -0.1
v 0.1 1.7 -0.1
v 0.1 2 -0.1
v 0.2 0.5 -0.1
v 0.2 0.6 -0.1
v 0.2 0.7 -0.1
v 0.2 0.9 -0.1
v 0.2 1.4 -0.1
v 0.2 1.5 -0.1
v 0.2 1.6 -0.1
v 0.2 1.7 -0.1
v 0.3 0.6 -0.1
v 0.3 0.7 -0.1
v 0.3 0.9 -0.1
v 0.3 1.1 -0.1
v 0.3 1.2 -0.1
v 0.3 1.3 -0.1
v 0.3 1.7 -0.1
v 0.3 1.8 -0.1
v 0.3 1.9 -0.1
v 0.3 2 -0.1
v 0.3 2.1 -0.1
v 0.3 2.2 -0.1
v 0.4 0.7 -0.1
v 0.4 0.9 -0.1
v 0.4 1.1 -0.1
v 0.4 1.2 -0.1
v 0.4 1.3 -0.1
v 0.4 1.7 -0.1
v 0.4 1.8 -0.1
v 0.5 0.9 -0.1
v 0.5 1.1 -0.1
v 0.5 1.3 -0.1
v 0.5 1.5 -0.1
v 0.5 1.6 -0.1
v 0.5 1.9 -0.1
v 0.5 2 -0.1
v 0.5 2.1 -0.1
v 0.6 1.1 -0.1
v 0.6 1.3 -0.1
v 0.6 1.9 -0.1
v 0.6 2 -0.1
v 0.7 1.3 -0.1
v 0.7 1.9 -0.1
v 0 0.4 2.23517e-08
v 0.1 0.4 2.23517e-08
v 0 0.4 -0.1
v 0.1 0.4 -0.1
v -0.1 0.5 2.23517e-08
v 0 0.5 2.23517e-08
v 0.1 0.5 2.23517e-08
v 0.2 0.5 2.23517e-08
v -0.1 0.5 -0.1
v 0 0.5 -0.1
v 0.1 0.5 -0.1
v 0.2 0.5 -0.1
v -0.2 0.6 2.23517e-08
v -0.1 0.6 2.23517e-08
v 0.2 0.6 2.23517e-08
v 0.3 0.6 2.23517e-08
v -0.2 0.6 -0.1
v -0.1 0.6 -0.1
v 0.2 0.6 -0.1
v 0.3 0.6 -0.1
v -0.3 0.7 2.23517e-08
v -0.2 0.7 2.23517e-08
v 0.3 0.7 2.23517e-08
v 0.4 0.7 2.23517e-08
v -0.3 0.7 -0.1
v -0.2 0.7 -0.1
v 0.3 0.7 -0.1
v 0.4 0.7 -0.1
v -0.4 0.9 2.23517e-08
v -0.3 0.9 2.23517e-08
v 0.4 0.9 2.23517e-08
v 0.5 0.9 2.23517e-08
v -0.4 0.9 -0.1
v -0.3 0.9 -0.1
v 0.4 0.9 -0.1
v 0.5 0.9 -0.1
v -0.5 1.1 2.23517e-08
v -0.4 1.1 2.23517e-08
v 0.5 1.1 2.23517e-08
v 0.6 1.1 2.23517e-08
v -0.5 1.1 -0.1
v -0.4 1.1 -0.1
v 0.5 1.1 -0.1
v 0.6 1.1 -0.1
v -0.6 1.3 2.23517e-08
v -0.5 1.3 2.23517e-08
v 0.6 1.3 2.23517e-08
v 0.7 1.3 2.23517e-08
v -0.6 1.3 -0.1
v -0.5 1.3 -0.1
v 0.6 1.3 -0.1
v 0.7 1.3 -0.1
v -0.6 1.9 2.23517e-08
v -0.5 1.9 2.23517e-08
v 0.6 1.9 2.23517e-08
v 0.7 1.9 2.23517e-08
v -0.6 1.9 -0.1
v -0.5 1.9 -0.1
v 0.6 1.9 -0.1
v 0.7 1.9 -0.1
v -0.5 2 2.23517e-08
v -0.4 2 2.23517e-08
v 0.5 2 2.23517e-08
v 0.6 2 2.23517e-08
v -0.5 2 -0.1
v -0.4 2 -0.1
v 0.5 2 -0.1
v 0.6 2 -0.1
v -0.4 2.1 2.23517e-08
v -0.2 2.1 2.23517e-08
v 0.3 2.1 2.23517e-08
v 0.5 2.1 2.23517e-08
v -0.4 2.1 -0.1
v -0.2 2.1 -0.1
v 0.3 2.1 -0.1
v 0.5 2.1 -0.1
v -0.2 2.2 2.23517e-08
v 0.3 2.2 2.23517e-08
v -0.2 2.2 -0.1
v 0.3 2.2 -0.1

# faces
f 3/6/1 2/6/1 1/6/1
f 4/6/1 2/6/1 3/6/1
f 7/6/1 6/6/1 5/6/1
f 8/6/1 6/6/1 7/6/1
f 11/6/1 10/6/1 9/6/1
f 12/6/1 10/6/1 11/6/1
f 15/6/1 14/6/1 13/6/1
f 16/6/1 14/6/1 15/6/1
f 19/6/1 18/6/1 17/6/1
f 20/6/1 18/6/1 19/6/1
f 23/6/1 22/6/1 21/6/1
f 24/6/1 22/6/1 23/6/1
f 27/6/1 26/6/1 25/6/1
f 28/6/1 26/6/1 27/6/1
f 31/6/1 30/6/1 29/6/1
f 32/6/1 30/6/1 31/6/1
f 35/6/1 34/6/1 33/6/1
f 36/6/1 34/6/1 35/6/1
f 39/6/1 38/6/1 37/6/1
f 40/6/1 38/6/1 39/6/1
f 41/6/2 42/6/2 43/6/2
f 43/6/2 42/6/2 44/6/2
f 45/6/2 46/6/2 47/6/2
f 47/6/2 46/6/2 48/6/2
f 49/6/2 50/6/2 51/6/2
f 51/6/2 50/6/2 52/6/2
f 53/6/2 54/6/2 55/6/2
f 55/6/2 54/6/2 56/6/2
f 57/6/2 58/6/2 59/6/2
f 59/6/2 58/6/2 60/6/2
f 61/6/2 62/6/2 63/6/2
f 63/6/2 62/6/2 64/6/2
f 65/6/2 66/6/2 67/6/2
f 67/6/2 66/6/2 68/6/2
f 69/6/2 70/6/2 71/6/2
f 71/6/2 70/6/2 72/6/2
f 73/6/2 74/6/2 75/6/2
f 75/6/2 74/6/2 76/6/2
f 77/6/2 78/6/2 79/6/2
f 79/6/2 78/6/2 80/6/2
f 84/6/3 82/6/3 81/6/3
f 85/6/3 82/6/3 84/6/3
f 88/6/3 84/6/3 83/6/3
f 89/3/3 85/3/3 84/3/3
f 89/6/3 84/6/3 88/6/3
f 90/3/3 85/3/3 89/3/3
f 91/3/3 85/3/3 90/3/3
f 92/6/3 86/6/3 85/6/3
f 92/3/3 85/3/3 91/3/3
f 93/6/3 86/6/3 92/6/3
f 96/6/3 88/6/3 87/6/3
f 97/3/3 89/3/3 88/3/3
f 97/6/3 88/6/3 96/6/3
f 98/3/3 89/3/3 97/3/3
f 99/5/3 90/5/3 89/5/3
f 99/3/3 89/3/3 98/3/3
f 100/5/3 92/5/3 91/5/3
f 101/5/3 92/5/3 100/5/3
f 103/6/3 96/6/3 95/6/3
f 104/3/3 97/3/3 96/3/3
f 104/6/3 96/6/3 103/6/3
f 105/5/3 98/5/3 97/5/3
f 105/3/3 97/3/3 104/3/3
f 106/4/3 99/4/3 98/4/3
f 106/5/3 98/5/3 105/5/3
f 107/5/3 90/5/3 99/5/3
f 107/4/3 99/4/3 106/4/3
f 108/5/3 100/5/3 91/5/3
f 108/4/3 101/4/3 100/4/3
f 109/5/3 92/5/3 101/5/3
f 109/4/3 101/4/3 108/4/3
f 110/3/3 93/3/3 92/3/3
f 110/5/3 92/5/3 109/5/3
f 111/6/3 94/6/3 93/6/3
f 111/3/3 93/3/3 110/3/3
f 112/6/3 94/6/3 111/6/3
f 115/6/3 103/6/3 102/6/3
f 116/3/3 104/3/3 103/3/3
f 116/6/3 103/6/3 115/6/3
f 117/5/3 106/5/3 105/5/3
f 117/3/3 104/3/3 116/3/3
f 117/5/3 105/5/3 104/5/3
f 117/5/3 107/5/3 106/5/3
f 118/5/3 90/5/3 107/5/3
f 118/5/3 107/5/3 117/5/3
f 119/1/3 91/1/3 90/1/3
f 119/5/3 90/5/3 118/5/3
f 120/5/3 110/5/3 109/5/3
f 120/1/3 91/1/3 119/1/3
f 120/5/3 108/5/3 91/5/3
f 120/5/3 111/5/3 110/5/3
f 120/5/3 109/5/3 108/5/3
f 121/5/3 111/5/3 120/5/3
f 123/6/3 115/6/3 114/6/3
f 124/3/3 116/3/3 115/3/3
f 124/6/3 115/6/3 123/6/3
f 125/5/3 118/5/3 117/5/3
f 125/3/3 116/3/3 124/3/3
f 125/5/3 117/5/3 116/5/3
f 126/2/3 119/2/3 118/2/3
f 126/5/3 118/5/3 125/5/3
f 126/2/3 120/2/3 119/2/3
f 126/2/3 121/2/3 120/2/3
f 127/2/3 121/2/3 126/2/3
f 128/2/3 121/2/3 127/2/3
f 129/5/3 111/5/3 121/5/3
f 129/2/3 121/2/3 128/2/3
f 130/3/3 112/3/3 111/3/3
f 130/5/3 111/5/3 129/5/3
f 131/6/3 123/6/3 122/6/3
f 132/3/3 124/3/3 123/3/3
f 132/6/3 123/6/3 131/6/3
f 133/1/3 125/1/3 124/1/3
f 133/3/3 124/3/3 132/3/3
f 133/1/3 126/1/3 125/1/3
f 134/1/3 126/1/3 133/1/3
f 135/2/3 127/2/3 126/2/3
f 135/1/3 126/1/3 134/1/3
f 136/6/3 128/6/3 127/6/3
f 136/2/3 127/2/3 135/2/3
f 137/2/3 129/2/3 128/2/3
f 137/6/3 128/6/3 136/6/3
f 138/1/3 130/1/3 129/1/3
f 138/2/3 129/2/3 137/2/3
f 139/3/3 112/3/3 130/3/3
f 139/1/3 130/1/3 138/1/3
f 140/6/3 133/6/3 132/6/3
f 141/3/3 134/3/3 133/3/3
f 141/6/3 133/6/3 140/6/3
f 142/5/3 135/5/3 134/5/3
f 142/3/3 134/3/3 141/3/3
f 143/5/3 135/5/3 142/5/3
f 144/2/3 138/2/3 137/2/3
f 144/5/3 135/5/3 143/5/3
f 144/2/3 136/2/3 135/2/3
f 144/2/3 137/2/3 136/2/3
f 145/2/3 138/2/3 144/2/3
f 146/2/3 138/2/3 145/2/3
f 147/5/3 139/5/3 138/5/3
f 147/2/3 138/2/3 146/2/3
f 148/6/3 142/6/3 141/6/3
f 149/3/3 143/3/3 142/3/3
f 149/6/3 142/6/3 148/6/3
f 150/5/3 144/5/3 143/5/3
f 150/3/3 143/3/3 149/3/3
f 150/5/3 145/5/3 144/5/3
f 151/5/3 145/5/3 150/5/3
f 152/5/3 145/5/3 151/5/3
f 153/5/3 145/5/3 152/5/3
f 154/5/3 139/5/3 147/5/3
f 154/5/3 147/5/3 146/5/3
f 155/5/3 139/5/3 154/5/3
f 156/5/3 139/5/3 155/5/3
f 157/3/3 112/3/3 139/3/3
f 157/5/3 139/5/3 156/5/3
f 158/6/3 113/6/3 112/6/3
f 158/3/3 112/3/3 157/3/3
f 159/6/3 113/6/3 158/6/3
f 160/6/3 150/6/3 149/6/3
f 161/3/3 151/3/3 150/3/3
f 161/6/3 150/6/3 160/6/3
f 162/5/3 152/5/3 151/5/3
f 162/3/3 151/3/3 161/3/3
f 163/4/3 153/4/3 152/4/3
f 163/5/3 152/5/3 162/5/3
f 164/5/3 145/5/3 153/5/3
f 164/4/3 153/4/3 163/4/3
f 165/5/3 154/5/3 146/5/3
f 165/4/3 155/4/3 154/4/3
f 166/5/3 156/5/3 155/5/3
f 166/4/3 155/4/3 165/4/3
f 167/6/3 162/6/3 161/6/3
f 168/3/3 163/3/3 162/3/3
f 168/6/3 162/6/3 167/6/3
f 168/3/3 164/3/3 163/3/3
f 169/5/3 145/5/3 164/5/3
f 169/3/3 164/3/3 168/3/3
f 170/1/3 146/1/3 145/1/3
f 170/5/3 145/5/3 169/5/3
f 171/5/3 165/5/3 146/5/3
f 171/1/3 146/1/3 170/1/3
f 171/5/3 166/5/3 165/5/3
f 172/5/3 156/5/3 166/5/3
f 172/5/3 166/5/3 171/5/3
f 172/3/3 157/3/3 156/3/3
f 173/6/3 158/6/3 157/6/3
f 173/3/3 157/3/3 172/3/3
f 174/6/3 158/6/3 173/6/3
f 175/6/3 169/6/3 168/6/3
f 176/3/3 170/3/3 169/3/3
f 176/6/3 169/6/3 175/6/3
f 176/3/3 171/3/3 170/3/3
f 176/3/3 172/3/3 171/3/3
f 177/6/3 173/6/3 172/6/3
f 177/3/3 172/3/3 176/3/3
f 178/6/3 173/6/3 177/6/3
f 179/6/3 177/6/3 176/6/3
f 180/6/3 177/6/3 179/6/3
f 181/6/4 182/6/4 184/6/4
f 184/6/4 182/6/4 185/6/4
f 183/6/4 184/6/4 188/6/4
f 184/3/4 185/3/4 189/3/4
f 188/6/4 184/6/4 189/6/4
f 189/3/4 185/3/4 190/3/4
f 190/3/4 185/3/4 191/3/4
f 185/6/4 186/6/4 192/6/4
f 191/3/4 185/3/4 192/3/4
f 192/6/4 186/6/4 193/6/4
f 187/6/4 188/6/4 196/6/4
f 188/3/4 189/3/4 197/3/4
f 196/6/4 188/6/4 197/6/4
f 197/3/4 189/3/4 198/3/4
f 189/5/4 190/5/4 199/5/4
f 198/3/4 189/3/4 199/3/4
f 191/5/4 192/5/4 200/5/4
f 200/5/4 192/5/4 201/5/4
f 195/6/4 196/6/4 203/6/4
f 196/3/4 197/3/4 204/3/4
f 203/6/4 196/6/4 204/6/4
f 197/5/4 198/5/4 205/5/4
f 204/3/4 197/3/4 205/3/4
f 198/4/4 199/4/4 206/4/4
f 205/5/4 198/5/4 206/5/4
f 199/5/4 190/5/4 207/5/4
f 206/4/4 199/4/4 207/4/4
f 191/5/4 200/5/4 208/5/4
f 200/4/4 201/4/4 208/4/4
f 201/5/4 192/5/4 209/5/4
f 208/4/4 201/4/4 209/4/4
f 192/3/4 193/3/4 210/3/4
f 209/5/4 192/5/4 210/5/4
f 193/6/4 194/6/4 211/6/4
f 210/3/4 193/3/4 211/3/4
f 211/6/4 194/6/4 212/6/4
f 202/6/4 203/6/4 215/6/4
f 203/3/4 204/3/4 216/3/4
f 215/6/4 203/6/4 216/6/4
f 205/5/4 206/5/4 217/5/4
f 216/3/4 204/3/4 217/3/4
f 204/5/4 205/5/4 217/5/4
f 206/5/4 207/5/4 217/5/4
f 207/5/4 190/5/4 218/5/4
f 217/5/4 207/5/4 218/5/4
f 190/1/4 191/1/4 219/1/4
f 218/5/4 190/5/4 219/5/4
f 209/5/4 210/5/4 220/5/4
f 219/1/4 191/1/4 220/1/4
f 191/5/4 208/5/4 220/5/4
f 210/5/4 211/5/4 220/5/4
f 208/5/4 209/5/4 220/5/4
f 220/5/4 211/5/4 221/5/4
f 214/6/4 215/6/4 223/6/4
f 215/3/4 216/3/4 224/3/4
f 223/6/4 215/6/4 224/6/4
f 217/5/4 218/5/4 225/5/4
f 224/3/4 216/3/4 225/3/4
f 216/5/4 217/5/4 225/5/4
f 218/2/4 219/2/4 226/2/4
f 225/5/4 218/5/4 226/5/4
f 219/2/4 220/2/4 226/2/4
f 220/2/4 221/2/4 226/2/4
f 226/2/4 221/2/4 227/2/4
f 227/2/4 221/2/4 228/2/4
f 221/5/4 211/5/4 229/5/4
f 228/2/4 221/2/4 229/2/4
f 211/3/4 212/3/4 230/3/4
f 229/5/4 211/5/4 230/5/4
f 222/6/4 223/6/4 231/6/4
f 223/3/4 224/3/4 232/3/4
f 231/6/4 223/6/4 232/6/4
f 224/1/4 225/1/4 233/1/4
f 232/3/4 224/3/4 233/3/4
f 225/1/4 226/1/4 233/1/4
f 233/1/4 226/1/4 234/1/4
f 226/2/4 227/2/4 235/2/4
f 234/1/4 226/1/4 235/1/4
f 227/6/4 228/6/4 236/6/4
f 235/2/4 227/2/4 236/2/4
f 228/2/4 229/2/4 237/2/4
f 236/6/4 228/6/4 237/6/4
f 229/1/4 230/1/4 238/1/4
f 237/2/4 229/2/4 238/2/4
f 230/3/4 212/3/4 239/3/4
f 238/1/4 230/1/4 239/1/4
f 232/6/4 233/6/4 240/6/4
f 233/3/4 234/3/4 241/3/4
f 240/6/4 233/6/4 241/6/4
f 234/5/4 235/5/4 242/5/4
f 241/3/4 234/3/4 242/3/4
f 242/5/4 235/5/4 243/5/4
f 237/2/4 238/2/4 244/2/4
f 243/5/4 235/5/4 244/5/4
f 235/2/4 236/2/4 244/2/4
f 236/2/4 237/2/4 244/2/4
f 244/2/4 238/2/4 245/2/4
f 245/2/4 238/2/4 246/2/4
f 238/5/4 239/5/4 247/5/4
f 246/2/4 238/2/4 247/2/4
f 241/6/4 242/6/4 248/6/4
f 242/3/4 243/3/4 249/3/4
f 248/6/4 242/6/4 249/6/4
f 243/5/4 244/5/4 250/5/4
f 249/3/4 243/3/4 250/3/4
f 244/5/4 245/5/4 250/5/4
f 250/5/4 245/5/4 251/5/4
f 251/5/4 245/5/4 252/5/4
f 252/5/4 245/5/4 253/5/4
f 247/5/4 239/5/4 254/5/4
f 246/5/4 247/5/4 254/5/4
f 254/5/4 239/5/4 255/5/4
f 255/5/4 239/5/4 256/5/4
f 239/3/4 212/3/4 257/3/4
f 256/5/4 239/5/4 257/5/4
f 212/6/4 213/6/4 258/6/4
f 257/3/4 212/3/4 258/3/4
f 258/6/4 213/6/4 259/6/4
f 249/6/4 250/6/4 260/6/4
f 250/3/4 251/3/4 261/3/4
f 260/6/4 250/6/4 261/6/4
f 251/5/4 252/5/4 262/5/4
f 261/3/4 251/3/4 262/3/4
f 252/4/4 253/4/4 263/4/4
f 262/5/4 252/5/4 263/5/4
f 253/5/4 245/5/4 264/5/4
f 263/4/4 253/4/4 264/4/4
f 246/5/4 254/5/4 265/5/4
f 254/4/4 255/4/4 265/4/4
f 255/5/4 256/5/4 266/5/4
f 265/4/4 255/4/4 266/4/4
f 261/6/4 262/6/4 267/6/4
f 262/3/4 263/3/4 268/3/4
f 267/6/4 262/6/4 268/6/4
f 263/3/4 264/3/4 268/3/4
f 264/5/4 245/5/4 269/5/4
f 268/3/4 264/3/4 269/3/4
f 245/1/4 246/1/4 270/1/4
f 269/5/4 245/5/4 270/5/4
f 246/5/4 265/5/4 271/5/4
f 270/1/4 246/1/4 271/1/4
f 265/5/4 266/5/4 271/5/4
f 266/5/4 256/5/4 272/5/4
f 271/5/4 266/5/4 272/5/4
f 256/3/4 257/3/4 272/3/4
f 257/6/4 258/6/4 273/6/4
f 272/3/4 257/3/4 273/3/4
f 273/6/4 258/6/4 274/6/4
f 268/6/4 269/6/4 275/6/4
f 269/3/4 270/3/4 276/3/4
f 275/6/4 269/6/4 276/6/4
f 270/3/4 271/3/4 276/3/4
f 271/3/4 272/3/4 276/3/4
f 272/6/4 273/6/4 277/6/4
f 276/3/4 272/3/4 277/3/4
f 277/6/4 273/6/4 278/6/4
f 276/6/4 277/6/4 279/6/4
f 279/6/4 277/6/4 280/6/4
f 283/6/5 282/6/5 281/6/5
f 284/6/5 282/6/5 283/6/5
f 289/6/5 286/6/5 285/6/5
f 290/6/5 286/6/5 289/6/5
f 291/6/5 288/6/5 287/6/5
f 292/6/5 288/6/5 291/6/5
f 297/6/5 294/6/5 293/6/5
f 298/6/5 294/6/5 297/6/5
f 299/6/5 296/6/5 295/6/5
f 300/6/5 296/6/5 299/6/5
f 305/6/5 302/6/5 301/6/5
f 306/6/5 302/6/5 305/6/5
f 307/6/5 304/6/5 303/6/5
f 308/6/5 304/6/5 307/6/5
f 313/6/5 310/6/5 309/6/5
f 314/6/5 310/6/5 313/6/5
f 315/6/5 312/6/5 311/6/5
f 316/6/5 312/6/5 315/6/5
f 321/6/5 318/6/5 317/6/5
f 322/6/5 318/6/5 321/6/5
f 323/6/5 320/6/5 319/6/5
f 324/6/5 320/6/5 323/6/5
f 329/6/5 326/6/5 325/6/5
f 330/6/5 326/6/5 329/6/5
f 331/6/5 328/6/5 327/6/5
f 332/6/5 328/6/5 331/6/5
f 333/6/6 334/6/6 337/6/6
f 337/6/6 334/6/6 338/6/6
f 335/6/6 336/6/6 339/6/6
f 339/6/6 336/6/6 340/6/6
f 341/6/6 342/6/6 345/6/6
f 345/6/6 342/6/6 346/6/6
f 343/6/6 344/6/6 347/6/6
f 347/6/6 344/6/6 348/6/6
f 349/6/6 350/6/6 353/6/6
f 353/6/6 350/6/6 354/6/6
f 351/6/6 352/6/6 355/6/6
f 355/6/6 352/6/6 356/6/6
f 357/6/6 358/6/6 359/6/6
f 359/6/6 358/6/6 360/6/6
