# MagicaVoxel @ Ephtracy

# group
o 

# material
mtllib IncreaseDamageBuff.mtl
usemtl palette

# normals
vn -1 0 0
vn 1 0 0
vn 0 0 1
vn 0 0 -1
vn 0 -1 0
vn 0 1 0

# texcoords
vt 0.310547 0.5
vt 0.341797 0.5
vt 0.904297 0.5
vt 0.912109 0.5
vt 0.919922 0.5
vt 0.935547 0.5
vt 0.970703 0.5

# verts
v -0.2 0.8 2.23517e-08
v -0.2 0.8 -0.1
v -0.2 1 2.23517e-08
v -0.2 1 -0.1
v -0.0999999 1 2.23517e-08
v -0.0999999 1 -0.1
v -0.0999999 2 2.23517e-08
v -0.0999999 2 -0.1
v 5.96046e-08 0.4 2.23517e-08
v 5.96046e-08 0.4 -0.1
v 5.96046e-08 0.5 2.23517e-08
v 5.96046e-08 0.5 -0.1
v 5.96046e-08 0.6 2.23517e-08
v 5.96046e-08 0.6 -0.1
v 5.96046e-08 0.8 2.23517e-08
v 5.96046e-08 0.8 -0.1
v 5.96046e-08 0.9 2.23517e-08
v 5.96046e-08 0.9 -0.1
v 5.96046e-08 2 2.23517e-08
v 5.96046e-08 2 -0.1
v 5.96046e-08 2.1 2.23517e-08
v 5.96046e-08 2.1 -0.1
v 0.2 0.8 2.23517e-08
v 0.2 0.8 -0.1
v 0.2 0.9 2.23517e-08
v 0.2 0.9 -0.1
v -0.0999999 0.8 2.23517e-08
v -0.0999999 0.8 -0.1
v -0.0999999 0.9 2.23517e-08
v -0.0999999 0.9 -0.1
v 0.1 0.4 2.23517e-08
v 0.1 0.4 -0.1
v 0.1 0.5 2.23517e-08
v 0.1 0.5 -0.1
v 0.1 0.6 2.23517e-08
v 0.1 0.6 -0.1
v 0.1 0.8 2.23517e-08
v 0.1 0.8 -0.1
v 0.1 0.9 2.23517e-08
v 0.1 0.9 -0.1
v 0.1 2 2.23517e-08
v 0.1 2 -0.1
v 0.1 2.1 2.23517e-08
v 0.1 2.1 -0.1
v 0.2 1 2.23517e-08
v 0.2 1 -0.1
v 0.2 2 2.23517e-08
v 0.2 2 -0.1
v 0.3 0.8 2.23517e-08
v 0.3 0.8 -0.1
v 0.3 1 2.23517e-08
v 0.3 1 -0.1
v -0.2 0.8 2.23517e-08
v -0.2 1 2.23517e-08
v -0.0999999 0.8 2.23517e-08
v -0.0999999 0.9 2.23517e-08
v -0.0999999 1 2.23517e-08
v -0.0999999 2 2.23517e-08
v 5.96046e-08 0.4 2.23517e-08
v 5.96046e-08 0.5 2.23517e-08
v 5.96046e-08 0.6 2.23517e-08
v 5.96046e-08 0.8 2.23517e-08
v 5.96046e-08 0.9 2.23517e-08
v 5.96046e-08 1 2.23517e-08
v 5.96046e-08 1.1 2.23517e-08
v 5.96046e-08 1.9 2.23517e-08
v 5.96046e-08 2 2.23517e-08
v 5.96046e-08 2.1 2.23517e-08
v 0.1 0.4 2.23517e-08
v 0.1 0.5 2.23517e-08
v 0.1 0.6 2.23517e-08
v 0.1 0.8 2.23517e-08
v 0.1 0.9 2.23517e-08
v 0.1 1 2.23517e-08
v 0.1 1.1 2.23517e-08
v 0.1 1.9 2.23517e-08
v 0.1 2 2.23517e-08
v 0.1 2.1 2.23517e-08
v 0.2 0.8 2.23517e-08
v 0.2 0.9 2.23517e-08
v 0.2 1 2.23517e-08
v 0.2 2 2.23517e-08
v 0.3 0.8 2.23517e-08
v 0.3 1 2.23517e-08
v -0.2 0.8 -0.1
v -0.2 1 -0.1
v -0.0999999 0.8 -0.1
v -0.0999999 0.9 -0.1
v -0.0999999 1 -0.1
v -0.0999999 2 -0.1
v 5.96046e-08 0.4 -0.1
v 5.96046e-08 0.5 -0.1
v 5.96046e-08 0.6 -0.1
v 5.96046e-08 0.8 -0.1
v 5.96046e-08 0.9 -0.1
v 5.96046e-08 1 -0.1
v 5.96046e-08 1.1 -0.1
v 5.96046e-08 1.9 -0.1
v 5.96046e-08 2 -0.1
v 5.96046e-08 2.1 -0.1
v 0.1 0.4 -0.1
v 0.1 0.5 -0.1
v 0.1 0.6 -0.1
v 0.1 0.8 -0.1
v 0.1 0.9 -0.1
v 0.1 1 -0.1
v 0.1 1.1 -0.1
v 0.1 1.9 -0.1
v 0.1 2 -0.1
v 0.1 2.1 -0.1
v 0.2 0.8 -0.1
v 0.2 0.9 -0.1
v 0.2 1 -0.1
v 0.2 2 -0.1
v 0.3 0.8 -0.1
v 0.3 1 -0.1
v 5.96046e-08 0.4 2.23517e-08
v 0.1 0.4 2.23517e-08
v 5.96046e-08 0.4 -0.1
v 0.1 0.4 -0.1
v -0.2 0.8 2.23517e-08
v -0.0999999 0.8 2.23517e-08
v 0.2 0.8 2.23517e-08
v 0.3 0.8 2.23517e-08
v -0.2 0.8 -0.1
v -0.0999999 0.8 -0.1
v 0.2 0.8 -0.1
v 0.3 0.8 -0.1
v -0.0999999 0.9 2.23517e-08
v 5.96046e-08 0.9 2.23517e-08
v 0.1 0.9 2.23517e-08
v 0.2 0.9 2.23517e-08
v -0.0999999 0.9 -0.1
v 5.96046e-08 0.9 -0.1
v 0.1 0.9 -0.1
v 0.2 0.9 -0.1
v -0.2 1 2.23517e-08
v -0.0999999 1 2.23517e-08
v 0.2 1 2.23517e-08
v 0.3 1 2.23517e-08
v -0.2 1 -0.1
v -0.0999999 1 -0.1
v 0.2 1 -0.1
v 0.3 1 -0.1
v -0.0999999 2 2.23517e-08
v 5.96046e-08 2 2.23517e-08
v 0.1 2 2.23517e-08
v 0.2 2 2.23517e-08
v -0.0999999 2 -0.1
v 5.96046e-08 2 -0.1
v 0.1 2 -0.1
v 0.2 2 -0.1
v 5.96046e-08 2.1 2.23517e-08
v 0.1 2.1 2.23517e-08
v 5.96046e-08 2.1 -0.1
v 0.1 2.1 -0.1

# faces
f 3/6/1 2/6/1 1/6/1
f 4/6/1 2/6/1 3/6/1
f 7/4/1 6/4/1 5/4/1
f 8/4/1 6/4/1 7/4/1
f 11/7/1 10/7/1 9/7/1
f 12/7/1 10/7/1 11/7/1
f 13/1/1 12/1/1 11/1/1
f 14/1/1 12/1/1 13/1/1
f 15/2/1 14/2/1 13/2/1
f 16/2/1 14/2/1 15/2/1
f 17/1/1 16/1/1 15/1/1
f 18/1/1 16/1/1 17/1/1
f 21/4/1 20/4/1 19/4/1
f 22/4/1 20/4/1 21/4/1
f 25/6/1 24/6/1 23/6/1
f 26/6/1 24/6/1 25/6/1
f 27/6/2 28/6/2 29/6/2
f 29/6/2 28/6/2 30/6/2
f 31/7/2 32/7/2 33/7/2
f 33/7/2 32/7/2 34/7/2
f 33/1/2 34/1/2 35/1/2
f 35/1/2 34/1/2 36/1/2
f 35/2/2 36/2/2 37/2/2
f 37/2/2 36/2/2 38/2/2
f 37/1/2 38/1/2 39/1/2
f 39/1/2 38/1/2 40/1/2
f 41/4/2 42/4/2 43/4/2
f 43/4/2 42/4/2 44/4/2
f 45/4/2 46/4/2 47/4/2
f 47/4/2 46/4/2 48/4/2
f 49/6/2 50/6/2 51/6/2
f 51/6/2 50/6/2 52/6/2
f 55/6/3 54/6/3 53/6/3
f 56/6/3 54/6/3 55/6/3
f 57/6/3 54/6/3 56/6/3
f 63/6/3 57/6/3 56/6/3
f 64/4/3 58/4/3 57/4/3
f 64/6/3 57/6/3 63/6/3
f 65/4/3 58/4/3 64/4/3
f 66/4/3 58/4/3 65/4/3
f 67/4/3 58/4/3 66/4/3
f 69/7/3 60/7/3 59/7/3
f 70/1/3 61/1/3 60/1/3
f 70/7/3 60/7/3 69/7/3
f 71/2/3 62/2/3 61/2/3
f 71/1/3 61/1/3 70/1/3
f 72/1/3 63/1/3 62/1/3
f 72/2/3 62/2/3 71/2/3
f 73/6/3 64/6/3 63/6/3
f 73/1/3 63/1/3 72/1/3
f 74/3/3 65/3/3 64/3/3
f 74/6/3 64/6/3 73/6/3
f 75/5/3 66/5/3 65/5/3
f 75/3/3 65/3/3 74/3/3
f 76/4/3 68/4/3 67/4/3
f 76/5/3 66/5/3 75/5/3
f 76/4/3 67/4/3 66/4/3
f 77/4/3 68/4/3 76/4/3
f 78/4/3 68/4/3 77/4/3
f 80/6/3 74/6/3 73/6/3
f 81/4/3 77/4/3 76/4/3
f 81/4/3 75/4/3 74/4/3
f 81/6/3 74/6/3 80/6/3
f 81/4/3 76/4/3 75/4/3
f 82/4/3 77/4/3 81/4/3
f 83/6/3 80/6/3 79/6/3
f 83/6/3 81/6/3 80/6/3
f 84/6/3 81/6/3 83/6/3
f 85/6/4 86/6/4 87/6/4
f 87/6/4 86/6/4 88/6/4
f 88/6/4 86/6/4 89/6/4
f 88/6/4 89/6/4 95/6/4
f 89/4/4 90/4/4 96/4/4
f 95/6/4 89/6/4 96/6/4
f 96/4/4 90/4/4 97/4/4
f 97/4/4 90/4/4 98/4/4
f 98/4/4 90/4/4 99/4/4
f 91/7/4 92/7/4 101/7/4
f 92/1/4 93/1/4 102/1/4
f 101/7/4 92/7/4 102/7/4
f 93/2/4 94/2/4 103/2/4
f 102/1/4 93/1/4 103/1/4
f 94/1/4 95/1/4 104/1/4
f 103/2/4 94/2/4 104/2/4
f 95/6/4 96/6/4 105/6/4
f 104/1/4 95/1/4 105/1/4
f 96/3/4 97/3/4 106/3/4
f 105/6/4 96/6/4 106/6/4
f 97/5/4 98/5/4 107/5/4
f 106/3/4 97/3/4 107/3/4
f 99/4/4 100/4/4 108/4/4
f 107/5/4 98/5/4 108/5/4
f 98/4/4 99/4/4 108/4/4
f 108/4/4 100/4/4 109/4/4
f 109/4/4 100/4/4 110/4/4
f 105/6/4 106/6/4 112/6/4
f 108/4/4 109/4/4 113/4/4
f 106/4/4 107/4/4 113/4/4
f 112/6/4 106/6/4 113/6/4
f 107/4/4 108/4/4 113/4/4
f 113/4/4 109/4/4 114/4/4
f 111/6/4 112/6/4 115/6/4
f 112/6/4 113/6/4 115/6/4
f 115/6/4 113/6/4 116/6/4
f 119/7/5 118/7/5 117/7/5
f 120/7/5 118/7/5 119/7/5
f 125/6/5 122/6/5 121/6/5
f 126/6/5 122/6/5 125/6/5
f 127/6/5 124/6/5 123/6/5
f 128/6/5 124/6/5 127/6/5
f 133/6/5 130/6/5 129/6/5
f 134/6/5 130/6/5 133/6/5
f 135/6/5 132/6/5 131/6/5
f 136/6/5 132/6/5 135/6/5
f 137/6/6 138/6/6 141/6/6
f 141/6/6 138/6/6 142/6/6
f 139/6/6 140/6/6 143/6/6
f 143/6/6 140/6/6 144/6/6
f 145/4/6 146/4/6 149/4/6
f 149/4/6 146/4/6 150/4/6
f 147/4/6 148/4/6 151/4/6
f 151/4/6 148/4/6 152/4/6
f 153/4/6 154/4/6 155/4/6
f 155/4/6 154/4/6 156/4/6
