# MagicaVoxel @ Ephtracy

# group
o 

# material
mtllib Sword_lvl1.mtl
usemtl palette

# normals
vn -1 0 0
vn 1 0 0
vn 0 0 1
vn 0 0 -1
vn 0 -1 0
vn 0 1 0

# texcoords
vt 0.310547 0.5
vt 0.314453 0.5
vt 0.341797 0.5
vt 0.681641 0.5
vt 0.927734 0.5
vt 0.958984 0.5

# verts
v -0.1 0.9 0.1
v -0.1 0.9 0
v -0.1 1 0.1
v -0.1 1 0
v -0.1 1.1 0.1
v -0.1 1.1 0
v -0.1 1.2 0.1
v -0.1 1.2 0
v -0.1 1.3 0.1
v -0.1 1.3 0
v -0.1 1.4 0.1
v -0.1 1.4 0
v -0.1 1.5 0.2
v -0.1 1.5 0.1
v -0.1 1.5 0
v -0.1 1.5 -0.1
v -0.1 1.6 0.5
v -0.1 1.6 0.2
v -0.1 1.6 0.1
v -0.1 1.6 0
v -0.1 1.6 -0.1
v -0.1 1.6 -0.4
v -0.1 1.7 0.5
v -0.1 1.7 0.3
v -0.1 1.7 0.2
v -0.1 1.7 -0.1
v -0.1 1.7 -0.2
v -0.1 1.7 -0.4
v -0.1 1.8 0.3
v -0.1 1.8 0.2
v -0.1 1.8 0.1
v -0.1 1.8 0
v -0.1 1.8 -0.1
v -0.1 1.8 -0.2
v -0.1 1.9 0.2
v -0.1 1.9 0.1
v -0.1 1.9 0
v -0.1 1.9 -0.1
v -0.1 2.8 0.1
v -0.1 2.8 0
v -0.1 2.9 0.2
v -0.1 2.9 0.1
v -0.1 2.9 0
v -0.1 2.9 -0.1
v -0.1 3 0.1
v -0.1 3 0
v -4.47035e-08 0.9 0.1
v -4.47035e-08 0.9 0
v -4.47035e-08 1 0.1
v -4.47035e-08 1 0
v -4.47035e-08 1.1 0.1
v -4.47035e-08 1.1 0
v -4.47035e-08 1.2 0.1
v -4.47035e-08 1.2 0
v -4.47035e-08 1.3 0.1
v -4.47035e-08 1.3 0
v -4.47035e-08 1.4 0.1
v -4.47035e-08 1.4 0
v -4.47035e-08 1.5 0.2
v -4.47035e-08 1.5 0.1
v -4.47035e-08 1.5 0
v -4.47035e-08 1.5 -0.1
v -4.47035e-08 1.6 0.5
v -4.47035e-08 1.6 0.2
v -4.47035e-08 1.6 0.1
v -4.47035e-08 1.6 0
v -4.47035e-08 1.6 -0.1
v -4.47035e-08 1.6 -0.4
v -4.47035e-08 1.7 0.5
v -4.47035e-08 1.7 0.3
v -4.47035e-08 1.7 0.2
v -4.47035e-08 1.7 -0.1
v -4.47035e-08 1.7 -0.2
v -4.47035e-08 1.7 -0.4
v -4.47035e-08 1.8 0.3
v -4.47035e-08 1.8 0.2
v -4.47035e-08 1.8 0.1
v -4.47035e-08 1.8 0
v -4.47035e-08 1.8 -0.1
v -4.47035e-08 1.8 -0.2
v -4.47035e-08 1.9 0.2
v -4.47035e-08 1.9 0.1
v -4.47035e-08 1.9 0
v -4.47035e-08 1.9 -0.1
v -4.47035e-08 2.8 0.1
v -4.47035e-08 2.8 0
v -4.47035e-08 2.9 0.2
v -4.47035e-08 2.9 0.1
v -4.47035e-08 2.9 0
v -4.47035e-08 2.9 -0.1
v -4.47035e-08 3 0.1
v -4.47035e-08 3 0
v -0.1 1.6 0.5
v -0.1 1.7 0.5
v -4.47035e-08 1.6 0.5
v -4.47035e-08 1.7 0.5
v -0.1 1.7 0.3
v -0.1 1.8 0.3
v -4.47035e-08 1.7 0.3
v -4.47035e-08 1.8 0.3
v -0.1 1.5 0.2
v -0.1 1.6 0.2
v -0.1 1.8 0.2
v -0.1 1.9 0.2
v -0.1 2.9 0.2
v -4.47035e-08 1.5 0.2
v -4.47035e-08 1.6 0.2
v -4.47035e-08 1.8 0.2
v -4.47035e-08 1.9 0.2
v -4.47035e-08 2.9 0.2
v -0.1 0.9 0.1
v -0.1 1 0.1
v -0.1 1.1 0.1
v -0.1 1.2 0.1
v -0.1 1.3 0.1
v -0.1 1.4 0.1
v -0.1 1.5 0.1
v -0.1 2.9 0.1
v -0.1 3 0.1
v -4.47035e-08 0.9 0.1
v -4.47035e-08 1 0.1
v -4.47035e-08 1.1 0.1
v -4.47035e-08 1.2 0.1
v -4.47035e-08 1.3 0.1
v -4.47035e-08 1.4 0.1
v -4.47035e-08 1.5 0.1
v -4.47035e-08 2.9 0.1
v -4.47035e-08 3 0.1
v -0.1 0.9 0
v -0.1 1 0
v -0.1 1.1 0
v -0.1 1.2 0
v -0.1 1.3 0
v -0.1 1.4 0
v -0.1 1.5 0
v -0.1 2.9 0
v -0.1 3 0
v -4.47035e-08 0.9 0
v -4.47035e-08 1 0
v -4.47035e-08 1.1 0
v -4.47035e-08 1.2 0
v -4.47035e-08 1.3 0
v -4.47035e-08 1.4 0
v -4.47035e-08 1.5 0
v -4.47035e-08 2.9 0
v -4.47035e-08 3 0
v -0.1 1.5 -0.1
v -0.1 1.6 -0.1
v -0.1 1.8 -0.1
v -0.1 1.9 -0.1
v -0.1 2.9 -0.1
v -4.47035e-08 1.5 -0.1
v -4.47035e-08 1.6 -0.1
v -4.47035e-08 1.8 -0.1
v -4.47035e-08 1.9 -0.1
v -4.47035e-08 2.9 -0.1
v -0.1 1.7 -0.2
v -0.1 1.8 -0.2
v -4.47035e-08 1.7 -0.2
v -4.47035e-08 1.8 -0.2
v -0.1 1.6 -0.4
v -0.1 1.7 -0.4
v -4.47035e-08 1.6 -0.4
v -4.47035e-08 1.7 -0.4
v -0.1 0.9 0.1
v -4.47035e-08 0.9 0.1
v -0.1 0.9 0
v -4.47035e-08 0.9 0
v -0.1 1.5 0.2
v -4.47035e-08 1.5 0.2
v -0.1 1.5 0.1
v -4.47035e-08 1.5 0.1
v -0.1 1.5 0
v -4.47035e-08 1.5 0
v -0.1 1.5 -0.1
v -4.47035e-08 1.5 -0.1
v -0.1 1.6 0.5
v -4.47035e-08 1.6 0.5
v -0.1 1.6 0.2
v -4.47035e-08 1.6 0.2
v -0.1 1.6 -0.1
v -4.47035e-08 1.6 -0.1
v -0.1 1.6 -0.4
v -4.47035e-08 1.6 -0.4
v -0.1 1.7 0.5
v -4.47035e-08 1.7 0.5
v -0.1 1.7 0.3
v -4.47035e-08 1.7 0.3
v -0.1 1.7 -0.2
v -4.47035e-08 1.7 -0.2
v -0.1 1.7 -0.4
v -4.47035e-08 1.7 -0.4
v -0.1 1.8 0.3
v -4.47035e-08 1.8 0.3
v -0.1 1.8 0.2
v -4.47035e-08 1.8 0.2
v -0.1 1.8 -0.1
v -4.47035e-08 1.8 -0.1
v -0.1 1.8 -0.2
v -4.47035e-08 1.8 -0.2
v -0.1 2.9 0.2
v -4.47035e-08 2.9 0.2
v -0.1 2.9 0.1
v -4.47035e-08 2.9 0.1
v -0.1 2.9 0
v -4.47035e-08 2.9 0
v -0.1 2.9 -0.1
v -4.47035e-08 2.9 -0.1
v -0.1 3 0.1
v -4.47035e-08 3 0.1
v -0.1 3 0
v -4.47035e-08 3 0

# faces
f 3/6/1 2/6/1 1/6/1
f 4/6/1 2/6/1 3/6/1
f 5/3/1 4/3/1 3/3/1
f 6/3/1 4/3/1 5/3/1
f 7/2/1 6/2/1 5/2/1
f 8/2/1 6/2/1 7/2/1
f 9/3/1 8/3/1 7/3/1
f 10/3/1 8/3/1 9/3/1
f 11/2/1 10/2/1 9/2/1
f 12/2/1 10/2/1 11/2/1
f 14/3/1 12/3/1 11/3/1
f 15/3/1 12/3/1 14/3/1
f 18/3/1 14/3/1 13/3/1
f 19/2/1 15/2/1 14/2/1
f 19/3/1 14/3/1 18/3/1
f 20/3/1 16/3/1 15/3/1
f 20/2/1 15/2/1 19/2/1
f 21/3/1 16/3/1 20/3/1
f 23/1/1 18/1/1 17/1/1
f 24/1/1 18/1/1 23/1/1
f 25/3/1 19/3/1 18/3/1
f 25/1/1 18/1/1 24/1/1
f 25/3/1 20/3/1 19/3/1
f 25/3/1 21/3/1 20/3/1
f 26/1/1 22/1/1 21/1/1
f 26/3/1 21/3/1 25/3/1
f 27/1/1 22/1/1 26/1/1
f 28/1/1 22/1/1 27/1/1
f 29/1/1 25/1/1 24/1/1
f 29/1/1 27/1/1 26/1/1
f 29/1/1 26/1/1 25/1/1
f 30/1/1 27/1/1 29/1/1
f 31/1/1 27/1/1 30/1/1
f 32/1/1 27/1/1 31/1/1
f 33/1/1 27/1/1 32/1/1
f 34/1/1 27/1/1 33/1/1
f 35/4/1 31/4/1 30/4/1
f 36/5/1 32/5/1 31/5/1
f 36/4/1 31/4/1 35/4/1
f 37/4/1 33/4/1 32/4/1
f 37/5/1 32/5/1 36/5/1
f 38/4/1 33/4/1 37/4/1
f 39/5/1 36/5/1 35/5/1
f 39/4/1 37/4/1 36/4/1
f 40/5/1 38/5/1 37/5/1
f 40/4/1 37/4/1 39/4/1
f 41/5/1 39/5/1 35/5/1
f 41/5/1 40/5/1 39/5/1
f 42/5/1 40/5/1 41/5/1
f 43/5/1 38/5/1 40/5/1
f 43/5/1 40/5/1 42/5/1
f 44/5/1 38/5/1 43/5/1
f 45/5/1 43/5/1 42/5/1
f 46/5/1 43/5/1 45/5/1
f 47/6/2 48/6/2 49/6/2
f 49/6/2 48/6/2 50/6/2
f 49/3/2 50/3/2 51/3/2
f 51/3/2 50/3/2 52/3/2
f 51/2/2 52/2/2 53/2/2
f 53/2/2 52/2/2 54/2/2
f 53/3/2 54/3/2 55/3/2
f 55/3/2 54/3/2 56/3/2
f 55/2/2 56/2/2 57/2/2
f 57/2/2 56/2/2 58/2/2
f 57/3/2 58/3/2 60/3/2
f 60/3/2 58/3/2 61/3/2
f 59/3/2 60/3/2 64/3/2
f 60/2/2 61/2/2 65/2/2
f 64/3/2 60/3/2 65/3/2
f 61/3/2 62/3/2 66/3/2
f 65/2/2 61/2/2 66/2/2
f 66/3/2 62/3/2 67/3/2
f 63/1/2 64/1/2 69/1/2
f 69/1/2 64/1/2 70/1/2
f 64/3/2 65/3/2 71/3/2
f 70/1/2 64/1/2 71/1/2
f 65/3/2 66/3/2 71/3/2
f 66/3/2 67/3/2 71/3/2
f 67/1/2 68/1/2 72/1/2
f 71/3/2 67/3/2 72/3/2
f 72/1/2 68/1/2 73/1/2
f 73/1/2 68/1/2 74/1/2
f 70/1/2 71/1/2 75/1/2
f 72/1/2 73/1/2 75/1/2
f 71/1/2 72/1/2 75/1/2
f 75/1/2 73/1/2 76/1/2
f 76/1/2 73/1/2 77/1/2
f 77/1/2 73/1/2 78/1/2
f 78/1/2 73/1/2 79/1/2
f 79/1/2 73/1/2 80/1/2
f 76/4/2 77/4/2 81/4/2
f 77/5/2 78/5/2 82/5/2
f 81/4/2 77/4/2 82/4/2
f 78/4/2 79/4/2 83/4/2
f 82/5/2 78/5/2 83/5/2
f 83/4/2 79/4/2 84/4/2
f 81/5/2 82/5/2 85/5/2
f 82/4/2 83/4/2 85/4/2
f 83/5/2 84/5/2 86/5/2
f 85/4/2 83/4/2 86/4/2
f 81/5/2 85/5/2 87/5/2
f 85/5/2 86/5/2 87/5/2
f 87/5/2 86/5/2 88/5/2
f 86/5/2 84/5/2 89/5/2
f 88/5/2 86/5/2 89/5/2
f 89/5/2 84/5/2 90/5/2
f 88/5/2 89/5/2 91/5/2
f 91/5/2 89/5/2 92/5/2
f 95/1/3 94/1/3 93/1/3
f 96/1/3 94/1/3 95/1/3
f 99/1/3 98/1/3 97/1/3
f 100/1/3 98/1/3 99/1/3
f 106/3/3 102/3/3 101/3/3
f 107/3/3 102/3/3 106/3/3
f 108/4/3 104/4/3 103/4/3
f 109/5/3 105/5/3 104/5/3
f 109/4/3 104/4/3 108/4/3
f 110/5/3 105/5/3 109/5/3
f 120/6/3 112/6/3 111/6/3
f 121/3/3 113/3/3 112/3/3
f 121/6/3 112/6/3 120/6/3
f 122/2/3 114/2/3 113/2/3
f 122/3/3 113/3/3 121/3/3
f 123/3/3 115/3/3 114/3/3
f 123/2/3 114/2/3 122/2/3
f 124/2/3 116/2/3 115/2/3
f 124/3/3 115/3/3 123/3/3
f 125/3/3 117/3/3 116/3/3
f 125/2/3 116/2/3 124/2/3
f 126/3/3 117/3/3 125/3/3
f 127/5/3 119/5/3 118/5/3
f 128/5/3 119/5/3 127/5/3
f 129/6/4 130/6/4 138/6/4
f 130/3/4 131/3/4 139/3/4
f 138/6/4 130/6/4 139/6/4
f 131/2/4 132/2/4 140/2/4
f 139/3/4 131/3/4 140/3/4
f 132/3/4 133/3/4 141/3/4
f 140/2/4 132/2/4 141/2/4
f 133/2/4 134/2/4 142/2/4
f 141/3/4 133/3/4 142/3/4
f 134/3/4 135/3/4 143/3/4
f 142/2/4 134/2/4 143/2/4
f 143/3/4 135/3/4 144/3/4
f 136/5/4 137/5/4 145/5/4
f 145/5/4 137/5/4 146/5/4
f 147/3/4 148/3/4 152/3/4
f 152/3/4 148/3/4 153/3/4
f 149/4/4 150/4/4 154/4/4
f 150/5/4 151/5/4 155/5/4
f 154/4/4 150/4/4 155/4/4
f 155/5/4 151/5/4 156/5/4
f 157/1/4 158/1/4 159/1/4
f 159/1/4 158/1/4 160/1/4
f 161/1/4 162/1/4 163/1/4
f 163/1/4 162/1/4 164/1/4
f 167/6/5 166/6/5 165/6/5
f 168/6/5 166/6/5 167/6/5
f 171/3/5 170/3/5 169/3/5
f 172/3/5 170/3/5 171/3/5
f 175/3/5 174/3/5 173/3/5
f 176/3/5 174/3/5 175/3/5
f 179/1/5 178/1/5 177/1/5
f 180/1/5 178/1/5 179/1/5
f 183/1/5 182/1/5 181/1/5
f 184/1/5 182/1/5 183/1/5
f 185/1/6 186/1/6 187/1/6
f 187/1/6 186/1/6 188/1/6
f 189/1/6 190/1/6 191/1/6
f 191/1/6 190/1/6 192/1/6
f 193/1/6 194/1/6 195/1/6
f 195/1/6 194/1/6 196/1/6
f 197/1/6 198/1/6 199/1/6
f 199/1/6 198/1/6 200/1/6
f 201/5/6 202/5/6 203/5/6
f 203/5/6 202/5/6 204/5/6
f 205/5/6 206/5/6 207/5/6
f 207/5/6 206/5/6 208/5/6
f 209/5/6 210/5/6 211/5/6
f 211/5/6 210/5/6 212/5/6
