# MagicaVoxel @ Ephtracy

# group
o 

# material
mtllib Chair.mtl
usemtl palette

# normals
vn -1 0 0
vn 1 0 0
vn 0 0 1
vn 0 0 -1
vn 0 -1 0
vn 0 1 0

# texcoords
vt 0.916016 0.5
vt 0.919922 0.5
vt 0.927734 0.5

# verts
v -0.7 0.4 0.6
v -0.7 0.4 0.5
v -0.7 0.4 -0.7
v -0.7 0.4 -0.8
v -0.7 1 0.6
v -0.7 1 0.5
v -0.7 1 -0.7
v -0.7 1 -0.8
v -0.6 1 0.5
v -0.6 1 0.4
v -0.6 1 -0.6
v -0.6 1 -0.7
v -0.6 1.2 0.5
v -0.6 1.2 0.4
v -0.6 1.2 -0.6
v -0.6 1.2 -0.7
v -0.5 1.2 0.4
v -0.5 1.2 0.3
v -0.5 1.2 -0.5
v -0.5 1.2 -0.6
v -0.5 1.3 0.4
v -0.5 1.3 0.3
v -0.5 1.3 -0.5
v -0.5 1.3 -0.6
v -0.5 1.4 0.3
v -0.5 1.4 -0.4
v -0.5 1.5 0.3
v -0.5 1.5 -0.4
v -0.5 2 -0.5
v -0.5 2 -0.6
v -0.5 2.5 -0.5
v -0.5 2.5 -0.6
v -0.4 1.3 0.3
v -0.4 1.3 0.2
v -0.4 1.3 -0.5
v -0.4 1.3 -0.6
v -0.4 1.4 0.4
v -0.4 1.4 0.3
v -0.4 1.4 0.2
v -0.4 1.5 0.4
v -0.4 1.5 0.3
v -0.4 2 -0.5
v -0.4 2 -0.6
v -0.4 2.5 -0.5
v -0.4 2.5 -0.6
v -0.4 2.6 -0.5
v -0.4 2.6 -0.6
v -0.3 1.4 -0.4
v -0.3 1.4 -0.5
v -0.3 1.5 -0.4
v -0.3 1.5 -0.5
v 0.4 1.3 0.3
v 0.4 1.3 0.2
v 0.4 1.3 -0.5
v 0.4 1.3 -0.6
v 0.4 1.4 0.3
v 0.4 1.4 0.2
v 0.4 1.4 -0.5
v 0.4 1.4 -0.6
v 0.4 1.5 -0.5
v 0.4 1.5 -0.6
v 0.4 1.9 -0.5
v 0.4 1.9 -0.6
v 0.5 1.2 0.4
v 0.5 1.2 0.3
v 0.5 1.2 -0.5
v 0.5 1.2 -0.6
v 0.5 1.3 0.4
v 0.5 1.3 0.3
v 0.5 1.3 -0.5
v 0.5 1.3 -0.6
v 0.6 1 0.5
v 0.6 1 0.4
v 0.6 1 -0.6
v 0.6 1 -0.7
v 0.6 1.2 0.5
v 0.6 1.2 0.4
v 0.6 1.2 -0.6
v 0.6 1.2 -0.7
v 0.7 0.4 0.6
v 0.7 0.4 0.5
v 0.7 0.4 -0.7
v 0.7 0.4 -0.8
v 0.7 1 0.6
v 0.7 1 0.5
v 0.7 1 -0.7
v 0.7 1 -0.8
v -0.6 0.4 0.6
v -0.6 0.4 0.5
v -0.6 0.4 -0.7
v -0.6 0.4 -0.8
v -0.6 1 0.6
v -0.6 1 0.5
v -0.6 1 -0.7
v -0.6 1 -0.8
v -0.5 1 0.5
v -0.5 1 0.4
v -0.5 1 -0.6
v -0.5 1 -0.7
v -0.5 1.2 0.5
v -0.5 1.2 0.4
v -0.5 1.2 -0.6
v -0.5 1.2 -0.7
v -0.4 1.2 0.4
v -0.4 1.2 0.3
v -0.4 1.2 -0.5
v -0.4 1.2 -0.6
v -0.4 1.3 0.4
v -0.4 1.3 0.3
v -0.4 1.3 -0.5
v -0.4 1.3 -0.6
v -0.3 1.3 0.3
v -0.3 1.3 0.2
v -0.3 1.3 -0.5
v -0.3 1.3 -0.6
v -0.3 1.4 0.3
v -0.3 1.4 0.2
v -0.3 1.4 -0.5
v -0.3 1.4 -0.6
v -0.3 1.5 -0.5
v -0.3 1.5 -0.6
v -0.3 1.9 -0.5
v -0.3 1.9 -0.6
v 0.4 1.4 -0.4
v 0.4 1.4 -0.5
v 0.4 1.5 -0.4
v 0.4 1.5 -0.5
v 0.5 1.3 0.3
v 0.5 1.3 0.2
v 0.5 1.3 -0.5
v 0.5 1.3 -0.6
v 0.5 1.4 0.4
v 0.5 1.4 0.3
v 0.5 1.4 0.2
v 0.5 1.5 0.4
v 0.5 1.5 0.3
v 0.5 2 -0.5
v 0.5 2 -0.6
v 0.5 2.5 -0.5
v 0.5 2.5 -0.6
v 0.5 2.6 -0.5
v 0.5 2.6 -0.6
v 0.6 1.2 0.4
v 0.6 1.2 0.3
v 0.6 1.2 -0.5
v 0.6 1.2 -0.6
v 0.6 1.3 0.4
v 0.6 1.3 0.3
v 0.6 1.3 -0.5
v 0.6 1.3 -0.6
v 0.6 1.4 0.3
v 0.6 1.4 -0.4
v 0.6 1.5 0.3
v 0.6 1.5 -0.4
v 0.6 2 -0.5
v 0.6 2 -0.6
v 0.6 2.5 -0.5
v 0.6 2.5 -0.6
v 0.7 1 0.5
v 0.7 1 0.4
v 0.7 1 -0.6
v 0.7 1 -0.7
v 0.7 1.2 0.5
v 0.7 1.2 0.4
v 0.7 1.2 -0.6
v 0.7 1.2 -0.7
v 0.8 0.4 0.6
v 0.8 0.4 0.5
v 0.8 0.4 -0.7
v 0.8 0.4 -0.8
v 0.8 1 0.6
v 0.8 1 0.5
v 0.8 1 -0.7
v 0.8 1 -0.8
v -0.7 0.4 0.6
v -0.7 1 0.6
v -0.6 0.4 0.6
v -0.6 1 0.6
v 0.7 0.4 0.6
v 0.7 1 0.6
v 0.8 0.4 0.6
v 0.8 1 0.6
v -0.6 1 0.5
v -0.6 1.2 0.5
v -0.5 1 0.5
v -0.5 1.2 0.5
v 0.6 1 0.5
v 0.6 1.2 0.5
v 0.7 1 0.5
v 0.7 1.2 0.5
v -0.5 1.2 0.4
v -0.5 1.3 0.4
v -0.4 1.2 0.4
v -0.4 1.3 0.4
v -0.4 1.4 0.4
v -0.4 1.5 0.4
v 0.5 1.2 0.4
v 0.5 1.3 0.4
v 0.5 1.4 0.4
v 0.5 1.5 0.4
v 0.6 1.2 0.4
v 0.6 1.3 0.4
v -0.5 1.4 0.3
v -0.5 1.5 0.3
v -0.4 1.3 0.3
v -0.4 1.4 0.3
v -0.4 1.5 0.3
v -0.3 1.3 0.3
v -0.3 1.4 0.3
v 0.4 1.3 0.3
v 0.4 1.4 0.3
v 0.5 1.3 0.3
v 0.5 1.4 0.3
v 0.5 1.5 0.3
v 0.6 1.4 0.3
v 0.6 1.5 0.3
v -0.5 1.2 -0.5
v -0.5 1.3 -0.5
v -0.5 2 -0.5
v -0.5 2.5 -0.5
v -0.4 1.2 -0.5
v -0.4 1.3 -0.5
v -0.4 2 -0.5
v -0.4 2.3 -0.5
v -0.4 2.5 -0.5
v -0.4 2.6 -0.5
v -0.3 1.3 -0.5
v -0.3 1.4 -0.5
v -0.3 1.5 -0.5
v -0.3 1.9 -0.5
v -0.3 2.3 -0.5
v -0.2 2.1 -0.5
v -0.2 2.2 -0.5
v -0.2 2.3 -0.5
v -0.2 2.4 -0.5
v 0.3 2.1 -0.5
v 0.3 2.2 -0.5
v 0.3 2.3 -0.5
v 0.3 2.4 -0.5
v 0.4 1.3 -0.5
v 0.4 1.4 -0.5
v 0.4 1.5 -0.5
v 0.4 1.9 -0.5
v 0.4 2.3 -0.5
v 0.5 1.2 -0.5
v 0.5 1.3 -0.5
v 0.5 2 -0.5
v 0.5 2.3 -0.5
v 0.5 2.5 -0.5
v 0.5 2.6 -0.5
v 0.6 1.2 -0.5
v 0.6 1.3 -0.5
v 0.6 2 -0.5
v 0.6 2.5 -0.5
v -0.6 1 -0.6
v -0.6 1.2 -0.6
v -0.5 1 -0.6
v -0.5 1.2 -0.6
v 0.6 1 -0.6
v 0.6 1.2 -0.6
v 0.7 1 -0.6
v 0.7 1.2 -0.6
v -0.7 0.4 -0.7
v -0.7 1 -0.7
v -0.6 0.4 -0.7
v -0.6 1 -0.7
v 0.7 0.4 -0.7
v 0.7 1 -0.7
v 0.8 0.4 -0.7
v 0.8 1 -0.7
v -0.7 0.4 0.5
v -0.7 1 0.5
v -0.6 0.4 0.5
v -0.6 1 0.5
v 0.7 0.4 0.5
v 0.7 1 0.5
v 0.8 0.4 0.5
v 0.8 1 0.5
v -0.6 1 0.4
v -0.6 1.2 0.4
v -0.5 1 0.4
v -0.5 1.2 0.4
v 0.6 1 0.4
v 0.6 1.2 0.4
v 0.7 1 0.4
v 0.7 1.2 0.4
v -0.5 1.2 0.3
v -0.5 1.3 0.3
v -0.4 1.2 0.3
v -0.4 1.3 0.3
v 0.5 1.2 0.3
v 0.5 1.3 0.3
v 0.6 1.2 0.3
v 0.6 1.3 0.3
v -0.4 1.3 0.2
v -0.4 1.4 0.2
v -0.3 1.3 0.2
v -0.3 1.4 0.2
v 0.4 1.3 0.2
v 0.4 1.4 0.2
v 0.5 1.3 0.2
v 0.5 1.4 0.2
v -0.5 1.4 -0.4
v -0.5 1.5 -0.4
v -0.3 1.4 -0.4
v -0.3 1.5 -0.4
v 0.4 1.4 -0.4
v 0.4 1.5 -0.4
v 0.6 1.4 -0.4
v 0.6 1.5 -0.4
v -0.5 1.2 -0.6
v -0.5 1.3 -0.6
v -0.5 2 -0.6
v -0.5 2.5 -0.6
v -0.4 1.2 -0.6
v -0.4 1.3 -0.6
v -0.4 2 -0.6
v -0.4 2.3 -0.6
v -0.4 2.5 -0.6
v -0.4 2.6 -0.6
v -0.3 1.3 -0.6
v -0.3 1.4 -0.6
v -0.3 1.5 -0.6
v -0.3 1.9 -0.6
v -0.3 2.3 -0.6
v -0.2 2.1 -0.6
v -0.2 2.2 -0.6
v -0.2 2.3 -0.6
v -0.2 2.4 -0.6
v 0.3 2.1 -0.6
v 0.3 2.2 -0.6
v 0.3 2.3 -0.6
v 0.3 2.4 -0.6
v 0.4 1.3 -0.6
v 0.4 1.4 -0.6
v 0.4 1.5 -0.6
v 0.4 1.9 -0.6
v 0.4 2.3 -0.6
v 0.5 1.2 -0.6
v 0.5 1.3 -0.6
v 0.5 2 -0.6
v 0.5 2.3 -0.6
v 0.5 2.5 -0.6
v 0.5 2.6 -0.6
v 0.6 1.2 -0.6
v 0.6 1.3 -0.6
v 0.6 2 -0.6
v 0.6 2.5 -0.6
v -0.6 1 -0.7
v -0.6 1.2 -0.7
v -0.5 1 -0.7
v -0.5 1.2 -0.7
v 0.6 1 -0.7
v 0.6 1.2 -0.7
v 0.7 1 -0.7
v 0.7 1.2 -0.7
v -0.7 0.4 -0.8
v -0.7 1 -0.8
v -0.6 0.4 -0.8
v -0.6 1 -0.8
v 0.7 0.4 -0.8
v 0.7 1 -0.8
v 0.8 0.4 -0.8
v 0.8 1 -0.8
v -0.7 0.4 0.6
v -0.6 0.4 0.6
v 0.7 0.4 0.6
v 0.8 0.4 0.6
v -0.7 0.4 0.5
v -0.6 0.4 0.5
v 0.7 0.4 0.5
v 0.8 0.4 0.5
v -0.7 0.4 -0.7
v -0.6 0.4 -0.7
v 0.7 0.4 -0.7
v 0.8 0.4 -0.7
v -0.7 0.4 -0.8
v -0.6 0.4 -0.8
v 0.7 0.4 -0.8
v 0.8 0.4 -0.8
v -0.6 1 0.5
v -0.5 1 0.5
v 0.6 1 0.5
v 0.7 1 0.5
v -0.6 1 0.4
v -0.5 1 0.4
v 0.6 1 0.4
v 0.7 1 0.4
v -0.6 1 -0.6
v -0.5 1 -0.6
v 0.6 1 -0.6
v 0.7 1 -0.6
v -0.6 1 -0.7
v -0.5 1 -0.7
v 0.6 1 -0.7
v 0.7 1 -0.7
v -0.5 1.2 0.4
v -0.4 1.2 0.4
v 0.5 1.2 0.4
v 0.6 1.2 0.4
v -0.5 1.2 0.3
v -0.4 1.2 0.3
v 0.5 1.2 0.3
v 0.6 1.2 0.3
v -0.5 1.2 -0.5
v -0.4 1.2 -0.5
v 0.5 1.2 -0.5
v 0.6 1.2 -0.5
v -0.5 1.2 -0.6
v -0.4 1.2 -0.6
v 0.5 1.2 -0.6
v 0.6 1.2 -0.6
v -0.4 1.3 0.3
v -0.3 1.3 0.3
v 0.4 1.3 0.3
v 0.5 1.3 0.3
v -0.4 1.3 0.2
v -0.3 1.3 0.2
v 0.4 1.3 0.2
v 0.5 1.3 0.2
v -0.4 1.3 -0.5
v -0.3 1.3 -0.5
v 0.4 1.3 -0.5
v 0.5 1.3 -0.5
v -0.4 1.3 -0.6
v -0.3 1.3 -0.6
v 0.4 1.3 -0.6
v 0.5 1.3 -0.6
v -0.4 1.4 0.4
v 0.5 1.4 0.4
v -0.5 1.4 0.3
v -0.4 1.4 0.3
v -0.3 1.4 0.3
v -0.2 1.4 0.3
v 0.3 1.4 0.3
v 0.4 1.4 0.3
v 0.5 1.4 0.3
v 0.6 1.4 0.3
v -0.4 1.4 0.2
v -0.3 1.4 0.2
v -0.2 1.4 0.2
v 0.3 1.4 0.2
v 0.4 1.4 0.2
v 0.5 1.4 0.2
v -0.3 1.4 0.1
v 0.4 1.4 0.1
v -0.3 1.4 0
v 0.4 1.4 0
v -0.3 1.4 -0.1
v 0.4 1.4 -0.1
v -0.3 1.4 -0.2
v 0.4 1.4 -0.2
v -0.2 1.4 -0.3
v 0.3 1.4 -0.3
v -0.5 1.4 -0.4
v -0.3 1.4 -0.4
v -0.2 1.4 -0.4
v 0.3 1.4 -0.4
v 0.4 1.4 -0.4
v 0.6 1.4 -0.4
v -0.3 1.4 -0.5
v 0.4 1.4 -0.5
v -0.3 1.4 -0.6
v 0.4 1.4 -0.6
v -0.3 1.9 -0.5
v 0.4 1.9 -0.5
v -0.3 1.9 -0.6
v 0.4 1.9 -0.6
v -0.5 2 -0.5
v -0.4 2 -0.5
v 0.5 2 -0.5
v 0.6 2 -0.5
v -0.5 2 -0.6
v -0.4 2 -0.6
v 0.5 2 -0.6
v 0.6 2 -0.6
v -0.7 1 0.6
v -0.6 1 0.6
v 0.7 1 0.6
v 0.8 1 0.6
v -0.7 1 0.5
v -0.6 1 0.5
v 0.7 1 0.5
v 0.8 1 0.5
v -0.7 1 -0.7
v -0.6 1 -0.7
v 0.7 1 -0.7
v 0.8 1 -0.7
v -0.7 1 -0.8
v -0.6 1 -0.8
v 0.7 1 -0.8
v 0.8 1 -0.8
v -0.6 1.2 0.5
v -0.5 1.2 0.5
v 0.6 1.2 0.5
v 0.7 1.2 0.5
v -0.6 1.2 0.4
v -0.5 1.2 0.4
v 0.6 1.2 0.4
v 0.7 1.2 0.4
v -0.6 1.2 -0.6
v -0.5 1.2 -0.6
v 0.6 1.2 -0.6
v 0.7 1.2 -0.6
v -0.6 1.2 -0.7
v -0.5 1.2 -0.7
v 0.6 1.2 -0.7
v 0.7 1.2 -0.7
v -0.5 1.3 0.4
v -0.4 1.3 0.4
v 0.5 1.3 0.4
v 0.6 1.3 0.4
v -0.5 1.3 0.3
v -0.4 1.3 0.3
v 0.5 1.3 0.3
v 0.6 1.3 0.3
v -0.5 1.3 -0.5
v -0.4 1.3 -0.5
v 0.5 1.3 -0.5
v 0.6 1.3 -0.5
v -0.5 1.3 -0.6
v -0.4 1.3 -0.6
v 0.5 1.3 -0.6
v 0.6 1.3 -0.6
v -0.4 1.5 0.4
v 0.5 1.5 0.4
v -0.5 1.5 0.3
v -0.4 1.5 0.3
v -0.2 1.5 0.3
v 0.3 1.5 0.3
v 0.5 1.5 0.3
v 0.6 1.5 0.3
v -0.2 1.5 0.2
v 0.3 1.5 0.2
v -0.3 1.5 0.1
v 0.4 1.5 0.1
v -0.3 1.5 0
v 0.4 1.5 0
v -0.3 1.5 -0.1
v 0.4 1.5 -0.1
v -0.3 1.5 -0.2
v 0.4 1.5 -0.2
v -0.2 1.5 -0.3
v 0.3 1.5 -0.3
v -0.5 1.5 -0.4
v -0.3 1.5 -0.4
v -0.2 1.5 -0.4
v 0.3 1.5 -0.4
v 0.4 1.5 -0.4
v 0.6 1.5 -0.4
v -0.3 1.5 -0.5
v 0.4 1.5 -0.5
v -0.3 1.5 -0.6
v 0.4 1.5 -0.6
v -0.5 2.5 -0.5
v -0.4 2.5 -0.5
v 0.5 2.5 -0.5
v 0.6 2.5 -0.5
v -0.5 2.5 -0.6
v -0.4 2.5 -0.6
v 0.5 2.5 -0.6
v 0.6 2.5 -0.6
v -0.4 2.6 -0.5
v 0.5 2.6 -0.5
v -0.4 2.6 -0.6
v 0.5 2.6 -0.6

# faces
f 5/3/1 2/3/1 1/3/1
f 6/3/1 2/3/1 5/3/1
f 7/3/1 4/3/1 3/3/1
f 8/3/1 4/3/1 7/3/1
f 13/3/1 10/3/1 9/3/1
f 14/3/1 10/3/1 13/3/1
f 15/3/1 12/3/1 11/3/1
f 16/3/1 12/3/1 15/3/1
f 21/3/1 18/3/1 17/3/1
f 22/3/1 18/3/1 21/3/1
f 23/3/1 20/3/1 19/3/1
f 24/3/1 20/3/1 23/3/1
f 27/1/1 26/1/1 25/1/1
f 28/1/1 26/1/1 27/1/1
f 31/1/1 30/1/1 29/1/1
f 32/1/1 30/1/1 31/1/1
f 38/3/1 34/3/1 33/3/1
f 39/3/1 34/3/1 38/3/1
f 40/1/1 38/1/1 37/1/1
f 41/1/1 38/1/1 40/1/1
f 42/3/1 36/3/1 35/3/1
f 43/3/1 36/3/1 42/3/1
f 46/1/1 45/1/1 44/1/1
f 47/1/1 45/1/1 46/1/1
f 50/1/1 49/1/1 48/1/1
f 51/1/1 49/1/1 50/1/1
f 56/3/1 53/3/1 52/3/1
f 57/3/1 53/3/1 56/3/1
f 58/3/1 55/3/1 54/3/1
f 59/3/1 55/3/1 58/3/1
f 62/3/1 61/3/1 60/3/1
f 63/3/1 61/3/1 62/3/1
f 68/3/1 65/3/1 64/3/1
f 69/3/1 65/3/1 68/3/1
f 70/3/1 67/3/1 66/3/1
f 71/3/1 67/3/1 70/3/1
f 76/3/1 73/3/1 72/3/1
f 77/3/1 73/3/1 76/3/1
f 78/3/1 75/3/1 74/3/1
f 79/3/1 75/3/1 78/3/1
f 84/3/1 81/3/1 80/3/1
f 85/3/1 81/3/1 84/3/1
f 86/3/1 83/3/1 82/3/1
f 87/3/1 83/3/1 86/3/1
f 88/3/2 89/3/2 92/3/2
f 92/3/2 89/3/2 93/3/2
f 90/3/2 91/3/2 94/3/2
f 94/3/2 91/3/2 95/3/2
f 96/3/2 97/3/2 100/3/2
f 100/3/2 97/3/2 101/3/2
f 98/3/2 99/3/2 102/3/2
f 102/3/2 99/3/2 103/3/2
f 104/3/2 105/3/2 108/3/2
f 108/3/2 105/3/2 109/3/2
f 106/3/2 107/3/2 110/3/2
f 110/3/2 107/3/2 111/3/2
f 112/3/2 113/3/2 116/3/2
f 116/3/2 113/3/2 117/3/2
f 114/3/2 115/3/2 118/3/2
f 118/3/2 115/3/2 119/3/2
f 120/3/2 121/3/2 122/3/2
f 122/3/2 121/3/2 123/3/2
f 124/1/2 125/1/2 126/1/2
f 126/1/2 125/1/2 127/1/2
f 128/3/2 129/3/2 133/3/2
f 133/3/2 129/3/2 134/3/2
f 132/1/2 133/1/2 135/1/2
f 135/1/2 133/1/2 136/1/2
f 130/3/2 131/3/2 137/3/2
f 137/3/2 131/3/2 138/3/2
f 139/1/2 140/1/2 141/1/2
f 141/1/2 140/1/2 142/1/2
f 143/3/2 144/3/2 147/3/2
f 147/3/2 144/3/2 148/3/2
f 145/3/2 146/3/2 149/3/2
f 149/3/2 146/3/2 150/3/2
f 151/1/2 152/1/2 153/1/2
f 153/1/2 152/1/2 154/1/2
f 155/1/2 156/1/2 157/1/2
f 157/1/2 156/1/2 158/1/2
f 159/3/2 160/3/2 163/3/2
f 163/3/2 160/3/2 164/3/2
f 161/3/2 162/3/2 165/3/2
f 165/3/2 162/3/2 166/3/2
f 167/3/2 168/3/2 171/3/2
f 171/3/2 168/3/2 172/3/2
f 169/3/2 170/3/2 173/3/2
f 173/3/2 170/3/2 174/3/2
f 177/3/3 176/3/3 175/3/3
f 178/3/3 176/3/3 177/3/3
f 181/3/3 180/3/3 179/3/3
f 182/3/3 180/3/3 181/3/3
f 185/3/3 184/3/3 183/3/3
f 186/3/3 184/3/3 185/3/3
f 189/3/3 188/3/3 187/3/3
f 190/3/3 188/3/3 189/3/3
f 193/3/3 192/3/3 191/3/3
f 194/3/3 192/3/3 193/3/3
f 199/1/3 196/1/3 195/1/3
f 200/1/3 196/1/3 199/1/3
f 201/3/3 198/3/3 197/3/3
f 202/3/3 198/3/3 201/3/3
f 206/1/3 204/1/3 203/1/3
f 207/1/3 204/1/3 206/1/3
f 208/3/3 206/3/3 205/3/3
f 209/3/3 206/3/3 208/3/3
f 212/3/3 211/3/3 210/3/3
f 213/3/3 211/3/3 212/3/3
f 215/1/3 214/1/3 213/1/3
f 216/1/3 214/1/3 215/1/3
f 221/3/3 218/3/3 217/3/3
f 222/3/3 218/3/3 221/3/3
f 223/1/3 220/1/3 219/1/3
f 224/1/3 220/1/3 223/1/3
f 225/1/3 220/1/3 224/1/3
f 227/3/3 223/3/3 222/3/3
f 227/3/3 224/3/3 223/3/3
f 228/3/3 224/3/3 227/3/3
f 229/3/3 224/3/3 228/3/3
f 230/3/3 224/3/3 229/3/3
f 231/1/3 226/1/3 225/1/3
f 231/3/3 224/3/3 230/3/3
f 231/1/3 225/1/3 224/1/3
f 232/1/3 231/1/3 230/1/3
f 233/1/3 231/1/3 232/1/3
f 234/1/3 226/1/3 231/1/3
f 234/1/3 231/1/3 233/1/3
f 235/1/3 226/1/3 234/1/3
f 236/2/3 233/2/3 232/2/3
f 236/1/3 232/1/3 230/1/3
f 237/1/3 234/1/3 233/1/3
f 237/2/3 233/2/3 236/2/3
f 238/2/3 235/2/3 234/2/3
f 238/1/3 234/1/3 237/1/3
f 239/1/3 226/1/3 235/1/3
f 239/2/3 235/2/3 238/2/3
f 243/1/3 238/1/3 237/1/3
f 243/1/3 237/1/3 236/1/3
f 243/1/3 236/1/3 230/1/3
f 243/1/3 239/1/3 238/1/3
f 244/1/3 239/1/3 243/1/3
f 246/3/3 242/3/3 241/3/3
f 246/3/3 241/3/3 240/3/3
f 246/3/3 244/3/3 243/3/3
f 246/3/3 243/3/3 242/3/3
f 247/3/3 244/3/3 246/3/3
f 248/1/3 239/1/3 244/1/3
f 248/3/3 244/3/3 247/3/3
f 249/1/3 226/1/3 239/1/3
f 249/1/3 239/1/3 248/1/3
f 250/1/3 226/1/3 249/1/3
f 251/3/3 246/3/3 245/3/3
f 252/3/3 246/3/3 251/3/3
f 253/1/3 248/1/3 247/1/3
f 253/1/3 249/1/3 248/1/3
f 254/1/3 249/1/3 253/1/3
f 257/3/3 256/3/3 255/3/3
f 258/3/3 256/3/3 257/3/3
f 261/3/3 260/3/3 259/3/3
f 262/3/3 260/3/3 261/3/3
f 265/3/3 264/3/3 263/3/3
f 266/3/3 264/3/3 265/3/3
f 269/3/3 268/3/3 267/3/3
f 270/3/3 268/3/3 269/3/3
f 271/3/4 272/3/4 273/3/4
f 273/3/4 272/3/4 274/3/4
f 275/3/4 276/3/4 277/3/4
f 277/3/4 276/3/4 278/3/4
f 279/3/4 280/3/4 281/3/4
f 281/3/4 280/3/4 282/3/4
f 283/3/4 284/3/4 285/3/4
f 285/3/4 284/3/4 286/3/4
f 287/3/4 288/3/4 289/3/4
f 289/3/4 288/3/4 290/3/4
f 291/3/4 292/3/4 293/3/4
f 293/3/4 292/3/4 294/3/4
f 295/3/4 296/3/4 297/3/4
f 297/3/4 296/3/4 298/3/4
f 299/3/4 300/3/4 301/3/4
f 301/3/4 300/3/4 302/3/4
f 303/1/4 304/1/4 305/1/4
f 305/1/4 304/1/4 306/1/4
f 307/1/4 308/1/4 309/1/4
f 309/1/4 308/1/4 310/1/4
f 311/3/4 312/3/4 315/3/4
f 315/3/4 312/3/4 316/3/4
f 313/1/4 314/1/4 317/1/4
f 317/1/4 314/1/4 318/1/4
f 318/1/4 314/1/4 319/1/4
f 316/3/4 317/3/4 321/3/4
f 317/3/4 318/3/4 321/3/4
f 321/3/4 318/3/4 322/3/4
f 322/3/4 318/3/4 323/3/4
f 323/3/4 318/3/4 324/3/4
f 319/1/4 320/1/4 325/1/4
f 324/3/4 318/3/4 325/3/4
f 318/1/4 319/1/4 325/1/4
f 324/1/4 325/1/4 326/1/4
f 326/1/4 325/1/4 327/1/4
f 325/1/4 320/1/4 328/1/4
f 327/1/4 325/1/4 328/1/4
f 328/1/4 320/1/4 329/1/4
f 326/2/4 327/2/4 330/2/4
f 324/1/4 326/1/4 330/1/4
f 327/1/4 328/1/4 331/1/4
f 330/2/4 327/2/4 331/2/4
f 328/2/4 329/2/4 332/2/4
f 331/1/4 328/1/4 332/1/4
f 329/1/4 320/1/4 333/1/4
f 332/2/4 329/2/4 333/2/4
f 322/1/4 323/1/4 335/1/4
f 335/1/4 323/1/4 336/1/4
f 331/1/4 332/1/4 337/1/4
f 330/1/4 331/1/4 337/1/4
f 324/1/4 330/1/4 337/1/4
f 332/1/4 333/1/4 337/1/4
f 337/1/4 333/1/4 338/1/4
f 335/3/4 336/3/4 340/3/4
f 334/3/4 335/3/4 340/3/4
f 337/3/4 338/3/4 340/3/4
f 336/3/4 337/3/4 340/3/4
f 340/3/4 338/3/4 341/3/4
f 338/1/4 333/1/4 342/1/4
f 341/3/4 338/3/4 342/3/4
f 333/1/4 320/1/4 343/1/4
f 342/1/4 333/1/4 343/1/4
f 343/1/4 320/1/4 344/1/4
f 339/3/4 340/3/4 345/3/4
f 345/3/4 340/3/4 346/3/4
f 341/1/4 342/1/4 347/1/4
f 342/1/4 343/1/4 347/1/4
f 347/1/4 343/1/4 348/1/4
f 349/3/4 350/3/4 351/3/4
f 351/3/4 350/3/4 352/3/4
f 353/3/4 354/3/4 355/3/4
f 355/3/4 354/3/4 356/3/4
f 357/3/4 358/3/4 359/3/4
f 359/3/4 358/3/4 360/3/4
f 361/3/4 362/3/4 363/3/4
f 363/3/4 362/3/4 364/3/4
f 369/3/5 366/3/5 365/3/5
f 370/3/5 366/3/5 369/3/5
f 371/3/5 368/3/5 367/3/5
f 372/3/5 368/3/5 371/3/5
f 377/3/5 374/3/5 373/3/5
f 378/3/5 374/3/5 377/3/5
f 379/3/5 376/3/5 375/3/5
f 380/3/5 376/3/5 379/3/5
f 385/3/5 382/3/5 381/3/5
f 386/3/5 382/3/5 385/3/5
f 387/3/5 384/3/5 383/3/5
f 388/3/5 384/3/5 387/3/5
f 393/3/5 390/3/5 389/3/5
f 394/3/5 390/3/5 393/3/5
f 395/3/5 392/3/5 391/3/5
f 396/3/5 392/3/5 395/3/5
f 401/3/5 398/3/5 397/3/5
f 402/3/5 398/3/5 401/3/5
f 403/3/5 400/3/5 399/3/5
f 404/3/5 400/3/5 403/3/5
f 409/3/5 406/3/5 405/3/5
f 410/3/5 406/3/5 409/3/5
f 411/3/5 408/3/5 407/3/5
f 412/3/5 408/3/5 411/3/5
f 417/3/5 414/3/5 413/3/5
f 418/3/5 414/3/5 417/3/5
f 419/3/5 416/3/5 415/3/5
f 420/3/5 416/3/5 419/3/5
f 425/3/5 422/3/5 421/3/5
f 426/3/5 422/3/5 425/3/5
f 427/3/5 424/3/5 423/3/5
f 428/3/5 424/3/5 427/3/5
f 432/1/5 430/1/5 429/1/5
f 433/1/5 430/1/5 432/1/5
f 434/1/5 430/1/5 433/1/5
f 435/1/5 430/1/5 434/1/5
f 436/1/5 430/1/5 435/1/5
f 437/1/5 430/1/5 436/1/5
f 439/1/5 432/1/5 431/1/5
f 440/1/5 434/1/5 433/1/5
f 441/2/5 435/2/5 434/2/5
f 441/1/5 434/1/5 440/1/5
f 442/1/5 436/1/5 435/1/5
f 442/2/5 435/2/5 441/2/5
f 443/1/5 436/1/5 442/1/5
f 444/1/5 438/1/5 437/1/5
f 445/1/5 443/1/5 442/1/5
f 445/1/5 444/1/5 443/1/5
f 445/1/5 441/1/5 440/1/5
f 445/1/5 440/1/5 439/1/5
f 445/1/5 442/1/5 441/1/5
f 446/1/5 444/1/5 445/1/5
f 447/1/5 445/1/5 439/1/5
f 447/2/5 446/2/5 445/2/5
f 448/1/5 444/1/5 446/1/5
f 448/2/5 446/2/5 447/2/5
f 449/1/5 447/1/5 439/1/5
f 449/1/5 448/1/5 447/1/5
f 450/1/5 444/1/5 448/1/5
f 450/1/5 448/1/5 449/1/5
f 451/1/5 449/1/5 439/1/5
f 451/2/5 450/2/5 449/2/5
f 452/1/5 444/1/5 450/1/5
f 452/2/5 450/2/5 451/2/5
f 453/1/5 452/1/5 451/1/5
f 454/1/5 452/1/5 453/1/5
f 455/1/5 439/1/5 431/1/5
f 455/1/5 451/1/5 439/1/5
f 455/1/5 453/1/5 451/1/5
f 456/1/5 453/1/5 455/1/5
f 457/2/5 454/2/5 453/2/5
f 457/1/5 453/1/5 456/1/5
f 458/1/5 452/1/5 454/1/5
f 458/2/5 454/2/5 457/2/5
f 459/1/5 444/1/5 452/1/5
f 459/1/5 452/1/5 458/1/5
f 460/1/5 438/1/5 444/1/5
f 460/1/5 444/1/5 459/1/5
f 461/1/5 459/1/5 458/1/5
f 461/1/5 457/1/5 456/1/5
f 461/1/5 458/1/5 457/1/5
f 462/1/5 459/1/5 461/1/5
f 463/1/5 462/1/5 461/1/5
f 464/1/5 462/1/5 463/1/5
f 467/1/5 466/1/5 465/1/5
f 468/1/5 466/1/5 467/1/5
f 473/1/5 470/1/5 469/1/5
f 474/1/5 470/1/5 473/1/5
f 475/1/5 472/1/5 471/1/5
f 476/1/5 472/1/5 475/1/5
f 477/3/6 478/3/6 481/3/6
f 481/3/6 478/3/6 482/3/6
f 479/3/6 480/3/6 483/3/6
f 483/3/6 480/3/6 484/3/6
f 485/3/6 486/3/6 489/3/6
f 489/3/6 486/3/6 490/3/6
f 487/3/6 488/3/6 491/3/6
f 491/3/6 488/3/6 492/3/6
f 493/3/6 494/3/6 497/3/6
f 497/3/6 494/3/6 498/3/6
f 495/3/6 496/3/6 499/3/6
f 499/3/6 496/3/6 500/3/6
f 501/3/6 502/3/6 505/3/6
f 505/3/6 502/3/6 506/3/6
f 503/3/6 504/3/6 507/3/6
f 507/3/6 504/3/6 508/3/6
f 509/3/6 510/3/6 513/3/6
f 513/3/6 510/3/6 514/3/6
f 511/3/6 512/3/6 515/3/6
f 515/3/6 512/3/6 516/3/6
f 517/3/6 518/3/6 521/3/6
f 521/3/6 518/3/6 522/3/6
f 519/3/6 520/3/6 523/3/6
f 523/3/6 520/3/6 524/3/6
f 525/1/6 526/1/6 528/1/6
f 528/1/6 526/1/6 529/1/6
f 529/1/6 526/1/6 530/1/6
f 530/1/6 526/1/6 531/1/6
f 527/1/6 528/1/6 533/1/6
f 528/1/6 529/1/6 533/1/6
f 529/2/6 530/2/6 533/2/6
f 531/1/6 532/1/6 534/1/6
f 533/2/6 530/2/6 534/2/6
f 530/1/6 531/1/6 534/1/6
f 527/1/6 533/1/6 535/1/6
f 533/1/6 534/1/6 535/1/6
f 534/1/6 532/1/6 536/1/6
f 535/1/6 534/1/6 536/1/6
f 527/1/6 535/1/6 537/1/6
f 535/2/6 536/2/6 537/2/6
f 536/1/6 532/1/6 538/1/6
f 537/2/6 536/2/6 538/2/6
f 527/1/6 537/1/6 539/1/6
f 537/1/6 538/1/6 539/1/6
f 538/1/6 532/1/6 540/1/6
f 539/1/6 538/1/6 540/1/6
f 527/1/6 539/1/6 541/1/6
f 539/2/6 540/2/6 541/2/6
f 540/1/6 532/1/6 542/1/6
f 541/2/6 540/2/6 542/2/6
f 541/1/6 542/1/6 543/1/6
f 543/1/6 542/1/6 544/1/6
f 527/1/6 541/1/6 545/1/6
f 541/1/6 543/1/6 545/1/6
f 545/1/6 543/1/6 546/1/6
f 543/2/6 544/2/6 547/2/6
f 546/1/6 543/1/6 547/1/6
f 544/1/6 542/1/6 548/1/6
f 547/2/6 544/2/6 548/2/6
f 542/1/6 532/1/6 549/1/6
f 548/1/6 542/1/6 549/1/6
f 549/1/6 532/1/6 550/1/6
f 546/1/6 547/1/6 551/1/6
f 547/1/6 548/1/6 551/1/6
f 548/1/6 549/1/6 551/1/6
f 551/1/6 549/1/6 552/1/6
f 551/1/6 552/1/6 553/1/6
f 553/1/6 552/1/6 554/1/6
f 555/1/6 556/1/6 559/1/6
f 559/1/6 556/1/6 560/1/6
f 557/1/6 558/1/6 561/1/6
f 561/1/6 558/1/6 562/1/6
f 563/1/6 564/1/6 565/1/6
f 565/1/6 564/1/6 566/1/6
