# MagicaVoxel @ Ephtracy

# group
o 

# material
mtllib Bow_lvl2.mtl
usemtl palette

# normals
vn -1 0 0
vn 1 0 0
vn 0 0 1
vn 0 0 -1
vn 0 -1 0
vn 0 1 0

# texcoords
vt 0.337891 0.5
vt 0.404297 0.5
vt 0.923828 0.5

# verts
v -0.1 0.4 0.1
v -0.1 0.4 -0.1
v -0.1 0.5 0.2
v -0.1 0.5 0.1
v -0.1 0.5 -0.1
v -0.1 0.5 -0.2
v -0.1 0.6 0.3
v -0.1 0.6 0.2
v -0.1 0.6 0.1
v -0.1 0.6 0
v -0.1 0.6 -0.1
v -0.1 0.6 -0.2
v -0.1 0.7 0.3
v -0.1 0.7 0.2
v -0.1 0.7 0
v -0.1 0.7 -0.1
v -0.1 0.8 0.4
v -0.1 0.8 0.3
v -0.1 0.8 0.2
v -0.1 0.9 0.4
v -0.1 0.9 0.3
v -0.1 1 0.5
v -0.1 1 0.4
v -0.1 1 0.3
v -0.1 1.1 0.5
v -0.1 1.1 0.4
v -0.1 1.2 0.6
v -0.1 1.2 0.5
v -0.1 1.2 0.4
v -0.1 1.3 0.6
v -0.1 1.3 0.5
v -0.1 1.5 0.6
v -0.1 1.5 0.5
v -0.1 1.6 0.6
v -0.1 1.6 0.5
v -0.1 1.6 0.4
v -0.1 1.7 0.5
v -0.1 1.7 0.4
v -0.1 1.8 0.5
v -0.1 1.8 0.4
v -0.1 1.8 0.3
v -0.1 1.9 0.4
v -0.1 1.9 0.3
v -0.1 2 0.4
v -0.1 2 0.3
v -0.1 2 0.2
v -0.1 2.1 0.3
v -0.1 2.1 0.2
v -0.1 2.1 0
v -0.1 2.1 -0.1
v -0.1 2.2 0.3
v -0.1 2.2 0.2
v -0.1 2.2 0.1
v -0.1 2.2 0
v -0.1 2.2 -0.1
v -0.1 2.2 -0.2
v -0.1 2.3 0.2
v -0.1 2.3 0.1
v -0.1 2.3 -0.1
v -0.1 2.3 -0.2
v -0.1 2.4 0.1
v -0.1 2.4 -0.1
v -4.47035e-08 0.4 0.1
v -4.47035e-08 0.4 -0.1
v -4.47035e-08 0.5 0.2
v -4.47035e-08 0.5 0.1
v -4.47035e-08 0.5 -0.1
v -4.47035e-08 0.5 -0.2
v -4.47035e-08 0.6 0.3
v -4.47035e-08 0.6 0.2
v -4.47035e-08 0.6 0.1
v -4.47035e-08 0.6 0
v -4.47035e-08 0.6 -0.1
v -4.47035e-08 0.6 -0.2
v -4.47035e-08 0.7 0.3
v -4.47035e-08 0.7 0.2
v -4.47035e-08 0.7 0
v -4.47035e-08 0.7 -0.1
v -4.47035e-08 0.8 0.4
v -4.47035e-08 0.8 0.3
v -4.47035e-08 0.8 0.2
v -4.47035e-08 0.9 0.4
v -4.47035e-08 0.9 0.3
v -4.47035e-08 1 0.5
v -4.47035e-08 1 0.4
v -4.47035e-08 1 0.3
v -4.47035e-08 1.1 0.5
v -4.47035e-08 1.1 0.4
v -4.47035e-08 1.2 0.6
v -4.47035e-08 1.2 0.5
v -4.47035e-08 1.2 0.4
v -4.47035e-08 1.3 0.6
v -4.47035e-08 1.3 0.5
v -4.47035e-08 1.5 0.6
v -4.47035e-08 1.5 0.5
v -4.47035e-08 1.6 0.6
v -4.47035e-08 1.6 0.5
v -4.47035e-08 1.6 0.4
v -4.47035e-08 1.7 0.5
v -4.47035e-08 1.7 0.4
v -4.47035e-08 1.8 0.5
v -4.47035e-08 1.8 0.4
v -4.47035e-08 1.8 0.3
v -4.47035e-08 1.9 0.4
v -4.47035e-08 1.9 0.3
v -4.47035e-08 2 0.4
v -4.47035e-08 2 0.3
v -4.47035e-08 2 0.2
v -4.47035e-08 2.1 0.3
v -4.47035e-08 2.1 0.2
v -4.47035e-08 2.1 0
v -4.47035e-08 2.1 -0.1
v -4.47035e-08 2.2 0.3
v -4.47035e-08 2.2 0.2
v -4.47035e-08 2.2 0.1
v -4.47035e-08 2.2 0
v -4.47035e-08 2.2 -0.1
v -4.47035e-08 2.2 -0.2
v -4.47035e-08 2.3 0.2
v -4.47035e-08 2.3 0.1
v -4.47035e-08 2.3 -0.1
v -4.47035e-08 2.3 -0.2
v -4.47035e-08 2.4 0.1
v -4.47035e-08 2.4 -0.1
v -0.1 1.2 0.6
v -0.1 1.3 0.6
v -0.1 1.5 0.6
v -0.1 1.6 0.6
v -4.47035e-08 1.2 0.6
v -4.47035e-08 1.3 0.6
v -4.47035e-08 1.5 0.6
v -4.47035e-08 1.6 0.6
v -0.1 1 0.5
v -0.1 1.1 0.5
v -0.1 1.2 0.5
v -0.1 1.6 0.5
v -0.1 1.7 0.5
v -0.1 1.8 0.5
v -4.47035e-08 1 0.5
v -4.47035e-08 1.1 0.5
v -4.47035e-08 1.2 0.5
v -4.47035e-08 1.6 0.5
v -4.47035e-08 1.7 0.5
v -4.47035e-08 1.8 0.5
v -0.1 0.8 0.4
v -0.1 0.9 0.4
v -0.1 1 0.4
v -0.1 1.8 0.4
v -0.1 1.9 0.4
v -0.1 2 0.4
v -4.47035e-08 0.8 0.4
v -4.47035e-08 0.9 0.4
v -4.47035e-08 1 0.4
v -4.47035e-08 1.8 0.4
v -4.47035e-08 1.9 0.4
v -4.47035e-08 2 0.4
v -0.1 0.6 0.3
v -0.1 0.7 0.3
v -0.1 0.8 0.3
v -0.1 2 0.3
v -0.1 2.1 0.3
v -0.1 2.2 0.3
v -4.47035e-08 0.6 0.3
v -4.47035e-08 0.7 0.3
v -4.47035e-08 0.8 0.3
v -4.47035e-08 2 0.3
v -4.47035e-08 2.1 0.3
v -4.47035e-08 2.2 0.3
v -0.1 0.5 0.2
v -0.1 0.6 0.2
v -0.1 2.2 0.2
v -0.1 2.3 0.2
v -4.47035e-08 0.5 0.2
v -4.47035e-08 0.6 0.2
v -4.47035e-08 2.2 0.2
v -4.47035e-08 2.3 0.2
v -0.1 0.4 0.1
v -0.1 0.5 0.1
v -0.1 2.3 0.1
v -0.1 2.4 0.1
v -4.47035e-08 0.4 0.1
v -4.47035e-08 0.5 0.1
v -4.47035e-08 2.3 0.1
v -4.47035e-08 2.4 0.1
v -0.1 0.6 0
v -0.1 0.7 0
v -0.1 2.1 0
v -0.1 2.2 0
v -4.47035e-08 0.6 0
v -4.47035e-08 0.7 0
v -4.47035e-08 2.1 0
v -4.47035e-08 2.2 0
v -0.1 0.5 -0.1
v -0.1 0.6 -0.1
v -0.1 2.2 -0.1
v -0.1 2.3 -0.1
v -4.47035e-08 0.5 -0.1
v -4.47035e-08 0.6 -0.1
v -4.47035e-08 2.2 -0.1
v -4.47035e-08 2.3 -0.1
v -0.1 1.2 0.5
v -0.1 1.3 0.5
v -0.1 1.5 0.5
v -0.1 1.6 0.5
v -4.47035e-08 1.2 0.5
v -4.47035e-08 1.3 0.5
v -4.47035e-08 1.5 0.5
v -4.47035e-08 1.6 0.5
v -0.1 1 0.4
v -0.1 1.1 0.4
v -0.1 1.2 0.4
v -0.1 1.6 0.4
v -0.1 1.7 0.4
v -0.1 1.8 0.4
v -4.47035e-08 1 0.4
v -4.47035e-08 1.1 0.4
v -4.47035e-08 1.2 0.4
v -4.47035e-08 1.6 0.4
v -4.47035e-08 1.7 0.4
v -4.47035e-08 1.8 0.4
v -0.1 0.8 0.3
v -0.1 0.9 0.3
v -0.1 1 0.3
v -0.1 1.8 0.3
v -0.1 1.9 0.3
v -0.1 2 0.3
v -4.47035e-08 0.8 0.3
v -4.47035e-08 0.9 0.3
v -4.47035e-08 1 0.3
v -4.47035e-08 1.8 0.3
v -4.47035e-08 1.9 0.3
v -4.47035e-08 2 0.3
v -0.1 0.6 0.2
v -0.1 0.7 0.2
v -0.1 0.8 0.2
v -0.1 2 0.2
v -0.1 2.1 0.2
v -0.1 2.2 0.2
v -4.47035e-08 0.6 0.2
v -4.47035e-08 0.7 0.2
v -4.47035e-08 0.8 0.2
v -4.47035e-08 2 0.2
v -4.47035e-08 2.1 0.2
v -4.47035e-08 2.2 0.2
v -0.1 0.5 0.1
v -0.1 0.6 0.1
v -0.1 2.2 0.1
v -0.1 2.3 0.1
v -4.47035e-08 0.5 0.1
v -4.47035e-08 0.6 0.1
v -4.47035e-08 2.2 0.1
v -4.47035e-08 2.3 0.1
v -0.1 0.4 -0.1
v -0.1 0.5 -0.1
v -0.1 0.6 -0.1
v -0.1 0.7 -0.1
v -0.1 2.1 -0.1
v -0.1 2.2 -0.1
v -0.1 2.3 -0.1
v -0.1 2.4 -0.1
v -4.47035e-08 0.4 -0.1
v -4.47035e-08 0.5 -0.1
v -4.47035e-08 0.6 -0.1
v -4.47035e-08 0.7 -0.1
v -4.47035e-08 2.1 -0.1
v -4.47035e-08 2.2 -0.1
v -4.47035e-08 2.3 -0.1
v -4.47035e-08 2.4 -0.1
v -0.1 0.5 -0.2
v -0.1 0.6 -0.2
v -0.1 2.2 -0.2
v -0.1 2.3 -0.2
v -4.47035e-08 0.5 -0.2
v -4.47035e-08 0.6 -0.2
v -4.47035e-08 2.2 -0.2
v -4.47035e-08 2.3 -0.2
v -0.1 0.4 0.1
v -4.47035e-08 0.4 0.1
v -0.1 0.4 -0.1
v -4.47035e-08 0.4 -0.1
v -0.1 0.5 0.2
v -4.47035e-08 0.5 0.2
v -0.1 0.5 0.1
v -4.47035e-08 0.5 0.1
v -0.1 0.5 -0.1
v -4.47035e-08 0.5 -0.1
v -0.1 0.5 -0.2
v -4.47035e-08 0.5 -0.2
v -0.1 0.6 0.3
v -4.47035e-08 0.6 0.3
v -0.1 0.6 0.2
v -4.47035e-08 0.6 0.2
v -0.1 0.6 0
v -4.47035e-08 0.6 0
v -0.1 0.6 -0.1
v -4.47035e-08 0.6 -0.1
v -0.1 0.8 0.4
v -4.47035e-08 0.8 0.4
v -0.1 0.8 0.3
v -4.47035e-08 0.8 0.3
v -0.1 1 0.5
v -4.47035e-08 1 0.5
v -0.1 1 0.4
v -4.47035e-08 1 0.4
v -0.1 1.2 0.6
v -4.47035e-08 1.2 0.6
v -0.1 1.2 0.5
v -4.47035e-08 1.2 0.5
v -0.1 1.6 0.5
v -4.47035e-08 1.6 0.5
v -0.1 1.6 0.4
v -4.47035e-08 1.6 0.4
v -0.1 1.8 0.4
v -4.47035e-08 1.8 0.4
v -0.1 1.8 0.3
v -4.47035e-08 1.8 0.3
v -0.1 2 0.3
v -4.47035e-08 2 0.3
v -0.1 2 0.2
v -4.47035e-08 2 0.2
v -0.1 2.2 0.2
v -4.47035e-08 2.2 0.2
v -0.1 2.2 0.1
v -4.47035e-08 2.2 0.1
v -0.1 2.2 -0.1
v -4.47035e-08 2.2 -0.1
v -0.1 2.2 -0.2
v -4.47035e-08 2.2 -0.2
v -0.1 2.3 0.1
v -4.47035e-08 2.3 0.1
v -0.1 2.3 -0.1
v -4.47035e-08 2.3 -0.1
v -0.1 0.5 0.1
v -4.47035e-08 0.5 0.1
v -0.1 0.5 -0.1
v -4.47035e-08 0.5 -0.1
v -0.1 0.6 0.2
v -4.47035e-08 0.6 0.2
v -0.1 0.6 0.1
v -4.47035e-08 0.6 0.1
v -0.1 0.6 -0.1
v -4.47035e-08 0.6 -0.1
v -0.1 0.6 -0.2
v -4.47035e-08 0.6 -0.2
v -0.1 0.8 0.3
v -4.47035e-08 0.8 0.3
v -0.1 0.8 0.2
v -4.47035e-08 0.8 0.2
v -0.1 1 0.4
v -4.47035e-08 1 0.4
v -0.1 1 0.3
v -4.47035e-08 1 0.3
v -0.1 1.2 0.5
v -4.47035e-08 1.2 0.5
v -0.1 1.2 0.4
v -4.47035e-08 1.2 0.4
v -0.1 1.6 0.6
v -4.47035e-08 1.6 0.6
v -0.1 1.6 0.5
v -4.47035e-08 1.6 0.5
v -0.1 1.8 0.5
v -4.47035e-08 1.8 0.5
v -0.1 1.8 0.4
v -4.47035e-08 1.8 0.4
v -0.1 2 0.4
v -4.47035e-08 2 0.4
v -0.1 2 0.3
v -4.47035e-08 2 0.3
v -0.1 2.2 0.3
v -4.47035e-08 2.2 0.3
v -0.1 2.2 0.2
v -4.47035e-08 2.2 0.2
v -0.1 2.2 0
v -4.47035e-08 2.2 0
v -0.1 2.2 -0.1
v -4.47035e-08 2.2 -0.1
v -0.1 2.3 0.2
v -4.47035e-08 2.3 0.2
v -0.1 2.3 0.1
v -4.47035e-08 2.3 0.1
v -0.1 2.3 -0.1
v -4.47035e-08 2.3 -0.1
v -0.1 2.3 -0.2
v -4.47035e-08 2.3 -0.2
v -0.1 2.4 0.1
v -4.47035e-08 2.4 0.1
v -0.1 2.4 -0.1
v -4.47035e-08 2.4 -0.1

# faces
f 4/1/1 2/1/1 1/1/1
f 5/1/1 2/1/1 4/1/1
f 8/1/1 4/1/1 3/1/1
f 9/1/1 4/1/1 8/1/1
f 11/1/1 6/1/1 5/1/1
f 12/1/1 6/1/1 11/1/1
f 13/1/1 8/1/1 7/1/1
f 14/1/1 8/1/1 13/1/1
f 15/1/1 11/1/1 10/1/1
f 16/1/1 11/1/1 15/1/1
f 18/2/1 14/2/1 13/2/1
f 19/2/1 14/2/1 18/2/1
f 20/1/1 18/1/1 17/1/1
f 21/1/1 18/1/1 20/1/1
f 23/2/1 21/2/1 20/2/1
f 24/2/1 21/2/1 23/2/1
f 25/1/1 23/1/1 22/1/1
f 26/1/1 23/1/1 25/1/1
f 28/2/1 26/2/1 25/2/1
f 29/2/1 26/2/1 28/2/1
f 30/1/1 28/1/1 27/1/1
f 31/1/1 28/1/1 30/1/1
f 32/2/1 31/2/1 30/2/1
f 33/2/1 31/2/1 32/2/1
f 34/1/1 33/1/1 32/1/1
f 35/1/1 33/1/1 34/1/1
f 37/2/1 36/2/1 35/2/1
f 38/2/1 36/2/1 37/2/1
f 39/1/1 38/1/1 37/1/1
f 40/1/1 38/1/1 39/1/1
f 42/2/1 41/2/1 40/2/1
f 43/2/1 41/2/1 42/2/1
f 44/1/1 43/1/1 42/1/1
f 45/1/1 43/1/1 44/1/1
f 47/2/1 46/2/1 45/2/1
f 48/2/1 46/2/1 47/2/1
f 49/3/1 16/3/1 15/3/1
f 50/3/1 16/3/1 49/3/1
f 51/1/1 48/1/1 47/1/1
f 52/1/1 48/1/1 51/1/1
f 54/1/1 50/1/1 49/1/1
f 55/1/1 50/1/1 54/1/1
f 57/1/1 53/1/1 52/1/1
f 58/1/1 53/1/1 57/1/1
f 59/1/1 56/1/1 55/1/1
f 60/1/1 56/1/1 59/1/1
f 61/1/1 59/1/1 58/1/1
f 62/1/1 59/1/1 61/1/1
f 63/1/2 64/1/2 66/1/2
f 66/1/2 64/1/2 67/1/2
f 65/1/2 66/1/2 70/1/2
f 70/1/2 66/1/2 71/1/2
f 67/1/2 68/1/2 73/1/2
f 73/1/2 68/1/2 74/1/2
f 69/1/2 70/1/2 75/1/2
f 75/1/2 70/1/2 76/1/2
f 72/1/2 73/1/2 77/1/2
f 77/1/2 73/1/2 78/1/2
f 75/2/2 76/2/2 80/2/2
f 80/2/2 76/2/2 81/2/2
f 79/1/2 80/1/2 82/1/2
f 82/1/2 80/1/2 83/1/2
f 82/2/2 83/2/2 85/2/2
f 85/2/2 83/2/2 86/2/2
f 84/1/2 85/1/2 87/1/2
f 87/1/2 85/1/2 88/1/2
f 87/2/2 88/2/2 90/2/2
f 90/2/2 88/2/2 91/2/2
f 89/1/2 90/1/2 92/1/2
f 92/1/2 90/1/2 93/1/2
f 92/2/2 93/2/2 94/2/2
f 94/2/2 93/2/2 95/2/2
f 94/1/2 95/1/2 96/1/2
f 96/1/2 95/1/2 97/1/2
f 97/2/2 98/2/2 99/2/2
f 99/2/2 98/2/2 100/2/2
f 99/1/2 100/1/2 101/1/2
f 101/1/2 100/1/2 102/1/2
f 102/2/2 103/2/2 104/2/2
f 104/2/2 103/2/2 105/2/2
f 104/1/2 105/1/2 106/1/2
f 106/1/2 105/1/2 107/1/2
f 107/2/2 108/2/2 109/2/2
f 109/2/2 108/2/2 110/2/2
f 77/3/2 78/3/2 111/3/2
f 111/3/2 78/3/2 112/3/2
f 109/1/2 110/1/2 113/1/2
f 113/1/2 110/1/2 114/1/2
f 111/1/2 112/1/2 116/1/2
f 116/1/2 112/1/2 117/1/2
f 114/1/2 115/1/2 119/1/2
f 119/1/2 115/1/2 120/1/2
f 117/1/2 118/1/2 121/1/2
f 121/1/2 118/1/2 122/1/2
f 120/1/2 121/1/2 123/1/2
f 123/1/2 121/1/2 124/1/2
f 129/1/3 126/1/3 125/1/3
f 130/2/3 127/2/3 126/2/3
f 130/1/3 126/1/3 129/1/3
f 131/1/3 128/1/3 127/1/3
f 131/2/3 127/2/3 130/2/3
f 132/1/3 128/1/3 131/1/3
f 139/1/3 134/1/3 133/1/3
f 140/2/3 135/2/3 134/2/3
f 140/1/3 134/1/3 139/1/3
f 141/2/3 135/2/3 140/2/3
f 142/2/3 137/2/3 136/2/3
f 143/1/3 138/1/3 137/1/3
f 143/2/3 137/2/3 142/2/3
f 144/1/3 138/1/3 143/1/3
f 151/1/3 146/1/3 145/1/3
f 152/2/3 147/2/3 146/2/3
f 152/1/3 146/1/3 151/1/3
f 153/2/3 147/2/3 152/2/3
f 154/2/3 149/2/3 148/2/3
f 155/1/3 150/1/3 149/1/3
f 155/2/3 149/2/3 154/2/3
f 156/1/3 150/1/3 155/1/3
f 163/1/3 158/1/3 157/1/3
f 164/2/3 159/2/3 158/2/3
f 164/1/3 158/1/3 163/1/3
f 165/2/3 159/2/3 164/2/3
f 166/2/3 161/2/3 160/2/3
f 167/1/3 162/1/3 161/1/3
f 167/2/3 161/2/3 166/2/3
f 168/1/3 162/1/3 167/1/3
f 173/1/3 170/1/3 169/1/3
f 174/1/3 170/1/3 173/1/3
f 175/1/3 172/1/3 171/1/3
f 176/1/3 172/1/3 175/1/3
f 181/1/3 178/1/3 177/1/3
f 182/1/3 178/1/3 181/1/3
f 183/1/3 180/1/3 179/1/3
f 184/1/3 180/1/3 183/1/3
f 189/1/3 186/1/3 185/1/3
f 190/3/3 187/3/3 186/3/3
f 190/1/3 186/1/3 189/1/3
f 191/1/3 188/1/3 187/1/3
f 191/3/3 187/3/3 190/3/3
f 192/1/3 188/1/3 191/1/3
f 197/1/3 194/1/3 193/1/3
f 198/1/3 194/1/3 197/1/3
f 199/1/3 196/1/3 195/1/3
f 200/1/3 196/1/3 199/1/3
f 201/1/4 202/1/4 205/1/4
f 202/2/4 203/2/4 206/2/4
f 205/1/4 202/1/4 206/1/4
f 203/1/4 204/1/4 207/1/4
f 206/2/4 203/2/4 207/2/4
f 207/1/4 204/1/4 208/1/4
f 209/1/4 210/1/4 215/1/4
f 210/2/4 211/2/4 216/2/4
f 215/1/4 210/1/4 216/1/4
f 216/2/4 211/2/4 217/2/4
f 212/2/4 213/2/4 218/2/4
f 213/1/4 214/1/4 219/1/4
f 218/2/4 213/2/4 219/2/4
f 219/1/4 214/1/4 220/1/4
f 221/1/4 222/1/4 227/1/4
f 222/2/4 223/2/4 228/2/4
f 227/1/4 222/1/4 228/1/4
f 228/2/4 223/2/4 229/2/4
f 224/2/4 225/2/4 230/2/4
f 225/1/4 226/1/4 231/1/4
f 230/2/4 225/2/4 231/2/4
f 231/1/4 226/1/4 232/1/4
f 233/1/4 234/1/4 239/1/4
f 234/2/4 235/2/4 240/2/4
f 239/1/4 234/1/4 240/1/4
f 240/2/4 235/2/4 241/2/4
f 236/2/4 237/2/4 242/2/4
f 237/1/4 238/1/4 243/1/4
f 242/2/4 237/2/4 243/2/4
f 243/1/4 238/1/4 244/1/4
f 245/1/4 246/1/4 249/1/4
f 249/1/4 246/1/4 250/1/4
f 247/1/4 248/1/4 251/1/4
f 251/1/4 248/1/4 252/1/4
f 253/1/4 254/1/4 261/1/4
f 261/1/4 254/1/4 262/1/4
f 255/1/4 256/1/4 263/1/4
f 256/3/4 257/3/4 264/3/4
f 263/1/4 256/1/4 264/1/4
f 257/1/4 258/1/4 265/1/4
f 264/3/4 257/3/4 265/3/4
f 265/1/4 258/1/4 266/1/4
f 259/1/4 260/1/4 267/1/4
f 267/1/4 260/1/4 268/1/4
f 269/1/4 270/1/4 273/1/4
f 273/1/4 270/1/4 274/1/4
f 271/1/4 272/1/4 275/1/4
f 275/1/4 272/1/4 276/1/4
f 279/1/5 278/1/5 277/1/5
f 280/1/5 278/1/5 279/1/5
f 283/1/5 282/1/5 281/1/5
f 284/1/5 282/1/5 283/1/5
f 287/1/5 286/1/5 285/1/5
f 288/1/5 286/1/5 287/1/5
f 291/1/5 290/1/5 289/1/5
f 292/1/5 290/1/5 291/1/5
f 295/1/5 294/1/5 293/1/5
f 296/1/5 294/1/5 295/1/5
f 299/1/5 298/1/5 297/1/5
f 300/1/5 298/1/5 299/1/5
f 303/1/5 302/1/5 301/1/5
f 304/1/5 302/1/5 303/1/5
f 307/1/5 306/1/5 305/1/5
f 308/1/5 306/1/5 307/1/5
f 311/2/5 310/2/5 309/2/5
f 312/2/5 310/2/5 311/2/5
f 315/2/5 314/2/5 313/2/5
f 316/2/5 314/2/5 315/2/5
f 319/2/5 318/2/5 317/2/5
f 320/2/5 318/2/5 319/2/5
f 323/1/5 322/1/5 321/1/5
f 324/1/5 322/1/5 323/1/5
f 327/1/5 326/1/5 325/1/5
f 328/1/5 326/1/5 327/1/5
f 331/1/5 330/1/5 329/1/5
f 332/1/5 330/1/5 331/1/5
f 333/1/6 334/1/6 335/1/6
f 335/1/6 334/1/6 336/1/6
f 337/1/6 338/1/6 339/1/6
f 339/1/6 338/1/6 340/1/6
f 341/1/6 342/1/6 343/1/6
f 343/1/6 342/1/6 344/1/6
f 345/2/6 346/2/6 347/2/6
f 347/2/6 346/2/6 348/2/6
f 349/2/6 350/2/6 351/2/6
f 351/2/6 350/2/6 352/2/6
f 353/2/6 354/2/6 355/2/6
f 355/2/6 354/2/6 356/2/6
f 357/1/6 358/1/6 359/1/6
f 359/1/6 358/1/6 360/1/6
f 361/1/6 362/1/6 363/1/6
f 363/1/6 362/1/6 364/1/6
f 365/1/6 366/1/6 367/1/6
f 367/1/6 366/1/6 368/1/6
f 369/1/6 370/1/6 371/1/6
f 371/1/6 370/1/6 372/1/6
f 373/1/6 374/1/6 375/1/6
f 375/1/6 374/1/6 376/1/6
f 377/1/6 378/1/6 379/1/6
f 379/1/6 378/1/6 380/1/6
f 381/1/6 382/1/6 383/1/6
f 383/1/6 382/1/6 384/1/6
f 385/1/6 386/1/6 387/1/6
f 387/1/6 386/1/6 388/1/6
