# MagicaVoxel @ Ephtracy

# group
o 

# material
mtllib Katana_lvl2.mtl
usemtl palette

# normals
vn -1 0 0
vn 1 0 0
vn 0 0 1
vn 0 0 -1
vn 0 -1 0
vn 0 1 0

# texcoords
vt 0.224609 0.5
vt 0.310547 0.5
vt 0.341797 0.5
vt 0.974609 0.5
vt 0.978516 0.5

# verts
v -0.2 1.1 0.2
v -0.2 1.1 -0.2
v -0.2 1.2 0.2
v -0.2 1.2 -0.2
v -0.0999999 0.4 0.0999999
v -0.0999999 0.4 -0.1
v -0.0999999 0.5 0.0999999
v -0.0999999 0.5 -5.96046e-08
v -0.0999999 0.6 0.0999999
v -0.0999999 0.6 -5.96046e-08
v -0.0999999 0.7 0.0999999
v -0.0999999 0.7 -5.96046e-08
v -0.0999999 0.8 0.0999999
v -0.0999999 0.8 -5.96046e-08
v -0.0999999 0.9 0.0999999
v -0.0999999 0.9 -5.96046e-08
v -0.0999999 1 0.0999999
v -0.0999999 1 -5.96046e-08
v -0.0999999 1.1 0.0999999
v -0.0999999 1.1 -0.1
v -0.0999999 1.2 0.2
v -0.0999999 1.2 -0.1
v -0.0999999 1.3 0.2
v -0.0999999 1.3 0.0999999
v -0.0999999 1.3 -5.96046e-08
v -0.0999999 1.3 -0.1
v -0.0999999 2.6 -5.96046e-08
v -0.0999999 2.6 -0.1
v -0.0999999 2.7 -5.96046e-08
v -0.0999999 2.7 -0.1
v -0.0999999 2.8 0.2
v -0.0999999 2.8 0.0999999
v -0.0999999 2.8 -5.96046e-08
v -0.0999999 2.9 0.2
v -0.0999999 2.9 0.0999999
v 5.96046e-08 0.4 0.0999999
v 5.96046e-08 0.4 -0.1
v 5.96046e-08 0.5 0.0999999
v 5.96046e-08 0.5 -5.96046e-08
v 5.96046e-08 0.6 0.0999999
v 5.96046e-08 0.6 -5.96046e-08
v 5.96046e-08 0.7 0.0999999
v 5.96046e-08 0.7 -5.96046e-08
v 5.96046e-08 0.8 0.0999999
v 5.96046e-08 0.8 -5.96046e-08
v 5.96046e-08 0.9 0.0999999
v 5.96046e-08 0.9 -5.96046e-08
v 5.96046e-08 1 0.0999999
v 5.96046e-08 1 -5.96046e-08
v 5.96046e-08 1.1 0.0999999
v 5.96046e-08 1.1 -0.1
v 5.96046e-08 1.2 0.2
v 5.96046e-08 1.2 -0.1
v 5.96046e-08 1.3 0.2
v 5.96046e-08 1.3 0.0999999
v 5.96046e-08 1.3 -5.96046e-08
v 5.96046e-08 1.3 -0.1
v 5.96046e-08 2.6 -5.96046e-08
v 5.96046e-08 2.6 -0.1
v 5.96046e-08 2.7 -5.96046e-08
v 5.96046e-08 2.7 -0.1
v 5.96046e-08 2.8 0.2
v 5.96046e-08 2.8 0.0999999
v 5.96046e-08 2.8 -5.96046e-08
v 5.96046e-08 2.9 0.2
v 5.96046e-08 2.9 0.0999999
v 0.1 1.1 0.2
v 0.1 1.1 -0.2
v 0.1 1.2 0.2
v 0.1 1.2 -0.2
v -0.2 1.1 0.2
v -0.2 1.2 0.2
v -0.0999999 1.2 0.2
v -0.0999999 1.3 0.2
v -0.0999999 2.8 0.2
v -0.0999999 2.9 0.2
v 5.96046e-08 1.2 0.2
v 5.96046e-08 1.3 0.2
v 5.96046e-08 2.8 0.2
v 5.96046e-08 2.9 0.2
v 0.1 1.1 0.2
v 0.1 1.2 0.2
v -0.0999999 0.4 0.0999999
v -0.0999999 0.5 0.0999999
v -0.0999999 0.6 0.0999999
v -0.0999999 0.7 0.0999999
v -0.0999999 0.8 0.0999999
v -0.0999999 0.9 0.0999999
v -0.0999999 1 0.0999999
v -0.0999999 1.1 0.0999999
v -0.0999999 1.3 0.0999999
v -0.0999999 2.8 0.0999999
v 5.96046e-08 0.4 0.0999999
v 5.96046e-08 0.5 0.0999999
v 5.96046e-08 0.6 0.0999999
v 5.96046e-08 0.7 0.0999999
v 5.96046e-08 0.8 0.0999999
v 5.96046e-08 0.9 0.0999999
v 5.96046e-08 1 0.0999999
v 5.96046e-08 1.1 0.0999999
v 5.96046e-08 1.3 0.0999999
v 5.96046e-08 2.8 0.0999999
v -0.0999999 2.8 0.0999999
v -0.0999999 2.9 0.0999999
v 5.96046e-08 2.8 0.0999999
v 5.96046e-08 2.9 0.0999999
v -0.0999999 2.7 -5.96046e-08
v -0.0999999 2.8 -5.96046e-08
v 5.96046e-08 2.7 -5.96046e-08
v 5.96046e-08 2.8 -5.96046e-08
v -0.0999999 0.4 -0.1
v -0.0999999 1.1 -0.1
v -0.0999999 1.2 -0.1
v -0.0999999 1.3 -0.1
v -0.0999999 2.6 -0.1
v -0.0999999 2.7 -0.1
v 5.96046e-08 0.4 -0.1
v 5.96046e-08 1.1 -0.1
v 5.96046e-08 1.2 -0.1
v 5.96046e-08 1.3 -0.1
v 5.96046e-08 2.6 -0.1
v 5.96046e-08 2.7 -0.1
v -0.2 1.1 -0.2
v -0.2 1.2 -0.2
v 0.1 1.1 -0.2
v 0.1 1.2 -0.2
v -0.0999999 0.4 0.0999999
v 5.96046e-08 0.4 0.0999999
v -0.0999999 0.4 -0.1
v 5.96046e-08 0.4 -0.1
v -0.2 1.1 0.2
v 0.1 1.1 0.2
v -0.0999999 1.1 0.0999999
v 5.96046e-08 1.1 0.0999999
v -0.0999999 1.1 -0.1
v 5.96046e-08 1.1 -0.1
v -0.2 1.1 -0.2
v 0.1 1.1 -0.2
v -0.0999999 2.8 0.2
v 5.96046e-08 2.8 0.2
v -0.0999999 2.8 0.0999999
v 5.96046e-08 2.8 0.0999999
v -0.2 1.2 0.2
v -0.0999999 1.2 0.2
v 5.96046e-08 1.2 0.2
v 0.1 1.2 0.2
v -0.0999999 1.2 -0.1
v 5.96046e-08 1.2 -0.1
v -0.2 1.2 -0.2
v 0.1 1.2 -0.2
v -0.0999999 1.3 0.2
v 5.96046e-08 1.3 0.2
v -0.0999999 1.3 0.0999999
v 5.96046e-08 1.3 0.0999999
v -0.0999999 2.7 -5.96046e-08
v 5.96046e-08 2.7 -5.96046e-08
v -0.0999999 2.7 -0.1
v 5.96046e-08 2.7 -0.1
v -0.0999999 2.8 0.0999999
v 5.96046e-08 2.8 0.0999999
v -0.0999999 2.8 -5.96046e-08
v 5.96046e-08 2.8 -5.96046e-08
v -0.0999999 2.9 0.2
v 5.96046e-08 2.9 0.2
v -0.0999999 2.9 0.0999999
v 5.96046e-08 2.9 0.0999999

# faces
f 3/1/1 2/1/1 1/1/1
f 4/1/1 2/1/1 3/1/1
f 7/2/1 6/2/1 5/2/1
f 8/2/1 6/2/1 7/2/1
f 9/3/1 8/3/1 7/3/1
f 10/2/1 6/2/1 8/2/1
f 10/3/1 8/3/1 9/3/1
f 11/2/1 10/2/1 9/2/1
f 12/2/1 6/2/1 10/2/1
f 12/2/1 10/2/1 11/2/1
f 13/3/1 12/3/1 11/3/1
f 14/2/1 6/2/1 12/2/1
f 14/3/1 12/3/1 13/3/1
f 15/2/1 14/2/1 13/2/1
f 16/2/1 6/2/1 14/2/1
f 16/2/1 14/2/1 15/2/1
f 17/3/1 16/3/1 15/3/1
f 18/2/1 6/2/1 16/2/1
f 18/3/1 16/3/1 17/3/1
f 19/2/1 18/2/1 17/2/1
f 20/2/1 6/2/1 18/2/1
f 20/2/1 18/2/1 19/2/1
f 23/5/1 22/5/1 21/5/1
f 24/5/1 22/5/1 23/5/1
f 25/5/1 22/5/1 24/5/1
f 26/5/1 22/5/1 25/5/1
f 27/5/1 25/5/1 24/5/1
f 27/4/1 26/4/1 25/4/1
f 28/4/1 26/4/1 27/4/1
f 29/5/1 27/5/1 24/5/1
f 29/5/1 28/5/1 27/5/1
f 30/5/1 28/5/1 29/5/1
f 32/5/1 29/5/1 24/5/1
f 33/5/1 29/5/1 32/5/1
f 34/5/1 32/5/1 31/5/1
f 35/5/1 32/5/1 34/5/1
f 36/2/2 37/2/2 38/2/2
f 38/2/2 37/2/2 39/2/2
f 38/3/2 39/3/2 40/3/2
f 39/2/2 37/2/2 41/2/2
f 40/3/2 39/3/2 41/3/2
f 40/2/2 41/2/2 42/2/2
f 41/2/2 37/2/2 43/2/2
f 42/2/2 41/2/2 43/2/2
f 42/3/2 43/3/2 44/3/2
f 43/2/2 37/2/2 45/2/2
f 44/3/2 43/3/2 45/3/2
f 44/2/2 45/2/2 46/2/2
f 45/2/2 37/2/2 47/2/2
f 46/2/2 45/2/2 47/2/2
f 46/3/2 47/3/2 48/3/2
f 47/2/2 37/2/2 49/2/2
f 48/3/2 47/3/2 49/3/2
f 48/2/2 49/2/2 50/2/2
f 49/2/2 37/2/2 51/2/2
f 50/2/2 49/2/2 51/2/2
f 52/5/2 53/5/2 54/5/2
f 54/5/2 53/5/2 55/5/2
f 55/5/2 53/5/2 56/5/2
f 56/5/2 53/5/2 57/5/2
f 55/5/2 56/5/2 58/5/2
f 56/4/2 57/4/2 58/4/2
f 58/4/2 57/4/2 59/4/2
f 55/5/2 58/5/2 60/5/2
f 58/5/2 59/5/2 60/5/2
f 60/5/2 59/5/2 61/5/2
f 55/5/2 60/5/2 63/5/2
f 63/5/2 60/5/2 64/5/2
f 62/5/2 63/5/2 65/5/2
f 65/5/2 63/5/2 66/5/2
f 67/1/2 68/1/2 69/1/2
f 69/1/2 68/1/2 70/1/2
f 73/1/3 72/1/3 71/1/3
f 77/1/3 73/1/3 71/1/3
f 77/5/3 74/5/3 73/5/3
f 78/5/3 74/5/3 77/5/3
f 79/5/3 76/5/3 75/5/3
f 80/5/3 76/5/3 79/5/3
f 81/1/3 77/1/3 71/1/3
f 82/1/3 77/1/3 81/1/3
f 93/2/3 84/2/3 83/2/3
f 94/3/3 85/3/3 84/3/3
f 94/2/3 84/2/3 93/2/3
f 95/2/3 86/2/3 85/2/3
f 95/3/3 85/3/3 94/3/3
f 96/3/3 87/3/3 86/3/3
f 96/2/3 86/2/3 95/2/3
f 97/2/3 88/2/3 87/2/3
f 97/3/3 87/3/3 96/3/3
f 98/3/3 89/3/3 88/3/3
f 98/2/3 88/2/3 97/2/3
f 99/2/3 90/2/3 89/2/3
f 99/3/3 89/3/3 98/3/3
f 100/2/3 90/2/3 99/2/3
f 101/5/3 92/5/3 91/5/3
f 102/5/3 92/5/3 101/5/3
f 103/5/4 104/5/4 105/5/4
f 105/5/4 104/5/4 106/5/4
f 107/5/4 108/5/4 109/5/4
f 109/5/4 108/5/4 110/5/4
f 111/2/4 112/2/4 117/2/4
f 117/2/4 112/2/4 118/2/4
f 113/5/4 114/5/4 119/5/4
f 114/4/4 115/4/4 120/4/4
f 119/5/4 114/5/4 120/5/4
f 115/5/4 116/5/4 121/5/4
f 120/4/4 115/4/4 121/4/4
f 121/5/4 116/5/4 122/5/4
f 123/1/4 124/1/4 125/1/4
f 125/1/4 124/1/4 126/1/4
f 129/2/5 128/2/5 127/2/5
f 130/2/5 128/2/5 129/2/5
f 133/1/5 132/1/5 131/1/5
f 134/1/5 132/1/5 133/1/5
f 135/1/5 133/1/5 131/1/5
f 136/1/5 132/1/5 134/1/5
f 137/1/5 135/1/5 131/1/5
f 137/1/5 136/1/5 135/1/5
f 138/1/5 132/1/5 136/1/5
f 138/1/5 136/1/5 137/1/5
f 141/5/5 140/5/5 139/5/5
f 142/5/5 140/5/5 141/5/5
f 143/1/6 144/1/6 147/1/6
f 145/1/6 146/1/6 148/1/6
f 143/1/6 147/1/6 149/1/6
f 147/1/6 148/1/6 149/1/6
f 148/1/6 146/1/6 150/1/6
f 149/1/6 148/1/6 150/1/6
f 151/5/6 152/5/6 153/5/6
f 153/5/6 152/5/6 154/5/6
f 155/5/6 156/5/6 157/5/6
f 157/5/6 156/5/6 158/5/6
f 159/5/6 160/5/6 161/5/6
f 161/5/6 160/5/6 162/5/6
f 163/5/6 164/5/6 165/5/6
f 165/5/6 164/5/6 166/5/6
