# MagicaVoxel @ Ephtracy

# group
o 

# material
mtllib IncreaseCriticalHitBuff.mtl
usemtl palette

# normals
vn -1 0 0
vn 1 0 0
vn 0 0 1
vn 0 0 -1
vn 0 -1 0
vn 0 1 0

# texcoords
vt 0.306641 0.5
vt 0.310547 0.5
vt 0.337891 0.5
vt 0.341797 0.5

# verts
v -0.6 0.8 2.23517e-08
v -0.6 0.8 -0.1
v -0.6 1.3 2.23517e-08
v -0.6 1.3 -0.1
v -0.5 0.6 2.23517e-08
v -0.5 0.6 -0.1
v -0.5 0.7 2.23517e-08
v -0.5 0.7 -0.1
v -0.5 0.8 2.23517e-08
v -0.5 0.8 -0.1
v -0.5 1.3 2.23517e-08
v -0.5 1.3 -0.1
v -0.5 1.5 2.23517e-08
v -0.5 1.5 -0.1
v -0.4 0.5 2.23517e-08
v -0.4 0.5 -0.1
v -0.4 0.6 2.23517e-08
v -0.4 0.6 -0.1
v -0.4 1.5 2.23517e-08
v -0.4 1.5 -0.1
v -0.4 1.6 2.23517e-08
v -0.4 1.6 -0.1
v -0.2 0.4 2.23517e-08
v -0.2 0.4 -0.1
v -0.2 0.5 2.23517e-08
v -0.2 0.5 -0.1
v -0.2 1.6 2.23517e-08
v -0.2 1.6 -0.1
v -0.2 1.7 2.23517e-08
v -0.2 1.7 -0.1
v 0.1 1.7 2.23517e-08
v 0.1 1.7 -0.1
v 0.1 1.8 2.23517e-08
v 0.1 1.8 -0.1
v 0.2 1.6 2.23517e-08
v 0.2 1.6 -0.1
v 0.2 1.7 2.23517e-08
v 0.2 1.7 -0.1
v 0.4 1.2 2.23517e-08
v 0.4 1.2 -0.1
v 0.4 1.3 2.23517e-08
v 0.4 1.3 -0.1
v 0.4 1.5 2.23517e-08
v 0.4 1.5 -0.1
v 0.4 1.6 2.23517e-08
v 0.4 1.6 -0.1
v 0.5 1 2.23517e-08
v 0.5 1 -0.1
v 0.5 1.1 2.23517e-08
v 0.5 1.1 -0.1
v 0.6 1.1 2.23517e-08
v 0.6 1.1 -0.1
v 0.6 1.2 2.23517e-08
v 0.6 1.2 -0.1
v 0.6 1.3 2.23517e-08
v 0.6 1.3 -0.1
v 0.6 1.4 2.23517e-08
v 0.6 1.4 -0.1
v 0.7 1.4 2.23517e-08
v 0.7 1.4 -0.1
v 0.7 1.5 2.23517e-08
v 0.7 1.5 -0.1
v -0.1 1.6 2.23517e-08
v -0.1 1.6 -0.1
v -0.1 1.7 2.23517e-08
v -0.1 1.7 -0.1
v 0.1 1.5 2.23517e-08
v 0.1 1.5 -0.1
v 0.1 1.6 2.23517e-08
v 0.1 1.6 -0.1
v 0.2 1.3 2.23517e-08
v 0.2 1.3 -0.1
v 0.2 1.4 2.23517e-08
v 0.2 1.4 -0.1
v 0.2 1.7 2.23517e-08
v 0.2 1.7 -0.1
v 0.2 1.8 2.23517e-08
v 0.2 1.8 -0.1
v 0.3 0.4 2.23517e-08
v 0.3 0.4 -0.1
v 0.3 0.5 2.23517e-08
v 0.3 0.5 -0.1
v 0.3 1.2 2.23517e-08
v 0.3 1.2 -0.1
v 0.3 1.3 2.23517e-08
v 0.3 1.3 -0.1
v 0.3 1.4 2.23517e-08
v 0.3 1.4 -0.1
v 0.3 1.5 2.23517e-08
v 0.3 1.5 -0.1
v 0.3 1.6 2.23517e-08
v 0.3 1.6 -0.1
v 0.3 1.7 2.23517e-08
v 0.3 1.7 -0.1
v 0.4 1 2.23517e-08
v 0.4 1 -0.1
v 0.4 1.2 2.23517e-08
v 0.4 1.2 -0.1
v 0.5 0.5 2.23517e-08
v 0.5 0.5 -0.1
v 0.5 0.6 2.23517e-08
v 0.5 0.6 -0.1
v 0.5 1.2 2.23517e-08
v 0.5 1.2 -0.1
v 0.5 1.3 2.23517e-08
v 0.5 1.3 -0.1
v 0.6 0.6 2.23517e-08
v 0.6 0.6 -0.1
v 0.6 0.8 2.23517e-08
v 0.6 0.8 -0.1
v 0.6 1.5 2.23517e-08
v 0.6 1.5 -0.1
v 0.6 1.6 2.23517e-08
v 0.6 1.6 -0.1
v 0.7 0.8 2.23517e-08
v 0.7 0.8 -0.1
v 0.7 1.2 2.23517e-08
v 0.7 1.2 -0.1
v 0.7 1.3 2.23517e-08
v 0.7 1.3 -0.1
v 0.7 1.4 2.23517e-08
v 0.7 1.4 -0.1
v 0.8 1.4 2.23517e-08
v 0.8 1.4 -0.1
v 0.8 1.5 2.23517e-08
v 0.8 1.5 -0.1
v -0.6 0.8 2.23517e-08
v -0.6 1.3 2.23517e-08
v -0.5 0.6 2.23517e-08
v -0.5 0.7 2.23517e-08
v -0.5 0.8 2.23517e-08
v -0.5 1.3 2.23517e-08
v -0.5 1.5 2.23517e-08
v -0.4 0.5 2.23517e-08
v -0.4 0.6 2.23517e-08
v -0.4 0.7 2.23517e-08
v -0.4 1.2 2.23517e-08
v -0.4 1.3 2.23517e-08
v -0.4 1.5 2.23517e-08
v -0.4 1.6 2.23517e-08
v -0.3 0.6 2.23517e-08
v -0.3 1.2 2.23517e-08
v -0.3 1.3 2.23517e-08
v -0.3 1.5 2.23517e-08
v -0.2 0.4 2.23517e-08
v -0.2 0.5 2.23517e-08
v -0.2 0.6 2.23517e-08
v -0.2 1.3 2.23517e-08
v -0.2 1.5 2.23517e-08
v -0.2 1.6 2.23517e-08
v -0.2 1.7 2.23517e-08
v -0.1 0.9 2.23517e-08
v -0.1 1.2 2.23517e-08
v -0.1 1.3 2.23517e-08
v -0.1 1.6 2.23517e-08
v -0.1 1.7 2.23517e-08
v 0 0.5 2.23517e-08
v 0 0.9 2.23517e-08
v 0 1 2.23517e-08
v 0 1.1 2.23517e-08
v 0 1.2 2.23517e-08
v 0 1.3 2.23517e-08
v 0 1.4 2.23517e-08
v 0 1.6 2.23517e-08
v 0.1 0.5 2.23517e-08
v 0.1 0.9 2.23517e-08
v 0.1 1 2.23517e-08
v 0.1 1.1 2.23517e-08
v 0.1 1.2 2.23517e-08
v 0.1 1.4 2.23517e-08
v 0.1 1.5 2.23517e-08
v 0.1 1.6 2.23517e-08
v 0.1 1.7 2.23517e-08
v 0.1 1.8 2.23517e-08
v 0.2 0.9 2.23517e-08
v 0.2 1.2 2.23517e-08
v 0.2 1.3 2.23517e-08
v 0.2 1.4 2.23517e-08
v 0.2 1.5 2.23517e-08
v 0.2 1.6 2.23517e-08
v 0.2 1.7 2.23517e-08
v 0.2 1.8 2.23517e-08
v 0.3 0.4 2.23517e-08
v 0.3 0.5 2.23517e-08
v 0.3 0.6 2.23517e-08
v 0.3 1.2 2.23517e-08
v 0.3 1.3 2.23517e-08
v 0.3 1.4 2.23517e-08
v 0.3 1.5 2.23517e-08
v 0.3 1.6 2.23517e-08
v 0.3 1.7 2.23517e-08
v 0.4 0.6 2.23517e-08
v 0.4 1 2.23517e-08
v 0.4 1.2 2.23517e-08
v 0.4 1.3 2.23517e-08
v 0.4 1.5 2.23517e-08
v 0.4 1.6 2.23517e-08
v 0.5 0.5 2.23517e-08
v 0.5 0.6 2.23517e-08
v 0.5 0.8 2.23517e-08
v 0.5 1 2.23517e-08
v 0.5 1.1 2.23517e-08
v 0.5 1.2 2.23517e-08
v 0.5 1.3 2.23517e-08
v 0.5 1.5 2.23517e-08
v 0.5 1.6 2.23517e-08
v 0.6 0.6 2.23517e-08
v 0.6 0.8 2.23517e-08
v 0.6 1.1 2.23517e-08
v 0.6 1.2 2.23517e-08
v 0.6 1.3 2.23517e-08
v 0.6 1.4 2.23517e-08
v 0.6 1.5 2.23517e-08
v 0.6 1.6 2.23517e-08
v 0.7 0.8 2.23517e-08
v 0.7 1.2 2.23517e-08
v 0.7 1.3 2.23517e-08
v 0.7 1.4 2.23517e-08
v 0.7 1.5 2.23517e-08
v 0.8 1.4 2.23517e-08
v 0.8 1.5 2.23517e-08
v -0.6 0.8 -0.1
v -0.6 1.3 -0.1
v -0.5 0.6 -0.1
v -0.5 0.7 -0.1
v -0.5 0.8 -0.1
v -0.5 1.3 -0.1
v -0.5 1.5 -0.1
v -0.4 0.5 -0.1
v -0.4 0.6 -0.1
v -0.4 0.7 -0.1
v -0.4 1.2 -0.1
v -0.4 1.3 -0.1
v -0.4 1.5 -0.1
v -0.4 1.6 -0.1
v -0.3 0.6 -0.1
v -0.3 1.2 -0.1
v -0.3 1.3 -0.1
v -0.3 1.5 -0.1
v -0.2 0.4 -0.1
v -0.2 0.5 -0.1
v -0.2 0.6 -0.1
v -0.2 1.3 -0.1
v -0.2 1.5 -0.1
v -0.2 1.6 -0.1
v -0.2 1.7 -0.1
v -0.1 0.9 -0.1
v -0.1 1.2 -0.1
v -0.1 1.3 -0.1
v -0.1 1.6 -0.1
v -0.1 1.7 -0.1
v 0 0.5 -0.1
v 0 0.9 -0.1
v 0 1 -0.1
v 0 1.1 -0.1
v 0 1.2 -0.1
v 0 1.3 -0.1
v 0 1.4 -0.1
v 0 1.6 -0.1
v 0.1 0.5 -0.1
v 0.1 0.9 -0.1
v 0.1 1 -0.1
v 0.1 1.1 -0.1
v 0.1 1.2 -0.1
v 0.1 1.4 -0.1
v 0.1 1.5 -0.1
v 0.1 1.6 -0.1
v 0.1 1.7 -0.1
v 0.1 1.8 -0.1
v 0.2 0.9 -0.1
v 0.2 1.2 -0.1
v 0.2 1.3 -0.1
v 0.2 1.4 -0.1
v 0.2 1.5 -0.1
v 0.2 1.6 -0.1
v 0.2 1.7 -0.1
v 0.2 1.8 -0.1
v 0.3 0.4 -0.1
v 0.3 0.5 -0.1
v 0.3 0.6 -0.1
v 0.3 1.2 -0.1
v 0.3 1.3 -0.1
v 0.3 1.4 -0.1
v 0.3 1.5 -0.1
v 0.3 1.6 -0.1
v 0.3 1.7 -0.1
v 0.4 0.6 -0.1
v 0.4 1 -0.1
v 0.4 1.2 -0.1
v 0.4 1.3 -0.1
v 0.4 1.5 -0.1
v 0.4 1.6 -0.1
v 0.5 0.5 -0.1
v 0.5 0.6 -0.1
v 0.5 0.8 -0.1
v 0.5 1 -0.1
v 0.5 1.1 -0.1
v 0.5 1.2 -0.1
v 0.5 1.3 -0.1
v 0.5 1.5 -0.1
v 0.5 1.6 -0.1
v 0.6 0.6 -0.1
v 0.6 0.8 -0.1
v 0.6 1.1 -0.1
v 0.6 1.2 -0.1
v 0.6 1.3 -0.1
v 0.6 1.4 -0.1
v 0.6 1.5 -0.1
v 0.6 1.6 -0.1
v 0.7 0.8 -0.1
v 0.7 1.2 -0.1
v 0.7 1.3 -0.1
v 0.7 1.4 -0.1
v 0.7 1.5 -0.1
v 0.8 1.4 -0.1
v 0.8 1.5 -0.1
v -0.2 0.4 2.23517e-08
v 0.3 0.4 2.23517e-08
v -0.2 0.4 -0.1
v 0.3 0.4 -0.1
v -0.4 0.5 2.23517e-08
v -0.2 0.5 2.23517e-08
v 0.3 0.5 2.23517e-08
v 0.5 0.5 2.23517e-08
v -0.4 0.5 -0.1
v -0.2 0.5 -0.1
v 0.3 0.5 -0.1
v 0.5 0.5 -0.1
v -0.5 0.6 2.23517e-08
v -0.4 0.6 2.23517e-08
v 0.5 0.6 2.23517e-08
v 0.6 0.6 2.23517e-08
v -0.5 0.6 -0.1
v -0.4 0.6 -0.1
v 0.5 0.6 -0.1
v 0.6 0.6 -0.1
v -0.6 0.8 2.23517e-08
v -0.5 0.8 2.23517e-08
v 0.6 0.8 2.23517e-08
v 0.7 0.8 2.23517e-08
v -0.6 0.8 -0.1
v -0.5 0.8 -0.1
v 0.6 0.8 -0.1
v 0.7 0.8 -0.1
v 0.4 1.2 2.23517e-08
v 0.5 1.2 2.23517e-08
v 0.4 1.2 -0.1
v 0.5 1.2 -0.1
v 0.6 1.3 2.23517e-08
v 0.7 1.3 2.23517e-08
v 0.6 1.3 -0.1
v 0.7 1.3 -0.1
v 0.2 1.4 2.23517e-08
v 0.3 1.4 2.23517e-08
v 0.7 1.4 2.23517e-08
v 0.8 1.4 2.23517e-08
v 0.2 1.4 -0.1
v 0.3 1.4 -0.1
v 0.7 1.4 -0.1
v 0.8 1.4 -0.1
v 0.4 1.5 2.23517e-08
v 0.5 1.5 2.23517e-08
v 0.6 1.5 2.23517e-08
v 0.4 1.5 -0.1
v 0.5 1.5 -0.1
v 0.6 1.5 -0.1
v 0.2 1.6 2.23517e-08
v 0.3 1.6 2.23517e-08
v 0.2 1.6 -0.1
v 0.3 1.6 -0.1
v 0.1 1.7 2.23517e-08
v 0.2 1.7 2.23517e-08
v 0.1 1.7 -0.1
v 0.2 1.7 -0.1
v 0.4 1 2.23517e-08
v 0.5 1 2.23517e-08
v 0.4 1 -0.1
v 0.5 1 -0.1
v 0.5 1.1 2.23517e-08
v 0.6 1.1 2.23517e-08
v 0.5 1.1 -0.1
v 0.6 1.1 -0.1
v 0.3 1.2 2.23517e-08
v 0.4 1.2 2.23517e-08
v 0.6 1.2 2.23517e-08
v 0.7 1.2 2.23517e-08
v 0.3 1.2 -0.1
v 0.4 1.2 -0.1
v 0.6 1.2 -0.1
v 0.7 1.2 -0.1
v -0.6 1.3 2.23517e-08
v -0.5 1.3 2.23517e-08
v 0.2 1.3 2.23517e-08
v 0.3 1.3 2.23517e-08
v 0.4 1.3 2.23517e-08
v 0.5 1.3 2.23517e-08
v -0.6 1.3 -0.1
v -0.5 1.3 -0.1
v 0.2 1.3 -0.1
v 0.3 1.3 -0.1
v 0.4 1.3 -0.1
v 0.5 1.3 -0.1
v 0.6 1.4 2.23517e-08
v 0.7 1.4 2.23517e-08
v 0.6 1.4 -0.1
v 0.7 1.4 -0.1
v -0.5 1.5 2.23517e-08
v -0.4 1.5 2.23517e-08
v 0.1 1.5 2.23517e-08
v 0.2 1.5 2.23517e-08
v 0.3 1.5 2.23517e-08
v 0.7 1.5 2.23517e-08
v 0.8 1.5 2.23517e-08
v -0.5 1.5 -0.1
v -0.4 1.5 -0.1
v 0.1 1.5 -0.1
v 0.2 1.5 -0.1
v 0.3 1.5 -0.1
v 0.7 1.5 -0.1
v 0.8 1.5 -0.1
v -0.4 1.6 2.23517e-08
v -0.2 1.6 2.23517e-08
v -0.1 1.6 2.23517e-08
v 0 1.6 2.23517e-08
v 0.1 1.6 2.23517e-08
v 0.4 1.6 2.23517e-08
v 0.5 1.6 2.23517e-08
v 0.6 1.6 2.23517e-08
v -0.4 1.6 -0.1
v -0.2 1.6 -0.1
v -0.1 1.6 -0.1
v 0 1.6 -0.1
v 0.1 1.6 -0.1
v 0.4 1.6 -0.1
v 0.5 1.6 -0.1
v 0.6 1.6 -0.1
v -0.2 1.7 2.23517e-08
v -0.1 1.7 2.23517e-08
v 0.2 1.7 2.23517e-08
v 0.3 1.7 2.23517e-08
v -0.2 1.7 -0.1
v -0.1 1.7 -0.1
v 0.2 1.7 -0.1
v 0.3 1.7 -0.1
v 0.1 1.8 2.23517e-08
v 0.2 1.8 2.23517e-08
v 0.1 1.8 -0.1
v 0.2 1.8 -0.1

# faces
f 3/2/1 2/2/1 1/2/1
f 4/2/1 2/2/1 3/2/1
f 7/2/1 6/2/1 5/2/1
f 8/2/1 6/2/1 7/2/1
f 9/1/1 8/1/1 7/1/1
f 10/1/1 8/1/1 9/1/1
f 13/2/1 12/2/1 11/2/1
f 14/2/1 12/2/1 13/2/1
f 17/2/1 16/2/1 15/2/1
f 18/2/1 16/2/1 17/2/1
f 21/2/1 20/2/1 19/2/1
f 22/2/1 20/2/1 21/2/1
f 25/2/1 24/2/1 23/2/1
f 26/2/1 24/2/1 25/2/1
f 29/2/1 28/2/1 27/2/1
f 30/2/1 28/2/1 29/2/1
f 33/2/1 32/2/1 31/2/1
f 34/2/1 32/2/1 33/2/1
f 37/2/1 36/2/1 35/2/1
f 38/2/1 36/2/1 37/2/1
f 41/1/1 40/1/1 39/1/1
f 42/1/1 40/1/1 41/1/1
f 45/2/1 44/2/1 43/2/1
f 46/2/1 44/2/1 45/2/1
f 49/3/1 48/3/1 47/3/1
f 50/3/1 48/3/1 49/3/1
f 53/2/1 52/2/1 51/2/1
f 54/2/1 52/2/1 53/2/1
f 57/2/1 56/2/1 55/2/1
f 58/2/1 56/2/1 57/2/1
f 61/2/1 60/2/1 59/2/1
f 62/2/1 60/2/1 61/2/1
f 63/2/2 64/2/2 65/2/2
f 65/2/2 64/2/2 66/2/2
f 67/1/2 68/1/2 69/1/2
f 69/1/2 68/1/2 70/1/2
f 71/1/2 72/1/2 73/1/2
f 73/1/2 72/1/2 74/1/2
f 75/2/2 76/2/2 77/2/2
f 77/2/2 76/2/2 78/2/2
f 79/2/2 80/2/2 81/2/2
f 81/2/2 80/2/2 82/2/2
f 83/1/2 84/1/2 85/1/2
f 85/1/2 84/1/2 86/1/2
f 87/3/2 88/3/2 89/3/2
f 89/3/2 88/3/2 90/3/2
f 91/2/2 92/2/2 93/2/2
f 93/2/2 92/2/2 94/2/2
f 95/3/2 96/3/2 97/3/2
f 97/3/2 96/3/2 98/3/2
f 99/2/2 100/2/2 101/2/2
f 101/2/2 100/2/2 102/2/2
f 103/1/2 104/1/2 105/1/2
f 105/1/2 104/1/2 106/1/2
f 107/2/2 108/2/2 109/2/2
f 109/2/2 108/2/2 110/2/2
f 111/1/2 112/1/2 113/1/2
f 113/1/2 112/1/2 114/1/2
f 115/2/2 116/2/2 117/2/2
f 117/2/2 116/2/2 118/2/2
f 119/2/2 120/2/2 121/2/2
f 121/2/2 120/2/2 122/2/2
f 123/2/2 124/2/2 125/2/2
f 125/2/2 124/2/2 126/2/2
f 131/2/3 128/2/3 127/2/3
f 132/2/3 128/2/3 131/2/3
f 135/2/3 130/2/3 129/2/3
f 136/1/3 131/1/3 130/1/3
f 136/1/3 132/1/3 131/1/3
f 136/2/3 130/2/3 135/2/3
f 137/1/3 132/1/3 136/1/3
f 138/2/3 133/2/3 132/2/3
f 138/1/3 132/1/3 137/1/3
f 139/2/3 133/2/3 138/2/3
f 141/1/3 137/1/3 136/1/3
f 141/2/3 135/2/3 134/2/3
f 141/1/3 136/1/3 135/1/3
f 142/3/3 139/3/3 138/3/3
f 142/1/3 137/1/3 141/1/3
f 142/3/3 138/3/3 137/3/3
f 143/3/3 139/3/3 142/3/3
f 144/2/3 140/2/3 139/2/3
f 144/3/3 139/3/3 143/3/3
f 146/2/3 141/2/3 134/2/3
f 147/3/3 143/3/3 142/3/3
f 147/3/3 142/3/3 141/3/3
f 147/2/3 141/2/3 146/2/3
f 148/1/3 144/1/3 143/1/3
f 148/3/3 143/3/3 147/3/3
f 149/2/3 140/2/3 144/2/3
f 149/1/3 144/1/3 148/1/3
f 150/2/3 140/2/3 149/2/3
f 152/1/3 148/1/3 147/1/3
f 152/1/3 147/1/3 146/1/3
f 152/1/3 150/1/3 149/1/3
f 152/1/3 149/1/3 148/1/3
f 153/1/3 150/1/3 152/1/3
f 154/1/3 150/1/3 153/1/3
f 155/2/3 151/2/3 150/2/3
f 155/1/3 150/1/3 154/1/3
f 156/2/3 151/2/3 155/2/3
f 157/2/3 146/2/3 145/2/3
f 157/1/3 152/1/3 146/1/3
f 158/4/3 153/4/3 152/4/3
f 158/1/3 152/1/3 157/1/3
f 159/4/3 153/4/3 158/4/3
f 160/4/3 153/4/3 159/4/3
f 161/1/3 154/1/3 153/1/3
f 161/4/3 153/4/3 160/4/3
f 162/3/3 155/3/3 154/3/3
f 162/1/3 154/1/3 161/1/3
f 163/3/3 155/3/3 162/3/3
f 164/3/3 155/3/3 163/3/3
f 165/2/3 157/2/3 145/2/3
f 165/3/3 158/3/3 157/3/3
f 166/4/3 159/4/3 158/4/3
f 166/3/3 158/3/3 165/3/3
f 167/2/3 160/2/3 159/2/3
f 167/4/3 159/4/3 166/4/3
f 168/4/3 161/4/3 160/4/3
f 168/2/3 160/2/3 167/2/3
f 169/3/3 162/3/3 161/3/3
f 169/4/3 161/4/3 168/4/3
f 169/3/3 163/3/3 162/3/3
f 170/1/3 164/1/3 163/1/3
f 170/3/3 163/3/3 169/3/3
f 171/1/3 164/1/3 170/1/3
f 172/1/3 164/1/3 171/1/3
f 175/1/3 166/1/3 165/1/3
f 175/4/3 167/4/3 166/4/3
f 175/4/3 168/4/3 167/4/3
f 175/4/3 169/4/3 168/4/3
f 176/1/3 171/1/3 170/1/3
f 176/4/3 169/4/3 175/4/3
f 176/1/3 170/1/3 169/1/3
f 177/1/3 171/1/3 176/1/3
f 178/1/3 171/1/3 177/1/3
f 179/1/3 171/1/3 178/1/3
f 181/2/3 174/2/3 173/2/3
f 182/2/3 174/2/3 181/2/3
f 183/2/3 165/2/3 145/2/3
f 184/1/3 175/1/3 165/1/3
f 184/2/3 165/2/3 183/2/3
f 184/1/3 176/1/3 175/1/3
f 184/1/3 177/1/3 176/1/3
f 185/1/3 177/1/3 184/1/3
f 186/1/3 177/1/3 185/1/3
f 187/1/3 177/1/3 186/1/3
f 188/3/3 179/3/3 178/3/3
f 189/3/3 179/3/3 188/3/3
f 190/2/3 181/2/3 180/2/3
f 191/2/3 181/2/3 190/2/3
f 192/2/3 185/2/3 184/2/3
f 192/3/3 186/3/3 185/3/3
f 193/3/3 186/3/3 192/3/3
f 194/3/3 186/3/3 193/3/3
f 198/2/3 192/2/3 184/2/3
f 199/1/3 193/1/3 192/1/3
f 199/2/3 192/2/3 198/2/3
f 200/1/3 193/1/3 199/1/3
f 201/1/3 193/1/3 200/1/3
f 203/1/3 195/1/3 194/1/3
f 204/1/3 195/1/3 203/1/3
f 205/2/3 197/2/3 196/2/3
f 206/2/3 197/2/3 205/2/3
f 207/2/3 200/2/3 199/2/3
f 208/3/3 202/3/3 201/3/3
f 208/2/3 200/2/3 207/2/3
f 208/3/3 201/3/3 200/3/3
f 209/3/3 202/3/3 208/3/3
f 213/1/3 206/1/3 205/1/3
f 214/1/3 206/1/3 213/1/3
f 215/2/3 209/2/3 208/2/3
f 215/2/3 210/2/3 209/2/3
f 216/2/3 210/2/3 215/2/3
f 217/2/3 212/2/3 211/2/3
f 218/2/3 212/2/3 217/2/3
f 220/2/3 219/2/3 218/2/3
f 221/2/3 219/2/3 220/2/3
f 222/2/4 223/2/4 226/2/4
f 226/2/4 223/2/4 227/2/4
f 224/2/4 225/2/4 230/2/4
f 225/1/4 226/1/4 231/1/4
f 226/1/4 227/1/4 231/1/4
f 230/2/4 225/2/4 231/2/4
f 231/1/4 227/1/4 232/1/4
f 227/2/4 228/2/4 233/2/4
f 232/1/4 227/1/4 233/1/4
f 233/2/4 228/2/4 234/2/4
f 231/1/4 232/1/4 236/1/4
f 229/2/4 230/2/4 236/2/4
f 230/1/4 231/1/4 236/1/4
f 233/3/4 234/3/4 237/3/4
f 236/1/4 232/1/4 237/1/4
f 232/3/4 233/3/4 237/3/4
f 237/3/4 234/3/4 238/3/4
f 234/2/4 235/2/4 239/2/4
f 238/3/4 234/3/4 239/3/4
f 229/2/4 236/2/4 241/2/4
f 237/3/4 238/3/4 242/3/4
f 236/3/4 237/3/4 242/3/4
f 241/2/4 236/2/4 242/2/4
f 238/1/4 239/1/4 243/1/4
f 242/3/4 238/3/4 243/3/4
f 239/2/4 235/2/4 244/2/4
f 243/1/4 239/1/4 244/1/4
f 244/2/4 235/2/4 245/2/4
f 242/1/4 243/1/4 247/1/4
f 241/1/4 242/1/4 247/1/4
f 244/1/4 245/1/4 247/1/4
f 243/1/4 244/1/4 247/1/4
f 247/1/4 245/1/4 248/1/4
f 248/1/4 245/1/4 249/1/4
f 245/2/4 246/2/4 250/2/4
f 249/1/4 245/1/4 250/1/4
f 250/2/4 246/2/4 251/2/4
f 240/2/4 241/2/4 252/2/4
f 241/1/4 247/1/4 252/1/4
f 247/4/4 248/4/4 253/4/4
f 252/1/4 247/1/4 253/1/4
f 253/4/4 248/4/4 254/4/4
f 254/4/4 248/4/4 255/4/4
f 248/1/4 249/1/4 256/1/4
f 255/4/4 248/4/4 256/4/4
f 249/3/4 250/3/4 257/3/4
f 256/1/4 249/1/4 257/1/4
f 257/3/4 250/3/4 258/3/4
f 258/3/4 250/3/4 259/3/4
f 240/2/4 252/2/4 260/2/4
f 252/3/4 253/3/4 260/3/4
f 253/4/4 254/4/4 261/4/4
f 260/3/4 253/3/4 261/3/4
f 254/2/4 255/2/4 262/2/4
f 261/4/4 254/4/4 262/4/4
f 255/4/4 256/4/4 263/4/4
f 262/2/4 255/2/4 263/2/4
f 256/3/4 257/3/4 264/3/4
f 263/4/4 256/4/4 264/4/4
f 257/3/4 258/3/4 264/3/4
f 258/1/4 259/1/4 265/1/4
f 264/3/4 258/3/4 265/3/4
f 265/1/4 259/1/4 266/1/4
f 266/1/4 259/1/4 267/1/4
f 260/1/4 261/1/4 270/1/4
f 261/4/4 262/4/4 270/4/4
f 262/4/4 263/4/4 270/4/4
f 263/4/4 264/4/4 270/4/4
f 265/1/4 266/1/4 271/1/4
f 270/4/4 264/4/4 271/4/4
f 264/1/4 265/1/4 271/1/4
f 271/1/4 266/1/4 272/1/4
f 272/1/4 266/1/4 273/1/4
f 273/1/4 266/1/4 274/1/4
f 268/2/4 269/2/4 276/2/4
f 276/2/4 269/2/4 277/2/4
f 240/2/4 260/2/4 278/2/4
f 260/1/4 270/1/4 279/1/4
f 278/2/4 260/2/4 279/2/4
f 270/1/4 271/1/4 279/1/4
f 271/1/4 272/1/4 279/1/4
f 279/1/4 272/1/4 280/1/4
f 280/1/4 272/1/4 281/1/4
f 281/1/4 272/1/4 282/1/4
f 273/3/4 274/3/4 283/3/4
f 283/3/4 274/3/4 284/3/4
f 275/2/4 276/2/4 285/2/4
f 285/2/4 276/2/4 286/2/4
f 279/2/4 280/2/4 287/2/4
f 280/3/4 281/3/4 287/3/4
f 287/3/4 281/3/4 288/3/4
f 288/3/4 281/3/4 289/3/4
f 279/2/4 287/2/4 293/2/4
f 287/1/4 288/1/4 294/1/4
f 293/2/4 287/2/4 294/2/4
f 294/1/4 288/1/4 295/1/4
f 295/1/4 288/1/4 296/1/4
f 289/1/4 290/1/4 298/1/4
f 298/1/4 290/1/4 299/1/4
f 291/2/4 292/2/4 300/2/4
f 300/2/4 292/2/4 301/2/4
f 294/2/4 295/2/4 302/2/4
f 296/3/4 297/3/4 303/3/4
f 302/2/4 295/2/4 303/2/4
f 295/3/4 296/3/4 303/3/4
f 303/3/4 297/3/4 304/3/4
f 300/1/4 301/1/4 308/1/4
f 308/1/4 301/1/4 309/1/4
f 303/2/4 304/2/4 310/2/4
f 304/2/4 305/2/4 310/2/4
f 310/2/4 305/2/4 311/2/4
f 306/2/4 307/2/4 312/2/4
f 312/2/4 307/2/4 313/2/4
f 313/2/4 314/2/4 315/2/4
f 315/2/4 314/2/4 316/2/4
f 319/2/5 318/2/5 317/2/5
f 320/2/5 318/2/5 319/2/5
f 325/2/5 322/2/5 321/2/5
f 326/2/5 322/2/5 325/2/5
f 327/2/5 324/2/5 323/2/5
f 328/2/5 324/2/5 327/2/5
f 333/2/5 330/2/5 329/2/5
f 334/2/5 330/2/5 333/2/5
f 335/2/5 332/2/5 331/2/5
f 336/2/5 332/2/5 335/2/5
f 341/2/5 338/2/5 337/2/5
f 342/2/5 338/2/5 341/2/5
f 343/2/5 340/2/5 339/2/5
f 344/2/5 340/2/5 343/2/5
f 347/1/5 346/1/5 345/1/5
f 348/1/5 346/1/5 347/1/5
f 351/2/5 350/2/5 349/2/5
f 352/2/5 350/2/5 351/2/5
f 357/3/5 354/3/5 353/3/5
f 358/3/5 354/3/5 357/3/5
f 359/2/5 356/2/5 355/2/5
f 360/2/5 356/2/5 359/2/5
f 364/2/5 362/2/5 361/2/5
f 365/1/5 363/1/5 362/1/5
f 365/2/5 362/2/5 364/2/5
f 366/1/5 363/1/5 365/1/5
f 369/2/5 368/2/5 367/2/5
f 370/2/5 368/2/5 369/2/5
f 373/2/5 372/2/5 371/2/5
f 374/2/5 372/2/5 373/2/5
f 375/1/6 376/1/6 377/1/6
f 377/1/6 376/1/6 378/1/6
f 379/3/6 380/3/6 381/3/6
f 381/3/6 380/3/6 382/3/6
f 383/3/6 384/3/6 387/3/6
f 387/3/6 384/3/6 388/3/6
f 385/2/6 386/2/6 389/2/6
f 389/2/6 386/2/6 390/2/6
f 391/2/6 392/2/6 397/2/6
f 397/2/6 392/2/6 398/2/6
f 393/1/6 394/1/6 399/1/6
f 399/1/6 394/1/6 400/1/6
f 395/1/6 396/1/6 401/1/6
f 401/1/6 396/1/6 402/1/6
f 403/2/6 404/2/6 405/2/6
f 405/2/6 404/2/6 406/2/6
f 407/2/6 408/2/6 414/2/6
f 414/2/6 408/2/6 415/2/6
f 409/1/6 410/1/6 416/1/6
f 410/3/6 411/3/6 417/3/6
f 416/1/6 410/1/6 417/1/6
f 417/3/6 411/3/6 418/3/6
f 412/2/6 413/2/6 419/2/6
f 419/2/6 413/2/6 420/2/6
f 421/2/6 422/2/6 429/2/6
f 429/2/6 422/2/6 430/2/6
f 423/3/6 424/3/6 431/3/6
f 424/1/6 425/1/6 432/1/6
f 431/3/6 424/3/6 432/3/6
f 432/1/6 425/1/6 433/1/6
f 426/2/6 427/2/6 434/2/6
f 427/1/6 428/1/6 435/1/6
f 434/2/6 427/2/6 435/2/6
f 435/1/6 428/1/6 436/1/6
f 437/2/6 438/2/6 441/2/6
f 441/2/6 438/2/6 442/2/6
f 439/2/6 440/2/6 443/2/6
f 443/2/6 440/2/6 444/2/6
f 445/2/6 446/2/6 447/2/6
f 447/2/6 446/2/6 448/2/6
