# MagicaVoxel @ Ephtracy

# group
o 

# material
mtllib PoisonedKnife_lvl2.mtl
usemtl palette

# normals
vn -1 0 0
vn 1 0 0
vn 0 0 1
vn 0 0 -1
vn 0 -1 0
vn 0 1 0

# texcoords
vt 0.298828 0.5
vt 0.310547 0.5
vt 0.486328 0.5
vt 0.623047 0.5
vt 0.630859 0.5
vt 0.767578 0.5
vt 0.958984 0.5

# verts
v -0.1 0.4 0.3
v -0.1 0.4 0.1
v -0.1 0.5 0.2
v -0.1 0.5 0.1
v -0.1 0.5 -2.98023e-08
v -0.1 0.6 -2.98023e-08
v -0.1 0.6 -0.1
v -0.1 0.7 0.3
v -0.1 0.7 0.2
v -0.1 0.7 0.1
v -0.1 0.7 -2.98023e-08
v -0.1 0.8 0.2
v -0.1 0.8 0.1
v -0.1 0.8 -2.98023e-08
v -0.1 0.8 -0.1
v -0.1 0.8 -0.2
v -0.1 1 0.2
v -0.1 1 0.1
v -0.1 1 -2.98023e-08
v -0.1 1 -0.1
v -0.1 1 -0.2
v -0.1 1 -0.3
v -0.1 1.1 0.3
v -0.1 1.1 0.2
v -0.1 1.1 0.1
v -0.1 1.1 -2.98023e-08
v -0.1 1.1 -0.1
v -0.1 1.1 -0.2
v -0.1 1.2 0.3
v -0.1 1.2 0.2
v -0.1 1.2 0.1
v -0.1 1.2 -0.2
v -0.1 1.2 -0.3
v -0.1 1.2 -0.4
v -0.1 1.3 -0.2
v -0.1 1.3 -0.3
v -0.1 1.3 -0.4
v -0.1 1.3 -0.5
v -0.1 1.4 0.1
v -0.1 1.4 -2.98023e-08
v -0.1 1.5 0.2
v -0.1 1.5 0.1
v -0.1 1.5 -0.3
v -0.1 1.5 -0.4
v -0.1 1.5 -0.5
v -0.1 1.5 -0.6
v -0.1 1.6 0.1
v -0.1 1.6 -2.98023e-08
v -0.1 1.6 -0.1
v -0.1 1.7 -0.4
v -0.1 1.7 -0.5
v -0.1 1.7 -0.6
v -0.1 1.7 -0.7
v -0.1 1.8 -2.98023e-08
v -0.1 1.8 -0.1
v -0.1 1.8 -0.2
v -0.1 2 -0.1
v -0.1 2 -0.2
v -0.1 2 -0.3
v -0.1 2.4 -0.4
v -0.1 2.4 -0.5
v -0.1 2.4 -0.6
v -0.1 2.4 -0.7
v -0.1 2.6 -0.1
v -0.1 2.6 -0.2
v -0.1 2.6 -0.3
v -0.1 2.6 -0.4
v -0.1 2.6 -0.5
v -0.1 2.6 -0.6
v -0.1 2.7 -0.2
v -0.1 2.7 -0.3
v -0.1 2.7 -0.4
v -0.1 2.7 -0.5
v -0.1 2.8 -2.98023e-08
v -0.1 2.8 -0.1
v -0.1 2.8 -0.2
v -0.1 2.8 -0.3
v -0.1 2.8 -0.4
v -0.1 2.9 -2.98023e-08
v -0.1 2.9 -0.3
v -4.47035e-08 0.4 0.3
v -4.47035e-08 0.4 0.1
v -4.47035e-08 0.5 0.2
v -4.47035e-08 0.5 0.1
v -4.47035e-08 0.5 -2.98023e-08
v -4.47035e-08 0.6 -2.98023e-08
v -4.47035e-08 0.6 -0.1
v -4.47035e-08 0.7 0.3
v -4.47035e-08 0.7 0.2
v -4.47035e-08 0.7 0.1
v -4.47035e-08 0.7 -2.98023e-08
v -4.47035e-08 0.8 0.2
v -4.47035e-08 0.8 0.1
v -4.47035e-08 0.8 -2.98023e-08
v -4.47035e-08 0.8 -0.1
v -4.47035e-08 0.8 -0.2
v -4.47035e-08 1 0.2
v -4.47035e-08 1 0.1
v -4.47035e-08 1 -2.98023e-08
v -4.47035e-08 1 -0.1
v -4.47035e-08 1 -0.2
v -4.47035e-08 1 -0.3
v -4.47035e-08 1.1 0.3
v -4.47035e-08 1.1 0.2
v -4.47035e-08 1.1 0.1
v -4.47035e-08 1.1 -2.98023e-08
v -4.47035e-08 1.1 -0.1
v -4.47035e-08 1.1 -0.2
v -4.47035e-08 1.2 0.3
v -4.47035e-08 1.2 0.2
v -4.47035e-08 1.2 0.1
v -4.47035e-08 1.2 -0.2
v -4.47035e-08 1.2 -0.3
v -4.47035e-08 1.2 -0.4
v -4.47035e-08 1.3 -0.2
v -4.47035e-08 1.3 -0.3
v -4.47035e-08 1.3 -0.4
v -4.47035e-08 1.3 -0.5
v -4.47035e-08 1.4 0.1
v -4.47035e-08 1.4 -2.98023e-08
v -4.47035e-08 1.5 0.2
v -4.47035e-08 1.5 0.1
v -4.47035e-08 1.5 -0.3
v -4.47035e-08 1.5 -0.4
v -4.47035e-08 1.5 -0.5
v -4.47035e-08 1.5 -0.6
v -4.47035e-08 1.6 0.1
v -4.47035e-08 1.6 -2.98023e-08
v -4.47035e-08 1.6 -0.1
v -4.47035e-08 1.7 -0.4
v -4.47035e-08 1.7 -0.5
v -4.47035e-08 1.7 -0.6
v -4.47035e-08 1.7 -0.7
v -4.47035e-08 1.8 -2.98023e-08
v -4.47035e-08 1.8 -0.1
v -4.47035e-08 1.8 -0.2
v -4.47035e-08 2 -0.1
v -4.47035e-08 2 -0.2
v -4.47035e-08 2 -0.3
v -4.47035e-08 2.4 -0.4
v -4.47035e-08 2.4 -0.5
v -4.47035e-08 2.4 -0.6
v -4.47035e-08 2.4 -0.7
v -4.47035e-08 2.6 -0.1
v -4.47035e-08 2.6 -0.2
v -4.47035e-08 2.6 -0.3
v -4.47035e-08 2.6 -0.4
v -4.47035e-08 2.6 -0.5
v -4.47035e-08 2.6 -0.6
v -4.47035e-08 2.7 -0.2
v -4.47035e-08 2.7 -0.3
v -4.47035e-08 2.7 -0.4
v -4.47035e-08 2.7 -0.5
v -4.47035e-08 2.8 -2.98023e-08
v -4.47035e-08 2.8 -0.1
v -4.47035e-08 2.8 -0.2
v -4.47035e-08 2.8 -0.3
v -4.47035e-08 2.8 -0.4
v -4.47035e-08 2.9 -2.98023e-08
v -4.47035e-08 2.9 -0.3
v -0.1 0.4 0.3
v -0.1 0.7 0.3
v -0.1 1.1 0.3
v -0.1 1.2 0.3
v -4.47035e-08 0.4 0.3
v -4.47035e-08 0.7 0.3
v -4.47035e-08 1.1 0.3
v -4.47035e-08 1.2 0.3
v -0.1 0.7 0.2
v -0.1 0.8 0.2
v -0.1 1 0.2
v -0.1 1.1 0.2
v -0.1 1.2 0.2
v -0.1 1.5 0.2
v -4.47035e-08 0.7 0.2
v -4.47035e-08 0.8 0.2
v -4.47035e-08 1 0.2
v -4.47035e-08 1.1 0.2
v -4.47035e-08 1.2 0.2
v -4.47035e-08 1.5 0.2
v -0.1 0.8 0.1
v -0.1 1 0.1
v -0.1 1.5 0.1
v -0.1 1.6 0.1
v -4.47035e-08 0.8 0.1
v -4.47035e-08 1 0.1
v -4.47035e-08 1.5 0.1
v -4.47035e-08 1.6 0.1
v -0.1 1.6 -2.98023e-08
v -0.1 1.8 -2.98023e-08
v -0.1 2.8 -2.98023e-08
v -0.1 2.9 -2.98023e-08
v -4.47035e-08 1.6 -2.98023e-08
v -4.47035e-08 1.8 -2.98023e-08
v -4.47035e-08 2.8 -2.98023e-08
v -4.47035e-08 2.9 -2.98023e-08
v -0.1 1.8 -0.1
v -0.1 2 -0.1
v -0.1 2.6 -0.1
v -0.1 2.8 -0.1
v -4.47035e-08 1.8 -0.1
v -4.47035e-08 2 -0.1
v -4.47035e-08 2.6 -0.1
v -4.47035e-08 2.8 -0.1
v -0.1 2 -0.2
v -0.1 2.6 -0.2
v -4.47035e-08 2 -0.2
v -4.47035e-08 2.6 -0.2
v -0.1 0.4 0.1
v -0.1 0.5 0.1
v -4.47035e-08 0.4 0.1
v -4.47035e-08 0.5 0.1
v -0.1 0.5 -2.98023e-08
v -0.1 0.6 -2.98023e-08
v -4.47035e-08 0.5 -2.98023e-08
v -4.47035e-08 0.6 -2.98023e-08
v -0.1 0.6 -0.1
v -0.1 0.8 -0.1
v -4.47035e-08 0.6 -0.1
v -4.47035e-08 0.8 -0.1
v -0.1 0.8 -0.2
v -0.1 1 -0.2
v -4.47035e-08 0.8 -0.2
v -4.47035e-08 1 -0.2
v -0.1 1 -0.3
v -0.1 1.2 -0.3
v -0.1 2.8 -0.3
v -0.1 2.9 -0.3
v -4.47035e-08 1 -0.3
v -4.47035e-08 1.2 -0.3
v -4.47035e-08 2.8 -0.3
v -4.47035e-08 2.9 -0.3
v -0.1 1.2 -0.4
v -0.1 1.3 -0.4
v -0.1 2.7 -0.4
v -0.1 2.8 -0.4
v -4.47035e-08 1.2 -0.4
v -4.47035e-08 1.3 -0.4
v -4.47035e-08 2.7 -0.4
v -4.47035e-08 2.8 -0.4
v -0.1 1.3 -0.5
v -0.1 1.5 -0.5
v -0.1 2.6 -0.5
v -0.1 2.7 -0.5
v -4.47035e-08 1.3 -0.5
v -4.47035e-08 1.5 -0.5
v -4.47035e-08 2.6 -0.5
v -4.47035e-08 2.7 -0.5
v -0.1 1.5 -0.6
v -0.1 1.7 -0.6
v -0.1 2.4 -0.6
v -0.1 2.6 -0.6
v -4.47035e-08 1.5 -0.6
v -4.47035e-08 1.7 -0.6
v -4.47035e-08 2.4 -0.6
v -4.47035e-08 2.6 -0.6
v -0.1 1.7 -0.7
v -0.1 2.4 -0.7
v -4.47035e-08 1.7 -0.7
v -4.47035e-08 2.4 -0.7
v -0.1 0.4 0.3
v -4.47035e-08 0.4 0.3
v -0.1 0.4 0.1
v -4.47035e-08 0.4 0.1
v -0.1 0.5 0.1
v -4.47035e-08 0.5 0.1
v -0.1 0.5 -2.98023e-08
v -4.47035e-08 0.5 -2.98023e-08
v -0.1 0.6 -2.98023e-08
v -4.47035e-08 0.6 -2.98023e-08
v -0.1 0.6 -0.1
v -4.47035e-08 0.6 -0.1
v -0.1 0.8 -0.1
v -4.47035e-08 0.8 -0.1
v -0.1 0.8 -0.2
v -4.47035e-08 0.8 -0.2
v -0.1 1 0.2
v -4.47035e-08 1 0.2
v -0.1 1 0.1
v -4.47035e-08 1 0.1
v -0.1 1 -0.2
v -4.47035e-08 1 -0.2
v -0.1 1 -0.3
v -4.47035e-08 1 -0.3
v -0.1 1.1 0.3
v -4.47035e-08 1.1 0.3
v -0.1 1.1 0.2
v -4.47035e-08 1.1 0.2
v -0.1 1.2 -0.3
v -4.47035e-08 1.2 -0.3
v -0.1 1.2 -0.4
v -4.47035e-08 1.2 -0.4
v -0.1 1.3 -0.4
v -4.47035e-08 1.3 -0.4
v -0.1 1.3 -0.5
v -4.47035e-08 1.3 -0.5
v -0.1 1.5 -0.5
v -4.47035e-08 1.5 -0.5
v -0.1 1.5 -0.6
v -4.47035e-08 1.5 -0.6
v -0.1 1.7 -0.6
v -4.47035e-08 1.7 -0.6
v -0.1 1.7 -0.7
v -4.47035e-08 1.7 -0.7
v -0.1 2.6 -0.1
v -4.47035e-08 2.6 -0.1
v -0.1 2.6 -0.2
v -4.47035e-08 2.6 -0.2
v -0.1 2.8 -2.98023e-08
v -4.47035e-08 2.8 -2.98023e-08
v -0.1 2.8 -0.1
v -4.47035e-08 2.8 -0.1
v -0.1 0.7 0.3
v -4.47035e-08 0.7 0.3
v -0.1 0.7 0.2
v -4.47035e-08 0.7 0.2
v -0.1 0.8 0.2
v -4.47035e-08 0.8 0.2
v -0.1 0.8 0.1
v -4.47035e-08 0.8 0.1
v -0.1 1.2 0.3
v -4.47035e-08 1.2 0.3
v -0.1 1.2 0.2
v -4.47035e-08 1.2 0.2
v -0.1 1.5 0.2
v -4.47035e-08 1.5 0.2
v -0.1 1.5 0.1
v -4.47035e-08 1.5 0.1
v -0.1 1.6 0.1
v -4.47035e-08 1.6 0.1
v -0.1 1.6 -2.98023e-08
v -4.47035e-08 1.6 -2.98023e-08
v -0.1 1.8 -2.98023e-08
v -4.47035e-08 1.8 -2.98023e-08
v -0.1 1.8 -0.1
v -4.47035e-08 1.8 -0.1
v -0.1 2 -0.1
v -4.47035e-08 2 -0.1
v -0.1 2 -0.2
v -4.47035e-08 2 -0.2
v -0.1 2.4 -0.6
v -4.47035e-08 2.4 -0.6
v -0.1 2.4 -0.7
v -4.47035e-08 2.4 -0.7
v -0.1 2.6 -0.5
v -4.47035e-08 2.6 -0.5
v -0.1 2.6 -0.6
v -4.47035e-08 2.6 -0.6
v -0.1 2.7 -0.4
v -4.47035e-08 2.7 -0.4
v -0.1 2.7 -0.5
v -4.47035e-08 2.7 -0.5
v -0.1 2.8 -0.3
v -4.47035e-08 2.8 -0.3
v -0.1 2.8 -0.4
v -4.47035e-08 2.8 -0.4
v -0.1 2.9 -2.98023e-08
v -4.47035e-08 2.9 -2.98023e-08
v -0.1 2.9 -0.3
v -4.47035e-08 2.9 -0.3

# faces
f 3/2/1 2/2/1 1/2/1
f 4/2/1 2/2/1 3/2/1
f 6/2/1 5/2/1 4/2/1
f 8/2/1 3/2/1 1/2/1
f 9/1/1 4/1/1 3/1/1
f 9/2/1 3/2/1 8/2/1
f 10/2/1 7/2/1 6/2/1
f 10/1/1 4/1/1 9/1/1
f 10/2/1 6/2/1 4/2/1
f 11/2/1 7/2/1 10/2/1
f 12/2/1 10/2/1 9/2/1
f 13/1/1 11/1/1 10/1/1
f 13/2/1 10/2/1 12/2/1
f 14/2/1 7/2/1 11/2/1
f 14/1/1 11/1/1 13/1/1
f 15/2/1 7/2/1 14/2/1
f 18/2/1 14/2/1 13/2/1
f 19/1/1 15/1/1 14/1/1
f 19/2/1 14/2/1 18/2/1
f 20/2/1 16/2/1 15/2/1
f 20/1/1 15/1/1 19/1/1
f 21/2/1 16/2/1 20/2/1
f 24/3/1 18/3/1 17/3/1
f 25/1/1 19/1/1 18/1/1
f 25/3/1 18/3/1 24/3/1
f 26/6/1 20/6/1 19/6/1
f 26/1/1 19/1/1 25/1/1
f 27/1/1 21/1/1 20/1/1
f 27/6/1 20/6/1 26/6/1
f 28/3/1 22/3/1 21/3/1
f 28/1/1 21/1/1 27/1/1
f 29/3/1 24/3/1 23/3/1
f 29/3/1 27/3/1 26/3/1
f 29/3/1 28/3/1 27/3/1
f 29/3/1 25/3/1 24/3/1
f 29/3/1 26/3/1 25/3/1
f 30/3/1 28/3/1 29/3/1
f 31/3/1 28/3/1 30/3/1
f 32/3/1 22/3/1 28/3/1
f 32/3/1 28/3/1 31/3/1
f 33/3/1 22/3/1 32/3/1
f 35/7/1 32/7/1 31/7/1
f 35/5/1 33/5/1 32/5/1
f 36/4/1 34/4/1 33/4/1
f 36/5/1 33/5/1 35/5/1
f 37/4/1 34/4/1 36/4/1
f 39/3/1 31/3/1 30/3/1
f 39/7/1 35/7/1 31/7/1
f 39/7/1 36/7/1 35/7/1
f 40/7/1 36/7/1 39/7/1
f 41/3/1 39/3/1 30/3/1
f 41/3/1 40/3/1 39/3/1
f 42/3/1 40/3/1 41/3/1
f 43/5/1 37/5/1 36/5/1
f 43/7/1 36/7/1 40/7/1
f 44/4/1 38/4/1 37/4/1
f 44/5/1 37/5/1 43/5/1
f 45/4/1 38/4/1 44/4/1
f 47/3/1 40/3/1 42/3/1
f 48/7/1 43/7/1 40/7/1
f 48/3/1 40/3/1 47/3/1
f 48/7/1 44/7/1 43/7/1
f 49/7/1 44/7/1 48/7/1
f 50/5/1 45/5/1 44/5/1
f 50/7/1 44/7/1 49/7/1
f 51/4/1 46/4/1 45/4/1
f 51/5/1 45/5/1 50/5/1
f 52/4/1 46/4/1 51/4/1
f 54/3/1 49/3/1 48/3/1
f 55/7/1 50/7/1 49/7/1
f 55/3/1 49/3/1 54/3/1
f 55/7/1 51/7/1 50/7/1
f 56/7/1 51/7/1 55/7/1
f 57/3/1 56/3/1 55/3/1
f 58/7/1 51/7/1 56/7/1
f 58/3/1 56/3/1 57/3/1
f 59/7/1 51/7/1 58/7/1
f 60/7/1 51/7/1 59/7/1
f 61/5/1 52/5/1 51/5/1
f 61/7/1 51/7/1 60/7/1
f 62/4/1 53/4/1 52/4/1
f 62/5/1 52/5/1 61/5/1
f 63/4/1 53/4/1 62/4/1
f 65/3/1 59/3/1 58/3/1
f 66/7/1 60/7/1 59/7/1
f 66/3/1 59/3/1 65/3/1
f 67/5/1 61/5/1 60/5/1
f 67/7/1 60/7/1 66/7/1
f 68/4/1 62/4/1 61/4/1
f 68/5/1 61/5/1 67/5/1
f 69/4/1 62/4/1 68/4/1
f 70/7/1 66/7/1 65/7/1
f 70/3/1 65/3/1 64/3/1
f 71/5/1 67/5/1 66/5/1
f 71/7/1 66/7/1 70/7/1
f 72/4/1 68/4/1 67/4/1
f 72/5/1 67/5/1 71/5/1
f 73/4/1 68/4/1 72/4/1
f 75/3/1 70/3/1 64/3/1
f 76/5/1 71/5/1 70/5/1
f 76/3/1 70/3/1 75/3/1
f 77/4/1 72/4/1 71/4/1
f 77/5/1 71/5/1 76/5/1
f 78/4/1 72/4/1 77/4/1
f 79/4/1 75/4/1 74/4/1
f 79/4/1 76/4/1 75/4/1
f 79/4/1 77/4/1 76/4/1
f 80/4/1 77/4/1 79/4/1
f 81/2/2 82/2/2 83/2/2
f 83/2/2 82/2/2 84/2/2
f 84/2/2 85/2/2 86/2/2
f 81/2/2 83/2/2 88/2/2
f 83/1/2 84/1/2 89/1/2
f 88/2/2 83/2/2 89/2/2
f 86/2/2 87/2/2 90/2/2
f 89/1/2 84/1/2 90/1/2
f 84/2/2 86/2/2 90/2/2
f 90/2/2 87/2/2 91/2/2
f 89/2/2 90/2/2 92/2/2
f 90/1/2 91/1/2 93/1/2
f 92/2/2 90/2/2 93/2/2
f 91/2/2 87/2/2 94/2/2
f 93/1/2 91/1/2 94/1/2
f 94/2/2 87/2/2 95/2/2
f 93/2/2 94/2/2 98/2/2
f 94/1/2 95/1/2 99/1/2
f 98/2/2 94/2/2 99/2/2
f 95/2/2 96/2/2 100/2/2
f 99/1/2 95/1/2 100/1/2
f 100/2/2 96/2/2 101/2/2
f 97/3/2 98/3/2 104/3/2
f 98/1/2 99/1/2 105/1/2
f 104/3/2 98/3/2 105/3/2
f 99/6/2 100/6/2 106/6/2
f 105/1/2 99/1/2 106/1/2
f 100/1/2 101/1/2 107/1/2
f 106/6/2 100/6/2 107/6/2
f 101/3/2 102/3/2 108/3/2
f 107/1/2 101/1/2 108/1/2
f 103/3/2 104/3/2 109/3/2
f 106/3/2 107/3/2 109/3/2
f 107/3/2 108/3/2 109/3/2
f 104/3/2 105/3/2 109/3/2
f 105/3/2 106/3/2 109/3/2
f 109/3/2 108/3/2 110/3/2
f 110/3/2 108/3/2 111/3/2
f 108/3/2 102/3/2 112/3/2
f 111/3/2 108/3/2 112/3/2
f 112/3/2 102/3/2 113/3/2
f 111/7/2 112/7/2 115/7/2
f 112/5/2 113/5/2 115/5/2
f 113/4/2 114/4/2 116/4/2
f 115/5/2 113/5/2 116/5/2
f 116/4/2 114/4/2 117/4/2
f 110/3/2 111/3/2 119/3/2
f 111/7/2 115/7/2 119/7/2
f 115/7/2 116/7/2 119/7/2
f 119/7/2 116/7/2 120/7/2
f 110/3/2 119/3/2 121/3/2
f 119/3/2 120/3/2 121/3/2
f 121/3/2 120/3/2 122/3/2
f 116/5/2 117/5/2 123/5/2
f 120/7/2 116/7/2 123/7/2
f 117/4/2 118/4/2 124/4/2
f 123/5/2 117/5/2 124/5/2
f 124/4/2 118/4/2 125/4/2
f 122/3/2 120/3/2 127/3/2
f 120/7/2 123/7/2 128/7/2
f 127/3/2 120/3/2 128/3/2
f 123/7/2 124/7/2 128/7/2
f 128/7/2 124/7/2 129/7/2
f 124/5/2 125/5/2 130/5/2
f 129/7/2 124/7/2 130/7/2
f 125/4/2 126/4/2 131/4/2
f 130/5/2 125/5/2 131/5/2
f 131/4/2 126/4/2 132/4/2
f 128/3/2 129/3/2 134/3/2
f 129/7/2 130/7/2 135/7/2
f 134/3/2 129/3/2 135/3/2
f 130/7/2 131/7/2 135/7/2
f 135/7/2 131/7/2 136/7/2
f 135/3/2 136/3/2 137/3/2
f 136/7/2 131/7/2 138/7/2
f 137/3/2 136/3/2 138/3/2
f 138/7/2 131/7/2 139/7/2
f 139/7/2 131/7/2 140/7/2
f 131/5/2 132/5/2 141/5/2
f 140/7/2 131/7/2 141/7/2
f 132/4/2 133/4/2 142/4/2
f 141/5/2 132/5/2 142/5/2
f 142/4/2 133/4/2 143/4/2
f 138/3/2 139/3/2 145/3/2
f 139/7/2 140/7/2 146/7/2
f 145/3/2 139/3/2 146/3/2
f 140/5/2 141/5/2 147/5/2
f 146/7/2 140/7/2 147/7/2
f 141/4/2 142/4/2 148/4/2
f 147/5/2 141/5/2 148/5/2
f 148/4/2 142/4/2 149/4/2
f 145/7/2 146/7/2 150/7/2
f 144/3/2 145/3/2 150/3/2
f 146/5/2 147/5/2 151/5/2
f 150/7/2 146/7/2 151/7/2
f 147/4/2 148/4/2 152/4/2
f 151/5/2 147/5/2 152/5/2
f 152/4/2 148/4/2 153/4/2
f 144/3/2 150/3/2 155/3/2
f 150/5/2 151/5/2 156/5/2
f 155/3/2 150/3/2 156/3/2
f 151/4/2 152/4/2 157/4/2
f 156/5/2 151/5/2 157/5/2
f 157/4/2 152/4/2 158/4/2
f 154/4/2 155/4/2 159/4/2
f 155/4/2 156/4/2 159/4/2
f 156/4/2 157/4/2 159/4/2
f 159/4/2 157/4/2 160/4/2
f 165/2/3 162/2/3 161/2/3
f 166/2/3 162/2/3 165/2/3
f 167/3/3 164/3/3 163/3/3
f 168/3/3 164/3/3 167/3/3
f 175/2/3 170/2/3 169/2/3
f 176/2/3 170/2/3 175/2/3
f 177/3/3 172/3/3 171/3/3
f 178/3/3 172/3/3 177/3/3
f 179/3/3 174/3/3 173/3/3
f 180/3/3 174/3/3 179/3/3
f 185/2/3 182/2/3 181/2/3
f 186/2/3 182/2/3 185/2/3
f 187/3/3 184/3/3 183/3/3
f 188/3/3 184/3/3 187/3/3
f 193/3/3 190/3/3 189/3/3
f 194/3/3 190/3/3 193/3/3
f 195/4/3 192/4/3 191/4/3
f 196/4/3 192/4/3 195/4/3
f 201/3/3 198/3/3 197/3/3
f 202/3/3 198/3/3 201/3/3
f 203/3/3 200/3/3 199/3/3
f 204/3/3 200/3/3 203/3/3
f 207/3/3 206/3/3 205/3/3
f 208/3/3 206/3/3 207/3/3
f 209/2/4 210/2/4 211/2/4
f 211/2/4 210/2/4 212/2/4
f 213/2/4 214/2/4 215/2/4
f 215/2/4 214/2/4 216/2/4
f 217/2/4 218/2/4 219/2/4
f 219/2/4 218/2/4 220/2/4
f 221/2/4 222/2/4 223/2/4
f 223/2/4 222/2/4 224/2/4
f 225/3/4 226/3/4 229/3/4
f 229/3/4 226/3/4 230/3/4
f 227/4/4 228/4/4 231/4/4
f 231/4/4 228/4/4 232/4/4
f 233/4/4 234/4/4 237/4/4
f 237/4/4 234/4/4 238/4/4
f 235/4/4 236/4/4 239/4/4
f 239/4/4 236/4/4 240/4/4
f 241/4/4 242/4/4 245/4/4
f 245/4/4 242/4/4 246/4/4
f 243/4/4 244/4/4 247/4/4
f 247/4/4 244/4/4 248/4/4
f 249/4/4 250/4/4 253/4/4
f 253/4/4 250/4/4 254/4/4
f 251/4/4 252/4/4 255/4/4
f 255/4/4 252/4/4 256/4/4
f 257/4/4 258/4/4 259/4/4
f 259/4/4 258/4/4 260/4/4
f 263/2/5 262/2/5 261/2/5
f 264/2/5 262/2/5 263/2/5
f 267/2/5 266/2/5 265/2/5
f 268/2/5 266/2/5 267/2/5
f 271/2/5 270/2/5 269/2/5
f 272/2/5 270/2/5 271/2/5
f 275/2/5 274/2/5 273/2/5
f 276/2/5 274/2/5 275/2/5
f 279/3/5 278/3/5 277/3/5
f 280/3/5 278/3/5 279/3/5
f 283/3/5 282/3/5 281/3/5
f 284/3/5 282/3/5 283/3/5
f 287/3/5 286/3/5 285/3/5
f 288/3/5 286/3/5 287/3/5
f 291/4/5 290/4/5 289/4/5
f 292/4/5 290/4/5 291/4/5
f 295/4/5 294/4/5 293/4/5
f 296/4/5 294/4/5 295/4/5
f 299/4/5 298/4/5 297/4/5
f 300/4/5 298/4/5 299/4/5
f 303/4/5 302/4/5 301/4/5
f 304/4/5 302/4/5 303/4/5
f 307/3/5 306/3/5 305/3/5
f 308/3/5 306/3/5 307/3/5
f 311/4/5 310/4/5 309/4/5
f 312/4/5 310/4/5 311/4/5
f 313/2/6 314/2/6 315/2/6
f 315/2/6 314/2/6 316/2/6
f 317/2/6 318/2/6 319/2/6
f 319/2/6 318/2/6 320/2/6
f 321/3/6 322/3/6 323/3/6
f 323/3/6 322/3/6 324/3/6
f 325/3/6 326/3/6 327/3/6
f 327/3/6 326/3/6 328/3/6
f 329/3/6 330/3/6 331/3/6
f 331/3/6 330/3/6 332/3/6
f 333/3/6 334/3/6 335/3/6
f 335/3/6 334/3/6 336/3/6
f 337/3/6 338/3/6 339/3/6
f 339/3/6 338/3/6 340/3/6
f 341/4/6 342/4/6 343/4/6
f 343/4/6 342/4/6 344/4/6
f 345/4/6 346/4/6 347/4/6
f 347/4/6 346/4/6 348/4/6
f 349/4/6 350/4/6 351/4/6
f 351/4/6 350/4/6 352/4/6
f 353/4/6 354/4/6 355/4/6
f 355/4/6 354/4/6 356/4/6
f 357/4/6 358/4/6 359/4/6
f 359/4/6 358/4/6 360/4/6
