# MagicaVoxel @ Ephtracy

# group
o 

# material
mtllib PoisonedKnife_lvl1.mtl
usemtl palette

# normals
vn -1 0 0
vn 1 0 0
vn 0 0 1
vn 0 0 -1
vn 0 -1 0
vn 0 1 0

# texcoords
vt 0.298828 0.5
vt 0.310547 0.5
vt 0.486328 0.5
vt 0.623047 0.5
vt 0.767578 0.5
vt 0.927734 0.5

# verts
v -0.1 0.4 0.3
v -0.1 0.4 0.1
v -0.1 0.5 0.2
v -0.1 0.5 0.1
v -0.1 0.5 -2.98023e-08
v -0.1 0.6 0.3
v -0.1 0.6 0.2
v -0.1 0.6 0.1
v -0.1 0.7 0.1
v -0.1 0.7 -2.98023e-08
v -0.1 0.7 -0.1
v -0.1 0.9 0.2
v -0.1 0.9 0.1
v -0.1 0.9 -2.98023e-08
v -0.1 0.9 -0.1
v -0.1 0.9 -0.2
v -0.1 1 0.2
v -0.1 1 0.1
v -0.1 1 -2.98023e-08
v -0.1 1 -0.1
v -0.1 1 -0.2
v -0.1 1 -0.3
v -0.1 1.1 0.1
v -0.1 1.1 -2.98023e-08
v -0.1 1.1 -0.1
v -0.1 1.1 -0.2
v -0.1 1.2 0.1
v -0.1 1.2 -0.1
v -0.1 1.2 -0.2
v -0.1 1.2 -0.3
v -0.1 1.2 -0.4
v -0.1 1.3 -0.1
v -0.1 1.3 -0.2
v -0.1 1.3 -0.3
v -0.1 1.3 -0.4
v -0.1 1.3 -0.5
v -0.1 1.4 0.1
v -0.1 1.4 -2.98023e-08
v -0.1 1.5 0.2
v -0.1 1.5 0.1
v -0.1 1.5 -0.2
v -0.1 1.5 -0.3
v -0.1 1.5 -0.4
v -0.1 1.5 -0.5
v -0.1 1.5 -0.6
v -0.1 1.6 0.1
v -0.1 1.6 -2.98023e-08
v -0.1 1.6 -0.1
v -0.1 1.7 -0.3
v -0.1 1.7 -0.4
v -0.1 1.7 -0.5
v -0.1 1.7 -0.6
v -0.1 1.7 -0.7
v -0.1 1.8 -0.1
v -0.1 1.8 -0.2
v -0.1 2 -0.2
v -0.1 2 -0.3
v -0.1 2.4 -0.4
v -0.1 2.4 -0.5
v -0.1 2.4 -0.6
v -0.1 2.4 -0.7
v -0.1 2.6 -0.2
v -0.1 2.6 -0.3
v -0.1 2.6 -0.4
v -0.1 2.6 -0.5
v -0.1 2.6 -0.6
v -0.1 2.7 -0.3
v -0.1 2.7 -0.4
v -0.1 2.7 -0.5
v -0.1 2.8 -0.1
v -0.1 2.8 -0.2
v -0.1 2.8 -0.3
v -0.1 2.8 -0.4
v -0.1 2.9 -0.1
v -0.1 2.9 -0.3
v -4.47035e-08 0.4 0.3
v -4.47035e-08 0.4 0.1
v -4.47035e-08 0.5 0.2
v -4.47035e-08 0.5 0.1
v -4.47035e-08 0.5 -2.98023e-08
v -4.47035e-08 0.6 0.3
v -4.47035e-08 0.6 0.2
v -4.47035e-08 0.6 0.1
v -4.47035e-08 0.7 0.1
v -4.47035e-08 0.7 -2.98023e-08
v -4.47035e-08 0.7 -0.1
v -4.47035e-08 0.9 0.2
v -4.47035e-08 0.9 0.1
v -4.47035e-08 0.9 -2.98023e-08
v -4.47035e-08 0.9 -0.1
v -4.47035e-08 0.9 -0.2
v -4.47035e-08 1 0.2
v -4.47035e-08 1 0.1
v -4.47035e-08 1 -2.98023e-08
v -4.47035e-08 1 -0.1
v -4.47035e-08 1 -0.2
v -4.47035e-08 1 -0.3
v -4.47035e-08 1.1 0.1
v -4.47035e-08 1.1 -2.98023e-08
v -4.47035e-08 1.1 -0.1
v -4.47035e-08 1.1 -0.2
v -4.47035e-08 1.2 0.1
v -4.47035e-08 1.2 -0.1
v -4.47035e-08 1.2 -0.2
v -4.47035e-08 1.2 -0.3
v -4.47035e-08 1.2 -0.4
v -4.47035e-08 1.3 -0.1
v -4.47035e-08 1.3 -0.2
v -4.47035e-08 1.3 -0.3
v -4.47035e-08 1.3 -0.4
v -4.47035e-08 1.3 -0.5
v -4.47035e-08 1.4 0.1
v -4.47035e-08 1.4 -2.98023e-08
v -4.47035e-08 1.5 0.2
v -4.47035e-08 1.5 0.1
v -4.47035e-08 1.5 -0.2
v -4.47035e-08 1.5 -0.3
v -4.47035e-08 1.5 -0.4
v -4.47035e-08 1.5 -0.5
v -4.47035e-08 1.5 -0.6
v -4.47035e-08 1.6 0.1
v -4.47035e-08 1.6 -2.98023e-08
v -4.47035e-08 1.6 -0.1
v -4.47035e-08 1.7 -0.3
v -4.47035e-08 1.7 -0.4
v -4.47035e-08 1.7 -0.5
v -4.47035e-08 1.7 -0.6
v -4.47035e-08 1.7 -0.7
v -4.47035e-08 1.8 -0.1
v -4.47035e-08 1.8 -0.2
v -4.47035e-08 2 -0.2
v -4.47035e-08 2 -0.3
v -4.47035e-08 2.4 -0.4
v -4.47035e-08 2.4 -0.5
v -4.47035e-08 2.4 -0.6
v -4.47035e-08 2.4 -0.7
v -4.47035e-08 2.6 -0.2
v -4.47035e-08 2.6 -0.3
v -4.47035e-08 2.6 -0.4
v -4.47035e-08 2.6 -0.5
v -4.47035e-08 2.6 -0.6
v -4.47035e-08 2.7 -0.3
v -4.47035e-08 2.7 -0.4
v -4.47035e-08 2.7 -0.5
v -4.47035e-08 2.8 -0.1
v -4.47035e-08 2.8 -0.2
v -4.47035e-08 2.8 -0.3
v -4.47035e-08 2.8 -0.4
v -4.47035e-08 2.9 -0.1
v -4.47035e-08 2.9 -0.3
v -0.1 0.4 0.3
v -0.1 0.6 0.3
v -4.47035e-08 0.4 0.3
v -4.47035e-08 0.6 0.3
v -0.1 0.6 0.2
v -0.1 0.9 0.2
v -0.1 1 0.2
v -0.1 1.5 0.2
v -4.47035e-08 0.6 0.2
v -4.47035e-08 0.9 0.2
v -4.47035e-08 1 0.2
v -4.47035e-08 1.5 0.2
v -0.1 0.9 0.1
v -0.1 1 0.1
v -0.1 1.5 0.1
v -0.1 1.6 0.1
v -4.47035e-08 0.9 0.1
v -4.47035e-08 1 0.1
v -4.47035e-08 1.5 0.1
v -4.47035e-08 1.6 0.1
v -0.1 1.6 -0.1
v -0.1 1.8 -0.1
v -0.1 2.8 -0.1
v -0.1 2.9 -0.1
v -4.47035e-08 1.6 -0.1
v -4.47035e-08 1.8 -0.1
v -4.47035e-08 2.8 -0.1
v -4.47035e-08 2.9 -0.1
v -0.1 1.2 -0.2
v -0.1 1.3 -0.2
v -0.1 1.8 -0.2
v -0.1 2 -0.2
v -0.1 2.6 -0.2
v -0.1 2.8 -0.2
v -4.47035e-08 1.2 -0.2
v -4.47035e-08 1.3 -0.2
v -4.47035e-08 1.8 -0.2
v -4.47035e-08 2 -0.2
v -4.47035e-08 2.6 -0.2
v -4.47035e-08 2.8 -0.2
v -0.1 1.3 -0.3
v -0.1 1.5 -0.3
v -0.1 2 -0.3
v -0.1 2.6 -0.3
v -4.47035e-08 1.3 -0.3
v -4.47035e-08 1.5 -0.3
v -4.47035e-08 2 -0.3
v -4.47035e-08 2.6 -0.3
v -0.1 1.5 -0.4
v -0.1 1.7 -0.4
v -4.47035e-08 1.5 -0.4
v -4.47035e-08 1.7 -0.4
v -0.1 1.7 -0.5
v -0.1 2.4 -0.5
v -4.47035e-08 1.7 -0.5
v -4.47035e-08 2.4 -0.5
v -0.1 0.4 0.1
v -0.1 0.5 0.1
v -4.47035e-08 0.4 0.1
v -4.47035e-08 0.5 0.1
v -0.1 0.5 -2.98023e-08
v -0.1 0.7 -2.98023e-08
v -4.47035e-08 0.5 -2.98023e-08
v -4.47035e-08 0.7 -2.98023e-08
v -0.1 0.7 -0.1
v -0.1 0.9 -0.1
v -0.1 1.2 -0.1
v -0.1 1.3 -0.1
v -4.47035e-08 0.7 -0.1
v -4.47035e-08 0.9 -0.1
v -4.47035e-08 1.2 -0.1
v -4.47035e-08 1.3 -0.1
v -0.1 0.9 -0.2
v -0.1 1 -0.2
v -0.1 1.3 -0.2
v -0.1 1.5 -0.2
v -4.47035e-08 0.9 -0.2
v -4.47035e-08 1 -0.2
v -4.47035e-08 1.3 -0.2
v -4.47035e-08 1.5 -0.2
v -0.1 1 -0.3
v -0.1 1.2 -0.3
v -0.1 1.5 -0.3
v -0.1 1.7 -0.3
v -0.1 2.8 -0.3
v -0.1 2.9 -0.3
v -4.47035e-08 1 -0.3
v -4.47035e-08 1.2 -0.3
v -4.47035e-08 1.5 -0.3
v -4.47035e-08 1.7 -0.3
v -4.47035e-08 2.8 -0.3
v -4.47035e-08 2.9 -0.3
v -0.1 1.2 -0.4
v -0.1 1.3 -0.4
v -0.1 1.7 -0.4
v -0.1 2.4 -0.4
v -0.1 2.7 -0.4
v -0.1 2.8 -0.4
v -4.47035e-08 1.2 -0.4
v -4.47035e-08 1.3 -0.4
v -4.47035e-08 1.7 -0.4
v -4.47035e-08 2.4 -0.4
v -4.47035e-08 2.7 -0.4
v -4.47035e-08 2.8 -0.4
v -0.1 1.3 -0.5
v -0.1 1.5 -0.5
v -0.1 2.6 -0.5
v -0.1 2.7 -0.5
v -4.47035e-08 1.3 -0.5
v -4.47035e-08 1.5 -0.5
v -4.47035e-08 2.6 -0.5
v -4.47035e-08 2.7 -0.5
v -0.1 1.5 -0.6
v -0.1 1.7 -0.6
v -0.1 2.4 -0.6
v -0.1 2.6 -0.6
v -4.47035e-08 1.5 -0.6
v -4.47035e-08 1.7 -0.6
v -4.47035e-08 2.4 -0.6
v -4.47035e-08 2.6 -0.6
v -0.1 1.7 -0.7
v -0.1 2.4 -0.7
v -4.47035e-08 1.7 -0.7
v -4.47035e-08 2.4 -0.7
v -0.1 0.4 0.3
v -4.47035e-08 0.4 0.3
v -0.1 0.4 0.1
v -4.47035e-08 0.4 0.1
v -0.1 0.5 0.1
v -4.47035e-08 0.5 0.1
v -0.1 0.5 -2.98023e-08
v -4.47035e-08 0.5 -2.98023e-08
v -0.1 0.7 -2.98023e-08
v -4.47035e-08 0.7 -2.98023e-08
v -0.1 0.7 -0.1
v -4.47035e-08 0.7 -0.1
v -0.1 0.9 -0.1
v -4.47035e-08 0.9 -0.1
v -0.1 0.9 -0.2
v -4.47035e-08 0.9 -0.2
v -0.1 1 0.2
v -4.47035e-08 1 0.2
v -0.1 1 0.1
v -4.47035e-08 1 0.1
v -0.1 1 -0.2
v -4.47035e-08 1 -0.2
v -0.1 1 -0.3
v -4.47035e-08 1 -0.3
v -0.1 1.2 -0.3
v -4.47035e-08 1.2 -0.3
v -0.1 1.2 -0.4
v -4.47035e-08 1.2 -0.4
v -0.1 1.3 -0.1
v -4.47035e-08 1.3 -0.1
v -0.1 1.3 -0.2
v -4.47035e-08 1.3 -0.2
v -0.1 1.3 -0.4
v -4.47035e-08 1.3 -0.4
v -0.1 1.3 -0.5
v -4.47035e-08 1.3 -0.5
v -0.1 1.5 -0.2
v -4.47035e-08 1.5 -0.2
v -0.1 1.5 -0.3
v -4.47035e-08 1.5 -0.3
v -0.1 1.5 -0.5
v -4.47035e-08 1.5 -0.5
v -0.1 1.5 -0.6
v -4.47035e-08 1.5 -0.6
v -0.1 1.7 -0.3
v -4.47035e-08 1.7 -0.3
v -0.1 1.7 -0.4
v -4.47035e-08 1.7 -0.4
v -0.1 1.7 -0.6
v -4.47035e-08 1.7 -0.6
v -0.1 1.7 -0.7
v -4.47035e-08 1.7 -0.7
v -0.1 2.4 -0.4
v -4.47035e-08 2.4 -0.4
v -0.1 2.4 -0.5
v -4.47035e-08 2.4 -0.5
v -0.1 2.6 -0.2
v -4.47035e-08 2.6 -0.2
v -0.1 2.6 -0.3
v -4.47035e-08 2.6 -0.3
v -0.1 2.8 -0.1
v -4.47035e-08 2.8 -0.1
v -0.1 2.8 -0.2
v -4.47035e-08 2.8 -0.2
v -0.1 0.6 0.3
v -4.47035e-08 0.6 0.3
v -0.1 0.6 0.2
v -4.47035e-08 0.6 0.2
v -0.1 0.9 0.2
v -4.47035e-08 0.9 0.2
v -0.1 0.9 0.1
v -4.47035e-08 0.9 0.1
v -0.1 1.2 -0.1
v -4.47035e-08 1.2 -0.1
v -0.1 1.2 -0.2
v -4.47035e-08 1.2 -0.2
v -0.1 1.3 -0.2
v -4.47035e-08 1.3 -0.2
v -0.1 1.3 -0.3
v -4.47035e-08 1.3 -0.3
v -0.1 1.5 0.2
v -4.47035e-08 1.5 0.2
v -0.1 1.5 0.1
v -4.47035e-08 1.5 0.1
v -0.1 1.5 -0.3
v -4.47035e-08 1.5 -0.3
v -0.1 1.5 -0.4
v -4.47035e-08 1.5 -0.4
v -0.1 1.6 0.1
v -4.47035e-08 1.6 0.1
v -0.1 1.6 -2.98023e-08
v -4.47035e-08 1.6 -2.98023e-08
v -0.1 1.6 -0.1
v -4.47035e-08 1.6 -0.1
v -0.1 1.7 -0.4
v -4.47035e-08 1.7 -0.4
v -0.1 1.7 -0.5
v -4.47035e-08 1.7 -0.5
v -0.1 1.8 -0.1
v -4.47035e-08 1.8 -0.1
v -0.1 1.8 -0.2
v -4.47035e-08 1.8 -0.2
v -0.1 2 -0.2
v -4.47035e-08 2 -0.2
v -0.1 2 -0.3
v -4.47035e-08 2 -0.3
v -0.1 2.4 -0.6
v -4.47035e-08 2.4 -0.6
v -0.1 2.4 -0.7
v -4.47035e-08 2.4 -0.7
v -0.1 2.6 -0.5
v -4.47035e-08 2.6 -0.5
v -0.1 2.6 -0.6
v -4.47035e-08 2.6 -0.6
v -0.1 2.7 -0.4
v -4.47035e-08 2.7 -0.4
v -0.1 2.7 -0.5
v -4.47035e-08 2.7 -0.5
v -0.1 2.8 -0.3
v -4.47035e-08 2.8 -0.3
v -0.1 2.8 -0.4
v -4.47035e-08 2.8 -0.4
v -0.1 2.9 -0.1
v -4.47035e-08 2.9 -0.1
v -0.1 2.9 -0.3
v -4.47035e-08 2.9 -0.3

# faces
f 3/2/1 2/2/1 1/2/1
f 4/2/1 2/2/1 3/2/1
f 6/2/1 3/2/1 1/2/1
f 7/1/1 4/1/1 3/1/1
f 7/2/1 3/2/1 6/2/1
f 8/2/1 5/2/1 4/2/1
f 8/1/1 4/1/1 7/1/1
f 9/2/1 5/2/1 8/2/1
f 9/2/1 8/2/1 7/2/1
f 10/2/1 5/2/1 9/2/1
f 12/2/1 9/2/1 7/2/1
f 13/1/1 10/1/1 9/1/1
f 13/2/1 9/2/1 12/2/1
f 14/2/1 11/2/1 10/2/1
f 14/1/1 10/1/1 13/1/1
f 15/2/1 11/2/1 14/2/1
f 18/2/1 14/2/1 13/2/1
f 19/1/1 15/1/1 14/1/1
f 19/2/1 14/2/1 18/2/1
f 20/2/1 16/2/1 15/2/1
f 20/1/1 15/1/1 19/1/1
f 21/2/1 16/2/1 20/2/1
f 23/1/1 19/1/1 18/1/1
f 23/3/1 18/3/1 17/3/1
f 24/5/1 20/5/1 19/5/1
f 24/1/1 19/1/1 23/1/1
f 25/1/1 21/1/1 20/1/1
f 25/5/1 20/5/1 24/5/1
f 26/3/1 22/3/1 21/3/1
f 26/1/1 21/1/1 25/1/1
f 27/3/1 25/3/1 24/3/1
f 27/3/1 24/3/1 23/3/1
f 27/3/1 26/3/1 25/3/1
f 27/3/1 23/3/1 17/3/1
f 28/3/1 26/3/1 27/3/1
f 29/3/1 22/3/1 26/3/1
f 29/3/1 26/3/1 28/3/1
f 30/3/1 22/3/1 29/3/1
f 32/6/1 28/6/1 27/6/1
f 33/6/1 30/6/1 29/6/1
f 34/4/1 31/4/1 30/4/1
f 34/6/1 30/6/1 33/6/1
f 35/4/1 31/4/1 34/4/1
f 37/6/1 33/6/1 32/6/1
f 37/3/1 27/3/1 17/3/1
f 37/6/1 32/6/1 27/6/1
f 38/6/1 33/6/1 37/6/1
f 39/3/1 37/3/1 17/3/1
f 39/3/1 38/3/1 37/3/1
f 40/3/1 38/3/1 39/3/1
f 41/6/1 33/6/1 38/6/1
f 42/6/1 35/6/1 34/6/1
f 43/4/1 36/4/1 35/4/1
f 43/6/1 35/6/1 42/6/1
f 44/4/1 36/4/1 43/4/1
f 46/3/1 38/3/1 40/3/1
f 47/6/1 42/6/1 41/6/1
f 47/3/1 38/3/1 46/3/1
f 47/6/1 41/6/1 38/6/1
f 48/6/1 42/6/1 47/6/1
f 49/6/1 42/6/1 48/6/1
f 50/6/1 44/6/1 43/6/1
f 51/4/1 45/4/1 44/4/1
f 51/6/1 44/6/1 50/6/1
f 52/4/1 45/4/1 51/4/1
f 54/6/1 50/6/1 49/6/1
f 54/6/1 49/6/1 48/6/1
f 55/6/1 50/6/1 54/6/1
f 56/6/1 50/6/1 55/6/1
f 57/6/1 50/6/1 56/6/1
f 58/6/1 50/6/1 57/6/1
f 59/6/1 52/6/1 51/6/1
f 60/4/1 53/4/1 52/4/1
f 60/6/1 52/6/1 59/6/1
f 61/4/1 53/4/1 60/4/1
f 63/6/1 59/6/1 58/6/1
f 63/6/1 58/6/1 57/6/1
f 64/6/1 59/6/1 63/6/1
f 65/4/1 60/4/1 59/4/1
f 65/6/1 59/6/1 64/6/1
f 66/4/1 60/4/1 65/4/1
f 67/6/1 64/6/1 63/6/1
f 67/6/1 63/6/1 62/6/1
f 68/4/1 65/4/1 64/4/1
f 68/6/1 64/6/1 67/6/1
f 69/4/1 65/4/1 68/4/1
f 71/6/1 67/6/1 62/6/1
f 72/4/1 68/4/1 67/4/1
f 72/6/1 67/6/1 71/6/1
f 73/4/1 68/4/1 72/4/1
f 74/4/1 71/4/1 70/4/1
f 74/4/1 72/4/1 71/4/1
f 75/4/1 72/4/1 74/4/1
f 76/2/2 77/2/2 78/2/2
f 78/2/2 77/2/2 79/2/2
f 76/2/2 78/2/2 81/2/2
f 78/1/2 79/1/2 82/1/2
f 81/2/2 78/2/2 82/2/2
f 79/2/2 80/2/2 83/2/2
f 82/1/2 79/1/2 83/1/2
f 83/2/2 80/2/2 84/2/2
f 82/2/2 83/2/2 84/2/2
f 84/2/2 80/2/2 85/2/2
f 82/2/2 84/2/2 87/2/2
f 84/1/2 85/1/2 88/1/2
f 87/2/2 84/2/2 88/2/2
f 85/2/2 86/2/2 89/2/2
f 88/1/2 85/1/2 89/1/2
f 89/2/2 86/2/2 90/2/2
f 88/2/2 89/2/2 93/2/2
f 89/1/2 90/1/2 94/1/2
f 93/2/2 89/2/2 94/2/2
f 90/2/2 91/2/2 95/2/2
f 94/1/2 90/1/2 95/1/2
f 95/2/2 91/2/2 96/2/2
f 93/1/2 94/1/2 98/1/2
f 92/3/2 93/3/2 98/3/2
f 94/5/2 95/5/2 99/5/2
f 98/1/2 94/1/2 99/1/2
f 95/1/2 96/1/2 100/1/2
f 99/5/2 95/5/2 100/5/2
f 96/3/2 97/3/2 101/3/2
f 100/1/2 96/1/2 101/1/2
f 99/3/2 100/3/2 102/3/2
f 98/3/2 99/3/2 102/3/2
f 100/3/2 101/3/2 102/3/2
f 92/3/2 98/3/2 102/3/2
f 102/3/2 101/3/2 103/3/2
f 101/3/2 97/3/2 104/3/2
f 103/3/2 101/3/2 104/3/2
f 104/3/2 97/3/2 105/3/2
f 102/6/2 103/6/2 107/6/2
f 104/6/2 105/6/2 108/6/2
f 105/4/2 106/4/2 109/4/2
f 108/6/2 105/6/2 109/6/2
f 109/4/2 106/4/2 110/4/2
f 107/6/2 108/6/2 112/6/2
f 92/3/2 102/3/2 112/3/2
f 102/6/2 107/6/2 112/6/2
f 112/6/2 108/6/2 113/6/2
f 92/3/2 112/3/2 114/3/2
f 112/3/2 113/3/2 114/3/2
f 114/3/2 113/3/2 115/3/2
f 113/6/2 108/6/2 116/6/2
f 109/6/2 110/6/2 117/6/2
f 110/4/2 111/4/2 118/4/2
f 117/6/2 110/6/2 118/6/2
f 118/4/2 111/4/2 119/4/2
f 115/3/2 113/3/2 121/3/2
f 116/6/2 117/6/2 122/6/2
f 121/3/2 113/3/2 122/3/2
f 113/6/2 116/6/2 122/6/2
f 122/6/2 117/6/2 123/6/2
f 123/6/2 117/6/2 124/6/2
f 118/6/2 119/6/2 125/6/2
f 119/4/2 120/4/2 126/4/2
f 125/6/2 119/6/2 126/6/2
f 126/4/2 120/4/2 127/4/2
f 124/6/2 125/6/2 129/6/2
f 123/6/2 124/6/2 129/6/2
f 129/6/2 125/6/2 130/6/2
f 130/6/2 125/6/2 131/6/2
f 131/6/2 125/6/2 132/6/2
f 132/6/2 125/6/2 133/6/2
f 126/6/2 127/6/2 134/6/2
f 127/4/2 128/4/2 135/4/2
f 134/6/2 127/6/2 135/6/2
f 135/4/2 128/4/2 136/4/2
f 133/6/2 134/6/2 138/6/2
f 132/6/2 133/6/2 138/6/2
f 138/6/2 134/6/2 139/6/2
f 134/4/2 135/4/2 140/4/2
f 139/6/2 134/6/2 140/6/2
f 140/4/2 135/4/2 141/4/2
f 138/6/2 139/6/2 142/6/2
f 137/6/2 138/6/2 142/6/2
f 139/4/2 140/4/2 143/4/2
f 142/6/2 139/6/2 143/6/2
f 143/4/2 140/4/2 144/4/2
f 137/6/2 142/6/2 146/6/2
f 142/4/2 143/4/2 147/4/2
f 146/6/2 142/6/2 147/6/2
f 147/4/2 143/4/2 148/4/2
f 145/4/2 146/4/2 149/4/2
f 146/4/2 147/4/2 149/4/2
f 149/4/2 147/4/2 150/4/2
f 153/2/3 152/2/3 151/2/3
f 154/2/3 152/2/3 153/2/3
f 159/2/3 156/2/3 155/2/3
f 160/2/3 156/2/3 159/2/3
f 161/3/3 158/3/3 157/3/3
f 162/3/3 158/3/3 161/3/3
f 167/2/3 164/2/3 163/2/3
f 168/2/3 164/2/3 167/2/3
f 169/3/3 166/3/3 165/3/3
f 170/3/3 166/3/3 169/3/3
f 175/6/3 172/6/3 171/6/3
f 176/6/3 172/6/3 175/6/3
f 177/4/3 174/4/3 173/4/3
f 178/4/3 174/4/3 177/4/3
f 185/6/3 180/6/3 179/6/3
f 186/6/3 180/6/3 185/6/3
f 187/6/3 182/6/3 181/6/3
f 188/6/3 182/6/3 187/6/3
f 189/6/3 184/6/3 183/6/3
f 190/6/3 184/6/3 189/6/3
f 195/6/3 192/6/3 191/6/3
f 196/6/3 192/6/3 195/6/3
f 197/6/3 194/6/3 193/6/3
f 198/6/3 194/6/3 197/6/3
f 201/6/3 200/6/3 199/6/3
f 202/6/3 200/6/3 201/6/3
f 205/6/3 204/6/3 203/6/3
f 206/6/3 204/6/3 205/6/3
f 207/2/4 208/2/4 209/2/4
f 209/2/4 208/2/4 210/2/4
f 211/2/4 212/2/4 213/2/4
f 213/2/4 212/2/4 214/2/4
f 215/2/4 216/2/4 219/2/4
f 219/2/4 216/2/4 220/2/4
f 217/6/4 218/6/4 221/6/4
f 221/6/4 218/6/4 222/6/4
f 223/2/4 224/2/4 227/2/4
f 227/2/4 224/2/4 228/2/4
f 225/6/4 226/6/4 229/6/4
f 229/6/4 226/6/4 230/6/4
f 231/3/4 232/3/4 237/3/4
f 237/3/4 232/3/4 238/3/4
f 233/6/4 234/6/4 239/6/4
f 239/6/4 234/6/4 240/6/4
f 235/4/4 236/4/4 241/4/4
f 241/4/4 236/4/4 242/4/4
f 243/4/4 244/4/4 249/4/4
f 249/4/4 244/4/4 250/4/4
f 245/6/4 246/6/4 251/6/4
f 251/6/4 246/6/4 252/6/4
f 247/4/4 248/4/4 253/4/4
f 253/4/4 248/4/4 254/4/4
f 255/4/4 256/4/4 259/4/4
f 259/4/4 256/4/4 260/4/4
f 257/4/4 258/4/4 261/4/4
f 261/4/4 258/4/4 262/4/4
f 263/4/4 264/4/4 267/4/4
f 267/4/4 264/4/4 268/4/4
f 265/4/4 266/4/4 269/4/4
f 269/4/4 266/4/4 270/4/4
f 271/4/4 272/4/4 273/4/4
f 273/4/4 272/4/4 274/4/4
f 277/2/5 276/2/5 275/2/5
f 278/2/5 276/2/5 277/2/5
f 281/2/5 280/2/5 279/2/5
f 282/2/5 280/2/5 281/2/5
f 285/2/5 284/2/5 283/2/5
f 286/2/5 284/2/5 285/2/5
f 289/2/5 288/2/5 287/2/5
f 290/2/5 288/2/5 289/2/5
f 293/3/5 292/3/5 291/3/5
f 294/3/5 292/3/5 293/3/5
f 297/3/5 296/3/5 295/3/5
f 298/3/5 296/3/5 297/3/5
f 301/4/5 300/4/5 299/4/5
f 302/4/5 300/4/5 301/4/5
f 305/6/5 304/6/5 303/6/5
f 306/6/5 304/6/5 305/6/5
f 309/4/5 308/4/5 307/4/5
f 310/4/5 308/4/5 309/4/5
f 313/6/5 312/6/5 311/6/5
f 314/6/5 312/6/5 313/6/5
f 317/4/5 316/4/5 315/4/5
f 318/4/5 316/4/5 317/4/5
f 321/6/5 320/6/5 319/6/5
f 322/6/5 320/6/5 321/6/5
f 325/4/5 324/4/5 323/4/5
f 326/4/5 324/4/5 325/4/5
f 329/6/5 328/6/5 327/6/5
f 330/6/5 328/6/5 329/6/5
f 333/6/5 332/6/5 331/6/5
f 334/6/5 332/6/5 333/6/5
f 337/4/5 336/4/5 335/4/5
f 338/4/5 336/4/5 337/4/5
f 339/2/6 340/2/6 341/2/6
f 341/2/6 340/2/6 342/2/6
f 343/2/6 344/2/6 345/2/6
f 345/2/6 344/2/6 346/2/6
f 347/3/6 348/3/6 349/3/6
f 349/3/6 348/3/6 350/3/6
f 351/6/6 352/6/6 353/6/6
f 353/6/6 352/6/6 354/6/6
f 355/3/6 356/3/6 357/3/6
f 357/3/6 356/3/6 358/3/6
f 359/6/6 360/6/6 361/6/6
f 361/6/6 360/6/6 362/6/6
f 363/3/6 364/3/6 365/3/6
f 365/3/6 364/3/6 366/3/6
f 365/6/6 366/6/6 367/6/6
f 367/6/6 366/6/6 368/6/6
f 369/6/6 370/6/6 371/6/6
f 371/6/6 370/6/6 372/6/6
f 373/6/6 374/6/6 375/6/6
f 375/6/6 374/6/6 376/6/6
f 377/6/6 378/6/6 379/6/6
f 379/6/6 378/6/6 380/6/6
f 381/4/6 382/4/6 383/4/6
f 383/4/6 382/4/6 384/4/6
f 385/4/6 386/4/6 387/4/6
f 387/4/6 386/4/6 388/4/6
f 389/4/6 390/4/6 391/4/6
f 391/4/6 390/4/6 392/4/6
f 393/4/6 394/4/6 395/4/6
f 395/4/6 394/4/6 396/4/6
f 397/4/6 398/4/6 399/4/6
f 399/4/6 398/4/6 400/4/6
