# MagicaVoxel @ Ephtracy

# group
o 

# material
mtllib Claws_lvl2.mtl
usemtl palette

# normals
vn -1 0 0
vn 1 0 0
vn 0 0 1
vn 0 0 -1
vn 0 -1 0
vn 0 1 0

# texcoords
vt 0.310547 0.5
vt 0.337891 0.5
vt 0.341797 0.5
vt 0.970703 0.5
vt 0.974609 0.5
vt 0.978516 0.5
vt 0.982422 0.5

# verts
v -2.23517e-08 0.5 0
v -2.23517e-08 0.5 -0.1
v -2.23517e-08 0.6 0.2
v -2.23517e-08 0.6 0
v -2.23517e-08 0.6 -0.1
v -2.23517e-08 0.6 -0.3
v -2.23517e-08 0.7 0.1
v -2.23517e-08 0.7 0
v -2.23517e-08 0.7 -0.1
v -2.23517e-08 0.7 -0.2
v -2.23517e-08 0.8 0.3
v -2.23517e-08 0.8 0.2
v -2.23517e-08 0.8 0.1
v -2.23517e-08 0.8 0
v -2.23517e-08 0.8 -0.1
v -2.23517e-08 0.8 -0.2
v -2.23517e-08 0.8 -0.3
v -2.23517e-08 0.8 -0.4
v -2.23517e-08 0.9 0.2
v -2.23517e-08 0.9 0.1
v -2.23517e-08 0.9 0
v -2.23517e-08 0.9 -0.1
v -2.23517e-08 0.9 -0.2
v -2.23517e-08 0.9 -0.3
v -2.23517e-08 1.1 0.2
v -2.23517e-08 1.1 0
v -2.23517e-08 1.1 -0.1
v -2.23517e-08 1.1 -0.3
v -2.23517e-08 1.2 0.3
v -2.23517e-08 1.2 -0.4
v -2.23517e-08 1.3 0.3
v -2.23517e-08 1.3 -0.4
v 0.1 0.4 0.2
v 0.1 0.4 -0.3
v 0.1 0.5 0.3
v 0.1 0.5 0.2
v 0.1 0.5 0
v 0.1 0.5 -0.1
v 0.1 0.5 -0.3
v 0.1 0.5 -0.4
v 0.1 0.6 0.2
v 0.1 0.6 0
v 0.1 0.6 -0.1
v 0.1 0.6 -0.3
v 0.1 0.8 0.4
v 0.1 0.8 0.3
v 0.1 0.8 0.2
v 0.1 0.8 -0.3
v 0.1 0.8 -0.4
v 0.1 0.8 -0.5
v 0.1 0.9 0.4
v 0.1 0.9 0.3
v 0.1 1.2 0.3
v 0.1 1.2 -0.4
v 0.1 1.3 0.4
v 0.1 1.3 0.3
v 0.1 1.3 0.2
v 0.1 1.3 0.1
v 0.1 1.3 0
v 0.1 1.3 -0.1
v 0.1 1.3 -0.2
v 0.1 1.3 -0.3
v 0.1 1.3 -0.4
v 0.1 1.3 -0.5
v 0.1 1.7 0.3
v 0.1 1.7 0.2
v 0.1 1.7 0.1
v 0.1 1.7 0
v 0.1 1.7 -0.1
v 0.1 1.7 -0.2
v 0.1 1.7 -0.3
v 0.1 1.7 -0.4
v 0.2 1.7 0.3
v 0.2 1.7 0.2
v 0.2 1.7 0.1
v 0.2 1.7 0
v 0.2 1.7 -0.1
v 0.2 1.7 -0.2
v 0.2 1.7 -0.3
v 0.2 1.7 -0.4
v 0.2 2 0.3
v 0.2 2 0.2
v 0.2 2 0.1
v 0.2 2 0
v 0.2 2 -0.1
v 0.2 2 -0.2
v 0.2 2 -0.3
v 0.2 2 -0.4
v 0.3 2 0.3
v 0.3 2 0.2
v 0.3 2 0.1
v 0.3 2 0
v 0.3 2 -0.1
v 0.3 2 -0.2
v 0.3 2 -0.3
v 0.3 2 -0.4
v 0.3 2.2 0.3
v 0.3 2.2 0.2
v 0.3 2.2 0.1
v 0.3 2.2 0
v 0.3 2.2 -0.1
v 0.3 2.2 -0.2
v 0.3 2.2 -0.3
v 0.3 2.2 -0.4
v 0.4 2.2 0.3
v 0.4 2.2 0.2
v 0.4 2.2 0.1
v 0.4 2.2 0
v 0.4 2.2 -0.1
v 0.4 2.2 -0.2
v 0.4 2.2 -0.3
v 0.4 2.2 -0.4
v 0.4 2.3 0.3
v 0.4 2.3 0.2
v 0.4 2.3 0.1
v 0.4 2.3 0
v 0.4 2.3 -0.1
v 0.4 2.3 -0.2
v 0.4 2.3 -0.3
v 0.4 2.3 -0.4
v 0.2 0.4 0.2
v 0.2 0.4 -0.3
v 0.2 0.5 0.3
v 0.2 0.5 0.2
v 0.2 0.5 0
v 0.2 0.5 -0.1
v 0.2 0.5 -0.3
v 0.2 0.5 -0.4
v 0.2 0.6 0.2
v 0.2 0.6 0
v 0.2 0.6 -0.1
v 0.2 0.6 -0.3
v 0.2 0.8 0.4
v 0.2 0.8 0.3
v 0.2 0.8 0.2
v 0.2 0.8 -0.3
v 0.2 0.8 -0.4
v 0.2 0.8 -0.5
v 0.2 0.9 0.4
v 0.2 0.9 0.3
v 0.2 1.2 0.3
v 0.2 1.2 -0.4
v 0.2 1.3 0.4
v 0.2 1.3 0.3
v 0.2 1.3 0.2
v 0.2 1.3 0.1
v 0.2 1.3 0
v 0.2 1.3 -0.1
v 0.2 1.3 -0.2
v 0.2 1.3 -0.3
v 0.2 1.3 -0.4
v 0.2 1.3 -0.5
v 0.2 1.6 0.3
v 0.2 1.6 0.2
v 0.2 1.7 0.1
v 0.2 1.7 0
v 0.2 1.7 -0.1
v 0.2 1.7 -0.2
v 0.2 1.7 -0.3
v 0.2 1.7 -0.4
v 0.3 0.5 0
v 0.3 0.5 -0.1
v 0.3 0.6 0.2
v 0.3 0.6 0
v 0.3 0.6 -0.1
v 0.3 0.6 -0.3
v 0.3 0.7 0.1
v 0.3 0.7 0
v 0.3 0.7 -0.1
v 0.3 0.7 -0.2
v 0.3 0.8 0.3
v 0.3 0.8 0.2
v 0.3 0.8 -0.3
v 0.3 0.8 -0.4
v 0.3 0.9 0.2
v 0.3 0.9 0.1
v 0.3 0.9 0
v 0.3 0.9 -0.1
v 0.3 0.9 -0.2
v 0.3 0.9 -0.3
v 0.3 1.1 0.2
v 0.3 1.1 0
v 0.3 1.1 -0.1
v 0.3 1.1 -0.3
v 0.3 1.2 0.3
v 0.3 1.2 -0.4
v 0.3 1.3 0.3
v 0.3 1.3 -0.4
v 0.3 1.6 0.3
v 0.3 1.6 0.2
v 0.3 1.7 0.3
v 0.3 1.7 0.2
v 0.3 1.7 0.1
v 0.3 1.7 0
v 0.3 1.7 -0.1
v 0.3 1.7 -0.2
v 0.3 1.7 -0.3
v 0.3 1.7 -0.4
v 0.3 2 0.3
v 0.3 2 0.2
v 0.3 2 0.1
v 0.3 2 0
v 0.3 2 -0.1
v 0.3 2 -0.2
v 0.3 2 -0.3
v 0.3 2 -0.4
v 0.4 2 0.3
v 0.4 2 0.2
v 0.4 2 0.1
v 0.4 2 0
v 0.4 2 -0.1
v 0.4 2 -0.2
v 0.4 2 -0.3
v 0.4 2 -0.4
v 0.4 2.2 0.3
v 0.4 2.2 0.2
v 0.4 2.2 0.1
v 0.4 2.2 0
v 0.4 2.2 -0.1
v 0.4 2.2 -0.2
v 0.4 2.2 -0.3
v 0.4 2.2 -0.4
v 0.5 2.2 0.3
v 0.5 2.2 0.2
v 0.5 2.2 0.1
v 0.5 2.2 0
v 0.5 2.2 -0.1
v 0.5 2.2 -0.2
v 0.5 2.2 -0.3
v 0.5 2.2 -0.4
v 0.5 2.3 0.3
v 0.5 2.3 0.2
v 0.5 2.3 0.1
v 0.5 2.3 0
v 0.5 2.3 -0.1
v 0.5 2.3 -0.2
v 0.5 2.3 -0.3
v 0.5 2.3 -0.4
v 0.1 0.8 0.4
v 0.1 0.9 0.4
v 0.1 1.3 0.4
v 0.2 0.8 0.4
v 0.2 0.9 0.4
v 0.2 1.3 0.4
v -2.23517e-08 0.8 0.3
v -2.23517e-08 1.2 0.3
v -2.23517e-08 1.3 0.3
v 0.1 0.5 0.3
v 0.1 0.8 0.3
v 0.1 0.9 0.3
v 0.1 1.2 0.3
v 0.1 1.3 0.3
v 0.1 1.7 0.3
v 0.2 0.5 0.3
v 0.2 0.8 0.3
v 0.2 0.9 0.3
v 0.2 1.2 0.3
v 0.2 1.3 0.3
v 0.2 1.6 0.3
v 0.2 1.7 0.3
v 0.2 2 0.3
v 0.3 0.8 0.3
v 0.3 1.2 0.3
v 0.3 1.3 0.3
v 0.3 1.6 0.3
v 0.3 1.7 0.3
v 0.3 2 0.3
v 0.3 2.2 0.3
v 0.4 2 0.3
v 0.4 2.2 0.3
v 0.4 2.3 0.3
v 0.5 2.2 0.3
v 0.5 2.3 0.3
v -2.23517e-08 0.6 0.2
v -2.23517e-08 0.8 0.2
v 0.1 0.4 0.2
v 0.1 0.5 0.2
v 0.1 0.6 0.2
v 0.1 0.8 0.2
v 0.2 0.4 0.2
v 0.2 0.5 0.2
v 0.2 0.6 0.2
v 0.2 0.8 0.2
v 0.3 0.6 0.2
v 0.3 0.8 0.2
v 0.1 1.3 0.1
v 0.1 1.7 0.1
v 0.2 1.3 0.1
v 0.2 1.7 0.1
v 0.2 2 0.1
v 0.3 1.7 0.1
v 0.3 2 0.1
v 0.3 2.2 0.1
v 0.4 2 0.1
v 0.4 2.2 0.1
v 0.4 2.3 0.1
v 0.5 2.2 0.1
v 0.5 2.3 0.1
v -2.23517e-08 0.5 0
v -2.23517e-08 0.6 0
v 0.1 0.5 0
v 0.1 0.6 0
v 0.2 0.5 0
v 0.2 0.6 0
v 0.3 0.5 0
v 0.3 0.6 0
v 0.1 1.3 -0.1
v 0.1 1.7 -0.1
v 0.2 1.3 -0.1
v 0.2 1.7 -0.1
v 0.2 2 -0.1
v 0.3 1.7 -0.1
v 0.3 2 -0.1
v 0.3 2.2 -0.1
v 0.4 2 -0.1
v 0.4 2.2 -0.1
v 0.4 2.3 -0.1
v 0.5 2.2 -0.1
v 0.5 2.3 -0.1
v 0.1 1.3 -0.3
v 0.1 1.7 -0.3
v 0.2 1.3 -0.3
v 0.2 1.7 -0.3
v 0.2 2 -0.3
v 0.3 1.7 -0.3
v 0.3 2 -0.3
v 0.3 2.2 -0.3
v 0.4 2 -0.3
v 0.4 2.2 -0.3
v 0.4 2.3 -0.3
v 0.5 2.2 -0.3
v 0.5 2.3 -0.3
v 0.1 1.3 0.2
v 0.1 1.7 0.2
v 0.2 1.3 0.2
v 0.2 1.6 0.2
v 0.2 1.7 0.2
v 0.2 2 0.2
v 0.3 1.6 0.2
v 0.3 1.7 0.2
v 0.3 2 0.2
v 0.3 2.2 0.2
v 0.4 2 0.2
v 0.4 2.2 0.2
v 0.4 2.3 0.2
v 0.5 2.2 0.2
v 0.5 2.3 0.2
v 0.1 1.3 0
v 0.1 1.7 0
v 0.2 1.3 0
v 0.2 1.7 0
v 0.2 2 0
v 0.3 1.7 0
v 0.3 2 0
v 0.3 2.2 0
v 0.4 2 0
v 0.4 2.2 0
v 0.4 2.3 0
v 0.5 2.2 0
v 0.5 2.3 0
v -2.23517e-08 0.5 -0.1
v -2.23517e-08 0.6 -0.1
v 0.1 0.5 -0.1
v 0.1 0.6 -0.1
v 0.2 0.5 -0.1
v 0.2 0.6 -0.1
v 0.3 0.5 -0.1
v 0.3 0.6 -0.1
v 0.1 1.3 -0.2
v 0.1 1.7 -0.2
v 0.2 1.3 -0.2
v 0.2 1.7 -0.2
v 0.2 2 -0.2
v 0.3 1.7 -0.2
v 0.3 2 -0.2
v 0.3 2.2 -0.2
v 0.4 2 -0.2
v 0.4 2.2 -0.2
v 0.4 2.3 -0.2
v 0.5 2.2 -0.2
v 0.5 2.3 -0.2
v -2.23517e-08 0.6 -0.3
v -2.23517e-08 0.8 -0.3
v 0.1 0.4 -0.3
v 0.1 0.5 -0.3
v 0.1 0.6 -0.3
v 0.1 0.8 -0.3
v 0.2 0.4 -0.3
v 0.2 0.5 -0.3
v 0.2 0.6 -0.3
v 0.2 0.8 -0.3
v 0.3 0.6 -0.3
v 0.3 0.8 -0.3
v -2.23517e-08 0.8 -0.4
v -2.23517e-08 1.2 -0.4
v -2.23517e-08 1.3 -0.4
v 0.1 0.5 -0.4
v 0.1 0.8 -0.4
v 0.1 1.2 -0.4
v 0.1 1.3 -0.4
v 0.1 1.7 -0.4
v 0.2 0.5 -0.4
v 0.2 0.8 -0.4
v 0.2 1.2 -0.4
v 0.2 1.3 -0.4
v 0.2 1.7 -0.4
v 0.2 2 -0.4
v 0.3 0.8 -0.4
v 0.3 1.2 -0.4
v 0.3 1.3 -0.4
v 0.3 1.7 -0.4
v 0.3 2 -0.4
v 0.3 2.2 -0.4
v 0.4 2 -0.4
v 0.4 2.2 -0.4
v 0.4 2.3 -0.4
v 0.5 2.2 -0.4
v 0.5 2.3 -0.4
v 0.1 0.8 -0.5
v 0.1 1.3 -0.5
v 0.2 0.8 -0.5
v 0.2 1.3 -0.5
v 0.1 0.4 0.2
v 0.2 0.4 0.2
v 0.1 0.4 -0.3
v 0.2 0.4 -0.3
v 0.1 0.5 0.3
v 0.2 0.5 0.3
v 0.1 0.5 0.2
v 0.2 0.5 0.2
v -2.23517e-08 0.5 0
v 0.1 0.5 0
v 0.2 0.5 0
v 0.3 0.5 0
v -2.23517e-08 0.5 -0.1
v 0.1 0.5 -0.1
v 0.2 0.5 -0.1
v 0.3 0.5 -0.1
v 0.1 0.5 -0.3
v 0.2 0.5 -0.3
v 0.1 0.5 -0.4
v 0.2 0.5 -0.4
v -2.23517e-08 0.6 0.2
v 0.1 0.6 0.2
v 0.2 0.6 0.2
v 0.3 0.6 0.2
v -2.23517e-08 0.6 0
v 0.1 0.6 0
v 0.2 0.6 0
v 0.3 0.6 0
v -2.23517e-08 0.6 -0.1
v 0.1 0.6 -0.1
v 0.2 0.6 -0.1
v 0.3 0.6 -0.1
v -2.23517e-08 0.6 -0.3
v 0.1 0.6 -0.3
v 0.2 0.6 -0.3
v 0.3 0.6 -0.3
v 0.1 0.8 0.4
v 0.2 0.8 0.4
v -2.23517e-08 0.8 0.3
v 0.1 0.8 0.3
v 0.2 0.8 0.3
v 0.3 0.8 0.3
v -2.23517e-08 0.8 0.2
v 0.1 0.8 0.2
v 0.2 0.8 0.2
v 0.3 0.8 0.2
v -2.23517e-08 0.8 -0.3
v 0.1 0.8 -0.3
v 0.2 0.8 -0.3
v 0.3 0.8 -0.3
v -2.23517e-08 0.8 -0.4
v 0.1 0.8 -0.4
v 0.2 0.8 -0.4
v 0.3 0.8 -0.4
v 0.1 0.8 -0.5
v 0.2 0.8 -0.5
v 0.2 1.6 0.3
v 0.3 1.6 0.3
v 0.2 1.6 0.2
v 0.3 1.6 0.2
v 0.2 1.7 0.1
v 0.3 1.7 0.1
v 0.2 1.7 0
v 0.3 1.7 0
v 0.2 1.7 -0.1
v 0.3 1.7 -0.1
v 0.2 1.7 -0.2
v 0.3 1.7 -0.2
v 0.2 1.7 -0.3
v 0.3 1.7 -0.3
v 0.2 1.7 -0.4
v 0.3 1.7 -0.4
v 0.3 2 0.3
v 0.4 2 0.3
v 0.3 2 0.2
v 0.4 2 0.2
v 0.3 2 0.1
v 0.4 2 0.1
v 0.3 2 0
v 0.4 2 0
v 0.3 2 -0.1
v 0.4 2 -0.1
v 0.3 2 -0.2
v 0.4 2 -0.2
v 0.3 2 -0.3
v 0.4 2 -0.3
v 0.3 2 -0.4
v 0.4 2 -0.4
v 0.4 2.2 0.3
v 0.5 2.2 0.3
v 0.4 2.2 0.2
v 0.5 2.2 0.2
v 0.4 2.2 0.1
v 0.5 2.2 0.1
v 0.4 2.2 0
v 0.5 2.2 0
v 0.4 2.2 -0.1
v 0.5 2.2 -0.1
v 0.4 2.2 -0.2
v 0.5 2.2 -0.2
v 0.4 2.2 -0.3
v 0.5 2.2 -0.3
v 0.4 2.2 -0.4
v 0.5 2.2 -0.4
v 0.1 1.3 0.4
v 0.2 1.3 0.4
v -2.23517e-08 1.3 0.3
v 0.1 1.3 0.3
v 0.2 1.3 0.3
v 0.3 1.3 0.3
v 0.1 1.3 0.2
v 0.2 1.3 0.2
v 0.1 1.3 0.1
v 0.2 1.3 0.1
v 0.1 1.3 0
v 0.2 1.3 0
v 0.1 1.3 -0.1
v 0.2 1.3 -0.1
v 0.1 1.3 -0.2
v 0.2 1.3 -0.2
v 0.1 1.3 -0.3
v 0.2 1.3 -0.3
v -2.23517e-08 1.3 -0.4
v 0.1 1.3 -0.4
v 0.2 1.3 -0.4
v 0.3 1.3 -0.4
v 0.1 1.3 -0.5
v 0.2 1.3 -0.5
v 0.1 1.7 0.3
v 0.2 1.7 0.3
v 0.1 1.7 0.2
v 0.2 1.7 0.2
v 0.1 1.7 0.1
v 0.2 1.7 0.1
v 0.1 1.7 0
v 0.2 1.7 0
v 0.1 1.7 -0.1
v 0.2 1.7 -0.1
v 0.1 1.7 -0.2
v 0.2 1.7 -0.2
v 0.1 1.7 -0.3
v 0.2 1.7 -0.3
v 0.1 1.7 -0.4
v 0.2 1.7 -0.4
v 0.2 2 0.3
v 0.3 2 0.3
v 0.2 2 0.2
v 0.3 2 0.2
v 0.2 2 0.1
v 0.3 2 0.1
v 0.2 2 0
v 0.3 2 0
v 0.2 2 -0.1
v 0.3 2 -0.1
v 0.2 2 -0.2
v 0.3 2 -0.2
v 0.2 2 -0.3
v 0.3 2 -0.3
v 0.2 2 -0.4
v 0.3 2 -0.4
v 0.3 2.2 0.3
v 0.4 2.2 0.3
v 0.3 2.2 0.2
v 0.4 2.2 0.2
v 0.3 2.2 0.1
v 0.4 2.2 0.1
v 0.3 2.2 0
v 0.4 2.2 0
v 0.3 2.2 -0.1
v 0.4 2.2 -0.1
v 0.3 2.2 -0.2
v 0.4 2.2 -0.2
v 0.3 2.2 -0.3
v 0.4 2.2 -0.3
v 0.3 2.2 -0.4
v 0.4 2.2 -0.4
v 0.4 2.3 0.3
v 0.5 2.3 0.3
v 0.4 2.3 0.2
v 0.5 2.3 0.2
v 0.4 2.3 0.1
v 0.5 2.3 0.1
v 0.4 2.3 0
v 0.5 2.3 0
v 0.4 2.3 -0.1
v 0.5 2.3 -0.1
v 0.4 2.3 -0.2
v 0.5 2.3 -0.2
v 0.4 2.3 -0.3
v 0.5 2.3 -0.3
v 0.4 2.3 -0.4
v 0.5 2.3 -0.4

# faces
f 4/1/1 2/1/1 1/1/1
f 5/1/1 2/1/1 4/1/1
f 7/1/1 4/1/1 3/1/1
f 8/3/1 5/3/1 4/3/1
f 8/1/1 4/1/1 7/1/1
f 9/1/1 6/1/1 5/1/1
f 9/3/1 5/3/1 8/3/1
f 10/1/1 6/1/1 9/1/1
f 12/1/1 7/1/1 3/1/1
f 13/3/1 8/3/1 7/3/1
f 13/3/1 9/3/1 8/3/1
f 13/1/1 7/1/1 12/1/1
f 13/3/1 10/3/1 9/3/1
f 14/3/1 10/3/1 13/3/1
f 15/3/1 10/3/1 14/3/1
f 16/1/1 6/1/1 10/1/1
f 16/3/1 10/3/1 15/3/1
f 17/1/1 6/1/1 16/1/1
f 19/1/1 12/1/1 11/1/1
f 19/1/1 13/1/1 12/1/1
f 20/4/1 14/4/1 13/4/1
f 20/1/1 13/1/1 19/1/1
f 21/3/1 15/3/1 14/3/1
f 21/4/1 14/4/1 20/4/1
f 22/4/1 16/4/1 15/4/1
f 22/3/1 15/3/1 21/3/1
f 23/1/1 18/1/1 17/1/1
f 23/4/1 16/4/1 22/4/1
f 23/1/1 17/1/1 16/1/1
f 24/1/1 18/1/1 23/1/1
f 25/2/1 20/2/1 19/2/1
f 25/2/1 21/2/1 20/2/1
f 25/1/1 19/1/1 11/1/1
f 26/1/1 22/1/1 21/1/1
f 26/2/1 21/2/1 25/2/1
f 27/2/1 24/2/1 23/2/1
f 27/1/1 22/1/1 26/1/1
f 27/2/1 23/2/1 22/2/1
f 28/1/1 18/1/1 24/1/1
f 28/2/1 24/2/1 27/2/1
f 29/1/1 25/1/1 11/1/1
f 29/1/1 27/1/1 26/1/1
f 29/1/1 28/1/1 27/1/1
f 29/1/1 26/1/1 25/1/1
f 30/1/1 18/1/1 28/1/1
f 30/1/1 28/1/1 29/1/1
f 31/2/1 30/2/1 29/2/1
f 32/2/1 30/2/1 31/2/1
f 36/2/1 34/2/1 33/2/1
f 37/2/1 34/2/1 36/2/1
f 38/2/1 34/2/1 37/2/1
f 39/2/1 34/2/1 38/2/1
f 41/2/1 36/2/1 35/2/1
f 41/2/1 37/2/1 36/2/1
f 42/2/1 37/2/1 41/2/1
f 43/2/1 40/2/1 39/2/1
f 43/2/1 39/2/1 38/2/1
f 44/2/1 40/2/1 43/2/1
f 46/2/1 41/2/1 35/2/1
f 47/2/1 41/2/1 46/2/1
f 48/2/1 40/2/1 44/2/1
f 49/2/1 40/2/1 48/2/1
f 51/2/1 46/2/1 45/2/1
f 52/2/1 46/2/1 51/2/1
f 53/1/1 52/1/1 51/1/1
f 54/1/1 50/1/1 49/1/1
f 55/1/1 53/1/1 51/1/1
f 56/1/1 53/1/1 55/1/1
f 63/1/1 50/1/1 54/1/1
f 64/1/1 50/1/1 63/1/1
f 65/6/1 57/6/1 56/6/1
f 66/6/1 57/6/1 65/6/1
f 67/6/1 59/6/1 58/6/1
f 68/6/1 59/6/1 67/6/1
f 69/6/1 61/6/1 60/6/1
f 70/6/1 61/6/1 69/6/1
f 71/6/1 63/6/1 62/6/1
f 72/6/1 63/6/1 71/6/1
f 81/6/1 74/6/1 73/6/1
f 82/6/1 74/6/1 81/6/1
f 83/6/1 76/6/1 75/6/1
f 84/6/1 76/6/1 83/6/1
f 85/6/1 78/6/1 77/6/1
f 86/6/1 78/6/1 85/6/1
f 87/6/1 80/6/1 79/6/1
f 88/6/1 80/6/1 87/6/1
f 97/5/1 90/5/1 89/5/1
f 98/5/1 90/5/1 97/5/1
f 99/5/1 92/5/1 91/5/1
f 100/5/1 92/5/1 99/5/1
f 101/5/1 94/5/1 93/5/1
f 102/5/1 94/5/1 101/5/1
f 103/5/1 96/5/1 95/5/1
f 104/5/1 96/5/1 103/5/1
f 113/4/1 106/4/1 105/4/1
f 114/4/1 106/4/1 113/4/1
f 115/4/1 108/4/1 107/4/1
f 116/4/1 108/4/1 115/4/1
f 117/4/1 110/4/1 109/4/1
f 118/4/1 110/4/1 117/4/1
f 119/4/1 112/4/1 111/4/1
f 120/4/1 112/4/1 119/4/1
f 121/2/2 122/2/2 124/2/2
f 124/2/2 122/2/2 125/2/2
f 125/2/2 122/2/2 126/2/2
f 126/2/2 122/2/2 127/2/2
f 123/2/2 124/2/2 129/2/2
f 124/2/2 125/2/2 129/2/2
f 129/2/2 125/2/2 130/2/2
f 127/2/2 128/2/2 131/2/2
f 126/2/2 127/2/2 131/2/2
f 131/2/2 128/2/2 132/2/2
f 123/2/2 129/2/2 134/2/2
f 134/2/2 129/2/2 135/2/2
f 132/2/2 128/2/2 136/2/2
f 136/2/2 128/2/2 137/2/2
f 133/2/2 134/2/2 139/2/2
f 139/2/2 134/2/2 140/2/2
f 139/1/2 140/1/2 141/1/2
f 137/1/2 138/1/2 142/1/2
f 139/1/2 141/1/2 143/1/2
f 143/1/2 141/1/2 144/1/2
f 142/1/2 138/1/2 151/1/2
f 151/1/2 138/1/2 152/1/2
f 144/6/2 145/6/2 153/6/2
f 153/6/2 145/6/2 154/6/2
f 146/6/2 147/6/2 155/6/2
f 155/6/2 147/6/2 156/6/2
f 148/6/2 149/6/2 157/6/2
f 157/6/2 149/6/2 158/6/2
f 150/6/2 151/6/2 159/6/2
f 159/6/2 151/6/2 160/6/2
f 161/1/2 162/1/2 164/1/2
f 164/1/2 162/1/2 165/1/2
f 163/1/2 164/1/2 167/1/2
f 164/3/2 165/3/2 168/3/2
f 167/1/2 164/1/2 168/1/2
f 165/1/2 166/1/2 169/1/2
f 168/3/2 165/3/2 169/3/2
f 169/1/2 166/1/2 170/1/2
f 163/1/2 167/1/2 172/1/2
f 170/1/2 166/1/2 173/1/2
f 171/1/2 172/1/2 175/1/2
f 172/1/2 167/1/2 175/1/2
f 167/3/2 168/3/2 176/3/2
f 175/1/2 167/1/2 176/1/2
f 168/3/2 169/3/2 176/3/2
f 169/3/2 170/3/2 176/3/2
f 176/3/2 170/3/2 177/3/2
f 177/3/2 170/3/2 178/3/2
f 173/1/2 174/1/2 179/1/2
f 178/3/2 170/3/2 179/3/2
f 170/1/2 173/1/2 179/1/2
f 179/1/2 174/1/2 180/1/2
f 171/1/2 175/1/2 181/1/2
f 176/3/2 177/3/2 181/3/2
f 175/3/2 176/3/2 181/3/2
f 177/1/2 178/1/2 182/1/2
f 181/3/2 177/3/2 182/3/2
f 179/3/2 180/3/2 183/3/2
f 182/1/2 178/1/2 183/1/2
f 178/3/2 179/3/2 183/3/2
f 180/1/2 174/1/2 184/1/2
f 183/3/2 180/3/2 184/3/2
f 182/1/2 183/1/2 185/1/2
f 171/1/2 181/1/2 185/1/2
f 183/1/2 184/1/2 185/1/2
f 181/1/2 182/1/2 185/1/2
f 184/1/2 174/1/2 186/1/2
f 185/1/2 184/1/2 186/1/2
f 185/2/2 186/2/2 187/2/2
f 187/2/2 186/2/2 188/2/2
f 189/7/2 190/7/2 191/7/2
f 191/7/2 190/7/2 192/7/2
f 191/6/2 192/6/2 199/6/2
f 199/6/2 192/6/2 200/6/2
f 193/6/2 194/6/2 201/6/2
f 201/6/2 194/6/2 202/6/2
f 195/6/2 196/6/2 203/6/2
f 203/6/2 196/6/2 204/6/2
f 197/6/2 198/6/2 205/6/2
f 205/6/2 198/6/2 206/6/2
f 207/5/2 208/5/2 215/5/2
f 215/5/2 208/5/2 216/5/2
f 209/5/2 210/5/2 217/5/2
f 217/5/2 210/5/2 218/5/2
f 211/5/2 212/5/2 219/5/2
f 219/5/2 212/5/2 220/5/2
f 213/5/2 214/5/2 221/5/2
f 221/5/2 214/5/2 222/5/2
f 223/4/2 224/4/2 231/4/2
f 231/4/2 224/4/2 232/4/2
f 225/4/2 226/4/2 233/4/2
f 233/4/2 226/4/2 234/4/2
f 227/4/2 228/4/2 235/4/2
f 235/4/2 228/4/2 236/4/2
f 229/4/2 230/4/2 237/4/2
f 237/4/2 230/4/2 238/4/2
f 242/2/3 240/2/3 239/2/3
f 243/1/3 241/1/3 240/1/3
f 243/2/3 240/2/3 242/2/3
f 244/1/3 241/1/3 243/1/3
f 249/1/3 246/1/3 245/1/3
f 250/1/3 246/1/3 249/1/3
f 251/2/3 247/2/3 246/2/3
f 251/1/3 246/1/3 250/1/3
f 252/2/3 247/2/3 251/2/3
f 254/2/3 249/2/3 248/2/3
f 255/2/3 249/2/3 254/2/3
f 258/6/3 253/6/3 252/6/3
f 259/6/3 253/6/3 258/6/3
f 260/6/3 253/6/3 259/6/3
f 262/1/3 257/1/3 256/1/3
f 262/1/3 256/1/3 255/1/3
f 263/2/3 258/2/3 257/2/3
f 263/1/3 257/1/3 262/1/3
f 264/2/3 258/2/3 263/2/3
f 265/7/3 260/7/3 259/7/3
f 266/6/3 261/6/3 260/6/3
f 266/7/3 260/7/3 265/7/3
f 267/6/3 261/6/3 266/6/3
f 269/5/3 268/5/3 267/5/3
f 270/5/3 268/5/3 269/5/3
f 272/4/3 271/4/3 270/4/3
f 273/4/3 271/4/3 272/4/3
f 278/1/3 275/1/3 274/1/3
f 279/1/3 275/1/3 278/1/3
f 280/2/3 277/2/3 276/2/3
f 281/2/3 277/2/3 280/2/3
f 284/1/3 283/1/3 282/1/3
f 285/1/3 283/1/3 284/1/3
f 288/6/3 287/6/3 286/6/3
f 289/6/3 287/6/3 288/6/3
f 291/6/3 290/6/3 289/6/3
f 292/6/3 290/6/3 291/6/3
f 294/5/3 293/5/3 292/5/3
f 295/5/3 293/5/3 294/5/3
f 297/4/3 296/4/3 295/4/3
f 298/4/3 296/4/3 297/4/3
f 301/1/3 300/1/3 299/1/3
f 302/1/3 300/1/3 301/1/3
f 305/1/3 304/1/3 303/1/3
f 306/1/3 304/1/3 305/1/3
f 309/6/3 308/6/3 307/6/3
f 310/6/3 308/6/3 309/6/3
f 312/6/3 311/6/3 310/6/3
f 313/6/3 311/6/3 312/6/3
f 315/5/3 314/5/3 313/5/3
f 316/5/3 314/5/3 315/5/3
f 318/4/3 317/4/3 316/4/3
f 319/4/3 317/4/3 318/4/3
f 322/6/3 321/6/3 320/6/3
f 323/6/3 321/6/3 322/6/3
f 325/6/3 324/6/3 323/6/3
f 326/6/3 324/6/3 325/6/3
f 328/5/3 327/5/3 326/5/3
f 329/5/3 327/5/3 328/5/3
f 331/4/3 330/4/3 329/4/3
f 332/4/3 330/4/3 331/4/3
f 333/6/4 334/6/4 335/6/4
f 335/6/4 334/6/4 336/6/4
f 336/6/4 334/6/4 337/6/4
f 336/7/4 337/7/4 339/7/4
f 337/6/4 338/6/4 340/6/4
f 339/7/4 337/7/4 340/7/4
f 340/6/4 338/6/4 341/6/4
f 341/5/4 342/5/4 343/5/4
f 343/5/4 342/5/4 344/5/4
f 344/4/4 345/4/4 346/4/4
f 346/4/4 345/4/4 347/4/4
f 348/6/4 349/6/4 350/6/4
f 350/6/4 349/6/4 351/6/4
f 351/6/4 352/6/4 353/6/4
f 353/6/4 352/6/4 354/6/4
f 354/5/4 355/5/4 356/5/4
f 356/5/4 355/5/4 357/5/4
f 357/4/4 358/4/4 359/4/4
f 359/4/4 358/4/4 360/4/4
f 361/1/4 362/1/4 363/1/4
f 363/1/4 362/1/4 364/1/4
f 365/1/4 366/1/4 367/1/4
f 367/1/4 366/1/4 368/1/4
f 369/6/4 370/6/4 371/6/4
f 371/6/4 370/6/4 372/6/4
f 372/6/4 373/6/4 374/6/4
f 374/6/4 373/6/4 375/6/4
f 375/5/4 376/5/4 377/5/4
f 377/5/4 376/5/4 378/5/4
f 378/4/4 379/4/4 380/4/4
f 380/4/4 379/4/4 381/4/4
f 382/1/4 383/1/4 386/1/4
f 386/1/4 383/1/4 387/1/4
f 384/2/4 385/2/4 388/2/4
f 388/2/4 385/2/4 389/2/4
f 390/1/4 391/1/4 392/1/4
f 392/1/4 391/1/4 393/1/4
f 394/1/4 395/1/4 398/1/4
f 395/2/4 396/2/4 399/2/4
f 398/1/4 395/1/4 399/1/4
f 399/2/4 396/2/4 400/2/4
f 397/2/4 398/2/4 402/2/4
f 402/2/4 398/2/4 403/2/4
f 400/6/4 401/6/4 405/6/4
f 405/6/4 401/6/4 406/6/4
f 403/1/4 404/1/4 408/1/4
f 404/2/4 405/2/4 409/2/4
f 408/1/4 404/1/4 409/1/4
f 409/2/4 405/2/4 410/2/4
f 406/6/4 407/6/4 411/6/4
f 411/6/4 407/6/4 412/6/4
f 412/5/4 413/5/4 414/5/4
f 414/5/4 413/5/4 415/5/4
f 415/4/4 416/4/4 417/4/4
f 417/4/4 416/4/4 418/4/4
f 419/1/4 420/1/4 421/1/4
f 421/1/4 420/1/4 422/1/4
f 425/2/5 424/2/5 423/2/5
f 426/2/5 424/2/5 425/2/5
f 429/2/5 428/2/5 427/2/5
f 430/2/5 428/2/5 429/2/5
f 435/1/5 432/1/5 431/1/5
f 436/1/5 432/1/5 435/1/5
f 437/1/5 434/1/5 433/1/5
f 438/1/5 434/1/5 437/1/5
f 441/2/5 440/2/5 439/2/5
f 442/2/5 440/2/5 441/2/5
f 447/1/5 444/1/5 443/1/5
f 448/1/5 444/1/5 447/1/5
f 449/1/5 446/1/5 445/1/5
f 450/1/5 446/1/5 449/1/5
f 455/1/5 452/1/5 451/1/5
f 456/1/5 452/1/5 455/1/5
f 457/1/5 454/1/5 453/1/5
f 458/1/5 454/1/5 457/1/5
f 462/2/5 460/2/5 459/2/5
f 463/2/5 460/2/5 462/2/5
f 465/1/5 462/1/5 461/1/5
f 466/1/5 462/1/5 465/1/5
f 467/1/5 464/1/5 463/1/5
f 468/1/5 464/1/5 467/1/5
f 473/1/5 470/1/5 469/1/5
f 474/1/5 470/1/5 473/1/5
f 475/1/5 472/1/5 471/1/5
f 476/1/5 472/1/5 475/1/5
f 477/1/5 475/1/5 474/1/5
f 478/1/5 475/1/5 477/1/5
f 481/7/5 480/7/5 479/7/5
f 482/7/5 480/7/5 481/7/5
f 485/6/5 484/6/5 483/6/5
f 486/6/5 484/6/5 485/6/5
f 489/6/5 488/6/5 487/6/5
f 490/6/5 488/6/5 489/6/5
f 493/6/5 492/6/5 491/6/5
f 494/6/5 492/6/5 493/6/5
f 497/5/5 496/5/5 495/5/5
f 498/5/5 496/5/5 497/5/5
f 501/5/5 500/5/5 499/5/5
f 502/5/5 500/5/5 501/5/5
f 505/5/5 504/5/5 503/5/5
f 506/5/5 504/5/5 505/5/5
f 509/5/5 508/5/5 507/5/5
f 510/5/5 508/5/5 509/5/5
f 513/4/5 512/4/5 511/4/5
f 514/4/5 512/4/5 513/4/5
f 517/4/5 516/4/5 515/4/5
f 518/4/5 516/4/5 517/4/5
f 521/4/5 520/4/5 519/4/5
f 522/4/5 520/4/5 521/4/5
f 525/4/5 524/4/5 523/4/5
f 526/4/5 524/4/5 525/4/5
f 527/1/6 528/1/6 530/1/6
f 530/1/6 528/1/6 531/1/6
f 529/2/6 530/2/6 533/2/6
f 531/2/6 532/2/6 534/2/6
f 529/2/6 533/2/6 535/2/6
f 533/1/6 534/1/6 535/1/6
f 534/2/6 532/2/6 536/2/6
f 535/1/6 534/1/6 536/1/6
f 529/2/6 535/2/6 537/2/6
f 536/2/6 532/2/6 538/2/6
f 529/2/6 537/2/6 539/2/6
f 537/1/6 538/1/6 539/1/6
f 538/2/6 532/2/6 540/2/6
f 539/1/6 538/1/6 540/1/6
f 529/2/6 539/2/6 541/2/6
f 540/2/6 532/2/6 542/2/6
f 529/2/6 541/2/6 543/2/6
f 541/1/6 542/1/6 543/1/6
f 542/2/6 532/2/6 544/2/6
f 543/1/6 542/1/6 544/1/6
f 529/2/6 543/2/6 545/2/6
f 545/2/6 543/2/6 546/2/6
f 544/2/6 532/2/6 547/2/6
f 547/2/6 532/2/6 548/2/6
f 546/1/6 547/1/6 549/1/6
f 549/1/6 547/1/6 550/1/6
f 551/6/6 552/6/6 553/6/6
f 553/6/6 552/6/6 554/6/6
f 555/6/6 556/6/6 557/6/6
f 557/6/6 556/6/6 558/6/6
f 559/6/6 560/6/6 561/6/6
f 561/6/6 560/6/6 562/6/6
f 563/6/6 564/6/6 565/6/6
f 565/6/6 564/6/6 566/6/6
f 567/6/6 568/6/6 569/6/6
f 569/6/6 568/6/6 570/6/6
f 571/6/6 572/6/6 573/6/6
f 573/6/6 572/6/6 574/6/6
f 575/6/6 576/6/6 577/6/6
f 577/6/6 576/6/6 578/6/6
f 579/6/6 580/6/6 581/6/6
f 581/6/6 580/6/6 582/6/6
f 583/5/6 584/5/6 585/5/6
f 585/5/6 584/5/6 586/5/6
f 587/5/6 588/5/6 589/5/6
f 589/5/6 588/5/6 590/5/6
f 591/5/6 592/5/6 593/5/6
f 593/5/6 592/5/6 594/5/6
f 595/5/6 596/5/6 597/5/6
f 597/5/6 596/5/6 598/5/6
f 599/4/6 600/4/6 601/4/6
f 601/4/6 600/4/6 602/4/6
f 603/4/6 604/4/6 605/4/6
f 605/4/6 604/4/6 606/4/6
f 607/4/6 608/4/6 609/4/6
f 609/4/6 608/4/6 610/4/6
f 611/4/6 612/4/6 613/4/6
f 613/4/6 612/4/6 614/4/6
