# MagicaVoxel @ Ephtracy

# group
o 

# material
mtllib Claws_lvl1.mtl
usemtl palette

# normals
vn -1 0 0
vn 1 0 0
vn 0 0 1
vn 0 0 -1
vn 0 -1 0
vn 0 1 0

# texcoords
vt 0.310547 0.5
vt 0.341797 0.5
vt 0.982422 0.5

# verts
v -2.23517e-08 0.4 -2.98023e-08
v -2.23517e-08 0.4 -0.1
v -2.23517e-08 0.5 0.2
v -2.23517e-08 0.5 -2.98023e-08
v -2.23517e-08 0.5 -0.1
v -2.23517e-08 0.5 -0.3
v -2.23517e-08 0.6 0.1
v -2.23517e-08 0.6 -2.98023e-08
v -2.23517e-08 0.6 -0.1
v -2.23517e-08 0.6 -0.2
v -2.23517e-08 0.7 0.3
v -2.23517e-08 0.7 0.2
v -2.23517e-08 0.7 -0.3
v -2.23517e-08 0.7 -0.4
v -2.23517e-08 0.8 0.2
v -2.23517e-08 0.8 0.1
v -2.23517e-08 0.8 -2.98023e-08
v -2.23517e-08 0.8 -0.1
v -2.23517e-08 0.8 -0.2
v -2.23517e-08 0.8 -0.3
v -2.23517e-08 1 0.2
v -2.23517e-08 1 -2.98023e-08
v -2.23517e-08 1 -0.1
v -2.23517e-08 1 -0.3
v -2.23517e-08 1.1 0.3
v -2.23517e-08 1.1 -0.4
v 0.1 1.1 0.2
v 0.1 1.1 0.1
v 0.1 1.1 -2.98023e-08
v 0.1 1.1 -0.1
v 0.1 1.1 -0.2
v 0.1 1.1 -0.3
v 0.1 1.5 0.2
v 0.1 1.5 0.1
v 0.1 1.5 -2.98023e-08
v 0.1 1.5 -0.1
v 0.1 1.5 -0.2
v 0.1 1.5 -0.3
v 0.2 1.5 0.2
v 0.2 1.5 0.1
v 0.2 1.5 -2.98023e-08
v 0.2 1.5 -0.1
v 0.2 1.5 -0.2
v 0.2 1.5 -0.3
v 0.2 1.8 0.2
v 0.2 1.8 0.1
v 0.2 1.8 -2.98023e-08
v 0.2 1.8 -0.1
v 0.2 1.8 -0.2
v 0.2 1.8 -0.3
v 0.3 1.8 0.2
v 0.3 1.8 0.1
v 0.3 1.8 -2.98023e-08
v 0.3 1.8 -0.1
v 0.3 1.8 -0.2
v 0.3 1.8 -0.3
v 0.3 1.9 0.2
v 0.3 1.9 0.1
v 0.3 1.9 -2.98023e-08
v 0.3 1.9 -0.1
v 0.3 1.9 -0.2
v 0.3 1.9 -0.3
v 0.2 1.1 0.2
v 0.2 1.1 0.1
v 0.2 1.1 -2.98023e-08
v 0.2 1.1 -0.1
v 0.2 1.1 -0.2
v 0.2 1.1 -0.3
v 0.2 1.5 0.2
v 0.2 1.5 0.1
v 0.2 1.5 -2.98023e-08
v 0.2 1.5 -0.1
v 0.2 1.5 -0.2
v 0.2 1.5 -0.3
v 0.3 0.4 -2.98023e-08
v 0.3 0.4 -0.1
v 0.3 0.5 0.2
v 0.3 0.5 -2.98023e-08
v 0.3 0.5 -0.1
v 0.3 0.5 -0.3
v 0.3 0.6 0.1
v 0.3 0.6 -2.98023e-08
v 0.3 0.6 -0.1
v 0.3 0.6 -0.2
v 0.3 0.7 0.3
v 0.3 0.7 0.2
v 0.3 0.7 -0.3
v 0.3 0.7 -0.4
v 0.3 0.8 0.2
v 0.3 0.8 0.1
v 0.3 0.8 -2.98023e-08
v 0.3 0.8 -0.1
v 0.3 0.8 -0.2
v 0.3 0.8 -0.3
v 0.3 1 0.2
v 0.3 1 -2.98023e-08
v 0.3 1 -0.1
v 0.3 1 -0.3
v 0.3 1.1 0.3
v 0.3 1.1 -0.4
v 0.3 1.5 0.2
v 0.3 1.5 0.1
v 0.3 1.5 -2.98023e-08
v 0.3 1.5 -0.1
v 0.3 1.5 -0.2
v 0.3 1.5 -0.3
v 0.3 1.8 0.2
v 0.3 1.8 0.1
v 0.3 1.8 -2.98023e-08
v 0.3 1.8 -0.1
v 0.3 1.8 -0.2
v 0.3 1.8 -0.3
v 0.4 1.8 0.2
v 0.4 1.8 0.1
v 0.4 1.8 -2.98023e-08
v 0.4 1.8 -0.1
v 0.4 1.8 -0.2
v 0.4 1.8 -0.3
v 0.4 1.9 0.2
v 0.4 1.9 0.1
v 0.4 1.9 -2.98023e-08
v 0.4 1.9 -0.1
v 0.4 1.9 -0.2
v 0.4 1.9 -0.3
v -2.23517e-08 0.7 0.3
v -2.23517e-08 1.1 0.3
v 0.3 0.7 0.3
v 0.3 1.1 0.3
v -2.23517e-08 0.5 0.2
v -2.23517e-08 0.7 0.2
v 0.1 1.1 0.2
v 0.1 1.5 0.2
v 0.2 1.1 0.2
v 0.2 1.5 0.2
v 0.2 1.8 0.2
v 0.3 0.5 0.2
v 0.3 0.7 0.2
v 0.3 1.5 0.2
v 0.3 1.8 0.2
v 0.3 1.9 0.2
v 0.4 1.8 0.2
v 0.4 1.9 0.2
v -2.23517e-08 0.4 -2.98023e-08
v -2.23517e-08 0.5 -2.98023e-08
v 0.1 1.1 -2.98023e-08
v 0.1 1.5 -2.98023e-08
v 0.2 1.1 -2.98023e-08
v 0.2 1.5 -2.98023e-08
v 0.2 1.8 -2.98023e-08
v 0.3 0.4 -2.98023e-08
v 0.3 0.5 -2.98023e-08
v 0.3 1.5 -2.98023e-08
v 0.3 1.8 -2.98023e-08
v 0.3 1.9 -2.98023e-08
v 0.4 1.8 -2.98023e-08
v 0.4 1.9 -2.98023e-08
v 0.1 1.1 -0.2
v 0.1 1.5 -0.2
v 0.2 1.1 -0.2
v 0.2 1.5 -0.2
v 0.2 1.8 -0.2
v 0.3 1.5 -0.2
v 0.3 1.8 -0.2
v 0.3 1.9 -0.2
v 0.4 1.8 -0.2
v 0.4 1.9 -0.2
v 0.1 1.1 0.1
v 0.1 1.5 0.1
v 0.2 1.1 0.1
v 0.2 1.5 0.1
v 0.2 1.8 0.1
v 0.3 1.5 0.1
v 0.3 1.8 0.1
v 0.3 1.9 0.1
v 0.4 1.8 0.1
v 0.4 1.9 0.1
v -2.23517e-08 0.4 -0.1
v -2.23517e-08 0.5 -0.1
v 0.1 1.1 -0.1
v 0.1 1.5 -0.1
v 0.2 1.1 -0.1
v 0.2 1.5 -0.1
v 0.2 1.8 -0.1
v 0.3 0.4 -0.1
v 0.3 0.5 -0.1
v 0.3 1.5 -0.1
v 0.3 1.8 -0.1
v 0.3 1.9 -0.1
v 0.4 1.8 -0.1
v 0.4 1.9 -0.1
v -2.23517e-08 0.5 -0.3
v -2.23517e-08 0.7 -0.3
v 0.1 1.1 -0.3
v 0.1 1.5 -0.3
v 0.2 1.1 -0.3
v 0.2 1.5 -0.3
v 0.2 1.8 -0.3
v 0.3 0.5 -0.3
v 0.3 0.7 -0.3
v 0.3 1.5 -0.3
v 0.3 1.8 -0.3
v 0.3 1.9 -0.3
v 0.4 1.8 -0.3
v 0.4 1.9 -0.3
v -2.23517e-08 0.7 -0.4
v -2.23517e-08 1.1 -0.4
v 0.3 0.7 -0.4
v 0.3 1.1 -0.4
v -2.23517e-08 0.4 -2.98023e-08
v 0.3 0.4 -2.98023e-08
v -2.23517e-08 0.4 -0.1
v 0.3 0.4 -0.1
v -2.23517e-08 0.5 0.2
v 0.3 0.5 0.2
v -2.23517e-08 0.5 -2.98023e-08
v 0.3 0.5 -2.98023e-08
v -2.23517e-08 0.5 -0.1
v 0.3 0.5 -0.1
v -2.23517e-08 0.5 -0.3
v 0.3 0.5 -0.3
v -2.23517e-08 0.7 0.3
v 0.3 0.7 0.3
v -2.23517e-08 0.7 0.2
v 0.3 0.7 0.2
v -2.23517e-08 0.7 -0.3
v 0.3 0.7 -0.3
v -2.23517e-08 0.7 -0.4
v 0.3 0.7 -0.4
v 0.2 1.5 0.2
v 0.3 1.5 0.2
v 0.2 1.5 0.1
v 0.3 1.5 0.1
v 0.2 1.5 -2.98023e-08
v 0.3 1.5 -2.98023e-08
v 0.2 1.5 -0.1
v 0.3 1.5 -0.1
v 0.2 1.5 -0.2
v 0.3 1.5 -0.2
v 0.2 1.5 -0.3
v 0.3 1.5 -0.3
v 0.3 1.8 0.2
v 0.4 1.8 0.2
v 0.3 1.8 0.1
v 0.4 1.8 0.1
v 0.3 1.8 -2.98023e-08
v 0.4 1.8 -2.98023e-08
v 0.3 1.8 -0.1
v 0.4 1.8 -0.1
v 0.3 1.8 -0.2
v 0.4 1.8 -0.2
v 0.3 1.8 -0.3
v 0.4 1.8 -0.3
v -2.23517e-08 1.1 0.3
v 0.3 1.1 0.3
v 0.1 1.1 0.2
v 0.2 1.1 0.2
v 0.1 1.1 0.1
v 0.2 1.1 0.1
v 0.1 1.1 -2.98023e-08
v 0.2 1.1 -2.98023e-08
v 0.1 1.1 -0.1
v 0.2 1.1 -0.1
v 0.1 1.1 -0.2
v 0.2 1.1 -0.2
v 0.1 1.1 -0.3
v 0.2 1.1 -0.3
v -2.23517e-08 1.1 -0.4
v 0.3 1.1 -0.4
v 0.1 1.5 0.2
v 0.2 1.5 0.2
v 0.1 1.5 0.1
v 0.2 1.5 0.1
v 0.1 1.5 -2.98023e-08
v 0.2 1.5 -2.98023e-08
v 0.1 1.5 -0.1
v 0.2 1.5 -0.1
v 0.1 1.5 -0.2
v 0.2 1.5 -0.2
v 0.1 1.5 -0.3
v 0.2 1.5 -0.3
v 0.2 1.8 0.2
v 0.3 1.8 0.2
v 0.2 1.8 0.1
v 0.3 1.8 0.1
v 0.2 1.8 -2.98023e-08
v 0.3 1.8 -2.98023e-08
v 0.2 1.8 -0.1
v 0.3 1.8 -0.1
v 0.2 1.8 -0.2
v 0.3 1.8 -0.2
v 0.2 1.8 -0.3
v 0.3 1.8 -0.3
v 0.3 1.9 0.2
v 0.4 1.9 0.2
v 0.3 1.9 0.1
v 0.4 1.9 0.1
v 0.3 1.9 -2.98023e-08
v 0.4 1.9 -2.98023e-08
v 0.3 1.9 -0.1
v 0.4 1.9 -0.1
v 0.3 1.9 -0.2
v 0.4 1.9 -0.2
v 0.3 1.9 -0.3
v 0.4 1.9 -0.3

# faces
f 4/1/1 2/1/1 1/1/1
f 5/1/1 2/1/1 4/1/1
f 7/1/1 4/1/1 3/1/1
f 8/2/1 5/2/1 4/2/1
f 8/1/1 4/1/1 7/1/1
f 9/1/1 6/1/1 5/1/1
f 9/2/1 5/2/1 8/2/1
f 10/1/1 6/1/1 9/1/1
f 12/1/1 7/1/1 3/1/1
f 13/1/1 6/1/1 10/1/1
f 15/1/1 12/1/1 11/1/1
f 15/1/1 7/1/1 12/1/1
f 16/2/1 8/2/1 7/2/1
f 16/1/1 7/1/1 15/1/1
f 16/2/1 9/2/1 8/2/1
f 16/2/1 10/2/1 9/2/1
f 17/2/1 10/2/1 16/2/1
f 18/2/1 10/2/1 17/2/1
f 19/1/1 14/1/1 13/1/1
f 19/2/1 10/2/1 18/2/1
f 19/1/1 13/1/1 10/1/1
f 20/1/1 14/1/1 19/1/1
f 21/1/1 15/1/1 11/1/1
f 21/2/1 17/2/1 16/2/1
f 21/2/1 16/2/1 15/2/1
f 22/1/1 18/1/1 17/1/1
f 22/2/1 17/2/1 21/2/1
f 23/2/1 20/2/1 19/2/1
f 23/1/1 18/1/1 22/1/1
f 23/2/1 19/2/1 18/2/1
f 24/1/1 14/1/1 20/1/1
f 24/2/1 20/2/1 23/2/1
f 25/1/1 23/1/1 22/1/1
f 25/1/1 21/1/1 11/1/1
f 25/1/1 24/1/1 23/1/1
f 25/1/1 22/1/1 21/1/1
f 26/1/1 14/1/1 24/1/1
f 26/1/1 24/1/1 25/1/1
f 33/3/1 28/3/1 27/3/1
f 34/3/1 28/3/1 33/3/1
f 35/3/1 30/3/1 29/3/1
f 36/3/1 30/3/1 35/3/1
f 37/3/1 32/3/1 31/3/1
f 38/3/1 32/3/1 37/3/1
f 45/3/1 40/3/1 39/3/1
f 46/3/1 40/3/1 45/3/1
f 47/3/1 42/3/1 41/3/1
f 48/3/1 42/3/1 47/3/1
f 49/3/1 44/3/1 43/3/1
f 50/3/1 44/3/1 49/3/1
f 57/3/1 52/3/1 51/3/1
f 58/3/1 52/3/1 57/3/1
f 59/3/1 54/3/1 53/3/1
f 60/3/1 54/3/1 59/3/1
f 61/3/1 56/3/1 55/3/1
f 62/3/1 56/3/1 61/3/1
f 63/3/2 64/3/2 69/3/2
f 69/3/2 64/3/2 70/3/2
f 65/3/2 66/3/2 71/3/2
f 71/3/2 66/3/2 72/3/2
f 67/3/2 68/3/2 73/3/2
f 73/3/2 68/3/2 74/3/2
f 75/1/2 76/1/2 78/1/2
f 78/1/2 76/1/2 79/1/2
f 77/1/2 78/1/2 81/1/2
f 78/2/2 79/2/2 82/2/2
f 81/1/2 78/1/2 82/1/2
f 79/1/2 80/1/2 83/1/2
f 82/2/2 79/2/2 83/2/2
f 83/1/2 80/1/2 84/1/2
f 77/1/2 81/1/2 86/1/2
f 84/1/2 80/1/2 87/1/2
f 85/1/2 86/1/2 89/1/2
f 86/1/2 81/1/2 89/1/2
f 81/2/2 82/2/2 90/2/2
f 89/1/2 81/1/2 90/1/2
f 82/2/2 83/2/2 90/2/2
f 83/2/2 84/2/2 90/2/2
f 90/2/2 84/2/2 91/2/2
f 91/2/2 84/2/2 92/2/2
f 87/1/2 88/1/2 93/1/2
f 92/2/2 84/2/2 93/2/2
f 84/1/2 87/1/2 93/1/2
f 93/1/2 88/1/2 94/1/2
f 85/1/2 89/1/2 95/1/2
f 90/2/2 91/2/2 95/2/2
f 89/2/2 90/2/2 95/2/2
f 91/1/2 92/1/2 96/1/2
f 95/2/2 91/2/2 96/2/2
f 93/2/2 94/2/2 97/2/2
f 96/1/2 92/1/2 97/1/2
f 92/2/2 93/2/2 97/2/2
f 94/1/2 88/1/2 98/1/2
f 97/2/2 94/2/2 98/2/2
f 96/1/2 97/1/2 99/1/2
f 85/1/2 95/1/2 99/1/2
f 97/1/2 98/1/2 99/1/2
f 95/1/2 96/1/2 99/1/2
f 98/1/2 88/1/2 100/1/2
f 99/1/2 98/1/2 100/1/2
f 101/3/2 102/3/2 107/3/2
f 107/3/2 102/3/2 108/3/2
f 103/3/2 104/3/2 109/3/2
f 109/3/2 104/3/2 110/3/2
f 105/3/2 106/3/2 111/3/2
f 111/3/2 106/3/2 112/3/2
f 113/3/2 114/3/2 119/3/2
f 119/3/2 114/3/2 120/3/2
f 115/3/2 116/3/2 121/3/2
f 121/3/2 116/3/2 122/3/2
f 117/3/2 118/3/2 123/3/2
f 123/3/2 118/3/2 124/3/2
f 127/1/3 126/1/3 125/1/3
f 128/1/3 126/1/3 127/1/3
f 133/3/3 132/3/3 131/3/3
f 134/3/3 132/3/3 133/3/3
f 136/1/3 130/1/3 129/1/3
f 137/1/3 130/1/3 136/1/3
f 138/3/3 135/3/3 134/3/3
f 139/3/3 135/3/3 138/3/3
f 141/3/3 140/3/3 139/3/3
f 142/3/3 140/3/3 141/3/3
f 147/3/3 146/3/3 145/3/3
f 148/3/3 146/3/3 147/3/3
f 150/1/3 144/1/3 143/1/3
f 151/1/3 144/1/3 150/1/3
f 152/3/3 149/3/3 148/3/3
f 153/3/3 149/3/3 152/3/3
f 155/3/3 154/3/3 153/3/3
f 156/3/3 154/3/3 155/3/3
f 159/3/3 158/3/3 157/3/3
f 160/3/3 158/3/3 159/3/3
f 162/3/3 161/3/3 160/3/3
f 163/3/3 161/3/3 162/3/3
f 165/3/3 164/3/3 163/3/3
f 166/3/3 164/3/3 165/3/3
f 167/3/4 168/3/4 169/3/4
f 169/3/4 168/3/4 170/3/4
f 170/3/4 171/3/4 172/3/4
f 172/3/4 171/3/4 173/3/4
f 173/3/4 174/3/4 175/3/4
f 175/3/4 174/3/4 176/3/4
f 179/3/4 180/3/4 181/3/4
f 181/3/4 180/3/4 182/3/4
f 177/1/4 178/1/4 184/1/4
f 184/1/4 178/1/4 185/1/4
f 182/3/4 183/3/4 186/3/4
f 186/3/4 183/3/4 187/3/4
f 187/3/4 188/3/4 189/3/4
f 189/3/4 188/3/4 190/3/4
f 193/3/4 194/3/4 195/3/4
f 195/3/4 194/3/4 196/3/4
f 191/1/4 192/1/4 198/1/4
f 198/1/4 192/1/4 199/1/4
f 196/3/4 197/3/4 200/3/4
f 200/3/4 197/3/4 201/3/4
f 201/3/4 202/3/4 203/3/4
f 203/3/4 202/3/4 204/3/4
f 205/1/4 206/1/4 207/1/4
f 207/1/4 206/1/4 208/1/4
f 211/1/5 210/1/5 209/1/5
f 212/1/5 210/1/5 211/1/5
f 215/1/5 214/1/5 213/1/5
f 216/1/5 214/1/5 215/1/5
f 219/1/5 218/1/5 217/1/5
f 220/1/5 218/1/5 219/1/5
f 223/1/5 222/1/5 221/1/5
f 224/1/5 222/1/5 223/1/5
f 227/1/5 226/1/5 225/1/5
f 228/1/5 226/1/5 227/1/5
f 231/3/5 230/3/5 229/3/5
f 232/3/5 230/3/5 231/3/5
f 235/3/5 234/3/5 233/3/5
f 236/3/5 234/3/5 235/3/5
f 239/3/5 238/3/5 237/3/5
f 240/3/5 238/3/5 239/3/5
f 243/3/5 242/3/5 241/3/5
f 244/3/5 242/3/5 243/3/5
f 247/3/5 246/3/5 245/3/5
f 248/3/5 246/3/5 247/3/5
f 251/3/5 250/3/5 249/3/5
f 252/3/5 250/3/5 251/3/5
f 253/1/6 254/1/6 255/1/6
f 255/1/6 254/1/6 256/1/6
f 253/1/6 255/1/6 257/1/6
f 256/1/6 254/1/6 258/1/6
f 253/1/6 257/1/6 259/1/6
f 257/1/6 258/1/6 259/1/6
f 258/1/6 254/1/6 260/1/6
f 259/1/6 258/1/6 260/1/6
f 253/1/6 259/1/6 261/1/6
f 260/1/6 254/1/6 262/1/6
f 253/1/6 261/1/6 263/1/6
f 261/1/6 262/1/6 263/1/6
f 262/1/6 254/1/6 264/1/6
f 263/1/6 262/1/6 264/1/6
f 253/1/6 263/1/6 265/1/6
f 264/1/6 254/1/6 266/1/6
f 253/1/6 265/1/6 267/1/6
f 265/1/6 266/1/6 267/1/6
f 266/1/6 254/1/6 268/1/6
f 267/1/6 266/1/6 268/1/6
f 269/3/6 270/3/6 271/3/6
f 271/3/6 270/3/6 272/3/6
f 273/3/6 274/3/6 275/3/6
f 275/3/6 274/3/6 276/3/6
f 277/3/6 278/3/6 279/3/6
f 279/3/6 278/3/6 280/3/6
f 281/3/6 282/3/6 283/3/6
f 283/3/6 282/3/6 284/3/6
f 285/3/6 286/3/6 287/3/6
f 287/3/6 286/3/6 288/3/6
f 289/3/6 290/3/6 291/3/6
f 291/3/6 290/3/6 292/3/6
f 293/3/6 294/3/6 295/3/6
f 295/3/6 294/3/6 296/3/6
f 297/3/6 298/3/6 299/3/6
f 299/3/6 298/3/6 300/3/6
f 301/3/6 302/3/6 303/3/6
f 303/3/6 302/3/6 304/3/6
