# MagicaVoxel @ Ephtracy

# group
o 

# material
mtllib Scythe_lvl1.mtl
usemtl palette

# normals
vn -1 0 0
vn 1 0 0
vn 0 0 1
vn 0 0 -1
vn 0 -1 0
vn 0 1 0

# texcoords
vt 0.341797 0.5
vt 0.974609 0.5
vt 0.986328 0.5

# verts
v -2.23517e-08 0.4 -2.98023e-08
v -2.23517e-08 0.4 -0.1
v -2.23517e-08 1.4 -0.7
v -2.23517e-08 1.4 -0.8
v -2.23517e-08 1.5 -0.5
v -2.23517e-08 1.5 -0.7
v -2.23517e-08 1.5 -0.8
v -2.23517e-08 1.6 0.1
v -2.23517e-08 1.6 -2.98023e-08
v -2.23517e-08 1.6 -0.3
v -2.23517e-08 1.6 -0.5
v -2.23517e-08 1.6 -0.7
v -2.23517e-08 1.7 -2.98023e-08
v -2.23517e-08 1.7 -0.1
v -2.23517e-08 1.7 -0.3
v -2.23517e-08 1.7 -0.5
v -2.23517e-08 1.7 -0.7
v -2.23517e-08 1.7 -0.8
v -2.23517e-08 1.8 0.3
v -2.23517e-08 1.8 0.1
v -2.23517e-08 1.8 -2.98023e-08
v -2.23517e-08 1.8 -0.3
v -2.23517e-08 1.8 -0.6
v -2.23517e-08 1.8 -0.7
v -2.23517e-08 1.9 -0.5
v -2.23517e-08 1.9 -0.6
v -2.23517e-08 2 0.3
v -2.23517e-08 2 0.2
v -2.23517e-08 2 -0.2
v -2.23517e-08 2 -0.5
v -2.23517e-08 2.1 0.2
v -2.23517e-08 2.1 -0.2
v 0.1 0.4 -2.98023e-08
v 0.1 0.4 -0.1
v 0.1 1.4 -0.7
v 0.1 1.4 -0.8
v 0.1 1.5 -0.5
v 0.1 1.5 -0.7
v 0.1 1.5 -0.8
v 0.1 1.6 0.1
v 0.1 1.6 -2.98023e-08
v 0.1 1.6 -0.3
v 0.1 1.6 -0.5
v 0.1 1.6 -0.7
v 0.1 1.7 -2.98023e-08
v 0.1 1.7 -0.1
v 0.1 1.7 -0.3
v 0.1 1.7 -0.5
v 0.1 1.7 -0.7
v 0.1 1.7 -0.8
v 0.1 1.8 0.3
v 0.1 1.8 0.1
v 0.1 1.8 -2.98023e-08
v 0.1 1.8 -0.3
v 0.1 1.8 -0.6
v 0.1 1.8 -0.7
v 0.1 1.9 -0.5
v 0.1 1.9 -0.6
v 0.1 2 0.3
v 0.1 2 0.2
v 0.1 2 -0.2
v 0.1 2 -0.5
v 0.1 2.1 0.2
v 0.1 2.1 -0.2
v -2.23517e-08 1.8 0.3
v -2.23517e-08 2 0.3
v 0.1 1.8 0.3
v 0.1 2 0.3
v -2.23517e-08 2 0.2
v -2.23517e-08 2.1 0.2
v 0.1 2 0.2
v 0.1 2.1 0.2
v -2.23517e-08 1.6 0.1
v -2.23517e-08 1.8 0.1
v 0.1 1.6 0.1
v 0.1 1.8 0.1
v -2.23517e-08 0.4 -2.98023e-08
v -2.23517e-08 1.6 -2.98023e-08
v 0.1 0.4 -2.98023e-08
v 0.1 1.6 -2.98023e-08
v -2.23517e-08 1.6 -0.3
v -2.23517e-08 1.7 -0.3
v 0.1 1.6 -0.3
v 0.1 1.7 -0.3
v -2.23517e-08 1.5 -0.5
v -2.23517e-08 1.6 -0.5
v 0.1 1.5 -0.5
v 0.1 1.6 -0.5
v -2.23517e-08 1.4 -0.7
v -2.23517e-08 1.5 -0.7
v 0.1 1.4 -0.7
v 0.1 1.5 -0.7
v -2.23517e-08 0.4 -0.1
v -2.23517e-08 1.7 -0.1
v 0.1 0.4 -0.1
v 0.1 1.7 -0.1
v -2.23517e-08 2 -0.2
v -2.23517e-08 2.1 -0.2
v 0.1 2 -0.2
v 0.1 2.1 -0.2
v -2.23517e-08 1.9 -0.5
v -2.23517e-08 2 -0.5
v 0.1 1.9 -0.5
v 0.1 2 -0.5
v -2.23517e-08 1.8 -0.6
v -2.23517e-08 1.9 -0.6
v 0.1 1.8 -0.6
v 0.1 1.9 -0.6
v -2.23517e-08 1.7 -0.7
v -2.23517e-08 1.8 -0.7
v 0.1 1.7 -0.7
v 0.1 1.8 -0.7
v -2.23517e-08 1.4 -0.8
v -2.23517e-08 1.5 -0.8
v -2.23517e-08 1.7 -0.8
v 0.1 1.4 -0.8
v 0.1 1.5 -0.8
v 0.1 1.7 -0.8
v -2.23517e-08 0.4 -2.98023e-08
v 0.1 0.4 -2.98023e-08
v -2.23517e-08 0.4 -0.1
v 0.1 0.4 -0.1
v -2.23517e-08 1.4 -0.7
v 0.1 1.4 -0.7
v -2.23517e-08 1.4 -0.8
v 0.1 1.4 -0.8
v -2.23517e-08 1.5 -0.5
v 0.1 1.5 -0.5
v -2.23517e-08 1.5 -0.7
v 0.1 1.5 -0.7
v -2.23517e-08 1.6 0.1
v 0.1 1.6 0.1
v -2.23517e-08 1.6 -2.98023e-08
v 0.1 1.6 -2.98023e-08
v -2.23517e-08 1.6 -0.3
v 0.1 1.6 -0.3
v -2.23517e-08 1.6 -0.5
v 0.1 1.6 -0.5
v -2.23517e-08 1.7 -0.1
v 0.1 1.7 -0.1
v -2.23517e-08 1.7 -0.3
v 0.1 1.7 -0.3
v -2.23517e-08 1.8 0.3
v 0.1 1.8 0.3
v -2.23517e-08 1.8 0.1
v 0.1 1.8 0.1
v -2.23517e-08 1.7 -0.7
v 0.1 1.7 -0.7
v -2.23517e-08 1.7 -0.8
v 0.1 1.7 -0.8
v -2.23517e-08 1.8 -0.6
v 0.1 1.8 -0.6
v -2.23517e-08 1.8 -0.7
v 0.1 1.8 -0.7
v -2.23517e-08 1.9 -0.5
v 0.1 1.9 -0.5
v -2.23517e-08 1.9 -0.6
v 0.1 1.9 -0.6
v -2.23517e-08 2 0.3
v 0.1 2 0.3
v -2.23517e-08 2 0.2
v 0.1 2 0.2
v -2.23517e-08 2 -0.2
v 0.1 2 -0.2
v -2.23517e-08 2 -0.5
v 0.1 2 -0.5
v -2.23517e-08 2.1 0.2
v 0.1 2.1 0.2
v -2.23517e-08 2.1 -0.2
v 0.1 2.1 -0.2

# faces
f 6/2/1 4/2/1 3/2/1
f 7/2/1 4/2/1 6/2/1
f 9/1/1 2/1/1 1/1/1
f 11/2/1 6/2/1 5/2/1
f 12/3/1 7/3/1 6/3/1
f 12/2/1 6/2/1 11/2/1
f 13/1/1 9/1/1 8/1/1
f 13/1/1 2/1/1 9/1/1
f 14/1/1 2/1/1 13/1/1
f 15/2/1 11/2/1 10/2/1
f 16/3/1 12/3/1 11/3/1
f 16/2/1 11/2/1 15/2/1
f 17/3/1 7/3/1 12/3/1
f 17/3/1 12/3/1 16/3/1
f 18/3/1 7/3/1 17/3/1
f 20/1/1 13/1/1 8/1/1
f 21/2/1 14/2/1 13/2/1
f 21/2/1 15/2/1 14/2/1
f 21/1/1 13/1/1 20/1/1
f 22/3/1 16/3/1 15/3/1
f 22/2/1 15/2/1 21/2/1
f 22/3/1 17/3/1 16/3/1
f 23/3/1 17/3/1 22/3/1
f 24/3/1 17/3/1 23/3/1
f 25/3/1 21/3/1 20/3/1
f 25/3/1 20/3/1 19/3/1
f 25/3/1 23/3/1 22/3/1
f 25/3/1 22/3/1 21/3/1
f 26/3/1 23/3/1 25/3/1
f 27/3/1 25/3/1 19/3/1
f 28/3/1 25/3/1 27/3/1
f 29/3/1 25/3/1 28/3/1
f 30/3/1 25/3/1 29/3/1
f 31/3/1 29/3/1 28/3/1
f 32/3/1 29/3/1 31/3/1
f 35/2/2 36/2/2 38/2/2
f 38/2/2 36/2/2 39/2/2
f 33/1/2 34/1/2 41/1/2
f 37/2/2 38/2/2 43/2/2
f 38/3/2 39/3/2 44/3/2
f 43/2/2 38/2/2 44/2/2
f 40/1/2 41/1/2 45/1/2
f 41/1/2 34/1/2 45/1/2
f 45/1/2 34/1/2 46/1/2
f 42/2/2 43/2/2 47/2/2
f 43/3/2 44/3/2 48/3/2
f 47/2/2 43/2/2 48/2/2
f 44/3/2 39/3/2 49/3/2
f 48/3/2 44/3/2 49/3/2
f 49/3/2 39/3/2 50/3/2
f 40/1/2 45/1/2 52/1/2
f 45/2/2 46/2/2 53/2/2
f 46/2/2 47/2/2 53/2/2
f 52/1/2 45/1/2 53/1/2
f 47/3/2 48/3/2 54/3/2
f 53/2/2 47/2/2 54/2/2
f 48/3/2 49/3/2 54/3/2
f 54/3/2 49/3/2 55/3/2
f 55/3/2 49/3/2 56/3/2
f 52/3/2 53/3/2 57/3/2
f 51/3/2 52/3/2 57/3/2
f 54/3/2 55/3/2 57/3/2
f 53/3/2 54/3/2 57/3/2
f 57/3/2 55/3/2 58/3/2
f 51/3/2 57/3/2 59/3/2
f 59/3/2 57/3/2 60/3/2
f 60/3/2 57/3/2 61/3/2
f 61/3/2 57/3/2 62/3/2
f 60/3/2 61/3/2 63/3/2
f 63/3/2 61/3/2 64/3/2
f 67/3/3 66/3/3 65/3/3
f 68/3/3 66/3/3 67/3/3
f 71/3/3 70/3/3 69/3/3
f 72/3/3 70/3/3 71/3/3
f 75/1/3 74/1/3 73/1/3
f 76/1/3 74/1/3 75/1/3
f 79/1/3 78/1/3 77/1/3
f 80/1/3 78/1/3 79/1/3
f 83/2/3 82/2/3 81/2/3
f 84/2/3 82/2/3 83/2/3
f 87/2/3 86/2/3 85/2/3
f 88/2/3 86/2/3 87/2/3
f 91/2/3 90/2/3 89/2/3
f 92/2/3 90/2/3 91/2/3
f 93/1/4 94/1/4 95/1/4
f 95/1/4 94/1/4 96/1/4
f 97/3/4 98/3/4 99/3/4
f 99/3/4 98/3/4 100/3/4
f 101/3/4 102/3/4 103/3/4
f 103/3/4 102/3/4 104/3/4
f 105/3/4 106/3/4 107/3/4
f 107/3/4 106/3/4 108/3/4
f 109/3/4 110/3/4 111/3/4
f 111/3/4 110/3/4 112/3/4
f 113/2/4 114/2/4 116/2/4
f 114/3/4 115/3/4 117/3/4
f 116/2/4 114/2/4 117/2/4
f 117/3/4 115/3/4 118/3/4
f 121/1/5 120/1/5 119/1/5
f 122/1/5 120/1/5 121/1/5
f 125/2/5 124/2/5 123/2/5
f 126/2/5 124/2/5 125/2/5
f 129/2/5 128/2/5 127/2/5
f 130/2/5 128/2/5 129/2/5
f 133/1/5 132/1/5 131/1/5
f 134/1/5 132/1/5 133/1/5
f 137/2/5 136/2/5 135/2/5
f 138/2/5 136/2/5 137/2/5
f 141/2/5 140/2/5 139/2/5
f 142/2/5 140/2/5 141/2/5
f 145/3/5 144/3/5 143/3/5
f 146/3/5 144/3/5 145/3/5
f 147/3/6 148/3/6 149/3/6
f 149/3/6 148/3/6 150/3/6
f 151/3/6 152/3/6 153/3/6
f 153/3/6 152/3/6 154/3/6
f 155/3/6 156/3/6 157/3/6
f 157/3/6 156/3/6 158/3/6
f 159/3/6 160/3/6 161/3/6
f 161/3/6 160/3/6 162/3/6
f 163/3/6 164/3/6 165/3/6
f 165/3/6 164/3/6 166/3/6
f 167/3/6 168/3/6 169/3/6
f 169/3/6 168/3/6 170/3/6
