# MagicaVoxel @ Ephtracy

# group
o 

# material
mtllib Scythe_lvl2.mtl
usemtl palette

# normals
vn -1 0 0
vn 1 0 0
vn 0 0 1
vn 0 0 -1
vn 0 -1 0
vn 0 1 0

# texcoords
vt 0.341797 0.5
vt 0.955078 0.5
vt 0.974609 0.5
vt 0.986328 0.5

# verts
v -0.1 1.1 0.1
v -0.1 1.1 -0.1
v -0.1 1.2 0.1
v -0.1 1.2 -0.1
v -0.1 1.5 0
v -0.1 1.5 -0.1
v -0.1 1.6 0
v -0.1 1.6 -0.1
v -0.1 1.9 0.1
v -0.1 1.9 0
v -0.1 2.1 0.1
v -0.1 2.1 0
v -4.47035e-08 0.4 0
v -4.47035e-08 0.4 -0.1
v -4.47035e-08 0.8 -0.1
v -4.47035e-08 0.8 -0.2
v -4.47035e-08 0.9 -0.1
v -4.47035e-08 0.9 -0.2
v -4.47035e-08 0.9 -0.3
v -4.47035e-08 1.1 0
v -4.47035e-08 1.1 -0.1
v -4.47035e-08 1.1 -0.2
v -4.47035e-08 1.1 -0.3
v -4.47035e-08 1.2 0
v -4.47035e-08 1.2 -0.1
v -4.47035e-08 1.2 -0.2
v -4.47035e-08 1.5 0.1
v -4.47035e-08 1.5 0
v -4.47035e-08 1.5 -0.1
v -4.47035e-08 1.5 -0.2
v -4.47035e-08 1.5 -0.9
v -4.47035e-08 1.5 -1.1
v -4.47035e-08 1.6 0.1
v -4.47035e-08 1.6 0
v -4.47035e-08 1.6 -0.1
v -4.47035e-08 1.6 -0.2
v -4.47035e-08 1.6 -0.9
v -4.47035e-08 1.6 -1
v -4.47035e-08 1.6 -1.1
v -4.47035e-08 1.6 -1.2
v -4.47035e-08 1.7 -0.7
v -4.47035e-08 1.7 -1
v -4.47035e-08 1.7 -1.1
v -4.47035e-08 1.8 0.1
v -4.47035e-08 1.8 0
v -4.47035e-08 1.8 -0.3
v -4.47035e-08 1.8 -0.7
v -4.47035e-08 1.8 -1
v -4.47035e-08 1.8 -1.1
v -4.47035e-08 1.8 -1.2
v -4.47035e-08 1.9 0.3
v -4.47035e-08 1.9 0.1
v -4.47035e-08 1.9 0
v -4.47035e-08 1.9 -0.1
v -4.47035e-08 1.9 -0.3
v -4.47035e-08 1.9 -0.7
v -4.47035e-08 1.9 -0.9
v -4.47035e-08 1.9 -1
v -4.47035e-08 1.9 -1.1
v -4.47035e-08 2 0.4
v -4.47035e-08 2 0.3
v -4.47035e-08 2 0.1
v -4.47035e-08 2 0
v -4.47035e-08 2 -0.3
v -4.47035e-08 2 -0.7
v -4.47035e-08 2 -0.9
v -4.47035e-08 2 -1
v -4.47035e-08 2.1 0.1
v -4.47035e-08 2.1 0
v -4.47035e-08 2.1 -0.5
v -4.47035e-08 2.1 -0.7
v -4.47035e-08 2.1 -0.9
v -4.47035e-08 2.2 0.4
v -4.47035e-08 2.2 0.3
v -4.47035e-08 2.2 0.2
v -4.47035e-08 2.2 -0.2
v -4.47035e-08 2.2 -0.5
v -4.47035e-08 2.2 -0.7
v -4.47035e-08 2.3 0.3
v -4.47035e-08 2.3 0.2
v -4.47035e-08 2.3 -0.2
v -4.47035e-08 2.3 -0.5
v -4.47035e-08 2.4 0.2
v -4.47035e-08 2.4 -0.2
v 0.1 1.1 0.1
v 0.1 1.1 0
v 0.1 1.2 0.1
v 0.1 1.2 0
v -4.47035e-08 1.1 0.1
v -4.47035e-08 1.1 0
v -4.47035e-08 1.2 0.1
v -4.47035e-08 1.2 0
v 0.1 0.4 0
v 0.1 0.4 -0.1
v 0.1 0.8 -0.1
v 0.1 0.8 -0.2
v 0.1 0.9 -0.1
v 0.1 0.9 -0.2
v 0.1 0.9 -0.3
v 0.1 1.1 0
v 0.1 1.1 -0.1
v 0.1 1.1 -0.2
v 0.1 1.1 -0.3
v 0.1 1.2 0
v 0.1 1.2 -0.1
v 0.1 1.2 -0.2
v 0.1 1.5 0.1
v 0.1 1.5 0
v 0.1 1.5 -0.1
v 0.1 1.5 -0.2
v 0.1 1.5 -0.9
v 0.1 1.5 -1.1
v 0.1 1.6 0.1
v 0.1 1.6 0
v 0.1 1.6 -0.1
v 0.1 1.6 -0.2
v 0.1 1.6 -0.9
v 0.1 1.6 -1
v 0.1 1.6 -1.1
v 0.1 1.6 -1.2
v 0.1 1.7 -0.7
v 0.1 1.7 -1
v 0.1 1.7 -1.1
v 0.1 1.8 0.1
v 0.1 1.8 0
v 0.1 1.8 -0.3
v 0.1 1.8 -0.7
v 0.1 1.8 -1
v 0.1 1.8 -1.1
v 0.1 1.8 -1.2
v 0.1 1.9 0.3
v 0.1 1.9 0.1
v 0.1 1.9 0
v 0.1 1.9 -0.1
v 0.1 1.9 -0.3
v 0.1 1.9 -0.7
v 0.1 1.9 -0.9
v 0.1 1.9 -1
v 0.1 1.9 -1.1
v 0.1 2 0.4
v 0.1 2 0.3
v 0.1 2 0.1
v 0.1 2 0
v 0.1 2 -0.3
v 0.1 2 -0.7
v 0.1 2 -0.9
v 0.1 2 -1
v 0.1 2.1 0.1
v 0.1 2.1 0
v 0.1 2.1 -0.5
v 0.1 2.1 -0.7
v 0.1 2.1 -0.9
v 0.1 2.2 0.4
v 0.1 2.2 0.3
v 0.1 2.2 0.2
v 0.1 2.2 -0.2
v 0.1 2.2 -0.5
v 0.1 2.2 -0.7
v 0.1 2.3 0.3
v 0.1 2.3 0.2
v 0.1 2.3 -0.2
v 0.1 2.3 -0.5
v 0.1 2.4 0.2
v 0.1 2.4 -0.2
v 0.2 1.1 0.1
v 0.2 1.1 -0.1
v 0.2 1.2 0.1
v 0.2 1.2 -0.1
v 0.2 1.5 0
v 0.2 1.5 -0.1
v 0.2 1.6 0
v 0.2 1.6 -0.1
v 0.2 1.9 0.1
v 0.2 1.9 0
v 0.2 2.1 0.1
v 0.2 2.1 0
v -4.47035e-08 2 0.4
v -4.47035e-08 2.2 0.4
v 0.1 2 0.4
v 0.1 2.2 0.4
v -4.47035e-08 1.9 0.3
v -4.47035e-08 2 0.3
v -4.47035e-08 2.2 0.3
v -4.47035e-08 2.3 0.3
v 0.1 1.9 0.3
v 0.1 2 0.3
v 0.1 2.2 0.3
v 0.1 2.3 0.3
v -4.47035e-08 2.3 0.2
v -4.47035e-08 2.4 0.2
v 0.1 2.3 0.2
v 0.1 2.4 0.2
v -0.1 1.1 0.1
v -0.1 1.2 0.1
v -0.1 1.9 0.1
v -0.1 2.1 0.1
v -4.47035e-08 1.1 0.1
v -4.47035e-08 1.2 0.1
v -4.47035e-08 1.5 0.1
v -4.47035e-08 1.6 0.1
v -4.47035e-08 1.8 0.1
v -4.47035e-08 1.9 0.1
v -4.47035e-08 2 0.1
v -4.47035e-08 2.1 0.1
v 0.1 1.1 0.1
v 0.1 1.2 0.1
v 0.1 1.5 0.1
v 0.1 1.6 0.1
v 0.1 1.8 0.1
v 0.1 1.9 0.1
v 0.1 2 0.1
v 0.1 2.1 0.1
v 0.2 1.1 0.1
v 0.2 1.2 0.1
v 0.2 1.9 0.1
v 0.2 2.1 0.1
v -0.1 1.5 0
v -0.1 1.6 0
v -4.47035e-08 0.4 0
v -4.47035e-08 1.1 0
v -4.47035e-08 1.2 0
v -4.47035e-08 1.5 0
v -4.47035e-08 1.6 0
v -4.47035e-08 1.8 0
v 0.1 0.4 0
v 0.1 1.1 0
v 0.1 1.2 0
v 0.1 1.5 0
v 0.1 1.6 0
v 0.1 1.8 0
v 0.2 1.5 0
v 0.2 1.6 0
v -4.47035e-08 0.9 -0.2
v -4.47035e-08 1.1 -0.2
v 0.1 0.9 -0.2
v 0.1 1.1 -0.2
v -4.47035e-08 1.8 -0.3
v -4.47035e-08 1.9 -0.3
v 0.1 1.8 -0.3
v 0.1 1.9 -0.3
v -4.47035e-08 1.7 -0.7
v -4.47035e-08 1.8 -0.7
v 0.1 1.7 -0.7
v 0.1 1.8 -0.7
v -4.47035e-08 1.5 -0.9
v -4.47035e-08 1.6 -0.9
v 0.1 1.5 -0.9
v 0.1 1.6 -0.9
v -4.47035e-08 1.6 -1
v -4.47035e-08 1.7 -1
v 0.1 1.6 -1
v 0.1 1.7 -1
v -0.1 1.9 0
v -0.1 2.1 0
v -4.47035e-08 1.9 0
v -4.47035e-08 2 0
v -4.47035e-08 2.1 0
v 0.1 1.9 0
v 0.1 2 0
v 0.1 2.1 0
v 0.2 1.9 0
v 0.2 2.1 0
v -0.1 1.1 -0.1
v -0.1 1.2 -0.1
v -0.1 1.5 -0.1
v -0.1 1.6 -0.1
v -4.47035e-08 0.4 -0.1
v -4.47035e-08 0.8 -0.1
v -4.47035e-08 0.9 -0.1
v -4.47035e-08 1.1 -0.1
v -4.47035e-08 1.2 -0.1
v -4.47035e-08 1.5 -0.1
v -4.47035e-08 1.6 -0.1
v -4.47035e-08 1.9 -0.1
v 0.1 0.4 -0.1
v 0.1 0.8 -0.1
v 0.1 0.9 -0.1
v 0.1 1.1 -0.1
v 0.1 1.2 -0.1
v 0.1 1.5 -0.1
v 0.1 1.6 -0.1
v 0.1 1.9 -0.1
v 0.2 1.1 -0.1
v 0.2 1.2 -0.1
v 0.2 1.5 -0.1
v 0.2 1.6 -0.1
v -4.47035e-08 0.8 -0.2
v -4.47035e-08 0.9 -0.2
v -4.47035e-08 1.1 -0.2
v -4.47035e-08 1.2 -0.2
v -4.47035e-08 1.5 -0.2
v -4.47035e-08 1.6 -0.2
v -4.47035e-08 2.3 -0.2
v -4.47035e-08 2.4 -0.2
v 0.1 0.8 -0.2
v 0.1 0.9 -0.2
v 0.1 1.1 -0.2
v 0.1 1.2 -0.2
v 0.1 1.5 -0.2
v 0.1 1.6 -0.2
v 0.1 2.3 -0.2
v 0.1 2.4 -0.2
v -4.47035e-08 0.9 -0.3
v -4.47035e-08 1.1 -0.3
v 0.1 0.9 -0.3
v 0.1 1.1 -0.3
v -4.47035e-08 2.2 -0.5
v -4.47035e-08 2.3 -0.5
v 0.1 2.2 -0.5
v 0.1 2.3 -0.5
v -4.47035e-08 2.1 -0.7
v -4.47035e-08 2.2 -0.7
v 0.1 2.1 -0.7
v 0.1 2.2 -0.7
v -4.47035e-08 2 -0.9
v -4.47035e-08 2.1 -0.9
v 0.1 2 -0.9
v 0.1 2.1 -0.9
v -4.47035e-08 1.9 -1
v -4.47035e-08 2 -1
v 0.1 1.9 -1
v 0.1 2 -1
v -4.47035e-08 1.5 -1.1
v -4.47035e-08 1.6 -1.1
v -4.47035e-08 1.8 -1.1
v -4.47035e-08 1.9 -1.1
v 0.1 1.5 -1.1
v 0.1 1.6 -1.1
v 0.1 1.8 -1.1
v 0.1 1.9 -1.1
v -4.47035e-08 1.6 -1.2
v -4.47035e-08 1.8 -1.2
v 0.1 1.6 -1.2
v 0.1 1.8 -1.2
v -4.47035e-08 0.4 0
v 0.1 0.4 0
v -4.47035e-08 0.4 -0.1
v 0.1 0.4 -0.1
v -4.47035e-08 0.8 -0.1
v 0.1 0.8 -0.1
v -4.47035e-08 0.8 -0.2
v 0.1 0.8 -0.2
v -4.47035e-08 0.9 -0.2
v 0.1 0.9 -0.2
v -4.47035e-08 0.9 -0.3
v 0.1 0.9 -0.3
v -0.1 1.1 0.1
v -4.47035e-08 1.1 0.1
v 0.1 1.1 0.1
v 0.2 1.1 0.1
v -4.47035e-08 1.1 0
v 0.1 1.1 0
v -0.1 1.1 -0.1
v -4.47035e-08 1.1 -0.1
v 0.1 1.1 -0.1
v 0.2 1.1 -0.1
v -4.47035e-08 1.1 -0.2
v 0.1 1.1 -0.2
v -4.47035e-08 1.5 0.1
v 0.1 1.5 0.1
v -0.1 1.5 0
v -4.47035e-08 1.5 0
v 0.1 1.5 0
v 0.2 1.5 0
v -0.1 1.5 -0.1
v -4.47035e-08 1.5 -0.1
v 0.1 1.5 -0.1
v 0.2 1.5 -0.1
v -4.47035e-08 1.5 -0.2
v 0.1 1.5 -0.2
v -4.47035e-08 1.5 -0.9
v 0.1 1.5 -0.9
v -4.47035e-08 1.5 -1.1
v 0.1 1.5 -1.1
v -4.47035e-08 1.6 -1.1
v 0.1 1.6 -1.1
v -4.47035e-08 1.6 -1.2
v 0.1 1.6 -1.2
v -4.47035e-08 1.7 -0.7
v 0.1 1.7 -0.7
v -4.47035e-08 1.7 -1
v 0.1 1.7 -1
v -4.47035e-08 1.8 0.1
v 0.1 1.8 0.1
v -4.47035e-08 1.8 0
v 0.1 1.8 0
v -4.47035e-08 1.8 -0.3
v 0.1 1.8 -0.3
v -4.47035e-08 1.8 -0.7
v 0.1 1.8 -0.7
v -4.47035e-08 1.9 0.3
v 0.1 1.9 0.3
v -0.1 1.9 0.1
v -4.47035e-08 1.9 0.1
v 0.1 1.9 0.1
v 0.2 1.9 0.1
v -0.1 1.9 0
v -4.47035e-08 1.9 0
v 0.1 1.9 0
v 0.2 1.9 0
v -4.47035e-08 1.9 -0.1
v 0.1 1.9 -0.1
v -4.47035e-08 1.9 -0.3
v 0.1 1.9 -0.3
v -4.47035e-08 2 0.4
v 0.1 2 0.4
v -4.47035e-08 2 0.3
v 0.1 2 0.3
v -4.47035e-08 0.9 -0.1
v 0.1 0.9 -0.1
v -4.47035e-08 0.9 -0.2
v 0.1 0.9 -0.2
v -4.47035e-08 1.1 -0.2
v 0.1 1.1 -0.2
v -4.47035e-08 1.1 -0.3
v 0.1 1.1 -0.3
v -0.1 1.2 0.1
v -4.47035e-08 1.2 0.1
v 0.1 1.2 0.1
v 0.2 1.2 0.1
v -4.47035e-08 1.2 0
v 0.1 1.2 0
v -0.1 1.2 -0.1
v -4.47035e-08 1.2 -0.1
v 0.1 1.2 -0.1
v 0.2 1.2 -0.1
v -4.47035e-08 1.2 -0.2
v 0.1 1.2 -0.2
v -4.47035e-08 1.6 0.1
v 0.1 1.6 0.1
v -0.1 1.6 0
v -4.47035e-08 1.6 0
v 0.1 1.6 0
v 0.2 1.6 0
v -0.1 1.6 -0.1
v -4.47035e-08 1.6 -0.1
v 0.1 1.6 -0.1
v 0.2 1.6 -0.1
v -4.47035e-08 1.6 -0.2
v 0.1 1.6 -0.2
v -4.47035e-08 1.6 -0.9
v 0.1 1.6 -0.9
v -4.47035e-08 1.6 -1
v 0.1 1.6 -1
v -4.47035e-08 1.8 -1.1
v 0.1 1.8 -1.1
v -4.47035e-08 1.8 -1.2
v 0.1 1.8 -1.2
v -4.47035e-08 1.9 -1
v 0.1 1.9 -1
v -4.47035e-08 1.9 -1.1
v 0.1 1.9 -1.1
v -4.47035e-08 2 -0.9
v 0.1 2 -0.9
v -4.47035e-08 2 -1
v 0.1 2 -1
v -0.1 2.1 0.1
v -4.47035e-08 2.1 0.1
v 0.1 2.1 0.1
v 0.2 2.1 0.1
v -0.1 2.1 0
v -4.47035e-08 2.1 0
v 0.1 2.1 0
v 0.2 2.1 0
v -4.47035e-08 2.1 -0.7
v 0.1 2.1 -0.7
v -4.47035e-08 2.1 -0.9
v 0.1 2.1 -0.9
v -4.47035e-08 2.2 0.4
v 0.1 2.2 0.4
v -4.47035e-08 2.2 0.3
v 0.1 2.2 0.3
v -4.47035e-08 2.2 -0.5
v 0.1 2.2 -0.5
v -4.47035e-08 2.2 -0.7
v 0.1 2.2 -0.7
v -4.47035e-08 2.3 0.3
v 0.1 2.3 0.3
v -4.47035e-08 2.3 0.2
v 0.1 2.3 0.2
v -4.47035e-08 2.3 -0.2
v 0.1 2.3 -0.2
v -4.47035e-08 2.3 -0.5
v 0.1 2.3 -0.5
v -4.47035e-08 2.4 0.2
v 0.1 2.4 0.2
v -4.47035e-08 2.4 -0.2
v 0.1 2.4 -0.2

# faces
f 3/2/1 2/2/1 1/2/1
f 4/2/1 2/2/1 3/2/1
f 7/2/1 6/2/1 5/2/1
f 8/2/1 6/2/1 7/2/1
f 11/2/1 10/2/1 9/2/1
f 12/2/1 10/2/1 11/2/1
f 15/1/1 14/1/1 13/1/1
f 17/1/1 15/1/1 13/1/1
f 17/2/1 16/2/1 15/2/1
f 18/2/1 16/2/1 17/2/1
f 20/1/1 17/1/1 13/1/1
f 21/1/1 17/1/1 20/1/1
f 22/2/1 19/2/1 18/2/1
f 23/2/1 19/2/1 22/2/1
f 25/2/1 22/2/1 21/2/1
f 26/2/1 22/2/1 25/2/1
f 28/1/1 25/1/1 24/1/1
f 29/1/1 25/1/1 28/1/1
f 33/2/1 28/2/1 27/2/1
f 34/2/1 28/2/1 33/2/1
f 35/2/1 30/2/1 29/2/1
f 36/2/1 30/2/1 35/2/1
f 37/3/1 32/3/1 31/3/1
f 38/3/1 32/3/1 37/3/1
f 39/3/1 32/3/1 38/3/1
f 42/3/1 40/3/1 39/3/1
f 42/3/1 39/3/1 38/3/1
f 43/3/1 40/3/1 42/3/1
f 45/1/1 35/1/1 34/1/1
f 47/3/1 42/3/1 41/3/1
f 48/4/1 43/4/1 42/4/1
f 48/3/1 42/3/1 47/3/1
f 49/3/1 40/3/1 43/3/1
f 49/4/1 43/4/1 48/4/1
f 50/3/1 40/3/1 49/3/1
f 52/2/1 45/2/1 44/2/1
f 53/1/1 35/1/1 45/1/1
f 53/2/1 45/2/1 52/2/1
f 54/1/1 35/1/1 53/1/1
f 55/3/1 47/3/1 46/3/1
f 56/4/1 48/4/1 47/4/1
f 56/3/1 47/3/1 55/3/1
f 57/4/1 48/4/1 56/4/1
f 58/3/1 49/3/1 48/3/1
f 58/4/1 48/4/1 57/4/1
f 59/3/1 49/3/1 58/3/1
f 61/2/1 52/2/1 51/2/1
f 62/2/1 52/2/1 61/2/1
f 63/3/1 55/3/1 54/3/1
f 63/3/1 54/3/1 53/3/1
f 64/4/1 57/4/1 56/4/1
f 64/3/1 55/3/1 63/3/1
f 64/4/1 56/4/1 55/4/1
f 65/4/1 57/4/1 64/4/1
f 66/3/1 58/3/1 57/3/1
f 66/4/1 57/4/1 65/4/1
f 67/3/1 58/3/1 66/3/1
f 68/4/1 62/4/1 61/4/1
f 69/4/1 65/4/1 64/4/1
f 69/4/1 64/4/1 63/4/1
f 70/4/1 65/4/1 69/4/1
f 71/3/1 66/3/1 65/3/1
f 71/4/1 65/4/1 70/4/1
f 72/3/1 66/3/1 71/3/1
f 73/2/1 61/2/1 60/2/1
f 74/4/1 68/4/1 61/4/1
f 74/2/1 61/2/1 73/2/1
f 74/4/1 70/4/1 69/4/1
f 74/4/1 69/4/1 68/4/1
f 75/4/1 70/4/1 74/4/1
f 76/4/1 70/4/1 75/4/1
f 77/3/1 71/3/1 70/3/1
f 77/4/1 70/4/1 76/4/1
f 78/3/1 71/3/1 77/3/1
f 79/3/1 75/3/1 74/3/1
f 80/4/1 76/4/1 75/4/1
f 80/3/1 75/3/1 79/3/1
f 81/3/1 77/3/1 76/3/1
f 81/4/1 76/4/1 80/4/1
f 82/3/1 77/3/1 81/3/1
f 83/3/1 81/3/1 80/3/1
f 84/3/1 81/3/1 83/3/1
f 87/2/1 86/2/1 85/2/1
f 88/2/1 86/2/1 87/2/1
f 89/2/2 90/2/2 91/2/2
f 91/2/2 90/2/2 92/2/2
f 93/1/2 94/1/2 95/1/2
f 93/1/2 95/1/2 97/1/2
f 95/2/2 96/2/2 97/2/2
f 97/2/2 96/2/2 98/2/2
f 93/1/2 97/1/2 100/1/2
f 100/1/2 97/1/2 101/1/2
f 98/2/2 99/2/2 102/2/2
f 102/2/2 99/2/2 103/2/2
f 101/2/2 102/2/2 105/2/2
f 105/2/2 102/2/2 106/2/2
f 104/1/2 105/1/2 108/1/2
f 108/1/2 105/1/2 109/1/2
f 107/2/2 108/2/2 113/2/2
f 113/2/2 108/2/2 114/2/2
f 109/2/2 110/2/2 115/2/2
f 115/2/2 110/2/2 116/2/2
f 111/3/2 112/3/2 117/3/2
f 117/3/2 112/3/2 118/3/2
f 118/3/2 112/3/2 119/3/2
f 119/3/2 120/3/2 122/3/2
f 118/3/2 119/3/2 122/3/2
f 122/3/2 120/3/2 123/3/2
f 114/1/2 115/1/2 125/1/2
f 121/3/2 122/3/2 127/3/2
f 122/4/2 123/4/2 128/4/2
f 127/3/2 122/3/2 128/3/2
f 123/3/2 120/3/2 129/3/2
f 128/4/2 123/4/2 129/4/2
f 129/3/2 120/3/2 130/3/2
f 124/2/2 125/2/2 132/2/2
f 125/1/2 115/1/2 133/1/2
f 132/2/2 125/2/2 133/2/2
f 133/1/2 115/1/2 134/1/2
f 126/3/2 127/3/2 135/3/2
f 127/4/2 128/4/2 136/4/2
f 135/3/2 127/3/2 136/3/2
f 136/4/2 128/4/2 137/4/2
f 128/3/2 129/3/2 138/3/2
f 137/4/2 128/4/2 138/4/2
f 138/3/2 129/3/2 139/3/2
f 131/2/2 132/2/2 141/2/2
f 141/2/2 132/2/2 142/2/2
f 134/3/2 135/3/2 143/3/2
f 133/3/2 134/3/2 143/3/2
f 136/4/2 137/4/2 144/4/2
f 143/3/2 135/3/2 144/3/2
f 135/4/2 136/4/2 144/4/2
f 144/4/2 137/4/2 145/4/2
f 137/3/2 138/3/2 146/3/2
f 145/4/2 137/4/2 146/4/2
f 146/3/2 138/3/2 147/3/2
f 141/4/2 142/4/2 148/4/2
f 144/4/2 145/4/2 149/4/2
f 143/4/2 144/4/2 149/4/2
f 149/4/2 145/4/2 150/4/2
f 145/3/2 146/3/2 151/3/2
f 150/4/2 145/4/2 151/4/2
f 151/3/2 146/3/2 152/3/2
f 140/2/2 141/2/2 153/2/2
f 141/4/2 148/4/2 154/4/2
f 153/2/2 141/2/2 154/2/2
f 149/4/2 150/4/2 154/4/2
f 148/4/2 149/4/2 154/4/2
f 154/4/2 150/4/2 155/4/2
f 155/4/2 150/4/2 156/4/2
f 150/3/2 151/3/2 157/3/2
f 156/4/2 150/4/2 157/4/2
f 157/3/2 151/3/2 158/3/2
f 154/3/2 155/3/2 159/3/2
f 155/4/2 156/4/2 160/4/2
f 159/3/2 155/3/2 160/3/2
f 156/3/2 157/3/2 161/3/2
f 160/4/2 156/4/2 161/4/2
f 161/3/2 157/3/2 162/3/2
f 160/3/2 161/3/2 163/3/2
f 163/3/2 161/3/2 164/3/2
f 165/2/2 166/2/2 167/2/2
f 167/2/2 166/2/2 168/2/2
f 169/2/2 170/2/2 171/2/2
f 171/2/2 170/2/2 172/2/2
f 173/2/2 174/2/2 175/2/2
f 175/2/2 174/2/2 176/2/2
f 179/2/3 178/2/3 177/2/3
f 180/2/3 178/2/3 179/2/3
f 185/2/3 182/2/3 181/2/3
f 186/2/3 182/2/3 185/2/3
f 187/3/3 184/3/3 183/3/3
f 188/3/3 184/3/3 187/3/3
f 191/3/3 190/3/3 189/3/3
f 192/3/3 190/3/3 191/3/3
f 197/2/3 194/2/3 193/2/3
f 198/2/3 194/2/3 197/2/3
f 202/2/3 196/2/3 195/2/3
f 203/2/3 196/2/3 202/2/3
f 204/2/3 196/2/3 203/2/3
f 207/2/3 200/2/3 199/2/3
f 208/2/3 200/2/3 207/2/3
f 209/2/3 202/2/3 201/2/3
f 210/2/3 202/2/3 209/2/3
f 213/2/3 206/2/3 205/2/3
f 214/2/3 206/2/3 213/2/3
f 215/2/3 212/2/3 211/2/3
f 215/2/3 211/2/3 210/2/3
f 216/2/3 212/2/3 215/2/3
f 222/2/3 218/2/3 217/2/3
f 223/2/3 218/2/3 222/2/3
f 225/1/3 221/1/3 220/1/3
f 225/1/3 220/1/3 219/1/3
f 225/1/3 222/1/3 221/1/3
f 226/1/3 222/1/3 225/1/3
f 227/1/3 222/1/3 226/1/3
f 228/1/3 222/1/3 227/1/3
f 229/1/3 224/1/3 223/1/3
f 230/1/3 224/1/3 229/1/3
f 231/2/3 229/2/3 228/2/3
f 232/2/3 229/2/3 231/2/3
f 235/2/3 234/2/3 233/2/3
f 236/2/3 234/2/3 235/2/3
f 239/3/3 238/3/3 237/3/3
f 240/3/3 238/3/3 239/3/3
f 243/3/3 242/3/3 241/3/3
f 244/3/3 242/3/3 243/3/3
f 247/3/3 246/3/3 245/3/3
f 248/3/3 246/3/3 247/3/3
f 251/3/3 250/3/3 249/3/3
f 252/3/3 250/3/3 251/3/3
f 253/2/4 254/2/4 255/2/4
f 255/2/4 254/2/4 256/2/4
f 256/2/4 254/2/4 257/2/4
f 258/2/4 259/2/4 261/2/4
f 259/2/4 260/2/4 261/2/4
f 261/2/4 260/2/4 262/2/4
f 263/2/4 264/2/4 270/2/4
f 270/2/4 264/2/4 271/2/4
f 265/2/4 266/2/4 272/2/4
f 272/2/4 266/2/4 273/2/4
f 267/1/4 268/1/4 275/1/4
f 275/1/4 268/1/4 276/1/4
f 269/1/4 270/1/4 277/1/4
f 277/1/4 270/1/4 278/1/4
f 271/1/4 272/1/4 279/1/4
f 279/1/4 272/1/4 280/1/4
f 273/1/4 274/1/4 281/1/4
f 281/1/4 274/1/4 282/1/4
f 278/2/4 279/2/4 283/2/4
f 283/2/4 279/2/4 284/2/4
f 280/2/4 281/2/4 285/2/4
f 285/2/4 281/2/4 286/2/4
f 287/2/4 288/2/4 295/2/4
f 295/2/4 288/2/4 296/2/4
f 289/2/4 290/2/4 297/2/4
f 297/2/4 290/2/4 298/2/4
f 291/2/4 292/2/4 299/2/4
f 299/2/4 292/2/4 300/2/4
f 293/3/4 294/3/4 301/3/4
f 301/3/4 294/3/4 302/3/4
f 303/2/4 304/2/4 305/2/4
f 305/2/4 304/2/4 306/2/4
f 307/3/4 308/3/4 309/3/4
f 309/3/4 308/3/4 310/3/4
f 311/3/4 312/3/4 313/3/4
f 313/3/4 312/3/4 314/3/4
f 315/3/4 316/3/4 317/3/4
f 317/3/4 316/3/4 318/3/4
f 319/3/4 320/3/4 321/3/4
f 321/3/4 320/3/4 322/3/4
f 323/3/4 324/3/4 327/3/4
f 327/3/4 324/3/4 328/3/4
f 325/3/4 326/3/4 329/3/4
f 329/3/4 326/3/4 330/3/4
f 331/3/4 332/3/4 333/3/4
f 333/3/4 332/3/4 334/3/4
f 337/1/5 336/1/5 335/1/5
f 338/1/5 336/1/5 337/1/5
f 341/2/5 340/2/5 339/2/5
f 342/2/5 340/2/5 341/2/5
f 345/2/5 344/2/5 343/2/5
f 346/2/5 344/2/5 345/2/5
f 351/2/5 348/2/5 347/2/5
f 352/2/5 350/2/5 349/2/5
f 353/2/5 351/2/5 347/2/5
f 354/2/5 351/2/5 353/2/5
f 355/2/5 350/2/5 352/2/5
f 356/2/5 350/2/5 355/2/5
f 357/2/5 355/2/5 354/2/5
f 358/2/5 355/2/5 357/2/5
f 362/2/5 360/2/5 359/2/5
f 363/2/5 360/2/5 362/2/5
f 365/2/5 362/2/5 361/2/5
f 366/2/5 362/2/5 365/2/5
f 367/2/5 364/2/5 363/2/5
f 368/2/5 364/2/5 367/2/5
f 369/2/5 367/2/5 366/2/5
f 370/2/5 367/2/5 369/2/5
f 373/3/5 372/3/5 371/3/5
f 374/3/5 372/3/5 373/3/5
f 377/3/5 376/3/5 375/3/5
f 378/3/5 376/3/5 377/3/5
f 381/3/5 380/3/5 379/3/5
f 382/3/5 380/3/5 381/3/5
f 385/2/5 384/2/5 383/2/5
f 386/2/5 384/2/5 385/2/5
f 389/3/5 388/3/5 387/3/5
f 390/3/5 388/3/5 389/3/5
f 394/2/5 392/2/5 391/2/5
f 395/2/5 392/2/5 394/2/5
f 397/2/5 394/2/5 393/2/5
f 398/2/5 394/2/5 397/2/5
f 399/2/5 396/2/5 395/2/5
f 400/2/5 396/2/5 399/2/5
f 403/3/5 402/3/5 401/3/5
f 404/3/5 402/3/5 403/3/5
f 407/2/5 406/2/5 405/2/5
f 408/2/5 406/2/5 407/2/5
f 409/2/6 410/2/6 411/2/6
f 411/2/6 410/2/6 412/2/6
f 413/2/6 414/2/6 415/2/6
f 415/2/6 414/2/6 416/2/6
f 417/2/6 418/2/6 421/2/6
f 419/2/6 420/2/6 422/2/6
f 417/2/6 421/2/6 423/2/6
f 423/2/6 421/2/6 424/2/6
f 422/2/6 420/2/6 425/2/6
f 425/2/6 420/2/6 426/2/6
f 424/2/6 425/2/6 427/2/6
f 427/2/6 425/2/6 428/2/6
f 429/2/6 430/2/6 432/2/6
f 432/2/6 430/2/6 433/2/6
f 431/2/6 432/2/6 435/2/6
f 435/2/6 432/2/6 436/2/6
f 433/2/6 434/2/6 437/2/6
f 437/2/6 434/2/6 438/2/6
f 436/2/6 437/2/6 439/2/6
f 439/2/6 437/2/6 440/2/6
f 441/3/6 442/3/6 443/3/6
f 443/3/6 442/3/6 444/3/6
f 445/3/6 446/3/6 447/3/6
f 447/3/6 446/3/6 448/3/6
f 449/3/6 450/3/6 451/3/6
f 451/3/6 450/3/6 452/3/6
f 453/3/6 454/3/6 455/3/6
f 455/3/6 454/3/6 456/3/6
f 457/2/6 458/2/6 461/2/6
f 461/2/6 458/2/6 462/2/6
f 459/2/6 460/2/6 463/2/6
f 463/2/6 460/2/6 464/2/6
f 465/3/6 466/3/6 467/3/6
f 467/3/6 466/3/6 468/3/6
f 469/2/6 470/2/6 471/2/6
f 471/2/6 470/2/6 472/2/6
f 473/3/6 474/3/6 475/3/6
f 475/3/6 474/3/6 476/3/6
f 477/3/6 478/3/6 479/3/6
f 479/3/6 478/3/6 480/3/6
f 481/3/6 482/3/6 483/3/6
f 483/3/6 482/3/6 484/3/6
f 485/3/6 486/3/6 487/3/6
f 487/3/6 486/3/6 488/3/6
