# MagicaVoxel @ Ephtracy

# group
o 

# material
mtllib DruidStaff_lvl1.mtl
usemtl palette

# normals
vn -1 0 0
vn 1 0 0
vn 0 0 1
vn 0 0 -1
vn 0 -1 0
vn 0 1 0

# texcoords
vt 0.306641 0.5
vt 0.310547 0.5
vt 0.623047 0.5

# verts
v -0.1 0.4 0.1
v -0.1 0.4 0
v -0.1 0.5 0.1
v -0.1 0.5 0
v -0.1 0.6 0.1
v -0.1 0.6 0
v -0.1 0.7 0.1
v -0.1 0.7 0
v -0.1 0.8 0.1
v -0.1 0.8 0
v -0.1 0.9 0.1
v -0.1 0.9 0
v -0.1 1 0.1
v -0.1 1 0
v -0.1 1.4 0.2
v -0.1 1.4 0.1
v -0.1 1.4 0
v -0.1 1.4 -0.1
v -0.1 1.5 0.4
v -0.1 1.5 0.3
v -0.1 1.5 0.2
v -0.1 1.5 0.1
v -0.1 1.5 0
v -0.1 1.5 -0.1
v -0.1 1.6 0.5
v -0.1 1.6 0.4
v -0.1 1.6 0.3
v -0.1 1.7 0.3
v -0.1 1.7 0.2
v -0.1 1.8 0.3
v -0.1 1.8 0.2
v -0.1 1.9 0.5
v -0.1 1.9 0.4
v -0.1 1.9 0.1
v -0.1 1.9 0
v -0.1 2 0.4
v -0.1 2 0.1
v -4.47035e-08 0.4 0.1
v -4.47035e-08 0.4 0
v -4.47035e-08 0.5 0.1
v -4.47035e-08 0.5 0
v -4.47035e-08 0.6 0.1
v -4.47035e-08 0.6 0
v -4.47035e-08 0.7 0.1
v -4.47035e-08 0.7 0
v -4.47035e-08 0.8 0.1
v -4.47035e-08 0.8 0
v -4.47035e-08 0.9 0.1
v -4.47035e-08 0.9 0
v -4.47035e-08 1 0.1
v -4.47035e-08 1 0
v -4.47035e-08 1.4 0.2
v -4.47035e-08 1.4 0.1
v -4.47035e-08 1.4 0
v -4.47035e-08 1.4 -0.1
v -4.47035e-08 1.5 0.4
v -4.47035e-08 1.5 0.3
v -4.47035e-08 1.5 0.2
v -4.47035e-08 1.5 0.1
v -4.47035e-08 1.5 0
v -4.47035e-08 1.5 -0.1
v -4.47035e-08 1.6 0.5
v -4.47035e-08 1.6 0.4
v -4.47035e-08 1.6 0.3
v -4.47035e-08 1.7 0.3
v -4.47035e-08 1.7 0.2
v -4.47035e-08 1.8 0.3
v -4.47035e-08 1.8 0.2
v -4.47035e-08 1.9 0.5
v -4.47035e-08 1.9 0.4
v -4.47035e-08 1.9 0.1
v -4.47035e-08 1.9 0
v -4.47035e-08 2 0.4
v -4.47035e-08 2 0.1
v -0.1 1.6 0.5
v -0.1 1.9 0.5
v -4.47035e-08 1.6 0.5
v -4.47035e-08 1.9 0.5
v -0.1 1.5 0.4
v -0.1 1.6 0.4
v -0.1 1.9 0.4
v -0.1 2 0.4
v -4.47035e-08 1.5 0.4
v -4.47035e-08 1.6 0.4
v -4.47035e-08 1.9 0.4
v -4.47035e-08 2 0.4
v -0.1 1.7 0.3
v -0.1 1.8 0.3
v -4.47035e-08 1.7 0.3
v -4.47035e-08 1.8 0.3
v -0.1 1.4 0.2
v -0.1 1.5 0.2
v -4.47035e-08 1.4 0.2
v -4.47035e-08 1.5 0.2
v -0.1 0.4 0.1
v -0.1 0.5 0.1
v -0.1 0.6 0.1
v -0.1 0.7 0.1
v -0.1 0.8 0.1
v -0.1 0.9 0.1
v -0.1 1 0.1
v -0.1 1.4 0.1
v -0.1 1.5 0.1
v -0.1 1.9 0.1
v -4.47035e-08 0.4 0.1
v -4.47035e-08 0.5 0.1
v -4.47035e-08 0.6 0.1
v -4.47035e-08 0.7 0.1
v -4.47035e-08 0.8 0.1
v -4.47035e-08 0.9 0.1
v -4.47035e-08 1 0.1
v -4.47035e-08 1.4 0.1
v -4.47035e-08 1.5 0.1
v -4.47035e-08 1.9 0.1
v -0.1 1.6 0.4
v -0.1 1.9 0.4
v -4.47035e-08 1.6 0.4
v -4.47035e-08 1.9 0.4
v -0.1 1.5 0.3
v -0.1 1.6 0.3
v -4.47035e-08 1.5 0.3
v -4.47035e-08 1.6 0.3
v -0.1 1.7 0.2
v -0.1 1.8 0.2
v -4.47035e-08 1.7 0.2
v -4.47035e-08 1.8 0.2
v -0.1 1.9 0.1
v -0.1 2 0.1
v -4.47035e-08 1.9 0.1
v -4.47035e-08 2 0.1
v -0.1 0.4 0
v -0.1 0.5 0
v -0.1 0.6 0
v -0.1 0.7 0
v -0.1 0.8 0
v -0.1 0.9 0
v -0.1 1 0
v -0.1 1.4 0
v -0.1 1.5 0
v -0.1 1.9 0
v -4.47035e-08 0.4 0
v -4.47035e-08 0.5 0
v -4.47035e-08 0.6 0
v -4.47035e-08 0.7 0
v -4.47035e-08 0.8 0
v -4.47035e-08 0.9 0
v -4.47035e-08 1 0
v -4.47035e-08 1.4 0
v -4.47035e-08 1.5 0
v -4.47035e-08 1.9 0
v -0.1 1.4 -0.1
v -0.1 1.5 -0.1
v -4.47035e-08 1.4 -0.1
v -4.47035e-08 1.5 -0.1
v -0.1 0.4 0.1
v -4.47035e-08 0.4 0.1
v -0.1 0.4 0
v -4.47035e-08 0.4 0
v -0.1 1.4 0.2
v -4.47035e-08 1.4 0.2
v -0.1 1.4 0.1
v -4.47035e-08 1.4 0.1
v -0.1 1.4 0
v -4.47035e-08 1.4 0
v -0.1 1.4 -0.1
v -4.47035e-08 1.4 -0.1
v -0.1 1.5 0.4
v -4.47035e-08 1.5 0.4
v -0.1 1.5 0.3
v -4.47035e-08 1.5 0.3
v -0.1 1.6 0.5
v -4.47035e-08 1.6 0.5
v -0.1 1.6 0.4
v -4.47035e-08 1.6 0.4
v -0.1 1.7 0.3
v -4.47035e-08 1.7 0.3
v -0.1 1.7 0.2
v -4.47035e-08 1.7 0.2
v -0.1 1.9 0.4
v -4.47035e-08 1.9 0.4
v -0.1 1.9 0.1
v -4.47035e-08 1.9 0.1
v -0.1 1.5 0.2
v -4.47035e-08 1.5 0.2
v -0.1 1.5 0.1
v -4.47035e-08 1.5 0.1
v -0.1 1.5 0
v -4.47035e-08 1.5 0
v -0.1 1.5 -0.1
v -4.47035e-08 1.5 -0.1
v -0.1 1.6 0.4
v -4.47035e-08 1.6 0.4
v -0.1 1.6 0.3
v -4.47035e-08 1.6 0.3
v -0.1 1.8 0.3
v -4.47035e-08 1.8 0.3
v -0.1 1.8 0.2
v -4.47035e-08 1.8 0.2
v -0.1 1.9 0.5
v -4.47035e-08 1.9 0.5
v -0.1 1.9 0.4
v -4.47035e-08 1.9 0.4
v -0.1 1.9 0.1
v -4.47035e-08 1.9 0.1
v -0.1 1.9 0
v -4.47035e-08 1.9 0
v -0.1 2 0.4
v -4.47035e-08 2 0.4
v -0.1 2 0.1
v -4.47035e-08 2 0.1

# faces
f 3/2/1 2/2/1 1/2/1
f 4/2/1 2/2/1 3/2/1
f 5/1/1 4/1/1 3/1/1
f 6/1/1 4/1/1 5/1/1
f 7/2/1 6/2/1 5/2/1
f 8/2/1 6/2/1 7/2/1
f 9/1/1 8/1/1 7/1/1
f 10/1/1 8/1/1 9/1/1
f 11/2/1 10/2/1 9/2/1
f 12/2/1 10/2/1 11/2/1
f 13/1/1 12/1/1 11/1/1
f 14/1/1 12/1/1 13/1/1
f 16/2/1 14/2/1 13/2/1
f 17/2/1 14/2/1 16/2/1
f 21/1/1 17/1/1 16/1/1
f 21/1/1 16/1/1 15/1/1
f 21/1/1 18/1/1 17/1/1
f 22/1/1 18/1/1 21/1/1
f 23/1/1 18/1/1 22/1/1
f 24/1/1 18/1/1 23/1/1
f 26/2/1 20/2/1 19/2/1
f 27/2/1 20/2/1 26/2/1
f 30/3/1 29/3/1 28/3/1
f 31/3/1 29/3/1 30/3/1
f 32/2/1 26/2/1 25/2/1
f 33/2/1 26/2/1 32/2/1
f 34/2/1 23/2/1 22/2/1
f 35/2/1 23/2/1 34/2/1
f 36/2/1 34/2/1 33/2/1
f 37/2/1 34/2/1 36/2/1
f 38/2/2 39/2/2 40/2/2
f 40/2/2 39/2/2 41/2/2
f 40/1/2 41/1/2 42/1/2
f 42/1/2 41/1/2 43/1/2
f 42/2/2 43/2/2 44/2/2
f 44/2/2 43/2/2 45/2/2
f 44/1/2 45/1/2 46/1/2
f 46/1/2 45/1/2 47/1/2
f 46/2/2 47/2/2 48/2/2
f 48/2/2 47/2/2 49/2/2
f 48/1/2 49/1/2 50/1/2
f 50/1/2 49/1/2 51/1/2
f 50/2/2 51/2/2 53/2/2
f 53/2/2 51/2/2 54/2/2
f 53/1/2 54/1/2 58/1/2
f 52/1/2 53/1/2 58/1/2
f 54/1/2 55/1/2 58/1/2
f 58/1/2 55/1/2 59/1/2
f 59/1/2 55/1/2 60/1/2
f 60/1/2 55/1/2 61/1/2
f 56/2/2 57/2/2 63/2/2
f 63/2/2 57/2/2 64/2/2
f 65/3/2 66/3/2 67/3/2
f 67/3/2 66/3/2 68/3/2
f 62/2/2 63/2/2 69/2/2
f 69/2/2 63/2/2 70/2/2
f 59/2/2 60/2/2 71/2/2
f 71/2/2 60/2/2 72/2/2
f 70/2/2 71/2/2 73/2/2
f 73/2/2 71/2/2 74/2/2
f 77/2/3 76/2/3 75/2/3
f 78/2/3 76/2/3 77/2/3
f 83/2/3 80/2/3 79/2/3
f 84/2/3 80/2/3 83/2/3
f 85/2/3 82/2/3 81/2/3
f 86/2/3 82/2/3 85/2/3
f 89/3/3 88/3/3 87/3/3
f 90/3/3 88/3/3 89/3/3
f 93/1/3 92/1/3 91/1/3
f 94/1/3 92/1/3 93/1/3
f 105/2/3 96/2/3 95/2/3
f 106/1/3 97/1/3 96/1/3
f 106/2/3 96/2/3 105/2/3
f 107/2/3 98/2/3 97/2/3
f 107/1/3 97/1/3 106/1/3
f 108/1/3 99/1/3 98/1/3
f 108/2/3 98/2/3 107/2/3
f 109/2/3 100/2/3 99/2/3
f 109/1/3 99/1/3 108/1/3
f 110/1/3 101/1/3 100/1/3
f 110/2/3 100/2/3 109/2/3
f 111/2/3 102/2/3 101/2/3
f 111/1/3 101/1/3 110/1/3
f 112/2/3 102/2/3 111/2/3
f 113/2/3 104/2/3 103/2/3
f 114/2/3 104/2/3 113/2/3
f 115/2/4 116/2/4 117/2/4
f 117/2/4 116/2/4 118/2/4
f 119/2/4 120/2/4 121/2/4
f 121/2/4 120/2/4 122/2/4
f 123/3/4 124/3/4 125/3/4
f 125/3/4 124/3/4 126/3/4
f 127/2/4 128/2/4 129/2/4
f 129/2/4 128/2/4 130/2/4
f 131/2/4 132/2/4 141/2/4
f 132/1/4 133/1/4 142/1/4
f 141/2/4 132/2/4 142/2/4
f 133/2/4 134/2/4 143/2/4
f 142/1/4 133/1/4 143/1/4
f 134/1/4 135/1/4 144/1/4
f 143/2/4 134/2/4 144/2/4
f 135/2/4 136/2/4 145/2/4
f 144/1/4 135/1/4 145/1/4
f 136/1/4 137/1/4 146/1/4
f 145/2/4 136/2/4 146/2/4
f 137/2/4 138/2/4 147/2/4
f 146/1/4 137/1/4 147/1/4
f 147/2/4 138/2/4 148/2/4
f 139/2/4 140/2/4 149/2/4
f 149/2/4 140/2/4 150/2/4
f 151/1/4 152/1/4 153/1/4
f 153/1/4 152/1/4 154/1/4
f 157/2/5 156/2/5 155/2/5
f 158/2/5 156/2/5 157/2/5
f 161/1/5 160/1/5 159/1/5
f 162/1/5 160/1/5 161/1/5
f 165/1/5 164/1/5 163/1/5
f 166/1/5 164/1/5 165/1/5
f 169/2/5 168/2/5 167/2/5
f 170/2/5 168/2/5 169/2/5
f 173/2/5 172/2/5 171/2/5
f 174/2/5 172/2/5 173/2/5
f 177/3/5 176/3/5 175/3/5
f 178/3/5 176/3/5 177/3/5
f 181/2/5 180/2/5 179/2/5
f 182/2/5 180/2/5 181/2/5
f 183/1/6 184/1/6 185/1/6
f 185/1/6 184/1/6 186/1/6
f 187/1/6 188/1/6 189/1/6
f 189/1/6 188/1/6 190/1/6
f 191/2/6 192/2/6 193/2/6
f 193/2/6 192/2/6 194/2/6
f 195/3/6 196/3/6 197/3/6
f 197/3/6 196/3/6 198/3/6
f 199/2/6 200/2/6 201/2/6
f 201/2/6 200/2/6 202/2/6
f 203/2/6 204/2/6 205/2/6
f 205/2/6 204/2/6 206/2/6
f 207/2/6 208/2/6 209/2/6
f 209/2/6 208/2/6 210/2/6
