# MagicaVoxel @ Ephtracy

# group
o 

# material
mtllib DruidStaff_lvl2.mtl
usemtl palette

# normals
vn -1 0 0
vn 1 0 0
vn 0 0 1
vn 0 0 -1
vn 0 -1 0
vn 0 1 0

# texcoords
vt 0.306641 0.5
vt 0.310547 0.5
vt 0.583984 0.5
vt 0.623047 0.5

# verts
v -0.2 0.7 0.1
v -0.2 0.7 0
v -0.2 0.8 0.1
v -0.2 0.8 0
v -0.2 1.1 0.1
v -0.2 1.1 0
v -0.2 1.2 0.1
v -0.2 1.2 0
v -0.2 1.5 0.1
v -0.2 1.5 0
v -0.2 1.6 0.1
v -0.2 1.6 0
v -0.0999999 0.4 0.1
v -0.0999999 0.4 0
v -0.0999999 0.6 0.2
v -0.0999999 0.6 0.1
v -0.0999999 0.7 0.2
v -0.0999999 0.7 0.1
v -0.0999999 0.7 0
v -0.0999999 0.8 0.1
v -0.0999999 0.8 0
v -0.0999999 0.8 -0.1
v -0.0999999 0.9 0.1
v -0.0999999 0.9 0
v -0.0999999 0.9 -0.1
v -0.0999999 1 0.2
v -0.0999999 1 0.1
v -0.0999999 1 0
v -0.0999999 1.1 0.2
v -0.0999999 1.1 0.1
v -0.0999999 1.1 0
v -0.0999999 1.2 0.1
v -0.0999999 1.2 0
v -0.0999999 1.2 -0.1
v -0.0999999 1.3 0.1
v -0.0999999 1.3 0
v -0.0999999 1.3 -0.1
v -0.0999999 1.4 0.2
v -0.0999999 1.4 0.1
v -0.0999999 1.5 0.2
v -0.0999999 1.5 0.1
v -0.0999999 1.5 0
v -0.0999999 1.6 0.7
v -0.0999999 1.6 0.6
v -0.0999999 1.6 0.1
v -0.0999999 1.6 0
v -0.0999999 1.6 -0.1
v -0.0999999 1.7 0.7
v -0.0999999 1.7 0.6
v -0.0999999 1.7 0.5
v -0.0999999 1.7 0.2
v -0.0999999 1.7 0.1
v -0.0999999 1.7 0
v -0.0999999 1.7 -0.1
v -0.0999999 1.8 0.6
v -0.0999999 1.8 0.5
v -0.0999999 1.8 0.4
v -0.0999999 1.8 0.3
v -0.0999999 1.8 0.2
v -0.0999999 1.8 0.1
v -0.0999999 1.8 0
v -0.0999999 1.8 -0.1
v -0.0999999 1.9 0.5
v -0.0999999 1.9 0.4
v -0.0999999 1.9 0.3
v -0.0999999 2 0.8
v -0.0999999 2 0.6
v -0.0999999 2 0.3
v -0.0999999 2 0.2
v -0.0999999 2 -0.1
v -0.0999999 2 -0.3
v -0.0999999 2.1 0.8
v -0.0999999 2.1 0.6
v -0.0999999 2.1 0.3
v -0.0999999 2.1 0.2
v -0.0999999 2.1 -0.1
v -0.0999999 2.1 -0.3
v -0.0999999 2.2 0.5
v -0.0999999 2.2 0.4
v -0.0999999 2.2 0.1
v -0.0999999 2.2 0
v -0.0999999 2.3 0.6
v -0.0999999 2.3 0.5
v -0.0999999 2.3 0.4
v -0.0999999 2.3 0.1
v -0.0999999 2.3 0
v -0.0999999 2.3 -0.1
v -0.0999999 2.4 0.7
v -0.0999999 2.4 0.6
v -0.0999999 2.4 0.5
v -0.0999999 2.4 0.3
v -0.0999999 2.4 0.2
v -0.0999999 2.4 0
v -0.0999999 2.4 -0.1
v -0.0999999 2.4 -0.2
v -0.0999999 2.5 0.7
v -0.0999999 2.5 0.6
v -0.0999999 2.5 -0.1
v -0.0999999 2.5 -0.2
v -0.0999999 2.6 0.3
v -0.0999999 2.6 0.2
v 5.96046e-08 0.4 0.1
v 5.96046e-08 0.4 0
v 5.96046e-08 0.5 0.1
v 5.96046e-08 0.5 0
v 5.96046e-08 0.6 0.2
v 5.96046e-08 0.6 0.1
v 5.96046e-08 0.6 0
v 5.96046e-08 0.7 0.2
v 5.96046e-08 0.7 0.1
v 5.96046e-08 0.8 0.1
v 5.96046e-08 0.8 0
v 5.96046e-08 0.8 -0.1
v 5.96046e-08 0.9 0.1
v 5.96046e-08 0.9 0
v 5.96046e-08 0.9 -0.1
v 5.96046e-08 1 0.2
v 5.96046e-08 1 0.1
v 5.96046e-08 1 0
v 5.96046e-08 1.1 0.2
v 5.96046e-08 1.1 0.1
v 5.96046e-08 1.1 0
v 5.96046e-08 1.2 0.1
v 5.96046e-08 1.2 0
v 5.96046e-08 1.2 -0.1
v 5.96046e-08 1.3 0.1
v 5.96046e-08 1.3 0
v 5.96046e-08 1.3 -0.1
v 5.96046e-08 1.4 0.2
v 5.96046e-08 1.4 0.1
v 5.96046e-08 1.4 0
v 5.96046e-08 1.5 0.2
v 5.96046e-08 1.5 0.1
v 5.96046e-08 1.6 0.7
v 5.96046e-08 1.6 0.6
v 5.96046e-08 1.6 0
v 5.96046e-08 1.6 -0.1
v 5.96046e-08 1.7 0.7
v 5.96046e-08 1.7 0.6
v 5.96046e-08 1.7 0.5
v 5.96046e-08 1.7 0.2
v 5.96046e-08 1.7 0.1
v 5.96046e-08 1.7 0
v 5.96046e-08 1.7 -0.1
v 5.96046e-08 1.8 0.6
v 5.96046e-08 1.8 0.5
v 5.96046e-08 1.8 0.4
v 5.96046e-08 1.8 0.3
v 5.96046e-08 1.8 0.2
v 5.96046e-08 1.8 0.1
v 5.96046e-08 1.8 0
v 5.96046e-08 1.8 -0.1
v 5.96046e-08 1.9 0.5
v 5.96046e-08 1.9 0.4
v 5.96046e-08 1.9 0.3
v 5.96046e-08 2 0.8
v 5.96046e-08 2 0.6
v 5.96046e-08 2 0.3
v 5.96046e-08 2 0.2
v 5.96046e-08 2 -0.1
v 5.96046e-08 2 -0.3
v 5.96046e-08 2.1 0.8
v 5.96046e-08 2.1 0.6
v 5.96046e-08 2.1 0.3
v 5.96046e-08 2.1 0.2
v 5.96046e-08 2.1 -0.1
v 5.96046e-08 2.1 -0.3
v 5.96046e-08 2.2 0.5
v 5.96046e-08 2.2 0.4
v 5.96046e-08 2.2 0.1
v 5.96046e-08 2.2 0
v 5.96046e-08 2.3 0.6
v 5.96046e-08 2.3 0.5
v 5.96046e-08 2.3 0.4
v 5.96046e-08 2.3 0.1
v 5.96046e-08 2.3 0
v 5.96046e-08 2.3 -0.1
v 5.96046e-08 2.4 0.7
v 5.96046e-08 2.4 0.6
v 5.96046e-08 2.4 0.5
v 5.96046e-08 2.4 0.3
v 5.96046e-08 2.4 0.2
v 5.96046e-08 2.4 0
v 5.96046e-08 2.4 -0.1
v 5.96046e-08 2.4 -0.2
v 5.96046e-08 2.5 0.7
v 5.96046e-08 2.5 0.6
v 5.96046e-08 2.5 -0.1
v 5.96046e-08 2.5 -0.2
v 5.96046e-08 2.6 0.3
v 5.96046e-08 2.6 0.2
v 0.1 0.5 0.1
v 0.1 0.5 0
v 0.1 0.6 0.1
v 0.1 0.6 0
v 0.1 0.9 0.1
v 0.1 0.9 0
v 0.1 1 0.1
v 0.1 1 0
v 0.1 1.3 0.1
v 0.1 1.3 0
v 0.1 1.4 0.1
v 0.1 1.4 0
v -0.0999999 2 0.8
v -0.0999999 2.1 0.8
v 5.96046e-08 2 0.8
v 5.96046e-08 2.1 0.8
v -0.0999999 1.6 0.7
v -0.0999999 1.7 0.7
v -0.0999999 2.4 0.7
v -0.0999999 2.5 0.7
v 5.96046e-08 1.6 0.7
v 5.96046e-08 1.7 0.7
v 5.96046e-08 2.4 0.7
v 5.96046e-08 2.5 0.7
v -0.0999999 1.7 0.6
v -0.0999999 1.8 0.6
v -0.0999999 2.3 0.6
v -0.0999999 2.4 0.6
v 5.96046e-08 1.7 0.6
v 5.96046e-08 1.8 0.6
v 5.96046e-08 2.3 0.6
v 5.96046e-08 2.4 0.6
v -0.0999999 1.9 0.5
v -0.0999999 2.2 0.5
v 5.96046e-08 1.9 0.5
v 5.96046e-08 2.2 0.5
v -0.0999999 1.8 0.4
v -0.0999999 1.9 0.4
v -0.0999999 2.2 0.4
v -0.0999999 2.3 0.4
v 5.96046e-08 1.8 0.4
v 5.96046e-08 1.9 0.4
v 5.96046e-08 2.2 0.4
v 5.96046e-08 2.3 0.4
v -0.0999999 2 0.3
v -0.0999999 2.1 0.3
v -0.0999999 2.4 0.3
v -0.0999999 2.6 0.3
v 5.96046e-08 2 0.3
v 5.96046e-08 2.1 0.3
v 5.96046e-08 2.4 0.3
v 5.96046e-08 2.6 0.3
v -0.0999999 0.6 0.2
v -0.0999999 0.7 0.2
v -0.0999999 1 0.2
v -0.0999999 1.1 0.2
v -0.0999999 1.4 0.2
v -0.0999999 1.5 0.2
v -0.0999999 1.7 0.2
v -0.0999999 1.8 0.2
v 5.96046e-08 0.6 0.2
v 5.96046e-08 0.7 0.2
v 5.96046e-08 1 0.2
v 5.96046e-08 1.1 0.2
v 5.96046e-08 1.4 0.2
v 5.96046e-08 1.5 0.2
v 5.96046e-08 1.7 0.2
v 5.96046e-08 1.8 0.2
v -0.2 0.7 0.1
v -0.2 0.8 0.1
v -0.2 1.1 0.1
v -0.2 1.2 0.1
v -0.2 1.5 0.1
v -0.2 1.6 0.1
v -0.0999999 0.4 0.1
v -0.0999999 0.6 0.1
v -0.0999999 0.7 0.1
v -0.0999999 0.8 0.1
v -0.0999999 0.9 0.1
v -0.0999999 1 0.1
v -0.0999999 1.1 0.1
v -0.0999999 1.2 0.1
v -0.0999999 1.3 0.1
v -0.0999999 1.4 0.1
v -0.0999999 1.5 0.1
v -0.0999999 1.6 0.1
v -0.0999999 1.7 0.1
v -0.0999999 1.8 0.1
v -0.0999999 2.2 0.1
v 5.96046e-08 0.4 0.1
v 5.96046e-08 0.5 0.1
v 5.96046e-08 0.6 0.1
v 5.96046e-08 0.7 0.1
v 5.96046e-08 0.8 0.1
v 5.96046e-08 0.9 0.1
v 5.96046e-08 1 0.1
v 5.96046e-08 1.1 0.1
v 5.96046e-08 1.2 0.1
v 5.96046e-08 1.3 0.1
v 5.96046e-08 1.4 0.1
v 5.96046e-08 1.5 0.1
v 5.96046e-08 1.7 0.1
v 5.96046e-08 1.8 0.1
v 5.96046e-08 2.2 0.1
v 0.1 0.5 0.1
v 0.1 0.6 0.1
v 0.1 0.9 0.1
v 0.1 1 0.1
v 0.1 1.3 0.1
v 0.1 1.4 0.1
v -0.0999999 2.3 0
v -0.0999999 2.4 0
v 5.96046e-08 2.3 0
v 5.96046e-08 2.4 0
v -0.0999999 2 -0.1
v -0.0999999 2.1 -0.1
v -0.0999999 2.4 -0.1
v -0.0999999 2.5 -0.1
v 5.96046e-08 2 -0.1
v 5.96046e-08 2.1 -0.1
v 5.96046e-08 2.4 -0.1
v 5.96046e-08 2.5 -0.1
v -0.0999999 1.6 0.6
v -0.0999999 1.7 0.6
v -0.0999999 2 0.6
v -0.0999999 2.1 0.6
v -0.0999999 2.4 0.6
v -0.0999999 2.5 0.6
v 5.96046e-08 1.6 0.6
v 5.96046e-08 1.7 0.6
v 5.96046e-08 2 0.6
v 5.96046e-08 2.1 0.6
v 5.96046e-08 2.4 0.6
v 5.96046e-08 2.5 0.6
v -0.0999999 1.7 0.5
v -0.0999999 1.8 0.5
v -0.0999999 2.3 0.5
v -0.0999999 2.4 0.5
v 5.96046e-08 1.7 0.5
v 5.96046e-08 1.8 0.5
v 5.96046e-08 2.3 0.5
v 5.96046e-08 2.4 0.5
v -0.0999999 1.9 0.4
v -0.0999999 2.2 0.4
v 5.96046e-08 1.9 0.4
v 5.96046e-08 2.2 0.4
v -0.0999999 1.8 0.3
v -0.0999999 1.9 0.3
v 5.96046e-08 1.8 0.3
v 5.96046e-08 1.9 0.3
v -0.0999999 2 0.2
v -0.0999999 2.1 0.2
v -0.0999999 2.4 0.2
v -0.0999999 2.6 0.2
v 5.96046e-08 2 0.2
v 5.96046e-08 2.1 0.2
v 5.96046e-08 2.4 0.2
v 5.96046e-08 2.6 0.2
v -0.0999999 2.2 0.1
v -0.0999999 2.3 0.1
v 5.96046e-08 2.2 0.1
v 5.96046e-08 2.3 0.1
v -0.2 0.7 0
v -0.2 0.8 0
v -0.2 1.1 0
v -0.2 1.2 0
v -0.2 1.5 0
v -0.2 1.6 0
v -0.0999999 0.4 0
v -0.0999999 0.7 0
v -0.0999999 0.8 0
v -0.0999999 0.9 0
v -0.0999999 1 0
v -0.0999999 1.1 0
v -0.0999999 1.2 0
v -0.0999999 1.3 0
v -0.0999999 1.5 0
v -0.0999999 1.6 0
v -0.0999999 1.8 0
v -0.0999999 2.2 0
v 5.96046e-08 0.4 0
v 5.96046e-08 0.5 0
v 5.96046e-08 0.6 0
v 5.96046e-08 0.8 0
v 5.96046e-08 0.9 0
v 5.96046e-08 1 0
v 5.96046e-08 1.1 0
v 5.96046e-08 1.2 0
v 5.96046e-08 1.3 0
v 5.96046e-08 1.4 0
v 5.96046e-08 1.6 0
v 5.96046e-08 1.8 0
v 5.96046e-08 2.2 0
v 0.1 0.5 0
v 0.1 0.6 0
v 0.1 0.9 0
v 0.1 1 0
v 0.1 1.3 0
v 0.1 1.4 0
v -0.0999999 0.8 -0.1
v -0.0999999 0.9 -0.1
v -0.0999999 1.2 -0.1
v -0.0999999 1.3 -0.1
v -0.0999999 1.6 -0.1
v -0.0999999 1.7 -0.1
v -0.0999999 1.8 -0.1
v -0.0999999 2.3 -0.1
v -0.0999999 2.4 -0.1
v 5.96046e-08 0.8 -0.1
v 5.96046e-08 0.9 -0.1
v 5.96046e-08 1.2 -0.1
v 5.96046e-08 1.3 -0.1
v 5.96046e-08 1.6 -0.1
v 5.96046e-08 1.7 -0.1
v 5.96046e-08 1.8 -0.1
v 5.96046e-08 2.3 -0.1
v 5.96046e-08 2.4 -0.1
v -0.0999999 2.4 -0.2
v -0.0999999 2.5 -0.2
v 5.96046e-08 2.4 -0.2
v 5.96046e-08 2.5 -0.2
v -0.0999999 2 -0.3
v -0.0999999 2.1 -0.3
v 5.96046e-08 2 -0.3
v 5.96046e-08 2.1 -0.3
v -0.0999999 0.4 0.1
v 5.96046e-08 0.4 0.1
v -0.0999999 0.4 0
v 5.96046e-08 0.4 0
v 5.96046e-08 0.5 0.1
v 0.1 0.5 0.1
v 5.96046e-08 0.5 0
v 0.1 0.5 0
v -0.0999999 0.6 0.2
v 5.96046e-08 0.6 0.2
v -0.0999999 0.6 0.1
v 5.96046e-08 0.6 0.1
v -0.2 0.7 0.1
v -0.0999999 0.7 0.1
v -0.2 0.7 0
v -0.0999999 0.7 0
v -0.0999999 0.8 0
v 5.96046e-08 0.8 0
v -0.0999999 0.8 -0.1
v 5.96046e-08 0.8 -0.1
v 5.96046e-08 0.9 0.1
v 0.1 0.9 0.1
v 5.96046e-08 0.9 0
v 0.1 0.9 0
v -0.0999999 1 0.2
v 5.96046e-08 1 0.2
v -0.0999999 1 0.1
v 5.96046e-08 1 0.1
v -0.2 1.1 0.1
v -0.0999999 1.1 0.1
v -0.2 1.1 0
v -0.0999999 1.1 0
v -0.0999999 1.2 0
v 5.96046e-08 1.2 0
v -0.0999999 1.2 -0.1
v 5.96046e-08 1.2 -0.1
v 5.96046e-08 1.3 0.1
v 0.1 1.3 0.1
v 5.96046e-08 1.3 0
v 0.1 1.3 0
v -0.0999999 1.4 0.2
v 5.96046e-08 1.4 0.2
v -0.0999999 1.4 0.1
v 5.96046e-08 1.4 0.1
v -0.2 1.5 0.1
v -0.0999999 1.5 0.1
v -0.2 1.5 0
v -0.0999999 1.5 0
v -0.0999999 1.6 0.7
v 5.96046e-08 1.6 0.7
v -0.0999999 1.6 0.6
v 5.96046e-08 1.6 0.6
v -0.0999999 1.6 0
v 5.96046e-08 1.6 0
v -0.0999999 1.6 -0.1
v 5.96046e-08 1.6 -0.1
v -0.0999999 1.7 0.6
v 5.96046e-08 1.7 0.6
v -0.0999999 1.7 0.5
v 5.96046e-08 1.7 0.5
v -0.0999999 1.7 0.2
v 5.96046e-08 1.7 0.2
v -0.0999999 1.7 0.1
v 5.96046e-08 1.7 0.1
v -0.0999999 1.8 0.4
v 5.96046e-08 1.8 0.4
v -0.0999999 1.8 0.3
v 5.96046e-08 1.8 0.3
v -0.0999999 1.9 0.5
v 5.96046e-08 1.9 0.5
v -0.0999999 1.9 0.4
v 5.96046e-08 1.9 0.4
v -0.0999999 2 0.8
v 5.96046e-08 2 0.8
v -0.0999999 2 0.6
v 5.96046e-08 2 0.6
v -0.0999999 2 0.3
v 5.96046e-08 2 0.3
v -0.0999999 2 0.2
v 5.96046e-08 2 0.2
v -0.0999999 2 -0.1
v 5.96046e-08 2 -0.1
v -0.0999999 2 -0.3
v 5.96046e-08 2 -0.3
v -0.0999999 2.2 0.4
v 5.96046e-08 2.2 0.4
v -0.0999999 2.2 0.1
v 5.96046e-08 2.2 0.1
v -0.0999999 2.3 0.6
v 5.96046e-08 2.3 0.6
v -0.0999999 2.3 0.5
v 5.96046e-08 2.3 0.5
v -0.0999999 2.3 0
v 5.96046e-08 2.3 0
v -0.0999999 2.3 -0.1
v 5.96046e-08 2.3 -0.1
v -0.0999999 2.4 0.7
v 5.96046e-08 2.4 0.7
v -0.0999999 2.4 0.6
v 5.96046e-08 2.4 0.6
v -0.0999999 2.4 0.3
v 5.96046e-08 2.4 0.3
v -0.0999999 2.4 0.2
v 5.96046e-08 2.4 0.2
v -0.0999999 2.4 -0.1
v 5.96046e-08 2.4 -0.1
v -0.0999999 2.4 -0.2
v 5.96046e-08 2.4 -0.2
v 5.96046e-08 0.6 0.1
v 0.1 0.6 0.1
v 5.96046e-08 0.6 0
v 0.1 0.6 0
v -0.0999999 0.7 0.2
v 5.96046e-08 0.7 0.2
v -0.0999999 0.7 0.1
v 5.96046e-08 0.7 0.1
v -0.2 0.8 0.1
v -0.0999999 0.8 0.1
v -0.2 0.8 0
v -0.0999999 0.8 0
v -0.0999999 0.9 0
v 5.96046e-08 0.9 0
v -0.0999999 0.9 -0.1
v 5.96046e-08 0.9 -0.1
v 5.96046e-08 1 0.1
v 0.1 1 0.1
v 5.96046e-08 1 0
v 0.1 1 0
v -0.0999999 1.1 0.2
v 5.96046e-08 1.1 0.2
v -0.0999999 1.1 0.1
v 5.96046e-08 1.1 0.1
v -0.2 1.2 0.1
v -0.0999999 1.2 0.1
v -0.2 1.2 0
v -0.0999999 1.2 0
v -0.0999999 1.3 0
v 5.96046e-08 1.3 0
v -0.0999999 1.3 -0.1
v 5.96046e-08 1.3 -0.1
v 5.96046e-08 1.4 0.1
v 0.1 1.4 0.1
v 5.96046e-08 1.4 0
v 0.1 1.4 0
v -0.0999999 1.5 0.2
v 5.96046e-08 1.5 0.2
v -0.0999999 1.5 0.1
v 5.96046e-08 1.5 0.1
v -0.2 1.6 0.1
v -0.0999999 1.6 0.1
v -0.2 1.6 0
v -0.0999999 1.6 0
v -0.0999999 1.7 0.7
v 5.96046e-08 1.7 0.7
v -0.0999999 1.7 0.6
v 5.96046e-08 1.7 0.6
v -0.0999999 1.8 0.6
v 5.96046e-08 1.8 0.6
v -0.0999999 1.8 0.5
v 5.96046e-08 1.8 0.5
v -0.0999999 1.8 0.2
v 5.96046e-08 1.8 0.2
v -0.0999999 1.8 0.1
v 5.96046e-08 1.8 0.1
v -0.0999999 1.8 0
v 5.96046e-08 1.8 0
v -0.0999999 1.8 -0.1
v 5.96046e-08 1.8 -0.1
v -0.0999999 1.9 0.4
v 5.96046e-08 1.9 0.4
v -0.0999999 1.9 0.3
v 5.96046e-08 1.9 0.3
v -0.0999999 2.1 0.8
v 5.96046e-08 2.1 0.8
v -0.0999999 2.1 0.6
v 5.96046e-08 2.1 0.6
v -0.0999999 2.1 0.3
v 5.96046e-08 2.1 0.3
v -0.0999999 2.1 0.2
v 5.96046e-08 2.1 0.2
v -0.0999999 2.1 -0.1
v 5.96046e-08 2.1 -0.1
v -0.0999999 2.1 -0.3
v 5.96046e-08 2.1 -0.3
v -0.0999999 2.2 0.5
v 5.96046e-08 2.2 0.5
v -0.0999999 2.2 0.4
v 5.96046e-08 2.2 0.4
v -0.0999999 2.2 0.1
v 5.96046e-08 2.2 0.1
v -0.0999999 2.2 0
v 5.96046e-08 2.2 0
v -0.0999999 2.3 0.4
v 5.96046e-08 2.3 0.4
v -0.0999999 2.3 0.1
v 5.96046e-08 2.3 0.1
v -0.0999999 2.4 0.6
v 5.96046e-08 2.4 0.6
v -0.0999999 2.4 0.5
v 5.96046e-08 2.4 0.5
v -0.0999999 2.4 0
v 5.96046e-08 2.4 0
v -0.0999999 2.4 -0.1
v 5.96046e-08 2.4 -0.1
v -0.0999999 2.5 0.7
v 5.96046e-08 2.5 0.7
v -0.0999999 2.5 0.6
v 5.96046e-08 2.5 0.6
v -0.0999999 2.5 -0.1
v 5.96046e-08 2.5 -0.1
v -0.0999999 2.5 -0.2
v 5.96046e-08 2.5 -0.2
v -0.0999999 2.6 0.3
v 5.96046e-08 2.6 0.3
v -0.0999999 2.6 0.2
v 5.96046e-08 2.6 0.2

# faces
f 3/3/1 2/3/1 1/3/1
f 4/3/1 2/3/1 3/3/1
f 7/3/1 6/3/1 5/3/1
f 8/3/1 6/3/1 7/3/1
f 11/3/1 10/3/1 9/3/1
f 12/3/1 10/3/1 11/3/1
f 16/2/1 14/2/1 13/2/1
f 17/3/1 16/3/1 15/3/1
f 18/2/1 14/2/1 16/2/1
f 18/3/1 16/3/1 17/3/1
f 19/2/1 14/2/1 18/2/1
f 23/1/1 21/1/1 20/1/1
f 24/3/1 22/3/1 21/3/1
f 24/1/1 21/1/1 23/1/1
f 25/3/1 22/3/1 24/3/1
f 27/2/1 24/2/1 23/2/1
f 28/2/1 24/2/1 27/2/1
f 29/3/1 27/3/1 26/3/1
f 30/1/1 28/1/1 27/1/1
f 30/3/1 27/3/1 29/3/1
f 31/1/1 28/1/1 30/1/1
f 35/1/1 33/1/1 32/1/1
f 36/3/1 34/3/1 33/3/1
f 36/1/1 33/1/1 35/1/1
f 37/3/1 34/3/1 36/3/1
f 39/2/1 36/2/1 35/2/1
f 40/3/1 39/3/1 38/3/1
f 41/2/1 36/2/1 39/2/1
f 41/3/1 39/3/1 40/3/1
f 42/2/1 36/2/1 41/2/1
f 48/4/1 44/4/1 43/4/1
f 49/4/1 44/4/1 48/4/1
f 52/2/1 46/2/1 45/2/1
f 53/3/1 47/3/1 46/3/1
f 53/2/1 46/2/1 52/2/1
f 54/3/1 47/3/1 53/3/1
f 55/4/1 50/4/1 49/4/1
f 56/4/1 50/4/1 55/4/1
f 59/1/1 52/1/1 51/1/1
f 59/1/1 54/1/1 53/1/1
f 59/1/1 53/1/1 52/1/1
f 60/1/1 54/1/1 59/1/1
f 61/1/1 54/1/1 60/1/1
f 62/1/1 54/1/1 61/1/1
f 64/2/1 58/2/1 57/2/1
f 65/2/1 58/2/1 64/2/1
f 72/4/1 67/4/1 66/4/1
f 73/4/1 67/4/1 72/4/1
f 74/4/1 69/4/1 68/4/1
f 75/4/1 69/4/1 74/4/1
f 76/4/1 71/4/1 70/4/1
f 77/4/1 71/4/1 76/4/1
f 78/2/1 64/2/1 63/2/1
f 79/2/1 64/2/1 78/2/1
f 80/2/1 61/2/1 60/2/1
f 81/2/1 61/2/1 80/2/1
f 84/2/1 80/2/1 79/2/1
f 85/2/1 80/2/1 84/2/1
f 89/4/1 83/4/1 82/4/1
f 90/4/1 83/4/1 89/4/1
f 93/4/1 87/4/1 86/4/1
f 94/4/1 87/4/1 93/4/1
f 96/4/1 89/4/1 88/4/1
f 97/4/1 89/4/1 96/4/1
f 98/4/1 95/4/1 94/4/1
f 99/4/1 95/4/1 98/4/1
f 100/4/1 92/4/1 91/4/1
f 101/4/1 92/4/1 100/4/1
f 102/2/2 103/2/2 104/2/2
f 104/2/2 103/2/2 105/2/2
f 106/3/2 107/3/2 109/3/2
f 107/2/2 108/2/2 110/2/2
f 109/3/2 107/3/2 110/3/2
f 110/2/2 108/2/2 111/2/2
f 111/2/2 108/2/2 112/2/2
f 111/1/2 112/1/2 114/1/2
f 112/3/2 113/3/2 115/3/2
f 114/1/2 112/1/2 115/1/2
f 115/3/2 113/3/2 116/3/2
f 117/3/2 118/3/2 120/3/2
f 118/1/2 119/1/2 121/1/2
f 120/3/2 118/3/2 121/3/2
f 121/1/2 119/1/2 122/1/2
f 121/2/2 122/2/2 123/2/2
f 123/2/2 122/2/2 124/2/2
f 123/1/2 124/1/2 126/1/2
f 124/3/2 125/3/2 127/3/2
f 126/1/2 124/1/2 127/1/2
f 127/3/2 125/3/2 128/3/2
f 129/3/2 130/3/2 132/3/2
f 130/2/2 131/2/2 133/2/2
f 132/3/2 130/3/2 133/3/2
f 133/2/2 131/2/2 136/2/2
f 134/4/2 135/4/2 138/4/2
f 138/4/2 135/4/2 139/4/2
f 133/2/2 136/2/2 142/2/2
f 136/3/2 137/3/2 143/3/2
f 142/2/2 136/2/2 143/2/2
f 143/3/2 137/3/2 144/3/2
f 139/4/2 140/4/2 145/4/2
f 145/4/2 140/4/2 146/4/2
f 141/1/2 142/1/2 149/1/2
f 143/1/2 144/1/2 149/1/2
f 142/1/2 143/1/2 149/1/2
f 149/1/2 144/1/2 150/1/2
f 150/1/2 144/1/2 151/1/2
f 151/1/2 144/1/2 152/1/2
f 147/2/2 148/2/2 154/2/2
f 154/2/2 148/2/2 155/2/2
f 156/4/2 157/4/2 162/4/2
f 162/4/2 157/4/2 163/4/2
f 158/4/2 159/4/2 164/4/2
f 164/4/2 159/4/2 165/4/2
f 160/4/2 161/4/2 166/4/2
f 166/4/2 161/4/2 167/4/2
f 153/2/2 154/2/2 168/2/2
f 168/2/2 154/2/2 169/2/2
f 150/2/2 151/2/2 170/2/2
f 170/2/2 151/2/2 171/2/2
f 169/2/2 170/2/2 174/2/2
f 174/2/2 170/2/2 175/2/2
f 172/4/2 173/4/2 179/4/2
f 179/4/2 173/4/2 180/4/2
f 176/4/2 177/4/2 183/4/2
f 183/4/2 177/4/2 184/4/2
f 178/4/2 179/4/2 186/4/2
f 186/4/2 179/4/2 187/4/2
f 184/4/2 185/4/2 188/4/2
f 188/4/2 185/4/2 189/4/2
f 181/4/2 182/4/2 190/4/2
f 190/4/2 182/4/2 191/4/2
f 192/3/2 193/3/2 194/3/2
f 194/3/2 193/3/2 195/3/2
f 196/3/2 197/3/2 198/3/2
f 198/3/2 197/3/2 199/3/2
f 200/3/2 201/3/2 202/3/2
f 202/3/2 201/3/2 203/3/2
f 206/4/3 205/4/3 204/4/3
f 207/4/3 205/4/3 206/4/3
f 212/4/3 209/4/3 208/4/3
f 213/4/3 209/4/3 212/4/3
f 214/4/3 211/4/3 210/4/3
f 215/4/3 211/4/3 214/4/3
f 220/4/3 217/4/3 216/4/3
f 221/4/3 217/4/3 220/4/3
f 222/4/3 219/4/3 218/4/3
f 223/4/3 219/4/3 222/4/3
f 226/2/3 225/2/3 224/2/3
f 227/2/3 225/2/3 226/2/3
f 232/2/3 229/2/3 228/2/3
f 233/2/3 229/2/3 232/2/3
f 234/2/3 231/2/3 230/2/3
f 235/2/3 231/2/3 234/2/3
f 240/4/3 237/4/3 236/4/3
f 241/4/3 237/4/3 240/4/3
f 242/4/3 239/4/3 238/4/3
f 243/4/3 239/4/3 242/4/3
f 252/3/3 245/3/3 244/3/3
f 253/3/3 245/3/3 252/3/3
f 254/3/3 247/3/3 246/3/3
f 255/3/3 247/3/3 254/3/3
f 256/3/3 249/3/3 248/3/3
f 257/3/3 249/3/3 256/3/3
f 258/1/3 251/1/3 250/1/3
f 259/1/3 251/1/3 258/1/3
f 268/3/3 261/3/3 260/3/3
f 269/3/3 261/3/3 268/3/3
f 272/3/3 263/3/3 262/3/3
f 273/3/3 263/3/3 272/3/3
f 276/3/3 265/3/3 264/3/3
f 277/3/3 265/3/3 276/3/3
f 281/2/3 267/2/3 266/2/3
f 282/2/3 267/2/3 281/2/3
f 283/2/3 267/2/3 282/2/3
f 284/2/3 269/2/3 268/2/3
f 285/1/3 270/1/3 269/1/3
f 285/2/3 269/2/3 284/2/3
f 286/2/3 271/2/3 270/2/3
f 286/1/3 270/1/3 285/1/3
f 287/2/3 271/2/3 286/2/3
f 288/2/3 273/2/3 272/2/3
f 289/1/3 274/1/3 273/1/3
f 289/2/3 273/2/3 288/2/3
f 290/2/3 275/2/3 274/2/3
f 290/1/3 274/1/3 289/1/3
f 291/2/3 275/2/3 290/2/3
f 292/2/3 277/2/3 276/2/3
f 292/2/3 278/2/3 277/2/3
f 293/2/3 278/2/3 292/2/3
f 294/2/3 280/2/3 279/2/3
f 295/2/3 280/2/3 294/2/3
f 296/3/3 283/3/3 282/3/3
f 297/3/3 283/3/3 296/3/3
f 298/3/3 287/3/3 286/3/3
f 299/3/3 287/3/3 298/3/3
f 300/3/3 291/3/3 290/3/3
f 301/3/3 291/3/3 300/3/3
f 304/4/3 303/4/3 302/4/3
f 305/4/3 303/4/3 304/4/3
f 310/4/3 307/4/3 306/4/3
f 311/4/3 307/4/3 310/4/3
f 312/4/3 309/4/3 308/4/3
f 313/4/3 309/4/3 312/4/3
f 314/4/4 315/4/4 320/4/4
f 320/4/4 315/4/4 321/4/4
f 316/4/4 317/4/4 322/4/4
f 322/4/4 317/4/4 323/4/4
f 318/4/4 319/4/4 324/4/4
f 324/4/4 319/4/4 325/4/4
f 326/4/4 327/4/4 330/4/4
f 330/4/4 327/4/4 331/4/4
f 328/4/4 329/4/4 332/4/4
f 332/4/4 329/4/4 333/4/4
f 334/2/4 335/2/4 336/2/4
f 336/2/4 335/2/4 337/2/4
f 338/2/4 339/2/4 340/2/4
f 340/2/4 339/2/4 341/2/4
f 342/4/4 343/4/4 346/4/4
f 346/4/4 343/4/4 347/4/4
f 344/4/4 345/4/4 348/4/4
f 348/4/4 345/4/4 349/4/4
f 350/2/4 351/2/4 352/2/4
f 352/2/4 351/2/4 353/2/4
f 354/3/4 355/3/4 361/3/4
f 361/3/4 355/3/4 362/3/4
f 356/3/4 357/3/4 365/3/4
f 365/3/4 357/3/4 366/3/4
f 358/3/4 359/3/4 368/3/4
f 368/3/4 359/3/4 369/3/4
f 360/2/4 361/2/4 372/2/4
f 361/2/4 362/2/4 372/2/4
f 372/2/4 362/2/4 373/2/4
f 373/2/4 362/2/4 374/2/4
f 374/2/4 362/2/4 375/2/4
f 363/2/4 364/2/4 376/2/4
f 364/1/4 365/1/4 377/1/4
f 376/2/4 364/2/4 377/2/4
f 365/2/4 366/2/4 378/2/4
f 377/1/4 365/1/4 378/1/4
f 378/2/4 366/2/4 379/2/4
f 368/2/4 369/2/4 380/2/4
f 367/2/4 368/2/4 380/2/4
f 380/2/4 369/2/4 381/2/4
f 381/2/4 369/2/4 382/2/4
f 370/2/4 371/2/4 383/2/4
f 383/2/4 371/2/4 384/2/4
f 373/3/4 374/3/4 385/3/4
f 385/3/4 374/3/4 386/3/4
f 376/3/4 377/3/4 387/3/4
f 387/3/4 377/3/4 388/3/4
f 380/3/4 381/3/4 389/3/4
f 389/3/4 381/3/4 390/3/4
f 391/3/4 392/3/4 400/3/4
f 400/3/4 392/3/4 401/3/4
f 393/3/4 394/3/4 402/3/4
f 402/3/4 394/3/4 403/3/4
f 395/3/4 396/3/4 404/3/4
f 396/1/4 397/1/4 405/1/4
f 404/3/4 396/3/4 405/3/4
f 405/1/4 397/1/4 406/1/4
f 398/4/4 399/4/4 407/4/4
f 407/4/4 399/4/4 408/4/4
f 409/4/4 410/4/4 411/4/4
f 411/4/4 410/4/4 412/4/4
f 413/4/4 414/4/4 415/4/4
f 415/4/4 414/4/4 416/4/4
f 419/2/5 418/2/5 417/2/5
f 420/2/5 418/2/5 419/2/5
f 423/3/5 422/3/5 421/3/5
f 424/3/5 422/3/5 423/3/5
f 427/3/5 426/3/5 425/3/5
f 428/3/5 426/3/5 427/3/5
f 431/3/5 430/3/5 429/3/5
f 432/3/5 430/3/5 431/3/5
f 435/3/5 434/3/5 433/3/5
f 436/3/5 434/3/5 435/3/5
f 439/3/5 438/3/5 437/3/5
f 440/3/5 438/3/5 439/3/5
f 443/3/5 442/3/5 441/3/5
f 444/3/5 442/3/5 443/3/5
f 447/3/5 446/3/5 445/3/5
f 448/3/5 446/3/5 447/3/5
f 451/3/5 450/3/5 449/3/5
f 452/3/5 450/3/5 451/3/5
f 455/3/5 454/3/5 453/3/5
f 456/3/5 454/3/5 455/3/5
f 459/3/5 458/3/5 457/3/5
f 460/3/5 458/3/5 459/3/5
f 463/3/5 462/3/5 461/3/5
f 464/3/5 462/3/5 463/3/5
f 467/4/5 466/4/5 465/4/5
f 468/4/5 466/4/5 467/4/5
f 471/3/5 470/3/5 469/3/5
f 472/3/5 470/3/5 471/3/5
f 475/4/5 474/4/5 473/4/5
f 476/4/5 474/4/5 475/4/5
f 479/1/5 478/1/5 477/1/5
f 480/1/5 478/1/5 479/1/5
f 483/2/5 482/2/5 481/2/5
f 484/2/5 482/2/5 483/2/5
f 487/2/5 486/2/5 485/2/5
f 488/2/5 486/2/5 487/2/5
f 491/4/5 490/4/5 489/4/5
f 492/4/5 490/4/5 491/4/5
f 495/4/5 494/4/5 493/4/5
f 496/4/5 494/4/5 495/4/5
f 499/4/5 498/4/5 497/4/5
f 500/4/5 498/4/5 499/4/5
f 503/2/5 502/2/5 501/2/5
f 504/2/5 502/2/5 503/2/5
f 507/4/5 506/4/5 505/4/5
f 508/4/5 506/4/5 507/4/5
f 511/4/5 510/4/5 509/4/5
f 512/4/5 510/4/5 511/4/5
f 515/4/5 514/4/5 513/4/5
f 516/4/5 514/4/5 515/4/5
f 519/4/5 518/4/5 517/4/5
f 520/4/5 518/4/5 519/4/5
f 523/4/5 522/4/5 521/4/5
f 524/4/5 522/4/5 523/4/5
f 525/3/6 526/3/6 527/3/6
f 527/3/6 526/3/6 528/3/6
f 529/3/6 530/3/6 531/3/6
f 531/3/6 530/3/6 532/3/6
f 533/3/6 534/3/6 535/3/6
f 535/3/6 534/3/6 536/3/6
f 537/3/6 538/3/6 539/3/6
f 539/3/6 538/3/6 540/3/6
f 541/3/6 542/3/6 543/3/6
f 543/3/6 542/3/6 544/3/6
f 545/3/6 546/3/6 547/3/6
f 547/3/6 546/3/6 548/3/6
f 549/3/6 550/3/6 551/3/6
f 551/3/6 550/3/6 552/3/6
f 553/3/6 554/3/6 555/3/6
f 555/3/6 554/3/6 556/3/6
f 557/3/6 558/3/6 559/3/6
f 559/3/6 558/3/6 560/3/6
f 561/3/6 562/3/6 563/3/6
f 563/3/6 562/3/6 564/3/6
f 565/3/6 566/3/6 567/3/6
f 567/3/6 566/3/6 568/3/6
f 569/4/6 570/4/6 571/4/6
f 571/4/6 570/4/6 572/4/6
f 573/4/6 574/4/6 575/4/6
f 575/4/6 574/4/6 576/4/6
f 577/1/6 578/1/6 579/1/6
f 579/1/6 578/1/6 580/1/6
f 581/1/6 582/1/6 583/1/6
f 583/1/6 582/1/6 584/1/6
f 585/2/6 586/2/6 587/2/6
f 587/2/6 586/2/6 588/2/6
f 589/4/6 590/4/6 591/4/6
f 591/4/6 590/4/6 592/4/6
f 593/4/6 594/4/6 595/4/6
f 595/4/6 594/4/6 596/4/6
f 597/4/6 598/4/6 599/4/6
f 599/4/6 598/4/6 600/4/6
f 601/2/6 602/2/6 603/2/6
f 603/2/6 602/2/6 604/2/6
f 605/2/6 606/2/6 607/2/6
f 607/2/6 606/2/6 608/2/6
f 609/2/6 610/2/6 611/2/6
f 611/2/6 610/2/6 612/2/6
f 613/4/6 614/4/6 615/4/6
f 615/4/6 614/4/6 616/4/6
f 617/4/6 618/4/6 619/4/6
f 619/4/6 618/4/6 620/4/6
f 621/4/6 622/4/6 623/4/6
f 623/4/6 622/4/6 624/4/6
f 625/4/6 626/4/6 627/4/6
f 627/4/6 626/4/6 628/4/6
f 629/4/6 630/4/6 631/4/6
f 631/4/6 630/4/6 632/4/6
