# MagicaVoxel @ Ephtracy

# group
o 

# material
mtllib ArcaneGun_lvl2.mtl
usemtl palette

# normals
vn -1 0 0
vn 1 0 0
vn 0 0 1
vn 0 0 -1
vn 0 -1 0
vn 0 1 0

# texcoords
vt 0.865234 0.5
vt 0.869141 0.5
vt 0.873047 0.5
vt 0.994141 0.5

# verts
v -0.2 1 0.2
v -0.2 1 0.1
v -0.2 1.2 0.3
v -0.2 1.2 0.2
v -0.2 1.2 0.1
v -0.2 1.2 0
v -0.2 1.3 0.3
v -0.2 1.3 0.2
v -0.2 1.4 0.1
v -0.2 1.4 0
v -0.2 1.5 0.2
v -0.2 1.5 0.1
v -0.2 1.6 0.2
v -0.2 1.6 0.1
v -0.2 1.7 0.2
v -0.2 1.7 0.1
v -0.2 1.8 0.2
v -0.2 1.8 0.1
v -0.2 1.9 0.2
v -0.2 1.9 0.1
v -0.2 2 0.2
v -0.2 2 0.1
v -0.2 2.1 0.2
v -0.2 2.1 0.1
v -0.2 2.2 0.2
v -0.2 2.2 0.1
v -0.0999999 0.4 0.3
v -0.0999999 0.4 0
v -0.0999999 0.6 0.3
v -0.0999999 0.6 0.2
v -0.0999999 0.7 0.3
v -0.0999999 0.7 0.2
v -0.0999999 0.7 0.1
v -0.0999999 0.7 0
v -0.0999999 0.8 0.6
v -0.0999999 0.8 0.5
v -0.0999999 0.8 0.3
v -0.0999999 0.9 0.6
v -0.0999999 0.9 0.5
v -0.0999999 0.9 0.2
v -0.0999999 0.9 0.1
v -0.0999999 0.9 -0.1
v -0.0999999 1 0.5
v -0.0999999 1 0.4
v -0.0999999 1 0.3
v -0.0999999 1 0.2
v -0.0999999 1 0.1
v -0.0999999 1 0
v -0.0999999 1 -0.1
v -0.0999999 1.1 0.3
v -0.0999999 1.1 0.2
v -0.0999999 1.1 0
v -0.0999999 1.1 -0.1
v -0.0999999 1.2 0.4
v -0.0999999 1.2 0.3
v -0.0999999 1.2 0.2
v -0.0999999 1.2 0.1
v -0.0999999 1.2 0
v -0.0999999 1.2 -0.1
v -0.0999999 1.3 0.3
v -0.0999999 1.3 0.2
v -0.0999999 1.3 0
v -0.0999999 1.3 -0.1
v -0.0999999 1.4 0.1
v -0.0999999 1.4 0
v -0.0999999 1.4 -0.1
v -0.0999999 1.5 0.4
v -0.0999999 1.5 0.3
v -0.0999999 1.5 0.2
v -0.0999999 1.5 0.1
v -0.0999999 1.5 0
v -0.0999999 1.6 0.2
v -0.0999999 1.6 0.1
v -0.0999999 1.6 0
v -0.0999999 1.7 0.2
v -0.0999999 1.7 0.1
v -0.0999999 1.7 0
v -0.0999999 1.8 0.2
v -0.0999999 1.8 0.1
v -0.0999999 1.8 0
v -0.0999999 1.9 0.3
v -0.0999999 1.9 0.2
v -0.0999999 1.9 0.1
v -0.0999999 1.9 0
v -0.0999999 2 0.4
v -0.0999999 2 0.3
v -0.0999999 2 0.2
v -0.0999999 2 0.1
v -0.0999999 2 0
v -0.0999999 2.1 0.2
v -0.0999999 2.1 0.1
v -0.0999999 2.1 0
v -0.0999999 2.2 0.3
v -0.0999999 2.2 0.2
v -0.0999999 2.2 0.1
v -0.0999999 2.5 0.2
v -0.0999999 2.5 0.1
v 5.96046e-08 0.4 0.3
v 5.96046e-08 0.4 0
v 5.96046e-08 0.6 0.3
v 5.96046e-08 0.6 0.2
v 5.96046e-08 0.7 0.3
v 5.96046e-08 0.7 0.2
v 5.96046e-08 0.7 0.1
v 5.96046e-08 0.7 0
v 5.96046e-08 0.8 0.6
v 5.96046e-08 0.8 0.5
v 5.96046e-08 0.8 0.3
v 5.96046e-08 0.9 0.6
v 5.96046e-08 0.9 0.5
v 5.96046e-08 0.9 0.2
v 5.96046e-08 0.9 0.1
v 5.96046e-08 0.9 -0.1
v 5.96046e-08 1 0.5
v 5.96046e-08 1 0.4
v 5.96046e-08 1 0.3
v 5.96046e-08 1 0.2
v 5.96046e-08 1 0.1
v 5.96046e-08 1 0
v 5.96046e-08 1 -0.1
v 5.96046e-08 1.1 0.3
v 5.96046e-08 1.1 0.2
v 5.96046e-08 1.1 0
v 5.96046e-08 1.1 -0.1
v 5.96046e-08 1.2 0.4
v 5.96046e-08 1.2 0.3
v 5.96046e-08 1.2 0.2
v 5.96046e-08 1.2 0.1
v 5.96046e-08 1.2 0
v 5.96046e-08 1.2 -0.1
v 5.96046e-08 1.3 0.3
v 5.96046e-08 1.3 0.2
v 5.96046e-08 1.3 0
v 5.96046e-08 1.3 -0.1
v 5.96046e-08 1.4 0.1
v 5.96046e-08 1.4 0
v 5.96046e-08 1.4 -0.1
v 5.96046e-08 1.5 0.4
v 5.96046e-08 1.5 0.3
v 5.96046e-08 1.5 0.2
v 5.96046e-08 1.5 0.1
v 5.96046e-08 1.5 0
v 5.96046e-08 1.6 0.2
v 5.96046e-08 1.6 0.1
v 5.96046e-08 1.6 0
v 5.96046e-08 1.7 0.2
v 5.96046e-08 1.7 0.1
v 5.96046e-08 1.7 0
v 5.96046e-08 1.8 0.2
v 5.96046e-08 1.8 0.1
v 5.96046e-08 1.8 0
v 5.96046e-08 1.9 0.3
v 5.96046e-08 1.9 0.2
v 5.96046e-08 1.9 0.1
v 5.96046e-08 1.9 0
v 5.96046e-08 2 0.4
v 5.96046e-08 2 0.3
v 5.96046e-08 2 0.2
v 5.96046e-08 2 0.1
v 5.96046e-08 2 0
v 5.96046e-08 2.1 0.2
v 5.96046e-08 2.1 0.1
v 5.96046e-08 2.1 0
v 5.96046e-08 2.2 0.3
v 5.96046e-08 2.2 0.2
v 5.96046e-08 2.2 0.1
v 5.96046e-08 2.5 0.2
v 5.96046e-08 2.5 0.1
v 0.1 1 0.2
v 0.1 1 0.1
v 0.1 1.2 0.3
v 0.1 1.2 0.2
v 0.1 1.2 0.1
v 0.1 1.2 0
v 0.1 1.3 0.3
v 0.1 1.3 0.2
v 0.1 1.4 0.1
v 0.1 1.4 0
v 0.1 1.5 0.2
v 0.1 1.5 0.1
v 0.1 1.6 0.2
v 0.1 1.6 0.1
v 0.1 1.7 0.2
v 0.1 1.7 0.1
v 0.1 1.8 0.2
v 0.1 1.8 0.1
v 0.1 1.9 0.2
v 0.1 1.9 0.1
v 0.1 2 0.2
v 0.1 2 0.1
v 0.1 2.1 0.2
v 0.1 2.1 0.1
v 0.1 2.2 0.2
v 0.1 2.2 0.1
v -0.0999999 0.8 0.6
v -0.0999999 0.9 0.6
v 5.96046e-08 0.8 0.6
v 5.96046e-08 0.9 0.6
v -0.0999999 0.9 0.5
v -0.0999999 1 0.5
v 5.96046e-08 0.9 0.5
v 5.96046e-08 1 0.5
v -0.0999999 1 0.4
v -0.0999999 1.2 0.4
v -0.0999999 1.5 0.4
v -0.0999999 2 0.4
v 5.96046e-08 1 0.4
v 5.96046e-08 1.2 0.4
v 5.96046e-08 1.5 0.4
v 5.96046e-08 2 0.4
v -0.2 1.2 0.3
v -0.2 1.3 0.3
v -0.0999999 0.4 0.3
v -0.0999999 0.6 0.3
v -0.0999999 0.7 0.3
v -0.0999999 0.8 0.3
v -0.0999999 1.2 0.3
v -0.0999999 1.3 0.3
v -0.0999999 1.5 0.3
v -0.0999999 2 0.3
v -0.0999999 2.2 0.3
v 5.96046e-08 0.4 0.3
v 5.96046e-08 0.6 0.3
v 5.96046e-08 0.7 0.3
v 5.96046e-08 0.8 0.3
v 5.96046e-08 1.2 0.3
v 5.96046e-08 1.3 0.3
v 5.96046e-08 1.5 0.3
v 5.96046e-08 2 0.3
v 5.96046e-08 2.2 0.3
v 0.1 1.2 0.3
v 0.1 1.3 0.3
v -0.2 1 0.2
v -0.2 1.2 0.2
v -0.2 1.3 0.2
v -0.2 1.5 0.2
v -0.2 1.6 0.2
v -0.2 1.7 0.2
v -0.2 1.8 0.2
v -0.2 1.9 0.2
v -0.2 2 0.2
v -0.2 2.1 0.2
v -0.2 2.2 0.2
v -0.0999999 0.6 0.2
v -0.0999999 0.7 0.2
v -0.0999999 1 0.2
v -0.0999999 1.1 0.2
v -0.0999999 1.2 0.2
v -0.0999999 1.3 0.2
v -0.0999999 1.5 0.2
v -0.0999999 1.6 0.2
v -0.0999999 1.7 0.2
v -0.0999999 1.8 0.2
v -0.0999999 1.9 0.2
v -0.0999999 2 0.2
v -0.0999999 2.1 0.2
v -0.0999999 2.2 0.2
v -0.0999999 2.5 0.2
v 5.96046e-08 0.6 0.2
v 5.96046e-08 0.7 0.2
v 5.96046e-08 1 0.2
v 5.96046e-08 1.1 0.2
v 5.96046e-08 1.2 0.2
v 5.96046e-08 1.3 0.2
v 5.96046e-08 1.5 0.2
v 5.96046e-08 1.6 0.2
v 5.96046e-08 1.7 0.2
v 5.96046e-08 1.8 0.2
v 5.96046e-08 1.9 0.2
v 5.96046e-08 2 0.2
v 5.96046e-08 2.1 0.2
v 5.96046e-08 2.2 0.2
v 5.96046e-08 2.5 0.2
v 0.1 1 0.2
v 0.1 1.2 0.2
v 0.1 1.3 0.2
v 0.1 1.5 0.2
v 0.1 1.6 0.2
v 0.1 1.7 0.2
v 0.1 1.8 0.2
v 0.1 1.9 0.2
v 0.1 2 0.2
v 0.1 2.1 0.2
v 0.1 2.2 0.2
v -0.2 1 0.1
v -0.2 1.2 0.1
v -0.2 1.4 0.1
v -0.2 1.5 0.1
v -0.2 1.6 0.1
v -0.2 1.7 0.1
v -0.2 1.8 0.1
v -0.2 1.9 0.1
v -0.2 2 0.1
v -0.2 2.1 0.1
v -0.2 2.2 0.1
v -0.0999999 0.7 0.1
v -0.0999999 0.9 0.1
v -0.0999999 1 0.1
v -0.0999999 1.2 0.1
v -0.0999999 1.4 0.1
v -0.0999999 1.5 0.1
v -0.0999999 1.6 0.1
v -0.0999999 1.7 0.1
v -0.0999999 1.8 0.1
v -0.0999999 1.9 0.1
v -0.0999999 2 0.1
v -0.0999999 2.1 0.1
v -0.0999999 2.2 0.1
v -0.0999999 2.5 0.1
v 5.96046e-08 0.7 0.1
v 5.96046e-08 0.9 0.1
v 5.96046e-08 1 0.1
v 5.96046e-08 1.2 0.1
v 5.96046e-08 1.4 0.1
v 5.96046e-08 1.5 0.1
v 5.96046e-08 1.6 0.1
v 5.96046e-08 1.7 0.1
v 5.96046e-08 1.8 0.1
v 5.96046e-08 1.9 0.1
v 5.96046e-08 2 0.1
v 5.96046e-08 2.1 0.1
v 5.96046e-08 2.2 0.1
v 5.96046e-08 2.5 0.1
v 0.1 1 0.1
v 0.1 1.2 0.1
v 0.1 1.4 0.1
v 0.1 1.5 0.1
v 0.1 1.6 0.1
v 0.1 1.7 0.1
v 0.1 1.8 0.1
v 0.1 1.9 0.1
v 0.1 2 0.1
v 0.1 2.1 0.1
v 0.1 2.2 0.1
v -0.2 1.2 0
v -0.2 1.4 0
v -0.0999999 0.4 0
v -0.0999999 0.7 0
v -0.0999999 1 0
v -0.0999999 1.1 0
v -0.0999999 1.2 0
v -0.0999999 1.3 0
v -0.0999999 1.4 0
v -0.0999999 1.5 0
v -0.0999999 1.6 0
v -0.0999999 1.7 0
v -0.0999999 1.8 0
v -0.0999999 1.9 0
v -0.0999999 2 0
v -0.0999999 2.1 0
v 5.96046e-08 0.4 0
v 5.96046e-08 0.7 0
v 5.96046e-08 1 0
v 5.96046e-08 1.1 0
v 5.96046e-08 1.2 0
v 5.96046e-08 1.3 0
v 5.96046e-08 1.4 0
v 5.96046e-08 1.5 0
v 5.96046e-08 1.6 0
v 5.96046e-08 1.7 0
v 5.96046e-08 1.8 0
v 5.96046e-08 1.9 0
v 5.96046e-08 2 0
v 5.96046e-08 2.1 0
v 0.1 1.2 0
v 0.1 1.4 0
v -0.0999999 0.9 -0.1
v -0.0999999 1 -0.1
v -0.0999999 1.1 -0.1
v -0.0999999 1.2 -0.1
v -0.0999999 1.3 -0.1
v -0.0999999 1.4 -0.1
v 5.96046e-08 0.9 -0.1
v 5.96046e-08 1 -0.1
v 5.96046e-08 1.1 -0.1
v 5.96046e-08 1.2 -0.1
v 5.96046e-08 1.3 -0.1
v 5.96046e-08 1.4 -0.1
v -0.0999999 0.4 0.3
v 5.96046e-08 0.4 0.3
v -0.0999999 0.4 0
v 5.96046e-08 0.4 0
v -0.0999999 0.7 0.3
v 5.96046e-08 0.7 0.3
v -0.0999999 0.7 0.2
v 5.96046e-08 0.7 0.2
v -0.0999999 0.8 0.6
v 5.96046e-08 0.8 0.6
v -0.0999999 0.8 0.5
v 5.96046e-08 0.8 0.5
v -0.0999999 0.8 0.3
v 5.96046e-08 0.8 0.3
v -0.0999999 0.9 0.1
v 5.96046e-08 0.9 0.1
v -0.0999999 0.9 -0.1
v 5.96046e-08 0.9 -0.1
v -0.2 1 0.2
v -0.0999999 1 0.2
v 5.96046e-08 1 0.2
v 0.1 1 0.2
v -0.2 1 0.1
v -0.0999999 1 0.1
v 5.96046e-08 1 0.1
v 0.1 1 0.1
v -0.0999999 1.1 0
v 5.96046e-08 1.1 0
v -0.0999999 1.1 -0.1
v 5.96046e-08 1.1 -0.1
v -0.2 1.2 0.3
v -0.0999999 1.2 0.3
v 5.96046e-08 1.2 0.3
v 0.1 1.2 0.3
v -0.2 1.2 0.2
v -0.0999999 1.2 0.2
v 5.96046e-08 1.2 0.2
v 0.1 1.2 0.2
v -0.2 1.2 0.1
v -0.0999999 1.2 0.1
v 5.96046e-08 1.2 0.1
v 0.1 1.2 0.1
v -0.2 1.2 0
v -0.0999999 1.2 0
v 5.96046e-08 1.2 0
v 0.1 1.2 0
v -0.0999999 1.3 0
v 5.96046e-08 1.3 0
v -0.0999999 1.3 -0.1
v 5.96046e-08 1.3 -0.1
v -0.0999999 1.5 0.4
v 5.96046e-08 1.5 0.4
v -0.0999999 1.5 0.3
v 5.96046e-08 1.5 0.3
v -0.0999999 0.6 0.3
v 5.96046e-08 0.6 0.3
v -0.0999999 0.6 0.2
v 5.96046e-08 0.6 0.2
v -0.0999999 0.7 0.1
v 5.96046e-08 0.7 0.1
v -0.0999999 0.7 0
v 5.96046e-08 0.7 0
v -0.0999999 0.9 0.6
v 5.96046e-08 0.9 0.6
v -0.0999999 0.9 0.5
v 5.96046e-08 0.9 0.5
v -0.0999999 1 0.5
v 5.96046e-08 1 0.5
v -0.0999999 1 0.4
v 5.96046e-08 1 0.4
v -0.0999999 1 0
v 5.96046e-08 1 0
v -0.0999999 1 -0.1
v 5.96046e-08 1 -0.1
v -0.0999999 1.2 0.4
v 5.96046e-08 1.2 0.4
v -0.0999999 1.2 0.3
v 5.96046e-08 1.2 0.3
v -0.0999999 1.2 0
v 5.96046e-08 1.2 0
v -0.0999999 1.2 -0.1
v 5.96046e-08 1.2 -0.1
v -0.2 1.3 0.3
v -0.0999999 1.3 0.3
v 5.96046e-08 1.3 0.3
v 0.1 1.3 0.3
v -0.2 1.3 0.2
v -0.0999999 1.3 0.2
v 5.96046e-08 1.3 0.2
v 0.1 1.3 0.2
v -0.2 1.4 0.1
v -0.0999999 1.4 0.1
v 5.96046e-08 1.4 0.1
v 0.1 1.4 0.1
v -0.2 1.4 0
v -0.0999999 1.4 0
v 5.96046e-08 1.4 0
v 0.1 1.4 0
v -0.0999999 1.4 -0.1
v 5.96046e-08 1.4 -0.1
v -0.0999999 2 0.4
v 5.96046e-08 2 0.4
v -0.0999999 2 0.3
v 5.96046e-08 2 0.3
v -0.0999999 2.1 0.1
v 5.96046e-08 2.1 0.1
v -0.0999999 2.1 0
v 5.96046e-08 2.1 0
v -0.0999999 2.2 0.3
v 5.96046e-08 2.2 0.3
v -0.2 2.2 0.2
v -0.0999999 2.2 0.2
v 5.96046e-08 2.2 0.2
v 0.1 2.2 0.2
v -0.2 2.2 0.1
v -0.0999999 2.2 0.1
v 5.96046e-08 2.2 0.1
v 0.1 2.2 0.1
v -0.0999999 2.5 0.2
v 5.96046e-08 2.5 0.2
v -0.0999999 2.5 0.1
v 5.96046e-08 2.5 0.1

# faces
f 4/1/1 2/1/1 1/1/1
f 5/1/1 2/1/1 4/1/1
f 7/1/1 4/1/1 3/1/1
f 7/1/1 6/1/1 5/1/1
f 7/1/1 5/1/1 4/1/1
f 8/1/1 6/1/1 7/1/1
f 9/1/1 6/1/1 8/1/1
f 10/1/1 6/1/1 9/1/1
f 11/1/1 9/1/1 8/1/1
f 12/1/1 9/1/1 11/1/1
f 13/3/1 12/3/1 11/3/1
f 14/3/1 12/3/1 13/3/1
f 15/1/1 14/1/1 13/1/1
f 16/1/1 14/1/1 15/1/1
f 17/3/1 16/3/1 15/3/1
f 18/3/1 16/3/1 17/3/1
f 19/1/1 18/1/1 17/1/1
f 20/1/1 18/1/1 19/1/1
f 21/3/1 20/3/1 19/3/1
f 22/3/1 20/3/1 21/3/1
f 23/1/1 22/1/1 21/1/1
f 24/1/1 22/1/1 23/1/1
f 25/2/1 24/2/1 23/2/1
f 26/2/1 24/2/1 25/2/1
f 29/3/1 28/3/1 27/3/1
f 30/3/1 28/3/1 29/3/1
f 32/3/1 28/3/1 30/3/1
f 33/3/1 28/3/1 32/3/1
f 34/3/1 28/3/1 33/3/1
f 37/3/1 32/3/1 31/3/1
f 37/3/1 33/3/1 32/3/1
f 38/1/1 36/1/1 35/1/1
f 39/3/1 37/3/1 36/3/1
f 39/1/1 36/1/1 38/1/1
f 40/3/1 33/3/1 37/3/1
f 40/3/1 37/3/1 39/3/1
f 41/3/1 33/3/1 40/3/1
f 43/1/1 40/1/1 39/1/1
f 44/1/1 40/1/1 43/1/1
f 45/1/1 40/1/1 44/1/1
f 46/3/1 41/3/1 40/3/1
f 46/1/1 40/1/1 45/1/1
f 46/3/1 42/3/1 41/3/1
f 47/3/1 42/3/1 46/3/1
f 48/3/1 42/3/1 47/3/1
f 49/3/1 42/3/1 48/3/1
f 50/4/1 45/4/1 44/4/1
f 50/1/1 46/1/1 45/1/1
f 51/1/1 46/1/1 50/1/1
f 52/3/1 48/3/1 47/3/1
f 54/4/1 51/4/1 50/4/1
f 54/4/1 50/4/1 44/4/1
f 55/4/1 51/4/1 54/4/1
f 56/4/1 51/4/1 55/4/1
f 57/3/1 53/3/1 52/3/1
f 57/3/1 52/3/1 47/3/1
f 58/3/1 53/3/1 57/3/1
f 59/3/1 53/3/1 58/3/1
f 65/3/1 63/3/1 62/3/1
f 66/3/1 63/3/1 65/3/1
f 68/1/1 61/1/1 60/1/1
f 69/1/1 61/1/1 68/1/1
f 70/1/1 65/1/1 64/1/1
f 71/1/1 65/1/1 70/1/1
f 72/1/1 69/1/1 68/1/1
f 73/3/1 71/3/1 70/3/1
f 74/3/1 71/3/1 73/3/1
f 75/1/1 72/1/1 68/1/1
f 76/1/1 74/1/1 73/1/1
f 77/1/1 74/1/1 76/1/1
f 78/1/1 75/1/1 68/1/1
f 79/3/1 77/3/1 76/3/1
f 80/3/1 77/3/1 79/3/1
f 81/2/1 68/2/1 67/2/1
f 81/1/1 78/1/1 68/1/1
f 82/1/1 78/1/1 81/1/1
f 83/1/1 80/1/1 79/1/1
f 84/1/1 80/1/1 83/1/1
f 85/2/1 82/2/1 81/2/1
f 85/2/1 81/2/1 67/2/1
f 86/2/1 82/2/1 85/2/1
f 87/2/1 82/2/1 86/2/1
f 88/3/1 84/3/1 83/3/1
f 89/3/1 84/3/1 88/3/1
f 90/2/1 87/2/1 86/2/1
f 91/1/1 89/1/1 88/1/1
f 92/1/1 89/1/1 91/1/1
f 93/2/1 90/2/1 86/2/1
f 94/2/1 90/2/1 93/2/1
f 96/2/1 95/2/1 94/2/1
f 97/2/1 95/2/1 96/2/1
f 98/3/2 99/3/2 100/3/2
f 100/3/2 99/3/2 101/3/2
f 101/3/2 99/3/2 103/3/2
f 103/3/2 99/3/2 104/3/2
f 104/3/2 99/3/2 105/3/2
f 102/3/2 103/3/2 108/3/2
f 103/3/2 104/3/2 108/3/2
f 106/1/2 107/1/2 109/1/2
f 107/3/2 108/3/2 110/3/2
f 109/1/2 107/1/2 110/1/2
f 108/3/2 104/3/2 111/3/2
f 110/3/2 108/3/2 111/3/2
f 111/3/2 104/3/2 112/3/2
f 110/1/2 111/1/2 114/1/2
f 114/1/2 111/1/2 115/1/2
f 115/1/2 111/1/2 116/1/2
f 111/3/2 112/3/2 117/3/2
f 116/1/2 111/1/2 117/1/2
f 112/3/2 113/3/2 117/3/2
f 117/3/2 113/3/2 118/3/2
f 118/3/2 113/3/2 119/3/2
f 119/3/2 113/3/2 120/3/2
f 115/4/2 116/4/2 121/4/2
f 116/1/2 117/1/2 121/1/2
f 121/1/2 117/1/2 122/1/2
f 118/3/2 119/3/2 123/3/2
f 121/4/2 122/4/2 125/4/2
f 115/4/2 121/4/2 125/4/2
f 125/4/2 122/4/2 126/4/2
f 126/4/2 122/4/2 127/4/2
f 123/3/2 124/3/2 128/3/2
f 118/3/2 123/3/2 128/3/2
f 128/3/2 124/3/2 129/3/2
f 129/3/2 124/3/2 130/3/2
f 133/3/2 134/3/2 136/3/2
f 136/3/2 134/3/2 137/3/2
f 131/1/2 132/1/2 139/1/2
f 139/1/2 132/1/2 140/1/2
f 135/1/2 136/1/2 141/1/2
f 141/1/2 136/1/2 142/1/2
f 139/1/2 140/1/2 143/1/2
f 141/3/2 142/3/2 144/3/2
f 144/3/2 142/3/2 145/3/2
f 139/1/2 143/1/2 146/1/2
f 144/1/2 145/1/2 147/1/2
f 147/1/2 145/1/2 148/1/2
f 139/1/2 146/1/2 149/1/2
f 147/3/2 148/3/2 150/3/2
f 150/3/2 148/3/2 151/3/2
f 138/2/2 139/2/2 152/2/2
f 139/1/2 149/1/2 152/1/2
f 152/1/2 149/1/2 153/1/2
f 150/1/2 151/1/2 154/1/2
f 154/1/2 151/1/2 155/1/2
f 152/2/2 153/2/2 156/2/2
f 138/2/2 152/2/2 156/2/2
f 156/2/2 153/2/2 157/2/2
f 157/2/2 153/2/2 158/2/2
f 154/3/2 155/3/2 159/3/2
f 159/3/2 155/3/2 160/3/2
f 157/2/2 158/2/2 161/2/2
f 159/1/2 160/1/2 162/1/2
f 162/1/2 160/1/2 163/1/2
f 157/2/2 161/2/2 164/2/2
f 164/2/2 161/2/2 165/2/2
f 165/2/2 166/2/2 167/2/2
f 167/2/2 166/2/2 168/2/2
f 169/1/2 170/1/2 172/1/2
f 172/1/2 170/1/2 173/1/2
f 171/1/2 172/1/2 175/1/2
f 173/1/2 174/1/2 175/1/2
f 172/1/2 173/1/2 175/1/2
f 175/1/2 174/1/2 176/1/2
f 176/1/2 174/1/2 177/1/2
f 177/1/2 174/1/2 178/1/2
f 176/1/2 177/1/2 179/1/2
f 179/1/2 177/1/2 180/1/2
f 179/3/2 180/3/2 181/3/2
f 181/3/2 180/3/2 182/3/2
f 181/1/2 182/1/2 183/1/2
f 183/1/2 182/1/2 184/1/2
f 183/3/2 184/3/2 185/3/2
f 185/3/2 184/3/2 186/3/2
f 185/1/2 186/1/2 187/1/2
f 187/1/2 186/1/2 188/1/2
f 187/3/2 188/3/2 189/3/2
f 189/3/2 188/3/2 190/3/2
f 189/1/2 190/1/2 191/1/2
f 191/1/2 190/1/2 192/1/2
f 191/2/2 192/2/2 193/2/2
f 193/2/2 192/2/2 194/2/2
f 197/1/3 196/1/3 195/1/3
f 198/1/3 196/1/3 197/1/3
f 201/1/3 200/1/3 199/1/3
f 202/1/3 200/1/3 201/1/3
f 207/4/3 204/4/3 203/4/3
f 208/4/3 204/4/3 207/4/3
f 209/2/3 206/2/3 205/2/3
f 210/2/3 206/2/3 209/2/3
f 217/1/3 212/1/3 211/1/3
f 218/1/3 212/1/3 217/1/3
f 222/3/3 214/3/3 213/3/3
f 223/3/3 214/3/3 222/3/3
f 224/3/3 216/3/3 215/3/3
f 225/3/3 216/3/3 224/3/3
f 226/1/3 218/1/3 217/1/3
f 226/1/3 219/1/3 218/1/3
f 227/1/3 219/1/3 226/1/3
f 228/1/3 219/1/3 227/1/3
f 229/2/3 221/2/3 220/2/3
f 230/2/3 221/2/3 229/2/3
f 231/1/3 227/1/3 226/1/3
f 232/1/3 227/1/3 231/1/3
f 246/1/3 234/1/3 233/1/3
f 247/1/3 234/1/3 246/1/3
f 248/1/3 234/1/3 247/1/3
f 249/1/3 236/1/3 235/1/3
f 250/3/3 237/3/3 236/3/3
f 250/1/3 236/1/3 249/1/3
f 251/1/3 238/1/3 237/1/3
f 251/3/3 237/3/3 250/3/3
f 252/3/3 239/3/3 238/3/3
f 252/1/3 238/1/3 251/1/3
f 253/1/3 240/1/3 239/1/3
f 253/3/3 239/3/3 252/3/3
f 254/3/3 241/3/3 240/3/3
f 254/1/3 240/1/3 253/1/3
f 255/1/3 242/1/3 241/1/3
f 255/3/3 241/3/3 254/3/3
f 256/2/3 243/2/3 242/2/3
f 256/1/3 242/1/3 255/1/3
f 257/2/3 243/2/3 256/2/3
f 259/3/3 245/3/3 244/3/3
f 260/3/3 245/3/3 259/3/3
f 272/2/3 258/2/3 257/2/3
f 273/2/3 258/2/3 272/2/3
f 274/1/3 262/1/3 261/1/3
f 274/1/3 263/1/3 262/1/3
f 275/1/3 263/1/3 274/1/3
f 276/1/3 265/1/3 264/1/3
f 277/3/3 266/3/3 265/3/3
f 277/1/3 265/1/3 276/1/3
f 278/1/3 267/1/3 266/1/3
f 278/3/3 266/3/3 277/3/3
f 279/3/3 268/3/3 267/3/3
f 279/1/3 267/1/3 278/1/3
f 280/1/3 269/1/3 268/1/3
f 280/3/3 268/3/3 279/3/3
f 281/3/3 270/3/3 269/3/3
f 281/1/3 269/1/3 280/1/3
f 282/1/3 271/1/3 270/1/3
f 282/3/3 270/3/3 281/3/3
f 283/2/3 272/2/3 271/2/3
f 283/1/3 271/1/3 282/1/3
f 284/2/3 272/2/3 283/2/3
f 285/1/4 286/1/4 298/1/4
f 298/1/4 286/1/4 299/1/4
f 287/1/4 288/1/4 300/1/4
f 288/3/4 289/3/4 301/3/4
f 300/1/4 288/1/4 301/1/4
f 289/1/4 290/1/4 302/1/4
f 301/3/4 289/3/4 302/3/4
f 290/3/4 291/3/4 303/3/4
f 302/1/4 290/1/4 303/1/4
f 291/1/4 292/1/4 304/1/4
f 303/3/4 291/3/4 304/3/4
f 292/3/4 293/3/4 305/3/4
f 304/1/4 292/1/4 305/1/4
f 293/1/4 294/1/4 306/1/4
f 305/3/4 293/3/4 306/3/4
f 294/2/4 295/2/4 307/2/4
f 306/1/4 294/1/4 307/1/4
f 307/2/4 295/2/4 308/2/4
f 296/3/4 297/3/4 310/3/4
f 310/3/4 297/3/4 311/3/4
f 308/2/4 309/2/4 321/2/4
f 307/2/4 308/2/4 321/2/4
f 321/2/4 309/2/4 322/2/4
f 322/2/4 309/2/4 323/2/4
f 312/1/4 313/1/4 324/1/4
f 324/1/4 313/1/4 325/1/4
f 314/1/4 315/1/4 326/1/4
f 315/3/4 316/3/4 327/3/4
f 326/1/4 315/1/4 327/1/4
f 316/1/4 317/1/4 328/1/4
f 327/3/4 316/3/4 328/3/4
f 317/3/4 318/3/4 329/3/4
f 328/1/4 317/1/4 329/1/4
f 318/1/4 319/1/4 330/1/4
f 329/3/4 318/3/4 330/3/4
f 319/3/4 320/3/4 331/3/4
f 330/1/4 319/1/4 331/1/4
f 320/1/4 321/1/4 332/1/4
f 331/3/4 320/3/4 332/3/4
f 321/2/4 322/2/4 333/2/4
f 332/1/4 321/1/4 333/1/4
f 333/2/4 322/2/4 334/2/4
f 335/1/4 336/1/4 341/1/4
f 341/1/4 336/1/4 342/1/4
f 342/1/4 336/1/4 343/1/4
f 337/3/4 338/3/4 351/3/4
f 351/3/4 338/3/4 352/3/4
f 339/3/4 340/3/4 353/3/4
f 353/3/4 340/3/4 354/3/4
f 341/3/4 342/3/4 355/3/4
f 355/3/4 342/3/4 356/3/4
f 343/1/4 344/1/4 357/1/4
f 344/3/4 345/3/4 358/3/4
f 357/1/4 344/1/4 358/1/4
f 345/1/4 346/1/4 359/1/4
f 358/3/4 345/3/4 359/3/4
f 346/3/4 347/3/4 360/3/4
f 359/1/4 346/1/4 360/1/4
f 347/1/4 348/1/4 361/1/4
f 360/3/4 347/3/4 361/3/4
f 348/3/4 349/3/4 362/3/4
f 361/1/4 348/1/4 362/1/4
f 349/1/4 350/1/4 363/1/4
f 362/3/4 349/3/4 363/3/4
f 363/1/4 350/1/4 364/1/4
f 355/1/4 356/1/4 365/1/4
f 356/1/4 357/1/4 365/1/4
f 365/1/4 357/1/4 366/1/4
f 367/3/4 368/3/4 373/3/4
f 373/3/4 368/3/4 374/3/4
f 369/3/4 370/3/4 375/3/4
f 375/3/4 370/3/4 376/3/4
f 371/3/4 372/3/4 377/3/4
f 377/3/4 372/3/4 378/3/4
f 381/3/5 380/3/5 379/3/5
f 382/3/5 380/3/5 381/3/5
f 385/3/5 384/3/5 383/3/5
f 386/3/5 384/3/5 385/3/5
f 389/1/5 388/1/5 387/1/5
f 390/1/5 388/1/5 389/1/5
f 391/3/5 390/3/5 389/3/5
f 392/3/5 390/3/5 391/3/5
f 395/3/5 394/3/5 393/3/5
f 396/3/5 394/3/5 395/3/5
f 401/1/5 398/1/5 397/1/5
f 402/1/5 398/1/5 401/1/5
f 403/1/5 400/1/5 399/1/5
f 404/1/5 400/1/5 403/1/5
f 407/3/5 406/3/5 405/3/5
f 408/3/5 406/3/5 407/3/5
f 413/1/5 410/1/5 409/1/5
f 414/1/5 410/1/5 413/1/5
f 415/1/5 412/1/5 411/1/5
f 416/1/5 412/1/5 415/1/5
f 421/1/5 418/1/5 417/1/5
f 422/1/5 418/1/5 421/1/5
f 423/1/5 420/1/5 419/1/5
f 424/1/5 420/1/5 423/1/5
f 427/3/5 426/3/5 425/3/5
f 428/3/5 426/3/5 427/3/5
f 431/2/5 430/2/5 429/2/5
f 432/2/5 430/2/5 431/2/5
f 433/3/6 434/3/6 435/3/6
f 435/3/6 434/3/6 436/3/6
f 437/3/6 438/3/6 439/3/6
f 439/3/6 438/3/6 440/3/6
f 441/1/6 442/1/6 443/1/6
f 443/1/6 442/1/6 444/1/6
f 445/1/6 446/1/6 447/1/6
f 447/1/6 446/1/6 448/1/6
f 449/3/6 450/3/6 451/3/6
f 451/3/6 450/3/6 452/3/6
f 453/4/6 454/4/6 455/4/6
f 455/4/6 454/4/6 456/4/6
f 457/3/6 458/3/6 459/3/6
f 459/3/6 458/3/6 460/3/6
f 461/1/6 462/1/6 465/1/6
f 465/1/6 462/1/6 466/1/6
f 463/1/6 464/1/6 467/1/6
f 467/1/6 464/1/6 468/1/6
f 469/1/6 470/1/6 473/1/6
f 473/1/6 470/1/6 474/1/6
f 471/1/6 472/1/6 475/1/6
f 475/1/6 472/1/6 476/1/6
f 474/3/6 475/3/6 477/3/6
f 477/3/6 475/3/6 478/3/6
f 479/2/6 480/2/6 481/2/6
f 481/2/6 480/2/6 482/2/6
f 483/1/6 484/1/6 485/1/6
f 485/1/6 484/1/6 486/1/6
f 487/2/6 488/2/6 490/2/6
f 490/2/6 488/2/6 491/2/6
f 489/2/6 490/2/6 493/2/6
f 493/2/6 490/2/6 494/2/6
f 491/2/6 492/2/6 495/2/6
f 495/2/6 492/2/6 496/2/6
f 497/2/6 498/2/6 499/2/6
f 499/2/6 498/2/6 500/2/6
