# MagicaVoxel @ Ephtracy

# group
o 

# material
mtllib Mosquito3.mtl
usemtl palette

# normals
vn -1 0 0
vn 1 0 0
vn 0 0 1
vn 0 0 -1
vn 0 -1 0
vn 0 1 0

# texcoords
vt 0.310547 0.5
vt 0.337891 0.5
vt 0.341797 0.5
vt 0.955078 0.5
vt 0.974609 0.5
vt 0.986328 0.5
vt 0.994141 0.5

# verts
v -0.4 0.4 0.9
v -0.4 0.4 0.8
v -0.4 0.5 0.9
v -0.4 0.5 0.8
v -0.3 0.4 0.5
v -0.3 0.4 0.4
v -0.3 0.5 1.5
v -0.3 0.5 1.3
v -0.3 0.5 1
v -0.3 0.5 0.9
v -0.3 0.5 0.5
v -0.3 0.5 0.4
v -0.3 0.6 1.5
v -0.3 0.6 1.3
v -0.3 0.6 1.2
v -0.3 0.7 1.3
v -0.3 0.7 1.2
v -0.3 0.7 1
v -0.3 0.7 0.9
v -0.3 1.1 0.9
v -0.3 1.1 0.3
v -0.3 1.2 0.9
v -0.3 1.2 0.3
v -0.2 0.5 0.6
v -0.2 0.5 0.5
v -0.2 0.6 0.6
v -0.2 0.6 0.5
v -0.2 0.7 1.3
v -0.2 0.7 1.2
v -0.2 0.7 1
v -0.2 0.7 0.9
v -0.2 0.8 1.3
v -0.2 0.8 1.2
v -0.2 0.8 1
v -0.2 0.8 0.9
v -0.2 1 1
v -0.2 1 0.4
v -0.2 1.1 1
v -0.2 1.1 0.9
v -0.2 1.1 0.4
v -0.1 0.6 0.7
v -0.1 0.6 0.6
v -0.1 0.7 1.2
v -0.1 0.7 1
v -0.1 0.7 0.9
v -0.1 0.7 0.7
v -0.1 0.8 1.5
v -0.1 0.8 1.4
v -0.1 0.8 1.3
v -0.1 0.8 1.2
v -0.1 0.8 1.1
v -0.1 0.8 1
v -0.1 0.8 0.9
v -0.1 0.8 0.8
v -0.1 0.8 0.7
v -0.1 0.8 0.6
v -0.1 0.9 1.5
v -0.1 0.9 1.4
v -0.1 0.9 1.2
v -0.1 0.9 1.1
v -0.1 0.9 1
v -0.1 0.9 0.9
v -0.1 0.9 0.8
v -0.1 0.9 0.7
v -0.1 1 1.5
v -0.1 1 1.4
v -0.1 1 1.2
v -0.1 1 1.1
v -0.1 1 1
v -0.1 1 0.7
v 0 0.5 1.6
v 0 0.5 1.5
v 0 0.7 1.4
v 0 0.7 1.3
v 0 0.7 0.6
v 0 0.7 0.5
v 0 0.8 1.5
v 0 0.8 1.4
v 0 0.8 1.3
v 0 0.8 0.8
v 0 0.8 0.7
v 0 0.8 0.6
v 0 0.8 0.5
v 0 0.8 0.4
v 0 0.9 1.6
v 0 0.9 1.5
v 0 0.9 0.8
v 0 0.9 0.7
v 0 0.9 0.6
v 0 0.9 0.5
v 0 0.9 0.4
v 0.2 0.5 0.5
v 0.2 0.5 0.4
v 0.2 0.6 0.6
v 0.2 0.6 0.5
v 0.2 0.6 0.4
v 0.2 0.7 0.6
v 0.2 0.7 0.5
v 0.2 1 1
v 0.2 1 0.7
v 0.2 1 0.4
v 0.2 1.1 1
v 0.2 1.1 0.4
v 0.3 0.4 0.4
v 0.3 0.4 0.3
v 0.3 0.5 1.5
v 0.3 0.5 1.3
v 0.3 0.5 1
v 0.3 0.5 0.9
v 0.3 0.5 0.4
v 0.3 0.5 0.3
v 0.3 0.6 1.5
v 0.3 0.6 1.3
v 0.3 0.6 1.2
v 0.3 0.7 1.3
v 0.3 0.7 1.2
v 0.3 0.7 1
v 0.3 0.7 0.9
v 0.3 1.1 0.9
v 0.3 1.1 0.4
v 0.3 1.1 0.3
v 0.3 1.2 0.9
v 0.3 1.2 0.3
v 0.4 0.4 0.9
v 0.4 0.4 0.7
v 0.4 0.5 0.9
v 0.4 0.5 0.7
v -0.3 0.4 0.9
v -0.3 0.4 0.8
v -0.3 0.5 0.9
v -0.3 0.5 0.8
v -0.2 0.4 0.5
v -0.2 0.4 0.4
v -0.2 0.5 1.5
v -0.2 0.5 1.3
v -0.2 0.5 1
v -0.2 0.5 0.9
v -0.2 0.5 0.5
v -0.2 0.5 0.4
v -0.2 0.6 1.5
v -0.2 0.6 1.3
v -0.2 0.6 1.2
v -0.2 0.7 1.3
v -0.2 0.7 1.2
v -0.2 0.7 1
v -0.2 0.7 0.9
v -0.2 1.1 0.9
v -0.2 1.1 0.4
v -0.2 1.1 0.3
v -0.2 1.2 0.9
v -0.2 1.2 0.3
v -0.1 0.5 0.6
v -0.1 0.5 0.5
v -0.1 0.6 0.6
v -0.1 0.6 0.5
v -0.1 1 1
v -0.1 1 0.7
v -0.1 1 0.4
v -0.1 1.1 1
v -0.1 1.1 0.4
v 0 0.6 0.7
v 0 0.6 0.6
v 0 0.7 0.7
v 0 0.7 0.6
v 0.1 0.5 1.6
v 0.1 0.5 1.5
v 0.1 0.7 1.4
v 0.1 0.7 1.3
v 0.1 0.7 0.6
v 0.1 0.7 0.5
v 0.1 0.8 1.5
v 0.1 0.8 1.4
v 0.1 0.8 1.3
v 0.1 0.8 0.6
v 0.1 0.8 0.5
v 0.1 0.8 0.4
v 0.1 0.9 1.6
v 0.1 0.9 1.5
v 0.1 0.9 0.6
v 0.1 0.9 0.5
v 0.1 0.9 0.4
v 0.2 0.7 1.2
v 0.2 0.7 1
v 0.2 0.7 0.9
v 0.2 0.7 0.7
v 0.2 0.7 0.6
v 0.2 0.8 1.5
v 0.2 0.8 1.4
v 0.2 0.8 1.3
v 0.2 0.8 1.2
v 0.2 0.8 1.1
v 0.2 0.8 1
v 0.2 0.8 0.9
v 0.2 0.8 0.7
v 0.2 0.8 0.6
v 0.2 0.9 1.5
v 0.2 0.9 1.4
v 0.2 0.9 1.2
v 0.2 0.9 1.1
v 0.2 0.9 1
v 0.2 0.9 0.9
v 0.2 0.9 0.7
v 0.2 0.9 0.6
v 0.2 1 1.5
v 0.2 1 1.4
v 0.2 1 1.2
v 0.2 1 1.1
v 0.2 1 1
v 0.2 1 0.7
v 0.3 0.5 0.5
v 0.3 0.5 0.4
v 0.3 0.6 0.6
v 0.3 0.6 0.5
v 0.3 0.6 0.4
v 0.3 0.7 1.3
v 0.3 0.7 1.2
v 0.3 0.7 1
v 0.3 0.7 0.9
v 0.3 0.7 0.6
v 0.3 0.7 0.5
v 0.3 0.8 1.3
v 0.3 0.8 1.2
v 0.3 0.8 1
v 0.3 0.8 0.9
v 0.3 1 1
v 0.3 1 0.4
v 0.3 1.1 1
v 0.3 1.1 0.9
v 0.3 1.1 0.4
v 0.4 0.4 0.4
v 0.4 0.4 0.3
v 0.4 0.5 1.5
v 0.4 0.5 1.3
v 0.4 0.5 1
v 0.4 0.5 0.9
v 0.4 0.5 0.4
v 0.4 0.5 0.3
v 0.4 0.6 1.5
v 0.4 0.6 1.3
v 0.4 0.6 1.2
v 0.4 0.7 1.3
v 0.4 0.7 1.2
v 0.4 0.7 1
v 0.4 0.7 0.9
v 0.4 1.1 0.9
v 0.4 1.1 0.3
v 0.4 1.2 0.9
v 0.4 1.2 0.3
v 0.5 0.4 0.9
v 0.5 0.4 0.7
v 0.5 0.5 0.9
v 0.5 0.5 0.7
v 0 0.5 1.6
v 0 0.9 1.6
v 0.1 0.5 1.6
v 0.1 0.9 1.6
v -0.3 0.5 1.5
v -0.3 0.6 1.5
v -0.2 0.5 1.5
v -0.2 0.6 1.5
v -0.1 0.8 1.5
v -0.1 0.9 1.5
v -0.1 1 1.5
v 0 0.8 1.5
v 0 0.9 1.5
v 0 1 1.5
v 0.1 0.8 1.5
v 0.1 0.9 1.5
v 0.1 1 1.5
v 0.2 0.8 1.5
v 0.2 0.9 1.5
v 0.2 1 1.5
v 0.3 0.5 1.5
v 0.3 0.6 1.5
v 0.4 0.5 1.5
v 0.4 0.6 1.5
v 0 0.7 1.4
v 0 0.8 1.4
v 0.1 0.7 1.4
v 0.1 0.8 1.4
v -0.3 0.6 1.3
v -0.3 0.7 1.3
v -0.2 0.6 1.3
v -0.2 0.7 1.3
v -0.2 0.8 1.3
v -0.1 0.7 1.3
v -0.1 0.8 1.3
v 0 0.7 1.3
v 0 0.8 1.3
v 0.1 0.7 1.3
v 0.1 0.8 1.3
v 0.2 0.7 1.3
v 0.2 0.8 1.3
v 0.3 0.6 1.3
v 0.3 0.7 1.3
v 0.3 0.8 1.3
v 0.4 0.6 1.3
v 0.4 0.7 1.3
v -0.1 0.9 1.1
v -0.1 1 1.1
v 0 0.9 1.1
v 0 1 1.1
v 0.1 0.9 1.1
v 0.1 1 1.1
v 0.2 0.9 1.1
v 0.2 1 1.1
v -0.3 0.5 1
v -0.3 0.7 1
v -0.2 0.5 1
v -0.2 0.7 1
v -0.2 0.8 1
v -0.2 1 1
v -0.2 1.1 1
v -0.1 0.7 1
v -0.1 0.8 1
v -0.1 1 1
v -0.1 1.1 1
v 0.2 0.7 1
v 0.2 0.8 1
v 0.2 1 1
v 0.2 1.1 1
v 0.3 0.5 1
v 0.3 0.7 1
v 0.3 0.8 1
v 0.3 1 1
v 0.3 1.1 1
v 0.4 0.5 1
v 0.4 0.7 1
v -0.4 0.4 0.9
v -0.4 0.5 0.9
v -0.3 0.4 0.9
v -0.3 0.5 0.9
v -0.3 1.1 0.9
v -0.3 1.2 0.9
v -0.2 1.1 0.9
v -0.2 1.2 0.9
v 0.3 1.1 0.9
v 0.3 1.2 0.9
v 0.4 0.4 0.9
v 0.4 0.5 0.9
v 0.4 1.1 0.9
v 0.4 1.2 0.9
v 0.5 0.4 0.9
v 0.5 0.5 0.9
v -0.1 0.6 0.7
v -0.1 0.7 0.7
v 0 0.6 0.7
v 0 0.7 0.7
v -0.2 0.5 0.6
v -0.2 0.6 0.6
v -0.1 0.5 0.6
v -0.1 0.6 0.6
v 0.2 0.6 0.6
v 0.2 0.7 0.6
v 0.3 0.6 0.6
v 0.3 0.7 0.6
v -0.3 0.4 0.5
v -0.3 0.5 0.5
v -0.2 0.4 0.5
v -0.2 0.5 0.5
v 0.2 0.5 0.5
v 0.2 0.6 0.5
v 0.3 0.5 0.5
v 0.3 0.6 0.5
v 0.3 0.4 0.4
v 0.3 0.5 0.4
v 0.4 0.4 0.4
v 0.4 0.5 0.4
v 0 0.5 1.5
v 0 0.8 1.5
v 0.1 0.5 1.5
v 0.1 0.8 1.5
v -0.3 0.5 1.3
v -0.3 0.6 1.3
v -0.2 0.5 1.3
v -0.2 0.6 1.3
v 0.3 0.5 1.3
v 0.3 0.6 1.3
v 0.4 0.5 1.3
v 0.4 0.6 1.3
v -0.3 0.6 1.2
v -0.3 0.7 1.2
v -0.2 0.6 1.2
v -0.2 0.7 1.2
v -0.2 0.8 1.2
v -0.1 0.7 1.2
v -0.1 0.8 1.2
v -0.1 0.9 1.2
v -0.1 1 1.2
v 0 0.9 1.2
v 0 1 1.2
v 0.1 0.9 1.2
v 0.1 1 1.2
v 0.2 0.7 1.2
v 0.2 0.8 1.2
v 0.2 0.9 1.2
v 0.2 1 1.2
v 0.3 0.6 1.2
v 0.3 0.7 1.2
v 0.3 0.8 1.2
v 0.4 0.6 1.2
v 0.4 0.7 1.2
v -0.3 0.5 0.9
v -0.3 0.7 0.9
v -0.2 0.5 0.9
v -0.2 0.7 0.9
v -0.2 0.8 0.9
v -0.1 0.7 0.9
v -0.1 0.8 0.9
v 0.2 0.7 0.9
v 0.2 0.8 0.9
v 0.3 0.5 0.9
v 0.3 0.7 0.9
v 0.3 0.8 0.9
v 0.4 0.5 0.9
v 0.4 0.7 0.9
v -0.4 0.4 0.8
v -0.4 0.5 0.8
v -0.3 0.4 0.8
v -0.3 0.5 0.8
v -0.1 0.8 0.8
v -0.1 0.9 0.8
v 0 0.8 0.8
v 0 0.9 0.8
v -0.1 0.9 0.7
v -0.1 1 0.7
v 0 0.9 0.7
v 0 1 0.7
v 0.1 0.9 0.7
v 0.1 1 0.7
v 0.2 0.9 0.7
v 0.2 1 0.7
v 0.4 0.4 0.7
v 0.4 0.5 0.7
v 0.5 0.4 0.7
v 0.5 0.5 0.7
v -0.1 0.6 0.6
v -0.1 0.8 0.6
v 0 0.6 0.6
v 0 0.7 0.6
v 0 0.8 0.6
v 0.1 0.7 0.6
v 0.1 0.8 0.6
v 0.1 0.9 0.6
v 0.2 0.7 0.6
v 0.2 0.8 0.6
v 0.2 0.9 0.6
v -0.2 0.5 0.5
v -0.2 0.6 0.5
v -0.1 0.5 0.5
v -0.1 0.6 0.5
v 0 0.7 0.5
v 0 0.8 0.5
v 0.1 0.7 0.5
v 0.1 0.8 0.5
v 0.2 0.6 0.5
v 0.2 0.7 0.5
v 0.3 0.6 0.5
v 0.3 0.7 0.5
v -0.3 0.4 0.4
v -0.3 0.5 0.4
v -0.2 0.4 0.4
v -0.2 0.5 0.4
v -0.2 1 0.4
v -0.2 1.1 0.4
v -0.1 1 0.4
v -0.1 1.1 0.4
v 0 0.8 0.4
v 0 0.9 0.4
v 0.1 0.8 0.4
v 0.1 0.9 0.4
v 0.2 0.5 0.4
v 0.2 0.6 0.4
v 0.2 1 0.4
v 0.2 1.1 0.4
v 0.3 0.5 0.4
v 0.3 0.6 0.4
v 0.3 1 0.4
v 0.3 1.1 0.4
v -0.3 1.1 0.3
v -0.3 1.2 0.3
v -0.2 1.1 0.3
v -0.2 1.2 0.3
v 0.3 0.4 0.3
v 0.3 0.5 0.3
v 0.3 1.1 0.3
v 0.3 1.2 0.3
v 0.4 0.4 0.3
v 0.4 0.5 0.3
v 0.4 1.1 0.3
v 0.4 1.2 0.3
v -0.4 0.4 0.9
v -0.3 0.4 0.9
v 0.4 0.4 0.9
v 0.5 0.4 0.9
v -0.4 0.4 0.8
v -0.3 0.4 0.8
v 0.4 0.4 0.7
v 0.5 0.4 0.7
v -0.3 0.4 0.5
v -0.2 0.4 0.5
v -0.3 0.4 0.4
v -0.2 0.4 0.4
v 0.3 0.4 0.4
v 0.4 0.4 0.4
v 0.3 0.4 0.3
v 0.4 0.4 0.3
v 0 0.5 1.6
v 0.1 0.5 1.6
v -0.3 0.5 1.5
v -0.2 0.5 1.5
v 0 0.5 1.5
v 0.1 0.5 1.5
v 0.3 0.5 1.5
v 0.4 0.5 1.5
v -0.3 0.5 1.3
v -0.2 0.5 1.3
v 0.3 0.5 1.3
v 0.4 0.5 1.3
v -0.3 0.5 1
v -0.2 0.5 1
v 0.3 0.5 1
v 0.4 0.5 1
v -0.3 0.5 0.9
v -0.2 0.5 0.9
v 0.3 0.5 0.9
v 0.4 0.5 0.9
v -0.2 0.5 0.6
v -0.1 0.5 0.6
v -0.2 0.5 0.5
v -0.1 0.5 0.5
v 0.2 0.5 0.5
v 0.3 0.5 0.5
v 0.2 0.5 0.4
v 0.3 0.5 0.4
v -0.3 0.6 1.3
v -0.2 0.6 1.3
v 0.3 0.6 1.3
v 0.4 0.6 1.3
v -0.3 0.6 1.2
v -0.2 0.6 1.2
v 0.3 0.6 1.2
v 0.4 0.6 1.2
v -0.1 0.6 0.7
v 0 0.6 0.7
v -0.1 0.6 0.6
v 0 0.6 0.6
v 0.2 0.6 0.6
v 0.3 0.6 0.6
v 0.2 0.6 0.5
v 0.3 0.6 0.5
v 0 0.7 1.4
v 0.1 0.7 1.4
v -0.2 0.7 1.3
v -0.1 0.7 1.3
v 0 0.7 1.3
v 0.1 0.7 1.3
v 0.2 0.7 1.3
v 0.3 0.7 1.3
v -0.2 0.7 1.2
v -0.1 0.7 1.2
v 0.2 0.7 1.2
v 0.3 0.7 1.2
v -0.2 0.7 1
v -0.1 0.7 1
v 0.2 0.7 1
v 0.3 0.7 1
v -0.2 0.7 0.9
v -0.1 0.7 0.9
v 0.2 0.7 0.9
v 0.3 0.7 0.9
v -0.1 0.7 0.7
v 0 0.7 0.7
v 0.1 0.7 0.7
v 0.2 0.7 0.7
v 0 0.7 0.6
v 0.1 0.7 0.6
v 0.2 0.7 0.6
v 0 0.7 0.5
v 0.1 0.7 0.5
v -0.1 0.8 1.5
v 0 0.8 1.5
v 0.1 0.8 1.5
v 0.2 0.8 1.5
v -0.1 0.8 1.4
v 0 0.8 1.4
v 0.1 0.8 1.4
v 0.2 0.8 1.4
v -0.1 0.8 1.3
v 0 0.8 1.3
v 0.1 0.8 1.3
v 0.2 0.8 1.3
v 0 0.8 0.5
v 0.1 0.8 0.5
v 0 0.8 0.4
v 0.1 0.8 0.4
v -0.1 0.9 0.8
v 0 0.9 0.8
v -0.1 0.9 0.7
v 0 0.9 0.7
v -0.2 1 1
v -0.1 1 1
v 0.2 1 1
v 0.3 1 1
v -0.1 1 0.7
v 0.2 1 0.7
v -0.2 1 0.4
v -0.1 1 0.4
v 0.2 1 0.4
v 0.3 1 0.4
v -0.3 1.1 0.9
v -0.2 1.1 0.9
v 0.3 1.1 0.9
v 0.4 1.1 0.9
v -0.2 1.1 0.4
v 0.3 1.1 0.4
v -0.3 1.1 0.3
v -0.2 1.1 0.3
v 0.3 1.1 0.3
v 0.4 1.1 0.3
v -0.4 0.5 0.9
v -0.3 0.5 0.9
v 0.4 0.5 0.9
v 0.5 0.5 0.9
v -0.4 0.5 0.8
v -0.3 0.5 0.8
v 0.4 0.5 0.7
v 0.5 0.5 0.7
v -0.3 0.5 0.5
v -0.2 0.5 0.5
v -0.3 0.5 0.4
v -0.2 0.5 0.4
v 0.3 0.5 0.4
v 0.4 0.5 0.4
v 0.3 0.5 0.3
v 0.4 0.5 0.3
v -0.3 0.6 1.5
v -0.2 0.6 1.5
v 0.3 0.6 1.5
v 0.4 0.6 1.5
v -0.3 0.6 1.3
v -0.2 0.6 1.3
v 0.3 0.6 1.3
v 0.4 0.6 1.3
v -0.2 0.6 0.6
v -0.1 0.6 0.6
v -0.2 0.6 0.5
v -0.1 0.6 0.5
v 0.2 0.6 0.5
v 0.3 0.6 0.5
v 0.2 0.6 0.4
v 0.3 0.6 0.4
v -0.3 0.7 1.3
v -0.2 0.7 1.3
v 0.3 0.7 1.3
v 0.4 0.7 1.3
v -0.3 0.7 1.2
v -0.2 0.7 1.2
v 0.3 0.7 1.2
v 0.4 0.7 1.2
v -0.3 0.7 1
v -0.2 0.7 1
v 0.3 0.7 1
v 0.4 0.7 1
v -0.3 0.7 0.9
v -0.2 0.7 0.9
v 0.3 0.7 0.9
v 0.4 0.7 0.9
v 0.2 0.7 0.6
v 0.3 0.7 0.6
v 0.2 0.7 0.5
v 0.3 0.7 0.5
v -0.2 0.8 1.3
v -0.1 0.8 1.3
v 0.2 0.8 1.3
v 0.3 0.8 1.3
v -0.2 0.8 1.2
v -0.1 0.8 1.2
v 0.2 0.8 1.2
v 0.3 0.8 1.2
v -0.2 0.8 1
v -0.1 0.8 1
v 0.2 0.8 1
v 0.3 0.8 1
v -0.2 0.8 0.9
v -0.1 0.8 0.9
v 0.2 0.8 0.9
v 0.3 0.8 0.9
v -0.1 0.8 0.8
v 0 0.8 0.8
v -0.1 0.8 0.7
v 0 0.8 0.7
v -0.1 0.8 0.6
v 0 0.8 0.6
v 0 0.9 1.6
v 0.1 0.9 1.6
v 0 0.9 1.5
v 0.1 0.9 1.5
v -0.1 0.9 1.2
v 0 0.9 1.2
v 0.1 0.9 1.2
v 0.2 0.9 1.2
v -0.1 0.9 1.1
v 0 0.9 1.1
v 0.1 0.9 1.1
v 0.2 0.9 1.1
v 0 0.9 0.7
v 0.1 0.9 0.7
v 0.2 0.9 0.7
v 0 0.9 0.6
v 0.1 0.9 0.6
v 0.2 0.9 0.6
v 0 0.9 0.5
v 0.1 0.9 0.5
v 0 0.9 0.4
v 0.1 0.9 0.4
v -0.1 1 1.5
v 0 1 1.5
v 0.1 1 1.5
v 0.2 1 1.5
v -0.1 1 1.4
v 0 1 1.4
v 0.1 1 1.4
v 0.2 1 1.4
v -0.1 1 1.2
v 0 1 1.2
v 0.1 1 1.2
v 0.2 1 1.2
v -0.1 1 1.1
v 0 1 1.1
v 0.1 1 1.1
v 0.2 1 1.1
v -0.1 1 1
v 0 1 1
v 0.1 1 1
v 0.2 1 1
v 0 1 0.9
v 0.1 1 0.9
v 0 1 0.8
v 0.1 1 0.8
v -0.1 1 0.7
v 0 1 0.7
v 0.1 1 0.7
v 0.2 1 0.7
v -0.2 1.1 1
v -0.1 1.1 1
v 0.2 1.1 1
v 0.3 1.1 1
v -0.2 1.1 0.9
v 0.3 1.1 0.9
v -0.2 1.1 0.4
v -0.1 1.1 0.4
v 0.2 1.1 0.4
v 0.3 1.1 0.4
v -0.3 1.2 0.9
v -0.2 1.2 0.9
v 0.3 1.2 0.9
v 0.4 1.2 0.9
v -0.3 1.2 0.3
v -0.2 1.2 0.3
v 0.3 1.2 0.3
v 0.4 1.2 0.3

# faces
f 3/1/1 2/1/1 1/1/1
f 4/1/1 2/1/1 3/1/1
f 11/1/1 6/1/1 5/1/1
f 12/1/1 6/1/1 11/1/1
f 13/1/1 8/1/1 7/1/1
f 14/1/1 8/1/1 13/1/1
f 16/1/1 15/1/1 14/1/1
f 17/1/1 15/1/1 16/1/1
f 18/1/1 10/1/1 9/1/1
f 19/1/1 10/1/1 18/1/1
f 22/5/1 21/5/1 20/5/1
f 23/5/1 21/5/1 22/5/1
f 26/1/1 25/1/1 24/1/1
f 27/1/1 25/1/1 26/1/1
f 32/1/1 29/1/1 28/1/1
f 33/1/1 29/1/1 32/1/1
f 34/1/1 31/1/1 30/1/1
f 35/1/1 31/1/1 34/1/1
f 38/5/1 37/5/1 36/5/1
f 39/5/1 37/5/1 38/5/1
f 40/5/1 37/5/1 39/5/1
f 46/1/1 42/1/1 41/1/1
f 50/3/1 44/3/1 43/3/1
f 51/3/1 44/3/1 50/3/1
f 52/3/1 44/3/1 51/3/1
f 53/3/1 46/3/1 45/3/1
f 54/3/1 46/3/1 53/3/1
f 55/1/1 42/1/1 46/1/1
f 55/3/1 46/3/1 54/3/1
f 56/1/1 42/1/1 55/1/1
f 57/4/1 48/4/1 47/4/1
f 58/3/1 49/3/1 48/3/1
f 58/4/1 48/4/1 57/4/1
f 58/3/1 50/3/1 49/3/1
f 59/1/1 51/1/1 50/1/1
f 59/3/1 50/3/1 58/3/1
f 60/3/1 52/3/1 51/3/1
f 60/1/1 51/1/1 59/1/1
f 61/2/1 53/2/1 52/2/1
f 61/3/1 52/3/1 60/3/1
f 62/3/1 54/3/1 53/3/1
f 62/2/1 53/2/1 61/2/1
f 63/3/1 54/3/1 62/3/1
f 65/7/1 58/7/1 57/7/1
f 66/4/1 59/4/1 58/4/1
f 66/7/1 58/7/1 65/7/1
f 67/4/1 59/4/1 66/4/1
f 68/5/1 61/5/1 60/5/1
f 68/5/1 64/5/1 63/5/1
f 68/5/1 63/5/1 62/5/1
f 68/5/1 62/5/1 61/5/1
f 69/5/1 64/5/1 68/5/1
f 70/5/1 64/5/1 69/5/1
f 77/6/1 72/6/1 71/6/1
f 78/3/1 74/3/1 73/3/1
f 79/3/1 74/3/1 78/3/1
f 82/1/1 76/1/1 75/1/1
f 83/1/1 76/1/1 82/1/1
f 85/6/1 77/6/1 71/6/1
f 86/6/1 77/6/1 85/6/1
f 87/3/1 81/3/1 80/3/1
f 87/3/1 82/3/1 81/3/1
f 88/3/1 82/3/1 87/3/1
f 89/1/1 83/1/1 82/1/1
f 89/3/1 82/3/1 88/3/1
f 90/3/1 84/3/1 83/3/1
f 90/1/1 83/1/1 89/1/1
f 91/3/1 84/3/1 90/3/1
f 95/1/1 93/1/1 92/1/1
f 96/1/1 93/1/1 95/1/1
f 97/1/1 95/1/1 94/1/1
f 98/1/1 95/1/1 97/1/1
f 102/5/1 100/5/1 99/5/1
f 102/5/1 101/5/1 100/5/1
f 103/5/1 101/5/1 102/5/1
f 110/1/1 105/1/1 104/1/1
f 111/1/1 105/1/1 110/1/1
f 112/1/1 107/1/1 106/1/1
f 113/1/1 107/1/1 112/1/1
f 115/1/1 114/1/1 113/1/1
f 116/1/1 114/1/1 115/1/1
f 117/1/1 109/1/1 108/1/1
f 118/1/1 109/1/1 117/1/1
f 122/5/1 120/5/1 119/5/1
f 122/5/1 121/5/1 120/5/1
f 123/5/1 121/5/1 122/5/1
f 126/1/1 125/1/1 124/1/1
f 127/1/1 125/1/1 126/1/1
f 128/1/2 129/1/2 130/1/2
f 130/1/2 129/1/2 131/1/2
f 132/1/2 133/1/2 138/1/2
f 138/1/2 133/1/2 139/1/2
f 134/1/2 135/1/2 140/1/2
f 140/1/2 135/1/2 141/1/2
f 141/1/2 142/1/2 143/1/2
f 143/1/2 142/1/2 144/1/2
f 136/1/2 137/1/2 145/1/2
f 145/1/2 137/1/2 146/1/2
f 147/5/2 148/5/2 150/5/2
f 148/5/2 149/5/2 150/5/2
f 150/5/2 149/5/2 151/5/2
f 152/1/2 153/1/2 154/1/2
f 154/1/2 153/1/2 155/1/2
f 156/5/2 157/5/2 159/5/2
f 157/5/2 158/5/2 159/5/2
f 159/5/2 158/5/2 160/5/2
f 161/1/2 162/1/2 163/1/2
f 163/1/2 162/1/2 164/1/2
f 165/6/2 166/6/2 171/6/2
f 167/3/2 168/3/2 172/3/2
f 172/3/2 168/3/2 173/3/2
f 169/1/2 170/1/2 174/1/2
f 174/1/2 170/1/2 175/1/2
f 165/6/2 171/6/2 177/6/2
f 177/6/2 171/6/2 178/6/2
f 174/1/2 175/1/2 179/1/2
f 175/3/2 176/3/2 180/3/2
f 179/1/2 175/1/2 180/1/2
f 180/3/2 176/3/2 181/3/2
f 182/3/2 183/3/2 190/3/2
f 190/3/2 183/3/2 191/3/2
f 191/3/2 183/3/2 192/3/2
f 184/3/2 185/3/2 193/3/2
f 185/1/2 186/1/2 194/1/2
f 193/3/2 185/3/2 194/3/2
f 194/1/2 186/1/2 195/1/2
f 187/4/2 188/4/2 196/4/2
f 188/3/2 189/3/2 197/3/2
f 196/4/2 188/4/2 197/4/2
f 189/3/2 190/3/2 197/3/2
f 190/1/2 191/1/2 198/1/2
f 197/3/2 190/3/2 198/3/2
f 191/3/2 192/3/2 199/3/2
f 198/1/2 191/1/2 199/1/2
f 192/2/2 193/2/2 200/2/2
f 199/3/2 192/3/2 200/3/2
f 194/3/2 195/3/2 201/3/2
f 200/2/2 193/2/2 201/2/2
f 193/3/2 194/3/2 201/3/2
f 201/3/2 195/3/2 202/3/2
f 202/3/2 195/3/2 203/3/2
f 196/7/2 197/7/2 204/7/2
f 197/4/2 198/4/2 205/4/2
f 204/7/2 197/7/2 205/7/2
f 205/4/2 198/4/2 206/4/2
f 199/5/2 200/5/2 207/5/2
f 201/5/2 202/5/2 207/5/2
f 200/5/2 201/5/2 207/5/2
f 207/5/2 202/5/2 208/5/2
f 208/5/2 202/5/2 209/5/2
f 210/1/2 211/1/2 213/1/2
f 213/1/2 211/1/2 214/1/2
f 212/1/2 213/1/2 219/1/2
f 219/1/2 213/1/2 220/1/2
f 215/1/2 216/1/2 221/1/2
f 221/1/2 216/1/2 222/1/2
f 217/1/2 218/1/2 223/1/2
f 223/1/2 218/1/2 224/1/2
f 225/5/2 226/5/2 227/5/2
f 227/5/2 226/5/2 228/5/2
f 228/5/2 226/5/2 229/5/2
f 230/1/2 231/1/2 236/1/2
f 236/1/2 231/1/2 237/1/2
f 232/1/2 233/1/2 238/1/2
f 238/1/2 233/1/2 239/1/2
f 239/1/2 240/1/2 241/1/2
f 241/1/2 240/1/2 242/1/2
f 234/1/2 235/1/2 243/1/2
f 243/1/2 235/1/2 244/1/2
f 245/5/2 246/5/2 247/5/2
f 247/5/2 246/5/2 248/5/2
f 249/1/2 250/1/2 251/1/2
f 251/1/2 250/1/2 252/1/2
f 255/6/3 254/6/3 253/6/3
f 256/6/3 254/6/3 255/6/3
f 259/1/3 258/1/3 257/1/3
f 260/1/3 258/1/3 259/1/3
f 264/4/3 262/4/3 261/4/3
f 265/7/3 263/7/3 262/7/3
f 265/4/3 262/4/3 264/4/3
f 266/7/3 263/7/3 265/7/3
f 268/4/3 266/4/3 265/4/3
f 269/4/3 266/4/3 268/4/3
f 270/4/3 268/4/3 267/4/3
f 271/7/3 269/7/3 268/7/3
f 271/4/3 268/4/3 270/4/3
f 272/7/3 269/7/3 271/7/3
f 275/1/3 274/1/3 273/1/3
f 276/1/3 274/1/3 275/1/3
f 279/3/3 278/3/3 277/3/3
f 280/3/3 278/3/3 279/3/3
f 283/1/3 282/1/3 281/1/3
f 284/1/3 282/1/3 283/1/3
f 286/1/3 285/1/3 284/1/3
f 287/1/3 285/1/3 286/1/3
f 288/3/3 287/3/3 286/3/3
f 289/3/3 287/3/3 288/3/3
f 292/3/3 291/3/3 290/3/3
f 293/3/3 291/3/3 292/3/3
f 295/1/3 293/1/3 292/1/3
f 296/1/3 293/1/3 295/1/3
f 297/1/3 295/1/3 294/1/3
f 298/1/3 295/1/3 297/1/3
f 301/5/3 300/5/3 299/5/3
f 302/5/3 300/5/3 301/5/3
f 303/3/3 302/3/3 301/3/3
f 304/3/3 302/3/3 303/3/3
f 305/5/3 304/5/3 303/5/3
f 306/5/3 304/5/3 305/5/3
f 309/1/3 308/1/3 307/1/3
f 310/1/3 308/1/3 309/1/3
f 314/1/3 311/1/3 310/1/3
f 315/1/3 311/1/3 314/1/3
f 316/5/3 313/5/3 312/5/3
f 317/5/3 313/5/3 316/5/3
f 323/1/3 319/1/3 318/1/3
f 324/1/3 319/1/3 323/1/3
f 325/5/3 321/5/3 320/5/3
f 326/5/3 321/5/3 325/5/3
f 327/1/3 323/1/3 322/1/3
f 328/1/3 323/1/3 327/1/3
f 331/1/3 330/1/3 329/1/3
f 332/1/3 330/1/3 331/1/3
f 335/5/3 334/5/3 333/5/3
f 336/5/3 334/5/3 335/5/3
f 341/5/3 338/5/3 337/5/3
f 342/5/3 338/5/3 341/5/3
f 343/1/3 340/1/3 339/1/3
f 344/1/3 340/1/3 343/1/3
f 347/1/3 346/1/3 345/1/3
f 348/1/3 346/1/3 347/1/3
f 351/1/3 350/1/3 349/1/3
f 352/1/3 350/1/3 351/1/3
f 355/1/3 354/1/3 353/1/3
f 356/1/3 354/1/3 355/1/3
f 359/1/3 358/1/3 357/1/3
f 360/1/3 358/1/3 359/1/3
f 363/1/3 362/1/3 361/1/3
f 364/1/3 362/1/3 363/1/3
f 367/1/3 366/1/3 365/1/3
f 368/1/3 366/1/3 367/1/3
f 369/6/4 370/6/4 371/6/4
f 371/6/4 370/6/4 372/6/4
f 373/1/4 374/1/4 375/1/4
f 375/1/4 374/1/4 376/1/4
f 377/1/4 378/1/4 379/1/4
f 379/1/4 378/1/4 380/1/4
f 381/1/4 382/1/4 383/1/4
f 383/1/4 382/1/4 384/1/4
f 384/1/4 385/1/4 386/1/4
f 386/1/4 385/1/4 387/1/4
f 388/4/4 389/4/4 390/4/4
f 390/4/4 389/4/4 391/4/4
f 390/3/4 391/3/4 392/3/4
f 392/3/4 391/3/4 393/3/4
f 392/4/4 393/4/4 396/4/4
f 396/4/4 393/4/4 397/4/4
f 394/1/4 395/1/4 399/1/4
f 399/1/4 395/1/4 400/1/4
f 398/1/4 399/1/4 401/1/4
f 401/1/4 399/1/4 402/1/4
f 403/1/4 404/1/4 405/1/4
f 405/1/4 404/1/4 406/1/4
f 406/1/4 407/1/4 408/1/4
f 408/1/4 407/1/4 409/1/4
f 410/1/4 411/1/4 413/1/4
f 413/1/4 411/1/4 414/1/4
f 412/1/4 413/1/4 415/1/4
f 415/1/4 413/1/4 416/1/4
f 417/1/4 418/1/4 419/1/4
f 419/1/4 418/1/4 420/1/4
f 421/3/4 422/3/4 423/3/4
f 423/3/4 422/3/4 424/3/4
f 425/5/4 426/5/4 427/5/4
f 427/5/4 426/5/4 428/5/4
f 427/1/4 428/1/4 429/1/4
f 429/1/4 428/1/4 430/1/4
f 429/5/4 430/5/4 431/5/4
f 431/5/4 430/5/4 432/5/4
f 433/1/4 434/1/4 435/1/4
f 435/1/4 434/1/4 436/1/4
f 437/1/4 438/1/4 439/1/4
f 439/1/4 438/1/4 440/1/4
f 440/1/4 438/1/4 441/1/4
f 442/1/4 443/1/4 445/1/4
f 443/3/4 444/3/4 446/3/4
f 445/1/4 443/1/4 446/1/4
f 446/3/4 444/3/4 447/3/4
f 448/1/4 449/1/4 450/1/4
f 450/1/4 449/1/4 451/1/4
f 452/1/4 453/1/4 454/1/4
f 454/1/4 453/1/4 455/1/4
f 456/1/4 457/1/4 458/1/4
f 458/1/4 457/1/4 459/1/4
f 460/1/4 461/1/4 462/1/4
f 462/1/4 461/1/4 463/1/4
f 464/5/4 465/5/4 466/5/4
f 466/5/4 465/5/4 467/5/4
f 468/3/4 469/3/4 470/3/4
f 470/3/4 469/3/4 471/3/4
f 472/1/4 473/1/4 476/1/4
f 476/1/4 473/1/4 477/1/4
f 474/5/4 475/5/4 478/5/4
f 478/5/4 475/5/4 479/5/4
f 480/5/4 481/5/4 482/5/4
f 482/5/4 481/5/4 483/5/4
f 484/1/4 485/1/4 488/1/4
f 488/1/4 485/1/4 489/1/4
f 486/5/4 487/5/4 490/5/4
f 490/5/4 487/5/4 491/5/4
f 496/1/5 493/1/5 492/1/5
f 497/1/5 493/1/5 496/1/5
f 498/1/5 495/1/5 494/1/5
f 499/1/5 495/1/5 498/1/5
f 502/1/5 501/1/5 500/1/5
f 503/1/5 501/1/5 502/1/5
f 506/1/5 505/1/5 504/1/5
f 507/1/5 505/1/5 506/1/5
f 512/6/5 509/6/5 508/6/5
f 513/6/5 509/6/5 512/6/5
f 516/1/5 511/1/5 510/1/5
f 517/1/5 511/1/5 516/1/5
f 518/1/5 515/1/5 514/1/5
f 519/1/5 515/1/5 518/1/5
f 524/1/5 521/1/5 520/1/5
f 525/1/5 521/1/5 524/1/5
f 526/1/5 523/1/5 522/1/5
f 527/1/5 523/1/5 526/1/5
f 530/1/5 529/1/5 528/1/5
f 531/1/5 529/1/5 530/1/5
f 534/1/5 533/1/5 532/1/5
f 535/1/5 533/1/5 534/1/5
f 540/1/5 537/1/5 536/1/5
f 541/1/5 537/1/5 540/1/5
f 542/1/5 539/1/5 538/1/5
f 543/1/5 539/1/5 542/1/5
f 546/1/5 545/1/5 544/1/5
f 547/1/5 545/1/5 546/1/5
f 550/1/5 549/1/5 548/1/5
f 551/1/5 549/1/5 550/1/5
f 556/3/5 553/3/5 552/3/5
f 557/3/5 553/3/5 556/3/5
f 560/1/5 555/1/5 554/1/5
f 561/3/5 556/3/5 555/3/5
f 561/1/5 555/1/5 560/1/5
f 561/3/5 557/3/5 556/3/5
f 561/3/5 558/3/5 557/3/5
f 562/1/5 559/1/5 558/1/5
f 562/3/5 558/3/5 561/3/5
f 563/1/5 559/1/5 562/1/5
f 565/3/5 562/3/5 561/3/5
f 566/3/5 562/3/5 565/3/5
f 568/1/5 565/1/5 564/1/5
f 569/3/5 566/3/5 565/3/5
f 569/1/5 565/1/5 568/1/5
f 570/1/5 567/1/5 566/1/5
f 570/3/5 566/3/5 569/3/5
f 571/1/5 567/1/5 570/1/5
f 572/3/5 570/3/5 569/3/5
f 573/3/5 570/3/5 572/3/5
f 574/3/5 570/3/5 573/3/5
f 575/3/5 570/3/5 574/3/5
f 576/3/5 574/3/5 573/3/5
f 577/1/5 575/1/5 574/1/5
f 577/3/5 574/3/5 576/3/5
f 578/1/5 575/1/5 577/1/5
f 579/1/5 577/1/5 576/1/5
f 580/1/5 577/1/5 579/1/5
f 585/4/5 582/4/5 581/4/5
f 585/4/5 584/4/5 583/4/5
f 585/4/5 583/4/5 582/4/5
f 586/4/5 584/4/5 585/4/5
f 587/4/5 584/4/5 586/4/5
f 588/4/5 584/4/5 587/4/5
f 589/3/5 586/3/5 585/3/5
f 590/3/5 586/3/5 589/3/5
f 591/3/5 588/3/5 587/3/5
f 592/3/5 588/3/5 591/3/5
f 595/3/5 594/3/5 593/3/5
f 596/3/5 594/3/5 595/3/5
f 599/5/5 598/5/5 597/5/5
f 600/5/5 598/5/5 599/5/5
f 605/5/5 602/5/5 601/5/5
f 606/5/5 604/5/5 603/5/5
f 607/5/5 605/5/5 601/5/5
f 608/5/5 605/5/5 607/5/5
f 609/5/5 604/5/5 606/5/5
f 610/5/5 604/5/5 609/5/5
f 615/5/5 612/5/5 611/5/5
f 616/5/5 614/5/5 613/5/5
f 617/5/5 615/5/5 611/5/5
f 618/5/5 615/5/5 617/5/5
f 619/5/5 614/5/5 616/5/5
f 620/5/5 614/5/5 619/5/5
f 621/1/6 622/1/6 625/1/6
f 625/1/6 622/1/6 626/1/6
f 623/1/6 624/1/6 627/1/6
f 627/1/6 624/1/6 628/1/6
f 629/1/6 630/1/6 631/1/6
f 631/1/6 630/1/6 632/1/6
f 633/1/6 634/1/6 635/1/6
f 635/1/6 634/1/6 636/1/6
f 637/1/6 638/1/6 641/1/6
f 641/1/6 638/1/6 642/1/6
f 639/1/6 640/1/6 643/1/6
f 643/1/6 640/1/6 644/1/6
f 645/1/6 646/1/6 647/1/6
f 647/1/6 646/1/6 648/1/6
f 649/1/6 650/1/6 651/1/6
f 651/1/6 650/1/6 652/1/6
f 653/1/6 654/1/6 657/1/6
f 657/1/6 654/1/6 658/1/6
f 655/1/6 656/1/6 659/1/6
f 659/1/6 656/1/6 660/1/6
f 661/1/6 662/1/6 665/1/6
f 665/1/6 662/1/6 666/1/6
f 663/1/6 664/1/6 667/1/6
f 667/1/6 664/1/6 668/1/6
f 669/1/6 670/1/6 671/1/6
f 671/1/6 670/1/6 672/1/6
f 673/1/6 674/1/6 677/1/6
f 677/1/6 674/1/6 678/1/6
f 675/1/6 676/1/6 679/1/6
f 679/1/6 676/1/6 680/1/6
f 681/1/6 682/1/6 685/1/6
f 685/1/6 682/1/6 686/1/6
f 683/1/6 684/1/6 687/1/6
f 687/1/6 684/1/6 688/1/6
f 689/3/6 690/3/6 691/3/6
f 691/3/6 690/3/6 692/3/6
f 691/1/6 692/1/6 693/1/6
f 693/1/6 692/1/6 694/1/6
f 695/6/6 696/6/6 697/6/6
f 697/6/6 696/6/6 698/6/6
f 699/1/6 700/1/6 703/1/6
f 700/3/6 701/3/6 704/3/6
f 703/1/6 700/1/6 704/1/6
f 701/1/6 702/1/6 705/1/6
f 704/3/6 701/3/6 705/3/6
f 705/1/6 702/1/6 706/1/6
f 707/3/6 708/3/6 710/3/6
f 708/3/6 709/3/6 710/3/6
f 710/3/6 709/3/6 711/3/6
f 711/3/6 709/3/6 712/3/6
f 710/1/6 711/1/6 713/1/6
f 713/1/6 711/1/6 714/1/6
f 713/3/6 714/3/6 715/3/6
f 715/3/6 714/3/6 716/3/6
f 717/7/6 718/7/6 721/7/6
f 718/4/6 719/4/6 722/4/6
f 721/7/6 718/7/6 722/7/6
f 719/7/6 720/7/6 723/7/6
f 722/4/6 719/4/6 723/4/6
f 723/7/6 720/7/6 724/7/6
f 721/4/6 722/4/6 725/4/6
f 722/3/6 723/3/6 726/3/6
f 725/4/6 722/4/6 726/4/6
f 723/4/6 724/4/6 727/4/6
f 726/3/6 723/3/6 727/3/6
f 727/4/6 724/4/6 728/4/6
f 729/5/6 730/5/6 733/5/6
f 730/3/6 731/3/6 734/3/6
f 733/5/6 730/5/6 734/5/6
f 731/5/6 732/5/6 735/5/6
f 734/3/6 731/3/6 735/3/6
f 735/5/6 732/5/6 736/5/6
f 733/5/6 734/5/6 737/5/6
f 734/1/6 735/1/6 737/1/6
f 735/5/6 736/5/6 738/5/6
f 737/1/6 735/1/6 738/1/6
f 733/5/6 737/5/6 739/5/6
f 737/3/6 738/3/6 739/3/6
f 738/5/6 736/5/6 740/5/6
f 739/3/6 738/3/6 740/3/6
f 733/5/6 739/5/6 741/5/6
f 739/1/6 740/1/6 742/1/6
f 741/5/6 739/5/6 742/5/6
f 740/5/6 736/5/6 743/5/6
f 742/1/6 740/1/6 743/1/6
f 743/5/6 736/5/6 744/5/6
f 745/5/6 746/5/6 749/5/6
f 747/5/6 748/5/6 750/5/6
f 749/5/6 746/5/6 751/5/6
f 751/5/6 746/5/6 752/5/6
f 747/5/6 750/5/6 753/5/6
f 753/5/6 750/5/6 754/5/6
f 755/5/6 756/5/6 759/5/6
f 759/5/6 756/5/6 760/5/6
f 757/5/6 758/5/6 761/5/6
f 761/5/6 758/5/6 762/5/6
